<?xml version="1.0" encoding="UTF-8"?>
<svg version="1.1" xmlns="http://www.w3.org/2000/svg" width="512" height="512">
<path d="M0 0 C1.08279739 -0.00101212 1.08279739 -0.00101212 2.18746948 -0.00204468 C12.62386462 0.0134941 22.50931645 0.34305965 32.625 3.25 C33.85089844 3.5903125 35.07679688 3.930625 36.33984375 4.28125 C56.67452686 10.49287663 74.48899099 21.45946338 89.625 36.25 C90.41519531 36.97832031 91.20539063 37.70664062 92.01953125 38.45703125 C101.37232835 47.2856786 109.29156382 58.54245717 114.625 70.25 C114.625 70.91 114.625 71.57 114.625 72.25 C115.8625 71.96125 117.1 71.6725 118.375 71.375 C149.48314463 64.54148734 180.41778633 68.08748496 207.625 85.25 C232.61190367 101.91497038 248.91575218 126.60107907 255.18920898 155.88354492 C256.69503299 163.91616855 256.97339862 171.77862875 256.9375 179.9375 C256.93476578 180.92487152 256.93476578 180.92487152 256.93197632 181.93218994 C256.75553596 219.85364889 240.51149886 254.90631412 214.625 282.25 C213.80515625 283.13429688 212.9853125 284.01859375 212.140625 284.9296875 C193.28842111 304.61852766 167.07105282 319.6342311 139.625 322.25 C137.29181274 322.27610891 134.95811767 322.28172348 132.625 322.25 C132.57601563 323.14460938 132.52703125 324.03921875 132.4765625 324.9609375 C131.16800169 346.12352445 131.16800169 346.12352445 125.625 352.25 C120.02911518 356.39509986 114.42902925 357.04380341 107.625 356.25 C104 355.25 104 355.25 101.625 354.25 C101.37492187 355.095625 101.12484375 355.94125 100.8671875 356.8125 C96.35701159 369.29348994 87.51275809 379.637377 78.625 389.25 C77.95210938 389.9821875 77.27921875 390.714375 76.5859375 391.46875 C72.64140374 395.57538789 68.26419385 398.96038981 63.625 402.25 C63.97433594 402.92546875 64.32367188 403.6009375 64.68359375 404.296875 C65.13863281 405.18890625 65.59367187 406.0809375 66.0625 407 C66.51496094 407.88171875 66.96742188 408.7634375 67.43359375 409.671875 C71.78631241 419.09087275 71.23235677 433.93932653 68.0625 443.625 C64.84667781 450.72004826 59.58257902 455.66135901 52.37890625 458.60546875 C46.57417836 459.96402208 40.5411619 459.53060847 34.625 459.25 C35.02332031 460.23097656 35.42164063 461.21195312 35.83203125 462.22265625 C40.65537588 474.37827492 43.78826785 486.22405323 44.125 499.375 C44.17116455 500.4412561 44.17116455 500.4412561 44.21826172 501.52905273 C44.219186 505.39301106 43.72560612 507.11919479 41.34765625 510.2109375 C37.290584 513.24937611 35.58352601 512.8796541 30.625 512.25 C27.38886646 510.50746655 26.80104685 509.77814056 25.625 506.25 C25.45903545 504.86175947 25.33146424 503.46869209 25.23046875 502.07421875 C23.84630393 484.85074665 20.31068849 470.77853273 10.625 456.25 C10.62286247 457.19174324 10.62286247 457.19174324 10.62068176 458.1525116 C10.60098672 464.69041566 10.54671695 471.22738583 10.47241211 477.76489258 C10.44922311 480.20427753 10.43483432 482.64376274 10.42944336 485.08325195 C10.42016094 488.59129375 10.37918218 492.09775672 10.33203125 495.60546875 C10.3359639 496.69522507 10.33989655 497.78498138 10.34394836 498.90776062 C10.19794741 506.49415883 10.19794741 506.49415883 7.2097168 510.4362793 C4.72225871 512.18175262 3.6105302 512.93519214 0.625 512.875 C-0.014375 512.88789062 -0.65375 512.90078125 -1.3125 512.9140625 C-4.81893958 511.78509521 -6.14233267 510.19536959 -8.375 507.25 C-9.13840411 503.37606432 -9.09624507 499.54418967 -9.08203125 495.60546875 C-9.09715256 494.4805452 -9.11227386 493.35562164 -9.12785339 492.1966095 C-9.17077886 488.61003652 -9.17957363 485.02430442 -9.1875 481.4375 C-9.21064035 479.00323278 -9.2360047 476.56898561 -9.26367188 474.13476562 C-9.32657229 468.17316915 -9.36146794 462.21190192 -9.375 456.25 C-10.66305644 458.46249074 -11.94613259 460.67763224 -13.2265625 462.89453125 C-13.7690564 463.82465027 -13.7690564 463.82465027 -14.32250977 464.77355957 C-21.32073408 476.92270041 -23.44766875 489.19788749 -23.93359375 503.0859375 C-24.41468074 506.53443713 -25.3161141 508.46772176 -27.375 511.25 C-30.53296107 512.82898053 -33.98170636 513.06928171 -37.375 512.25 C-40.9332592 509.5838545 -42.22604612 508.09653911 -43.00390625 503.67578125 C-43.01414185 502.30454703 -42.9900931 500.93276348 -42.9375 499.5625 C-42.91369263 498.45406738 -42.91369263 498.45406738 -42.8894043 497.32324219 C-42.35943722 484.03910696 -38.61099504 471.39579177 -33.375 459.25 C-34.35339844 459.29640625 -35.33179688 459.3428125 -36.33984375 459.390625 C-45.796881 459.65099574 -52.74278898 459.16164486 -60.1875 452.875 C-67.22635881 444.42836943 -68.72568078 437.56561743 -68.6875 426.875 C-68.70361328 425.98039062 -68.71972656 425.08578125 -68.73632812 424.1640625 C-68.74227615 415.97958412 -67.00741447 409.08832612 -62.375 402.25 C-63.07625 401.693125 -63.7775 401.13625 -64.5 400.5625 C-80.03021563 388.07080482 -91.47492565 374.07164646 -100.375 356.25 C-100.375 355.59 -100.375 354.93 -100.375 354.25 C-101.15875 354.58 -101.9425 354.91 -102.75 355.25 C-108.849556 356.93263614 -114.7708379 357.27772332 -120.6875 354.75 C-125.14252563 352.11298483 -127.65646242 349.14817998 -129.375 344.25 C-130.84219654 337.0634373 -131.53397376 329.57724503 -131.375 322.25 C-132.21160156 322.22421875 -133.04820312 322.1984375 -133.91015625 322.171875 C-163.53132762 320.72853996 -188.28720583 306.21399322 -209.375 286.25 C-210.25929687 285.43015625 -211.14359375 284.6103125 -212.0546875 283.765625 C-230.92743833 265.69483242 -244.32875604 241.29217413 -251.375 216.25 C-251.57399902 215.55148926 -251.77299805 214.85297852 -251.97802734 214.13330078 C-257.46544486 193.95883948 -258.10068824 169.44058485 -252.375 149.25 C-252.04628906 148.03441406 -251.71757812 146.81882813 -251.37890625 145.56640625 C-243.44944321 119.19888383 -225.52142718 95.60458836 -201.34960938 82.12011719 C-191.45042306 76.91075157 -181.1799878 73.09220659 -170.375 70.25 C-169.44300781 70.00378906 -168.51101562 69.75757812 -167.55078125 69.50390625 C-149.65770213 65.71632016 -130.94482723 68.15037365 -113.375 72.25 C-113.13523438 71.41597656 -112.89546875 70.58195312 -112.6484375 69.72265625 C-108.24813626 57.72306177 -99.69981111 47.64456013 -90.79931641 38.69775391 C-89.47549515 37.35214882 -88.1946828 35.96459891 -86.91796875 34.57421875 C-65.00122671 11.20362981 -31.30850988 0.02609964 0 0 Z M-78.92724609 51.94335938 C-91.10373286 66.06218124 -99.72105735 81.98331611 -105.125 99.8125 C-105.42313599 100.78364746 -105.42313599 100.78364746 -105.72729492 101.77441406 C-109.02392044 113.23135351 -109.78678043 124.81737293 -109.75 136.6875 C-109.74912384 137.38420807 -109.74824768 138.08091614 -109.74734497 138.79873657 C-109.69592802 151.2745538 -108.57418887 163.16055609 -105.375 175.25 C-105.03686279 176.53293945 -105.03686279 176.53293945 -104.69189453 177.84179688 C-99.40867395 197.02351016 -90.40975444 216.1059853 -77.375 231.25 C-76.62476563 232.12527344 -75.87453125 233.00054687 -75.1015625 233.90234375 C-72.90328423 236.39697694 -70.6574227 238.83235298 -68.375 241.25 C-67.40626953 242.29800781 -67.40626953 242.29800781 -66.41796875 243.3671875 C-49.45785198 261.12177003 -25.86394373 272.08739358 -1.375 273.25 C26.96988081 273.45371064 49.78081021 260.35921979 69.625 241.25 C70.25792969 240.68023437 70.89085937 240.11046875 71.54296875 239.5234375 C89.29842134 223.07539354 100.55755587 198.27072441 106.625 175.25 C106.95733643 173.99413086 106.95733643 173.99413086 107.29638672 172.71289062 C115.8439528 138.62742404 111.58971177 100.59853171 93.625 70.25 C77.23613504 44.30539085 53.14012521 26.60801173 23.15478516 19.67919922 C-14.05634331 12.09877818 -53.19468421 23.87147369 -78.92724609 51.94335938 Z M-215.86328125 117.078125 C-234.5381015 139.62195947 -238.96395006 165.65684362 -237.375 194.25 C-236.69932601 200.76202465 -235.28526404 206.99594883 -233.375 213.25 C-233.17132813 213.92208496 -232.96765625 214.59416992 -232.7578125 215.28662109 C-227.79655863 231.01639898 -219.76890587 246.45897561 -209.375 259.25 C-208.76253418 260.01836182 -208.76253418 260.01836182 -208.13769531 260.80224609 C-190.31426349 283.08483896 -166.2623822 300.38147698 -137.375 304.25 C-117.13993055 305.46729708 -98.68846663 301.54210749 -83.10913086 287.90991211 C-72.97360218 278.79821959 -72.97360218 278.79821959 -66.375 267.25 C-67.80779297 265.94289063 -67.80779297 265.94289063 -69.26953125 264.609375 C-100.28621668 236.13477666 -124.23032951 198.51161528 -126.48143005 155.20237732 C-126.53812199 153.06413459 -126.56573104 150.92801935 -126.578125 148.7890625 C-126.58382507 147.9996225 -126.58952515 147.2101825 -126.59539795 146.39682007 C-126.60478961 144.73119418 -126.61135852 143.0655502 -126.61523438 141.39990234 C-126.62484147 138.91598728 -126.65587916 136.43293691 -126.6875 133.94921875 C-126.77795307 120.26122107 -125.14226998 107.415169 -121.375 94.25 C-121.20571457 91.45755955 -121.20571457 91.45755955 -121.375 89.25 C-154.90371371 79.78306907 -192.7687789 90.82942845 -215.86328125 117.078125 Z M122.625 89.25 C123.07535433 93.41222214 123.62088069 97.43590832 124.59765625 101.5078125 C127.442478 113.84611509 128.04134176 125.89494033 128.0625 138.5 C128.06831085 139.29376038 128.0741217 140.08752075 128.08010864 140.90533447 C128.1569882 156.14085683 126.29288152 170.97330833 122 185.625 C121.74839111 186.48947754 121.49678223 187.35395508 121.23754883 188.24462891 C111.56477553 220.02618669 92.17859238 245.48171914 67.625 267.25 C77.09613064 284.65640227 93.15270389 296.68494097 111.90625 302.55859375 C133.71702462 308.10529937 155.53849114 302.22757186 174.71875 291.5234375 C181.08893323 287.60470119 186.91079663 283.06293878 192.625 278.25 C193.38683594 277.62351562 194.14867187 276.99703125 194.93359375 276.3515625 C200.9527861 271.23994335 205.80626262 265.48753976 210.625 259.25 C211.59373047 258.05697266 211.59373047 258.05697266 212.58203125 256.83984375 C223.47085949 242.84625797 230.94921121 226.27086079 235.625 209.25 C235.96273437 208.1053125 236.30046875 206.960625 236.6484375 205.78125 C242.83289438 181.04342249 239.62419328 152.45035285 226.54052734 130.42431641 C212.76439826 108.58265024 192.33104721 94.03530086 167.1875 87.9375 C152.37331641 84.66566547 137.20984551 85.13192597 122.625 89.25 Z M-51.375 277.25 C-51.97634766 278.15878906 -51.97634766 278.15878906 -52.58984375 279.0859375 C-59.07528273 288.64497454 -66.45204536 296.90740518 -75.375 304.25 C-74.8752235 308.3434075 -73.37614854 311.36001317 -71.44042969 314.921875 C-64.5930699 327.53761668 -64.5930699 327.53761668 -66.375 334.25 C-67.80133333 338.84229865 -69.56206142 342.10852249 -73.75 344.625 C-76.93099482 346.05096319 -80.06416615 347.17747636 -83.375 348.25 C-74.70470744 368.22459806 -58.40940346 386.20841051 -38.375 395.25 C-36.9084472 395.70909479 -35.4285052 396.12791314 -33.9375 396.5 C-30.6262866 397.41586754 -27.63163395 398.56405828 -24.5703125 400.1015625 C-23.90829834 400.4325293 -23.24628418 400.76349609 -22.56420898 401.10449219 C-21.24656941 401.77624892 -19.93825194 402.46666696 -18.64086914 403.17675781 C-16.58614062 404.28066722 -16.58614062 404.28066722 -13.375 405.25 C-10.569871 404.4219496 -10.569871 404.4219496 -8.375 402.25 C-7.88447776 399.57090584 -7.73948169 397.51957812 -7.80737305 394.84106445 C-7.80664291 394.08960144 -7.80591278 393.33813843 -7.80516052 392.56390381 C-7.80864453 390.07962899 -7.84754047 387.59722849 -7.88671875 385.11328125 C-7.89604407 383.39122034 -7.90316151 381.66914617 -7.90815735 379.94706726 C-7.92724949 375.41424951 -7.97636881 370.8822327 -8.03167725 366.34973145 C-8.0828223 361.72480098 -8.10566121 357.09974111 -8.13085938 352.47460938 C-8.18448586 343.39938765 -8.26982507 334.32476042 -8.375 325.25 C-9.27138184 325.12665283 -10.16776367 325.00330566 -11.09130859 324.8762207 C-12.26516113 324.70695068 -13.43901367 324.53768066 -14.6484375 324.36328125 C-15.81294434 324.19868408 -16.97745117 324.03408691 -18.17724609 323.86450195 C-23.28528939 322.88290591 -25.79862436 321.09816454 -29.1875 317.125 C-32.63454836 308.77951449 -31.00014316 300.99670731 -29.06640625 292.47265625 C-28.27011405 289.31045664 -28.27011405 289.31045664 -28.375 286.25 C-29.98568359 285.65251953 -29.98568359 285.65251953 -31.62890625 285.04296875 C-33.06513758 284.50790218 -34.50133362 283.97274086 -35.9375 283.4375 C-36.64197266 283.17646484 -37.34644531 282.91542969 -38.07226562 282.64648438 C-42.5656787 280.96921959 -46.98089494 279.17278185 -51.375 277.25 Z M42.8125 281.125 C38.46169172 283.05558374 34.16589192 284.81749811 29.625 286.25 C29.9360685 288.31271639 30.24891516 290.37516466 30.5625 292.4375 C30.73652344 293.58605469 30.91054688 294.73460937 31.08984375 295.91796875 C31.41475642 297.94096518 31.76782848 299.96006157 32.171875 301.96875 C33.34148647 307.85713879 32.7784894 312.27777828 29.86328125 317.45703125 C27.75777274 320.5057013 26.0226263 321.70020555 22.625 323.25 C18.335 323.91 14.045 324.57 9.625 325.25 C9.625 350.66 9.625 376.07 9.625 402.25 C14.87345737 405.63392706 14.87345737 405.63392706 17.9074707 404.81201172 C18.61476318 404.43834473 19.32205566 404.06467773 20.05078125 403.6796875 C21.24670898 403.07640625 21.24670898 403.07640625 22.46679688 402.4609375 C23.28212891 402.02007812 24.09746094 401.57921875 24.9375 401.125 C26.55595887 400.28397245 28.1770517 399.44799361 29.80078125 398.6171875 C30.5985498 398.20831299 31.39631836 397.79943848 32.21826172 397.37817383 C35.28295294 395.94158039 38.41210709 394.94068952 41.63549805 393.92578125 C58.78698906 388.0998729 74.41051175 369.06820097 82.3125 353.375 C83.10056825 351.67454852 83.87874802 349.96921342 84.625 348.25 C83.96113281 348.01925781 83.29726563 347.78851563 82.61328125 347.55078125 C76.28305467 345.21275596 71.83195037 343.03334349 68.3125 337 C65.70761657 326.58046629 69.83007744 319.8830535 74.70996094 310.93505859 C75.72721397 309.06177139 76.68948288 307.16534821 77.625 305.25 C76.76777344 304.4765625 75.91054688 303.703125 75.02734375 302.90625 C67.62036611 296.17824531 60.5232494 289.57286162 54.875 281.25 C54.1325 280.26 53.39 279.27 52.625 278.25 C48.88119171 278.25 46.15741422 279.61891297 42.8125 281.125 Z M-10.375 290.25 C-12.71441919 297.65320267 -12.71441919 297.65320267 -13.375 307.25 C-4.135 307.25 5.105 307.25 14.625 307.25 C13.96441919 297.65320267 13.96441919 297.65320267 11.625 290.25 C4.365 290.25 -2.895 290.25 -10.375 290.25 Z M-102.6640625 317.9609375 C-106.21565478 319.1946485 -109.75202848 320.25344999 -113.375 321.25 C-113.26056397 323.3339403 -113.13304453 325.41716493 -113 327.5 C-112.93039063 328.66015625 -112.86078125 329.8203125 -112.7890625 331.015625 C-112.52339601 334.50323517 -112.52339601 334.50323517 -110.375 338.25 C-101.795 335.61 -93.215 332.97 -84.375 330.25 C-85.26886237 325.78068814 -86.24740511 323.30511438 -88.4375 319.4375 C-88.98535156 318.46167969 -89.53320312 317.48585938 -90.09765625 316.48046875 C-90.72994141 315.37638672 -90.72994141 315.37638672 -91.375 314.25 C-94.98867286 314.25 -99.30027567 316.73448217 -102.6640625 317.9609375 Z M92.625 315.25 C91.45039808 317.18269959 90.28555528 319.12133313 89.125 321.0625 C88.15046875 322.68091797 88.15046875 322.68091797 87.15625 324.33203125 C85.39266436 327.14351824 85.39266436 327.14351824 85.625 330.25 C98.99 334.21 98.99 334.21 112.625 338.25 C114.05879996 329.78317408 114.05879996 329.78317408 114.625 321.25 C112.08486091 320.4324493 109.54306769 319.62084814 107 318.8125 C106.28714844 318.58240234 105.57429688 318.35230469 104.83984375 318.11523438 C100.78324149 316.83126394 96.85560375 315.83054026 92.625 315.25 Z M-49.375 416.25 C-50.58530349 419.88091047 -50.67450617 423.27751364 -50.75 427.0625 C-50.78738281 427.76181641 -50.82476562 428.46113281 -50.86328125 429.18164062 C-50.92815908 433.03466288 -50.53988318 435.60845337 -48.2265625 438.76171875 C-45.62805814 441.43007795 -45.62805814 441.43007795 -42.5546875 441.875 C-38.38000491 441.05442357 -35.16672503 439.35339265 -31.5 437.25 C-30.81164062 436.8684375 -30.12328125 436.486875 -29.4140625 436.09375 C-27.72807255 435.15708892 -26.05063186 434.20506752 -24.375 433.25 C-24.375 428.96 -24.375 424.67 -24.375 420.25 C-26.95358967 418.90673469 -29.53717421 417.57525335 -32.125 416.25 C-32.85460937 415.8684375 -33.58421875 415.486875 -34.3359375 415.09375 C-35.04492188 414.7328125 -35.75390625 414.371875 -36.484375 414 C-37.13374023 413.66484375 -37.78310547 413.3296875 -38.45214844 412.984375 C-43.4407306 411.07913692 -45.82157652 412.88865347 -49.375 416.25 Z M37.734375 414 C37.02539062 414.3609375 36.31640625 414.721875 35.5859375 415.09375 C34.85632813 415.4753125 34.12671875 415.856875 33.375 416.25 C32.62992187 416.6315625 31.88484375 417.013125 31.1171875 417.40625 C29.28275693 418.34698363 27.45337243 419.29754552 25.625 420.25 C25.625 424.54 25.625 428.83 25.625 433.25 C27.99214167 434.59921052 30.36710275 435.92914309 32.75 437.25 C33.41515625 437.6315625 34.0803125 438.013125 34.765625 438.40625 C38.8531468 440.65037961 41.83511576 441.90605189 46.625 441.25 C49.47280619 439.01793569 50.47497666 437.70007001 51.625 434.25 C51.77175735 431.79463658 51.84600698 429.33457448 51.875 426.875 C51.90078125 425.56789063 51.9265625 424.26078125 51.953125 422.9140625 C51.6088844 419.07004252 50.97126005 417.26505381 48.625 414.25 C44.50902472 411.50601648 41.92752125 411.83579548 37.734375 414 Z M-5.3125 421.3125 C-7.72217255 424.14624729 -7.72217255 424.14624729 -7.375 427.875 C-6.28435343 431.78171616 -6.28435343 431.78171616 -3.375 434.25 C-1.01037508 435.25635246 -1.01037508 435.25635246 1.625 435.25 C5.11134601 433.62844371 6.46802194 432.48546708 8.625 429.25 C8.45166872 424.35242611 8.45166872 424.35242611 5.9375 420.3125 C1.42535082 418.23935038 -1.24580376 418.45716009 -5.3125 421.3125 Z " fill="#000000" transform="translate(255.375,-0.24999999999999997)"/>
<path d="M0 0 C2.20970402 3.70914604 2.43357791 5.68412636 1.75 9.9375 C0.17360889 12.76648296 -1.1165667 14.54326233 -4.2434082 15.63085938 C-6.71696771 16.15880248 -9.18597036 16.56427577 -11.6875 16.9375 C-28.73038427 19.92027298 -43.19325316 26.496471 -56.25 37.9375 C-57.28253906 38.82695313 -57.28253906 38.82695313 -58.3359375 39.734375 C-73.80698427 54.0435645 -81.80238152 75.31244686 -82.75 96 C-82.79640625 97.81177734 -82.79640625 97.81177734 -82.84375 99.66015625 C-83.28574637 103.22587694 -84.05252438 105.11655456 -86.25 107.9375 C-89.88892246 109.48741142 -92.12880579 110.21779855 -96 109.25 C-98.21582035 107.95743813 -99.61992171 106.90369762 -101.25 104.9375 C-101.65405273 103.03076172 -101.65405273 103.03076172 -101.68359375 100.8671875 C-101.69503418 100.06176514 -101.70647461 99.25634277 -101.71826172 98.42651367 C-101.70811035 97.56388916 -101.69795898 96.70126465 -101.6875 95.8125 C-101.67992676 94.91958252 -101.67235352 94.02666504 -101.66455078 93.10668945 C-101.02668069 66.87253584 -88.69141852 43.0641747 -70.25 24.9375 C-69.48816406 24.17695312 -68.72632813 23.41640625 -67.94140625 22.6328125 C-54.94247043 10.37326569 -18.17194555 -11.53219622 0 0 Z " fill="#000000" transform="translate(263.25,36.0625)"/>
<path d="M0 0 C2.70297813 2.95638233 3 4.48855605 3 8.5 C1.45307151 13.91424971 -1.59226716 16.10663108 -6.25 19.0625 C-20.12132732 28.72397034 -26.26663471 47.9625104 -29.1875 63.8125 C-30.14402495 69.99692855 -30.36928194 76.18630409 -30.55859375 82.43359375 C-31.13941119 87.12639308 -32.70009017 89.70009017 -36 93 C-42.89210914 93.79089777 -42.89210914 93.79089777 -46.73046875 91.05078125 C-49.84123664 86.86918104 -49.68467552 83.82712649 -49.5 78.75 C-49.4808252 77.86393066 -49.46165039 76.97786133 -49.44189453 76.06494141 C-48.52031309 48.22321888 -38.86982009 24.52283329 -18.98828125 5.02734375 C-13.18918412 -0.27654958 -7.80725228 -3.60334721 0 0 Z " fill="#000000" transform="translate(83,112)"/>
<path d="M0 0 C1.97419922 -0.05607422 1.97419922 -0.05607422 3.98828125 -0.11328125 C8.20947352 0.37257932 9.7916678 1.25910845 12.6875 4.3125 C13.83638518 8.26179279 14.11879396 10.34208859 12.4375 14.125 C10.6875 16.3125 10.6875 16.3125 7.6875 18.3125 C4.2890625 18.6484375 4.2890625 18.6484375 0.3125 18.6875 C-0.99460937 18.71585937 -2.30171875 18.74421875 -3.6484375 18.7734375 C-7.83831229 18.24635304 -9.44385161 17.36345502 -12.3125 14.3125 C-13.46146404 11.64923312 -13.62081044 9.19006415 -13.3125 6.3125 C-9.68051747 0.42618349 -6.51355522 0.09313949 0 0 Z " fill="#000000" transform="translate(439.3125,340.6875)"/>
<path d="M0 0 C1.97419922 -0.05607422 1.97419922 -0.05607422 3.98828125 -0.11328125 C8.20947352 0.37257932 9.7916678 1.25910845 12.6875 4.3125 C13.83638518 8.26179279 14.11879396 10.34208859 12.4375 14.125 C10.6875 16.3125 10.6875 16.3125 7.6875 18.3125 C4.2890625 18.6484375 4.2890625 18.6484375 0.3125 18.6875 C-0.99460937 18.71585937 -2.30171875 18.74421875 -3.6484375 18.7734375 C-7.83831229 18.24635304 -9.44385161 17.36345502 -12.3125 14.3125 C-13.46146404 11.64923312 -13.62081044 9.19006415 -13.3125 6.3125 C-9.68051747 0.42618349 -6.51355522 0.09313949 0 0 Z " fill="#000000" transform="translate(72.3125,340.6875)"/>
<path d="M0 0 C5.06592466 1.32876712 5.06592466 1.32876712 6.8125 4 C7.91361689 7.30335066 8.01476528 9.89832137 8.0625 13.375 C8.08828125 14.49648438 8.1140625 15.61796875 8.140625 16.7734375 C7.77931194 20.32634924 6.90758087 22.14493881 4.8125 25 C2.1384797 27.10101595 0.76965315 26.99846976 -2.6875 26.875 C-6.67107469 25.87910633 -7.77941115 25.27107349 -10.1875 22 C-10.64278489 19.02290986 -10.83785896 16.53203375 -10.8125 13.5625 C-10.84472656 12.81162109 -10.87695312 12.06074219 -10.91015625 11.28710938 C-10.91565872 8.15895365 -10.8663268 5.90806025 -8.95483398 3.35107422 C-6.11706922 0.80439675 -3.81459019 -0.73093944 0 0 Z " fill="#000000" transform="translate(462.1875,315)"/>
<path d="M0 0 C2.1796875 1.52734375 2.1796875 1.52734375 4 4 C4.45528489 6.97709014 4.65035896 9.46796625 4.625 12.4375 C4.65722656 13.18837891 4.68945312 13.93925781 4.72265625 14.71289062 C4.72815872 17.84104635 4.6788268 20.09193975 2.76733398 22.64892578 C0.59595857 24.59756963 -1.33188678 25.88767273 -4.23046875 26.375 C-7.11074902 25.82309001 -9.52366467 25.33804443 -11.9375 23.625 C-14.24726915 20.09241189 -14.19371041 16.72475835 -14.25 12.625 C-14.27578125 11.50351562 -14.3015625 10.38203125 -14.328125 9.2265625 C-13.96681194 5.67365076 -13.09508087 3.85506119 -11 1 C-7.44544736 -1.79286279 -4.2131487 -1.05328717 0 0 Z " fill="#000000" transform="translate(56,316)"/>
<path d="M0 0 C4.00538252 0.64372219 5.65945826 1.72195826 8.5 4.5625 C9.96230215 7.48710429 9.70908727 10.11902824 9.75 13.375 C9.77578125 14.59832031 9.8015625 15.82164062 9.828125 17.08203125 C9.47873546 20.78805603 8.73569119 22.62679871 6.5 25.5625 C4.21273777 26.70613112 2.67147573 26.82751932 0.125 26.9375 C-1.03128906 27.01097656 -1.03128906 27.01097656 -2.2109375 27.0859375 C-4.5 26.5625 -4.5 26.5625 -6.75390625 24.5390625 C-8.92739131 20.8339269 -9.1280431 17.74183664 -9.0625 13.5625 C-9.08634766 12.86382812 -9.11019531 12.16515625 -9.13476562 11.4453125 C-9.12364147 7.51477744 -8.62238182 5.71914047 -6.18359375 2.59765625 C-3.5 0.5625 -3.5 0.5625 0 0 Z " fill="#000000" transform="translate(460.5,357.4375)"/>
<path d="M0 0 C3.67371973 2.75795191 4.87316248 4.23109675 5.62890625 8.8125 C5.6328572 10.20850325 5.61012202 11.60480366 5.5625 13 C5.57345703 13.69867188 5.58441406 14.39734375 5.59570312 15.1171875 C5.54534152 18.67607404 5.06486078 20.89035783 3.24609375 23.96484375 C0.74351297 26.23239956 -0.18117361 26.65910967 -3.5 26.5625 C-6.78510653 26.38419652 -7.79248819 26.15563386 -10.5 24.125 C-13.16245586 20.35318753 -13.22056947 17.80821882 -13.3125 13.1875 C-13.34988281 11.96417969 -13.38726562 10.74085938 -13.42578125 9.48046875 C-12.92980695 5.4262201 -11.84899719 3.85956861 -9 1 C-5.86128812 -0.56935594 -3.46144178 -0.35201103 0 0 Z " fill="#000000" transform="translate(55,358)"/>
<path d="M0 0 C0.69867188 -0.01933594 1.39734375 -0.03867187 2.1171875 -0.05859375 C6.01389781 -0.02183233 7.85862261 0.51603324 10.96484375 2.91015625 C14.01403627 6.97769713 13.71046028 8.65177804 13 13.625 C11.12984906 16.05619623 9.71861655 17.26569173 7 18.625 C-6.4229401 19.82962283 -6.4229401 19.82962283 -10.875 16.625 C-13.2154607 13.32082018 -13.67542433 11.62151145 -13.69921875 7.6875 C-11.42931237 0.99191023 -6.38960396 -0.17683406 0 0 Z " fill="#000000" transform="translate(482,340.375)"/>
<path d="M0 0 C0.69867188 -0.01933594 1.39734375 -0.03867187 2.1171875 -0.05859375 C6.01492689 -0.02182262 7.85479086 0.51259239 10.95703125 2.9140625 C13.43247679 6.19887934 13.84336685 7.71110011 13.51953125 11.6875 C12.79491802 14.38981699 11.52546075 16.16328206 9.24609375 17.78125 C4.12192396 19.70615552 -1.65274523 19.3754919 -7 18.625 C-11.63513514 16.35472973 -11.63513514 16.35472973 -13 13.625 C-13.69491336 6.56004751 -13.69491336 6.56004751 -10.9765625 2.90234375 C-7.28942142 0.08134211 -4.4655441 -0.12358517 0 0 Z " fill="#000000" transform="translate(30,340.375)"/>
<path d="M0 0 C0.75087891 -0.02384766 1.50175781 -0.04769531 2.27539062 -0.07226562 C6.47428018 -0.06118676 8.1307258 0.22911185 11.5625 2.87890625 C13.5625 5.5625 13.5625 5.5625 14.125 9.0625 C13.47838349 13.08589163 12.46231674 14.74553517 9.5625 17.5625 C6.40240467 18.61586511 4.0071864 18.76282888 0.6875 18.8125 C-0.85550781 18.85117187 -0.85550781 18.85117187 -2.4296875 18.890625 C-6.79907798 18.41396422 -9.3746613 16.6253387 -12.4375 13.5625 C-12.7734375 11.5390625 -12.7734375 11.5390625 -12.8125 9.1875 C-12.84085937 8.41664063 -12.86921875 7.64578125 -12.8984375 6.8515625 C-11.51446561 -0.02138263 -5.96625843 -0.08661519 0 0 Z " fill="#000000" transform="translate(413.4375,400.4375)"/>
<path d="M0 0 C0.75474609 -0.01095703 1.50949219 -0.02191406 2.28710938 -0.03320312 C5.80339529 0.01326761 8.02890857 0.27539898 10.93359375 2.31640625 C13.38240761 5.97372565 13.22503953 9.32070293 12.4375 13.5625 C10.23918636 16.59465675 8.98786806 17.37904398 5.4375 18.5625 C3.48274991 18.7072963 1.5223862 18.78317502 -0.4375 18.8125 C-1.98050781 18.85117187 -1.98050781 18.85117187 -3.5546875 18.890625 C-7.0017797 18.51457858 -8.79842829 17.62351514 -11.5625 15.5625 C-14.06281654 11.81202518 -14.09853554 10.00393734 -13.5625 5.5625 C-9.56812586 0.16617886 -6.26729725 -0.19904721 0 0 Z " fill="#000000" transform="translate(98.5625,400.4375)"/>
<path d="M0 0 C3.29496541 2.30647579 4.2584345 4.15356214 5 8 C5.73343538 18.48983162 5.73343538 18.48983162 3 23 C0.54588411 25.63590225 -0.82297499 25.97746954 -4.4375 26.4375 C-8.73815818 25.909349 -10.08940519 25.19083789 -13 22 C-13.71593335 18.98341844 -13.65370636 16.0862261 -13.5625 13 C-13.57345703 12.19304687 -13.58441406 11.38609375 -13.59570312 10.5546875 C-13.54887603 6.77105801 -13.43773317 4.63173962 -11.24609375 1.46875 C-7.57221171 -0.93364938 -4.23374506 -0.77826196 0 0 Z " fill="#000000" transform="translate(397,418)"/>
<path d="M0 0 C0.76183594 -0.01933594 1.52367188 -0.03867187 2.30859375 -0.05859375 C5.60030941 0.66592599 6.64263218 1.65626291 8.5625 4.4375 C9.16893197 7.45006103 9.16661051 10.37300805 9.125 13.4375 C9.14884766 14.24445313 9.17269531 15.05140625 9.19726562 15.8828125 C9.18694746 20.05135251 9.14308037 21.80307154 6.24609375 24.96875 C2.70467786 26.90699217 0.54664641 27.00666377 -3.4375 26.4375 C-8.02890287 23.64273303 -8.02890287 23.64273303 -9.05859375 20.60546875 C-10.05038401 14.9307925 -10.37849827 8.54554963 -7.4375 3.4375 C-5.13008919 0.58798665 -3.64916929 0.00615374 0 0 Z " fill="#000000" transform="translate(119.4375,417.5625)"/>
<path d="M0 0 C0.75474609 -0.01095703 1.50949219 -0.02191406 2.28710938 -0.03320312 C5.80339529 0.01326761 8.02890857 0.27539898 10.93359375 2.31640625 C13.38240761 5.97372565 13.22503953 9.32070293 12.4375 13.5625 C10.23918636 16.59465675 8.98786806 17.37904398 5.4375 18.5625 C3.64870198 18.6815686 1.8552144 18.73772113 0.0625 18.75 C-1.34128906 18.77126953 -1.34128906 18.77126953 -2.7734375 18.79296875 C-6.65118308 18.47253879 -9.51300596 17.53961514 -12.375 14.875 C-14.09812029 11.51944997 -14.08458089 9.28232635 -13.5625 5.5625 C-9.55805674 0.1709991 -6.27224692 -0.19920441 0 0 Z " fill="#000000" transform="translate(371.5625,400.4375)"/>
<path d="M0 0 C0.75087891 -0.02384766 1.50175781 -0.04769531 2.27539062 -0.07226562 C6.47428018 -0.06118676 8.1307258 0.22911185 11.5625 2.87890625 C13.5625 5.5625 13.5625 5.5625 14.125 9.0625 C13.47499932 13.10694865 12.52244621 14.76699524 9.5625 17.5625 C3.93183413 19.49231607 -3.09809844 19.61284356 -8.5 17.1875 C-12.37528035 13.93726487 -12.37528035 13.93726487 -12.7734375 11.5390625 C-12.78632812 10.76304687 -12.79921875 9.98703125 -12.8125 9.1875 C-12.84085937 8.41664063 -12.86921875 7.64578125 -12.8984375 6.8515625 C-11.51446561 -0.02138263 -5.96625843 -0.08661519 0 0 Z " fill="#000000" transform="translate(140.4375,400.4375)"/>
<path d="M0 0 C4.36301349 0.77910955 5.78467759 2.19091578 8.5 5.625 C10.2145978 10.76879341 10.13046398 16.34563021 8.6875 21.5625 C6.87067179 24.71804373 5.62127773 26.24140499 2.125 27.4375 C-1.63339365 27.70595669 -4.00796293 26.59806766 -7.1171875 24.5703125 C-9.35512024 21.42203424 -9.01257077 17.97094729 -9 14.25 C-9.02835937 13.49460937 -9.05671875 12.73921875 -9.0859375 11.9609375 C-9.1006984 7.73931981 -8.85001026 6.07906736 -6.1875 2.625 C-3.5 0.625 -3.5 0.625 0 0 Z " fill="#000000" transform="translate(392.5,374.375)"/>
<path d="M0 0 C2.69495185 1.99481197 4.66042 3.57666549 5.46289062 6.94018555 C5.63687439 9.16845697 5.63343774 11.32891977 5.5625 13.5625 C5.57345703 14.31724609 5.58441406 15.07199219 5.59570312 15.84960938 C5.54818299 19.44529935 5.32113517 21.57826024 3.1171875 24.47265625 C0.61412224 26.27837307 -0.91642016 26.84958147 -4 27 C-7.4204165 26.02273814 -9.81577609 24.83949108 -12 22 C-13.80564587 16.23196457 -13.79987344 10.13299583 -11.6875 4.5 C-8.48295123 -0.24747966 -5.46621773 -0.65971593 0 0 Z " fill="#000000" transform="translate(123,375)"/>
</svg>
