<?xml version="1.0" encoding="UTF-8"?>
<svg version="1.1" xmlns="http://www.w3.org/2000/svg" width="512" height="512">
<path d="M0 0 C0.6084375 0.18175781 1.216875 0.36351562 1.84375 0.55078125 C50.96972408 14.63837676 110.93613019 13.40875945 160 0 C161.6485907 4.78536867 163.19161597 9.58486127 164.578125 14.453125 C168.76035062 29.05473192 173.03688035 41.97023525 184 53 C182 55 182 55 178.6875 55.8125 C173.98027174 57.32838707 171.42488279 59.62851676 168.8828125 63.859375 C166.83637641 68.82152976 167.48638939 74.36853102 169.0625 79.375 C172.1663165 83.58017074 175.3834618 85.59427098 180.46875 86.3828125 C186.12844695 86.6385217 189.66799358 85.91943438 194 82 C198.66808226 76.8272602 198.69980798 71.64456908 199 65 C205.09798123 68.98983741 211.02852773 73.15121978 216.875 77.5 C218.54943788 78.7396391 220.22391825 79.97922081 221.8984375 81.21875 C222.7450293 81.84652344 223.59162109 82.47429687 224.46386719 83.12109375 C228.46985718 86.0889508 232.48514857 89.04414804 236.5 92 C241.43930487 95.63818445 246.37734554 99.27806197 251.3125 102.921875 C252.18068359 103.56253906 253.04886719 104.20320313 253.94335938 104.86328125 C255.61174074 106.09449316 257.27972791 107.32623946 258.94726562 108.55859375 C259.69685547 109.11160156 260.44644531 109.66460937 261.21875 110.234375 C261.87810547 110.72131836 262.53746094 111.20826172 263.21679688 111.70996094 C264.78467986 112.84422897 266.38985454 113.92656969 268 115 C267.54732581 122.82714823 265.31900072 129.30542637 262.4375 136.5625 C261.98640869 137.71347168 261.53531738 138.86444336 261.07055664 140.05029297 C257.5177075 148.98227486 253.58920609 157.56062296 249 166 C248.66178223 166.64018066 248.32356445 167.28036133 247.97509766 167.93994141 C239.5040838 183.97140411 229.0686506 198.48950086 217 212 C216.52062988 212.54108398 216.04125977 213.08216797 215.54736328 213.63964844 C189.42638185 243.0074515 154.78547403 268.09390714 116.625 278.875 C115.94904785 279.06610352 115.2730957 279.25720703 114.57666016 279.45410156 C77.98879006 289.11617509 40.66228508 281.78835642 8 264 C7.09991211 263.51877686 7.09991211 263.51877686 6.18164062 263.02783203 C-10.33285593 254.16277104 -24.8576516 242.72506591 -38.671875 230.10546875 C-40.72429983 228.24933287 -42.81845709 226.46629008 -44.9375 224.6875 C-73.37228871 199.72175551 -93.62873386 163.2932488 -105.625 127.875 C-105.8727417 127.14748535 -106.1204834 126.4199707 -106.37573242 125.67041016 C-108.74630233 118.33272414 -108.74630233 118.33272414 -108 115 C-106.07515537 113.24471754 -104.35643964 111.95301922 -102.1875 110.5625 C-100.89183937 109.68564385 -99.59764545 108.80661774 -98.3046875 107.92578125 C-97.60698242 107.4560791 -96.90927734 106.98637695 -96.19042969 106.50244141 C-92.32505816 103.85113775 -88.5753462 101.04396267 -84.8125 98.25 C-83.18379546 97.04660196 -81.55488685 95.84348006 -79.92578125 94.640625 C-79.11061035 94.03798828 -78.29543945 93.43535156 -77.45556641 92.81445312 C-74.2601498 90.45331411 -71.06154444 88.09652107 -67.86254883 85.74023438 C-66.2879383 84.58038898 -64.7135566 83.42023285 -63.1394043 82.25976562 C-59.10907824 79.2886946 -55.07623879 76.32113242 -51.0390625 73.359375 C-47.06539395 70.44320552 -43.09919222 67.5171785 -39.13916016 64.58251953 C-37.77395302 63.57255917 -36.40664713 62.56542546 -35.03662109 61.56201172 C-14.09029383 46.20434047 -8.51410763 28.81564641 -1.73681641 4.4675293 C-1 2 -1 2 0 0 Z M-24 57 C-28.49109891 61.14938486 -30.79417194 64.53006325 -31.3125 70.75 C-31.24231581 75.52252495 -29.75765893 78.12437123 -27 82 C-22.32380293 86.33403631 -18.56798975 87.36837302 -12.34765625 87.27734375 C-7.20443149 86.66974149 -3.99638148 84.15370487 -0.625 80.25 C2.04335386 74.91329228 2.72361698 70.45790547 0.9375 64.8125 C-1.15965333 60.02572401 -4.209115 57.12669061 -9.109375 55.1484375 C-14.68398373 53.55294604 -19.06798428 53.83977984 -24 57 Z M-1.328125 88.54296875 C-4.12036756 92.83948283 -4.98071043 96.95776152 -4 102 C-2.64679693 105.62542641 -0.77557168 108.33522427 2.1875 110.875 C7.32544406 112.93017762 11.93641651 113.67463306 17.25 111.9375 C21.2584388 109.11337267 24.24859225 106.57230383 25.63671875 101.8203125 C26.43601503 96.71512983 26.05702316 93.33900061 23 89 C19.27775562 85.25747091 16.09661191 83.2015973 10.75 82.6875 C5.62068227 83.11494314 2.06942302 84.59581738 -1.328125 88.54296875 Z M145.1875 88.75 C142.67307368 92.4857191 142 94.50851743 142 99 C142.91300783 103.55634385 144.52176162 106.46482848 147.625 109.9375 C151.83725231 112.51165419 155.07717345 113.41648279 160 113 C164.44833056 111.72904841 167.3222538 109.71163351 170.5 106.375 C172.53445183 101.79748339 172.80210771 97.93296242 172 93 C169.38679161 87.86691209 166.46062759 84.8202092 161 83 C154.05205116 82.4756265 150.16652924 83.88161585 145.1875 88.75 Z M76 93 C73.34178606 95.8737448 71.57997799 98.08514857 71 102 C70.45214844 101.84273437 69.90429688 101.68546875 69.33984375 101.5234375 C64.90526704 100.5313953 60.50239698 100.41302084 56 101 C52.28548281 103.52587169 51.25326421 104.96746132 50.1875 109.3125 C50.0946875 110.6428125 50.0946875 110.6428125 50 112 C49.34 112 48.68 112 48 112 C47.7525 111.401875 47.505 110.80375 47.25 110.1875 C45.23561874 106.66233279 43.09008052 105.3468438 39.25 104.125 C33.77649804 103.91448069 29.67801162 105.53711807 25.5625 109.125 C23.42862978 113.0513212 22.66846491 116.53216992 23 121 C25.13472329 125.35155133 27.79142543 128.56837914 32 131 C35.94997339 131.79594567 39.39449879 131.7678484 43.06640625 130.01171875 C46.29454687 127.83491411 48.73137287 125.80588138 50 122 C49.44359561 125.53659775 48.3768247 126.84683682 45.5625 129 C42.82307519 131.10461029 41.27165181 132.75913981 40 136 C39.44041066 140.87642137 39.4387443 143.72969173 42.25 147.8125 C44.24597908 150.28909727 46.23099774 152.37679178 49 154 C49.66 154 50.32 154 51 154 C50.84144531 154.6909375 50.68289063 155.381875 50.51953125 156.09375 C49.95257814 159.26527715 49.75899316 162.27904485 49.6875 165.5 C49.65011719 166.6034375 49.61273438 167.706875 49.57421875 168.84375 C50.09745225 172.72239832 51.24836777 174.26282468 54 177 C57.13990309 179.16304435 59.33223537 179.15448637 63.0625 178.6875 C63.91972656 178.58824219 64.77695312 178.48898438 65.66015625 178.38671875 C68.14501141 178.03905163 68.14501141 178.03905163 71 177 C71.2475 177.886875 71.495 178.77375 71.75 179.6875 C73.31524096 183.83538855 75.21576525 186.75103567 78.875 189.3125 C81.98965978 190.32018405 83.7156671 190.56844223 87 190 C91.34771667 187.18534014 94.41833021 184.33299328 96.5 179.5625 C96.665 178.716875 96.83 177.87125 97 177 C98.03125 177.33 99.0625 177.66 100.125 178 C105.15515013 179.39670165 108.50096108 179.80717481 113.25 177.25 C115.93903433 175.049881 116.8022096 174.13653952 118 171 C118.27827838 168.34973831 118.27827838 168.34973831 118.1875 165.5625 C118.18105469 164.63566406 118.17460937 163.70882812 118.16796875 162.75390625 C118.10513414 159.98965976 118.10513414 159.98965976 117.21875 157.40625 C117.11046875 156.21515625 117.11046875 156.21515625 117 155 C118.80078125 152.90234375 118.80078125 152.90234375 121.3125 150.9375 C125.53921034 147.63267619 125.53921034 147.63267619 128 143 C128.23578978 138.60645049 127.57698355 134.96163926 125.3125 131.1875 C122.72841388 128.74309421 120.02831028 126.85828131 117 125 C117.33 123.68 117.66 122.36 118 121 C118.37125 121.9075 118.7425 122.815 119.125 123.75 C121.36642947 127.63514442 122.96215971 129.05585468 127 131 C131.74046176 131.83255422 135.05582377 131.47208811 139.375 129.3125 C143.46348821 125.71073658 144.82936247 123.5357378 145.4375 118.0625 C145.25994127 113.7849487 143.81013746 111.26583542 141 108 C137.49072511 105.32186916 134.41793309 104.17671732 130 104 C124.80346604 105.61271744 122.0440842 107.49475539 119 112 C118.38151042 110.30729167 117.76302083 108.61458333 117.14453125 106.921875 C115.47719459 104.12211515 113.77110496 102.71708855 111 101 C107.57824004 100.81543768 107.57824004 100.81543768 104 101.25 C97.5197775 101.46600742 97.5197775 101.46600742 95.1875 99.375 C94 97.25 94 97.25 93.00390625 95.046875 C91.43704717 91.85218956 89.09465686 90.58025031 86 89 C81.17582974 89 79.76546728 90.0974523 76 93 Z " fill="#000000" transform="translate(243,48)"/>
<path d="M0 0 C70.95 0 141.9 0 215 0 C215 20.13 215 40.26 215 61 C211.66997316 64.33002684 210.65539346 64.35315903 206.15656137 64.40123022 C205.35413806 64.39453805 204.55171475 64.38784589 203.72497559 64.38095093 C202.87106657 64.3856309 202.01715755 64.39031087 201.13737249 64.39513266 C198.26525355 64.40713479 195.39360717 64.39760512 192.52148438 64.38818359 C190.46681946 64.39224698 188.41215673 64.39758754 186.35749817 64.40411377 C180.76875542 64.41782089 175.18017832 64.4124747 169.59143257 64.40297651 C163.75117664 64.3953975 157.91093518 64.40242062 152.07067871 64.40713501 C142.26177414 64.41259769 132.45293727 64.40538749 122.64404297 64.39111328 C111.29289688 64.37478582 99.94191242 64.38007396 88.59077024 64.3965925 C78.85654676 64.41019275 69.12237202 64.41213418 59.38814211 64.40427649 C53.5692152 64.39959193 47.75036433 64.39899658 41.93144226 64.40888596 C36.46166581 64.41753209 30.99209838 64.41157681 25.52234459 64.39420319 C23.51113419 64.39022574 21.49990629 64.39139376 19.48870277 64.39799118 C16.75056996 64.40614717 14.01311372 64.39595742 11.27502441 64.38095093 C10.4726011 64.38764309 9.67017779 64.39433526 8.84343863 64.40123022 C4.34460654 64.35315903 3.33002684 64.33002684 0 61 C0 40.87 0 20.74 0 0 Z " fill="#000000" transform="translate(1,401)"/>
<path d="M0 0 C0.72268066 0.32468262 1.44536133 0.64936523 2.18994141 0.98388672 C9.48311222 4.15610525 16.61969817 6.40480294 24.375 8.125 C25.37660156 8.36347656 26.37820313 8.60195313 27.41015625 8.84765625 C45.5986006 12.98647815 63.66730612 14.49997753 82.2956543 14.39111328 C85.56406237 14.37499229 88.83123764 14.39109299 92.09960938 14.41015625 C115.56827645 14.43419603 139.28363681 11.74729037 160.84765625 1.91796875 C163 1 163 1 165 1 C165.14864546 6.03526954 165.25735139 11.06925485 165.32958984 16.10620117 C165.35970978 17.81834159 165.40061592 19.53032837 165.45263672 21.24194336 C165.52567236 23.70725411 165.55950102 26.1705213 165.5859375 28.63671875 C165.61690521 29.39836838 165.64787292 30.16001801 165.67977905 30.94474792 C165.6816087 33.85310008 165.60668998 36.24214345 163.74201965 38.57142639 C152.82200358 47.94750234 135.72781187 49.92081607 122 52 C121.25459961 52.11859375 120.50919922 52.2371875 119.74121094 52.359375 C84.45417213 57.73157484 32.86630777 59.19470059 2 39 C-0.52561648 35.21157527 -0.25391573 32.21466671 -0.1953125 27.83203125 C-0.1924826 27.03721848 -0.18965271 26.2424057 -0.18673706 25.42350769 C-0.17554705 22.88635162 -0.15044491 20.34954928 -0.125 17.8125 C-0.11496866 16.09180198 -0.10584308 14.37109841 -0.09765625 12.65039062 C-0.07561161 8.43345757 -0.04109006 4.21678875 0 0 Z " fill="#000000" transform="translate(244,427)"/>
<path d="M0 0 C0.02578125 1.25296875 0.0515625 2.5059375 0.078125 3.796875 C0.13441169 5.44795123 0.1917589 7.09899155 0.25 8.75 C0.26417969 9.575 0.27835937 10.4 0.29296875 11.25 C0.32519531 12.04921875 0.35742188 12.8484375 0.390625 13.671875 C0.41157227 14.4050293 0.43251953 15.13818359 0.45410156 15.89355469 C1.28828585 19.11240175 2.21758246 20.12456985 5 22 C8.45013353 22.57665276 11.85725495 22.51232439 15.34765625 22.4609375 C16.35589951 22.46002106 17.36414276 22.45910461 18.40293884 22.4581604 C20.53210159 22.45212361 22.66125581 22.43637536 24.7902832 22.41162109 C28.05386544 22.37509663 31.31631278 22.37060189 34.58007812 22.37109375 C36.64844734 22.3612632 38.71680884 22.34960647 40.78515625 22.3359375 C42.25239891 22.33259903 42.25239891 22.33259903 43.74928284 22.32919312 C44.65710007 22.31643341 45.5649173 22.30367371 46.50024414 22.29052734 C47.69793175 22.27909195 47.69793175 22.27909195 48.91981506 22.26742554 C51.3051763 22.11727239 51.3051763 22.11727239 54 20 C54.50702517 17.87893205 54.50702517 17.87893205 54.51171875 15.4296875 C54.56489258 14.08583984 54.56489258 14.08583984 54.61914062 12.71484375 C54.64169922 11.77769531 54.66425781 10.84054687 54.6875 9.875 C54.72166016 8.93011719 54.75582031 7.98523438 54.79101562 7.01171875 C54.87364112 4.67459747 54.94273988 2.33785809 55 0 C95.81786152 2.60549233 95.81786152 2.60549233 108.3125 13.5 C110 16 110 16 110.625 18.5625 C109.72570574 22.0697476 107.94154353 22.94012879 105 25 C102.61688026 26.12146811 100.3367004 27.10004984 97.875 28 C97.18196777 28.25491211 96.48893555 28.50982422 95.77490234 28.77246094 C55.01917506 43.13978334 1.75593106 42.25857439 -38.9375 29 C-39.66509521 28.76313477 -40.39269043 28.52626953 -41.14233398 28.28222656 C-45.89054706 26.63330064 -50.38450534 24.61549466 -54 21 C-54.375 18.1875 -54.375 18.1875 -54 15 C-41.91228463 3.68935204 -16.12930405 -0.50404075 0 0 Z " fill="#000000" transform="translate(299,395)"/>
<path d="M0 0 C0 22.44 0 44.88 0 68 C-11.55 68 -23.1 68 -35 68 C-35 45.89 -35 23.78 -35 1 C-6 0 -6 0 0 0 Z " fill="#000000" transform="translate(344,340)"/>
<path d="M0 0 C18.48 0 36.96 0 56 0 C53.75 10.125 53.75 10.125 52.21240234 14.24438477 C51.87220062 15.16465958 51.5319989 16.08493439 51.18148804 17.03309631 C50.81995636 17.99283859 50.45842468 18.95258087 50.0859375 19.94140625 C49.71143463 20.94968979 49.33693176 21.95797333 48.95108032 22.99681091 C47.76456047 26.18745761 46.56992386 29.37499243 45.375 32.5625 C44.56456402 34.73742901 43.75466275 36.91255735 42.9453125 39.08789062 C40.9697178 44.39425219 38.98684248 49.69784019 37 55 C31.39 55 25.78 55 20 55 C17.39060299 47.97718271 14.78257208 40.95386183 12.17697144 33.92963505 C10.9671501 30.66834536 9.75672135 27.40728376 8.54492188 24.14672852 C7.15315802 20.40186773 5.76400461 16.6560414 4.375 12.91015625 C3.93752441 11.73413345 3.50004883 10.55811066 3.04931641 9.34645081 C2.64890137 8.26540573 2.24848633 7.18436066 1.8359375 6.07055664 C1.48063965 5.11347305 1.1253418 4.15638947 0.75927734 3.17030334 C0 1 0 1 0 0 Z " fill="#000000" transform="translate(80,336)"/>
<path d="M0 0 C0 0.66 0 1.32 0 2 C-2.35152574 2.63654967 -4.70557091 3.25900927 -7.0625 3.875 C-7.69994141 4.04902344 -8.33738281 4.22304688 -8.99414062 4.40234375 C-21.720633 7.69052838 -34.92452657 8.43770197 -48 9.125 C-48.77258148 9.16669312 -49.54516296 9.20838623 -50.34115601 9.25134277 C-131.18937476 13.54041683 -131.18937476 13.54041683 -150 1 C-107.55780782 -15.83618452 -43.45737495 -11.14045413 0 0 Z " fill="#000000" transform="translate(398,38)"/>
<path d="M0 0 C7.16614184 8.75861781 7.19435642 18.93259819 6.25 29.75 C4.8481674 36.35537428 2.65857299 41.58955924 -2.75 45.75 C-6.45602135 46.98534045 -8.84753614 47.20528745 -12.75 46.75 C-18.354579 43.78975264 -21.00780102 39.2263936 -23.03125 33.3828125 C-25.85231659 23.04912292 -25.1872122 11.84892777 -19.88671875 2.37109375 C-17.73687594 -0.69483328 -15.23523777 -2.55688904 -11.875 -4.125 C-7.12949967 -4.40414708 -3.62774972 -2.96815886 0 0 Z " fill="#000000" transform="translate(335.75,166.25)"/>
<path d="M0 0 C2.68737295 0.06219642 5.34393422 -0.01960808 8.02978516 -0.11547852 C15.07792248 -0.16989133 21.26504128 -0.12433851 26.67529297 4.8449707 C30.86971509 9.36849295 34.05306497 14.22600298 36.81494141 19.74975586 C15.03494141 19.74975586 -6.74505859 19.74975586 -29.18505859 19.74975586 C-23.05278183 4.41906395 -16.47260557 -0.47086078 0 0 Z " fill="#000000" transform="translate(173.18505859375,371.250244140625)"/>
<path d="M0 0 C2.93271391 -0.42880412 5.64541725 -0.66048813 8.59375 -0.75 C9.45504517 -0.77658691 10.31634033 -0.80317383 11.20373535 -0.83056641 C13.03274882 -0.87650035 14.86202399 -0.91284784 16.69140625 -0.94042969 C18.55031815 -0.97985723 20.40886312 -1.04781801 22.265625 -1.14550781 C37.16431928 -1.92768926 37.16431928 -1.92768926 41.83447266 1.24707031 C46.78012509 5.99285286 49.4743222 11.68580549 52 18 C30.22 18 8.44 18 -14 18 C-12.02082806 14.04165611 -10.0024505 11.64505977 -7 8.4375 C-4.42555742 5.67970322 -2.09363537 3.14045306 0 0 Z " fill="#000000" transform="translate(21,373)"/>
<path d="M0 0 C8.25 0 16.5 0 25 0 C23.16865693 4.57835767 21.77635014 6.70731464 18.625 10.3125 C14.57492137 15.03125533 10.76575898 19.87980862 7.0625 24.875 C2.71200022 30.73710224 -1.72446391 36.51661489 -6.25292969 42.2421875 C-9.57378785 46.44418984 -12.81425185 50.69493493 -16 55 C-17.32 54.67 -18.64 54.34 -20 54 C-17.63682014 47.43358642 -15.27034289 40.86836799 -12.90161133 34.30395508 C-12.09682157 32.07245578 -11.29277632 29.84068782 -10.48950195 27.60864258 C-9.33221745 24.39332645 -8.17222509 21.17899821 -7.01171875 17.96484375 C-6.65534836 16.97290512 -6.29897797 15.98096649 -5.93180847 14.95896912 C-5.42161919 13.54829918 -5.42161919 13.54829918 -4.90112305 12.10913086 C-4.45811104 10.88002235 -4.45811104 10.88002235 -4.00614929 9.62608337 C-2.7627055 6.38065341 -1.36905904 3.19447108 0 0 Z " fill="#000000" transform="translate(147,336)"/>
<path d="M0 0 C8.25 0 16.5 0 25 0 C27.11372566 5.62523763 29.22737764 11.25030583 31.33203125 16.87890625 C32.91904721 21.12099697 34.51315193 25.3602549 36.11737061 29.59587097 C37.27070041 32.64538312 38.41570721 35.69802475 39.5625 38.75 C40.00384277 39.90927002 40.44518555 41.06854004 40.89990234 42.26293945 C41.30547363 43.34663818 41.71104492 44.43033691 42.12890625 45.546875 C42.67140015 46.98305176 42.67140015 46.98305176 43.22485352 48.44824219 C44 51 44 51 44 55 C40.80737851 54.73759275 39.95448125 53.94921065 37.7734375 51.515625 C36.96373218 50.43466839 36.16488415 49.34552404 35.375 48.25 C34.48725198 47.0570886 33.59922338 45.86438595 32.7109375 44.671875 C32.26073242 44.06021484 31.81052734 43.44855469 31.34667969 42.81835938 C29.27053445 40.01503637 27.13452496 37.25895567 25 34.5 C24.16633583 33.41692124 23.33300345 32.33358701 22.5 31.25 C22.0875 30.71375 21.675 30.1775 21.25 29.625 C20 28 18.75 26.375 17.5 24.75 C17.08669434 24.21286377 16.67338867 23.67572754 16.24755859 23.12231445 C15.4217327 22.04841757 14.59652805 20.97404263 13.77197266 19.89916992 C11.57886592 17.04205126 9.37280766 14.1961486 7.1484375 11.36328125 C6.45234375 10.47189453 6.45234375 10.47189453 5.7421875 9.5625 C4.84766128 8.41750644 3.94936353 7.27544693 3.046875 6.13671875 C0 2.2249244 0 2.2249244 0 0 Z " fill="#000000" transform="translate(45,336)"/>
<path d="M0 0 C5.34036534 4.4179386 10.14982588 9.12147834 14.875 14.1875 C15.55046875 14.89841797 16.2259375 15.60933594 16.921875 16.34179688 C17.56382813 17.02693359 18.20578125 17.71207031 18.8671875 18.41796875 C19.73512939 19.34258911 19.73512939 19.34258911 20.62060547 20.28588867 C22 22 22 22 23 25 C7.82 25 -7.36 25 -23 25 C-15.6016193 16.36855585 -8.13921603 7.93961672 0 0 Z " fill="#000000" transform="translate(108,301)"/>
<path d="M0 0 C8.91 0 17.82 0 27 0 C25.02 7.26 23.04 14.52 21 22 C15.9677894 17.68667663 11.22985677 13.41241777 6.5625 8.75 C5.92634766 8.12609375 5.29019531 7.5021875 4.63476562 6.859375 C4.03470703 6.26125 3.43464844 5.663125 2.81640625 5.046875 C2.27443604 4.50901367 1.73246582 3.97115234 1.17407227 3.41699219 C0 2 0 2 0 0 Z " fill="#000000" transform="translate(121,299)"/>
<path d="M0 0 C8.91 0 17.82 0 27 0 C20.25 9 20.25 9 17.3515625 11.84375 C16.73925781 12.44960938 16.12695312 13.05546875 15.49609375 13.6796875 C14.87863281 14.28039062 14.26117188 14.88109375 13.625 15.5 C12.98433594 16.13164062 12.34367187 16.76328125 11.68359375 17.4140625 C10.12701354 18.94741017 8.56417156 20.47439705 7 22 C5.29649696 19.44474544 4.53986042 17.90679974 3.7109375 15.05859375 C3.49179688 14.31029297 3.27265625 13.56199219 3.046875 12.79101562 C2.82515625 12.01435547 2.6034375 11.23769531 2.375 10.4375 C2.14554687 9.65697266 1.91609375 8.87644531 1.6796875 8.07226562 C0 2.27834356 0 2.27834356 0 0 Z " fill="#000000" transform="translate(69,299)"/>
<path d="M0 0 C1.83875553 3.37933449 2.98851107 6.82956167 4.125 10.5 C4.65480469 12.18609375 4.65480469 12.18609375 5.1953125 13.90625 C6 17 6 17 6 21 C-0.93 21 -7.86 21 -15 21 C-12.74922601 15.37306502 -12.74922601 15.37306502 -10.46875 12.51953125 C-9.74751953 11.60977539 -9.74751953 11.60977539 -9.01171875 10.68164062 C-8.51285156 10.06482422 -8.01398437 9.44800781 -7.5 8.8125 C-7.00113281 8.18408203 -6.50226562 7.55566406 -5.98828125 6.90820312 C-4.07298513 4.50766443 -2.17313341 2.17313341 0 0 Z " fill="#000000" transform="translate(60,305)"/>
<path d="M0 0 C3.6150872 3.53056178 6.99806281 7.19230529 10.25 11.0625 C10.91902344 11.8369043 10.91902344 11.8369043 11.6015625 12.62695312 C14.04855132 15.5373868 15.05456969 17.21827876 16 21 C9.07 21 2.14 21 -5 21 C-4.2662246 15.86357223 -3.38901911 11.47893569 -1.9375 6.5625 C-1.57527344 5.32628906 -1.21304688 4.09007812 -0.83984375 2.81640625 C-0.56269531 1.88699219 -0.28554687 0.95757812 0 0 Z " fill="#000000" transform="translate(156,305)"/>
<path d="M0 0 C3.36627241 0.57298254 4.72753464 0.8807818 6.9375 3.5 C7.83007469 6.21227534 8.16726035 8.65097166 7.9375 11.5 C5.87015019 14.85944344 4.26260269 15.39951371 0.5 16.5625 C-3.0625 16.5 -3.0625 16.5 -6 14.4375 C-8.0625 11.5 -8.0625 11.5 -8.6875 8.5 C-7.64069281 3.47532551 -5.09100787 0.83118496 0 0 Z " fill="#000000" transform="translate(449.0625,81.5)"/>
<path d="M0 0 C2.4375 1.5625 2.4375 1.5625 4 4 C4.72468526 8.42863214 4.49454049 10.28066838 1.9375 14 C-1 16 -1 16 -4.625 16 C-9.32352941 14.60784314 -9.32352941 14.60784314 -11 12 C-12.31452598 8.52589563 -12.09925431 7.24577258 -10.6875 3.75 C-7.88979845 -0.80921734 -5.13086683 -0.44231611 0 0 Z " fill="#000000" transform="translate(209,82)"/>
<path d="M0 0 C2 3 2 3 1.75 6.0625 C1 9 1 9 -1 11 C-7.05240175 11.55021834 -7.05240175 11.55021834 -9.9375 9.875 C-11.48724515 7.14015561 -11.32162076 5.0875593 -11 2 C-7.67085721 -2.99371418 -5.0918279 -2.16673528 0 0 Z " fill="#000000" transform="translate(233,114)"/>
<path d="M0 0 C1.89488952 1.89488952 1.18019112 4.57139146 1.23046875 7.08984375 C1 9 1 9 -1 11 C-2.875 11.30078125 -2.875 11.30078125 -5 11.3125 C-5.70125 11.32925781 -6.4025 11.34601563 -7.125 11.36328125 C-7.74375 11.24339844 -8.3625 11.12351562 -9 11 C-11.47666082 7.28500878 -11.54886514 5.39092112 -11 1 C-7.17234776 -2.71507424 -4.63784269 -2.10811031 0 0 Z " fill="#000000" transform="translate(431,114)"/>
<path d="M0 0 C6.2987013 1.25974026 6.2987013 1.25974026 9 5 C9.125 7.5 9.125 7.5 8 10 C2.91891892 14 2.91891892 14 0 14 C0 9.38 0 4.76 0 0 Z " fill="#000000" transform="translate(352,181)"/>
<path d="M0 0 C0 4.62 0 9.24 0 14 C-7.47761194 11.50746269 -7.47761194 11.50746269 -9 9 C-9 6 -9 6 -8 3 C-5.11373339 0.72136847 -3.6952982 0 0 0 Z " fill="#000000" transform="translate(302,181)"/>
<path d="M0 0 C0.99 0.103125 1.98 0.20625 3 0.3125 C5 3.3125 5 3.3125 4.625 6.5 C4.41875 7.428125 4.2125 8.35625 4 9.3125 C1.1875 9.9375 1.1875 9.9375 -2 10.3125 C-2.99 9.6525 -3.98 8.9925 -5 8.3125 C-5.3125 5.3125 -5.3125 5.3125 -5 2.3125 C-3 0.3125 -3 0.3125 0 0 Z " fill="#000000" transform="translate(254,140.6875)"/>
<path d="M0 0 C2.5625 0.1875 2.5625 0.1875 4.5625 2.1875 C4.8125 5.1875 4.8125 5.1875 4.5625 8.1875 C2.5625 10.1875 2.5625 10.1875 0.125 10.5625 C-2.4375 10.1875 -2.4375 10.1875 -4.375 8.5 C-5.4375 6.1875 -5.4375 6.1875 -4.6875 3.5 C-2.91689262 0.22437636 -2.91689262 0.22437636 0 0 Z " fill="#000000" transform="translate(400.4375,140.8125)"/>
<path d="M0 0 C2.61724095 2.36797991 4.32861729 4.89600354 6 8 C6 8.66 6 9.32 6 10 C3.69 10.33 1.38 10.66 -1 11 C-2.26264601 6.70700357 -1.62950412 4.12168689 0 0 Z " fill="#000000" transform="translate(304,206)"/>
<path d="M0 0 C2 2 2 2 2.1953125 4.1640625 C2.17210937 4.97617188 2.14890625 5.78828125 2.125 6.625 C2.10695313 7.44226563 2.08890625 8.25953125 2.0703125 9.1015625 C2.03550781 10.04128906 2.03550781 10.04128906 2 11 C-0.31 10.67 -2.62 10.34 -5 10 C-4.38545304 6.00544473 -2.29353263 3.25533664 0 0 Z " fill="#000000" transform="translate(349,206)"/>
<path d="M0 0 C1.4540625 0.0309375 1.4540625 0.0309375 2.9375 0.0625 C2.9375 5.10500428 1.53500368 6.84155653 -1.0625 11.0625 C-4.09583922 8.02916078 -3.7271334 5.2881192 -4.0625 1.0625 C-3.0625 0.0625 -3.0625 0.0625 0 0 Z " fill="#000000" transform="translate(306.0625,158.9375)"/>
<path d="M0 0 C1.98 0 3.96 0 6 0 C6.25 7.625 6.25 7.625 4 11 C3.13341385 9.73760288 2.28207941 8.46472499 1.4375 7.1875 C0.72400391 6.12595703 0.72400391 6.12595703 -0.00390625 5.04296875 C-1 3 -1 3 0 0 Z " fill="#000000" transform="translate(345,159)"/>
<path d="M0 0 C2.625 0.375 2.625 0.375 5 1 C5.042721 2.66611905 5.04063832 4.33382885 5 6 C4 7 4 7 1.4375 7.0625 C0.2309375 7.0315625 0.2309375 7.0315625 -1 7 C-1.625 4.625 -1.625 4.625 -2 2 C-1.34 1.34 -0.68 0.68 0 0 Z " fill="#000000" transform="translate(278,162)"/>
<path d="M0 0 C2.125 0.375 2.125 0.375 4 1 C4.38218767 2.65614657 4.71395102 4.32457024 5 6 C4 7 4 7 1.4375 7.0625 C0.2309375 7.0315625 0.2309375 7.0315625 -1 7 C-1.625 4.625 -1.625 4.625 -2 2 C-1.34 1.34 -0.68 0.68 0 0 Z " fill="#000000" transform="translate(373,162)"/>
<path d="M0 0 C1.98 0 3.96 0 6 0 C5.34 1.65 4.68 3.3 4 5 C2.68 4.34 1.36 3.68 0 3 C0 2.01 0 1.02 0 0 Z " fill="#000000" transform="translate(324,223)"/>
<path d="M0 0 C2 1.375 2 1.375 4 3 C4 3.66 4 4.32 4 5 C2.02 5.33 0.04 5.66 -2 6 C-1.125 1.125 -1.125 1.125 0 0 Z " fill="#000000" transform="translate(326,147)"/>
</svg>
