<svg width="512" height="512" viewBox="0 0 512 512" fill="none" xmlns="http://www.w3.org/2000/svg">
    <g clip-path="url(#clip0_700_3896)">
        <path
            d="M545.281 955.319C545.659 954.942 546.252 954.834 546.9 954.834C548.734 954.942 551 956.668 551 958.555C551 959.903 550.407 960.982 549.597 960.982C547.763 960.982 544.148 956.398 545.281 955.266V955.319ZM537.458 952.192C535.947 953.702 529.257 953.324 529.257 951.814C529.257 948.579 531.253 945.505 533.249 945.505C535.677 945.505 538.968 950.736 537.512 952.192H537.458ZM509.564 911.318C506.866 907.489 502.118 900.317 498.881 895.302C492.298 885.003 458.092 851.948 440.665 838.898C434.244 834.045 423.939 827.844 417.519 824.986C407.861 820.564 401.387 818.299 381.262 812.422C379.751 812.044 378.51 810.696 378.51 809.564C378.51 806.975 381.262 805.843 385.848 806.005C397.502 806.382 420.756 814.579 437.913 825.741C454.801 836.903 488.63 867.37 500.068 881.768C506.38 889.856 526.829 923.505 530.066 930.946C531.199 933.804 531.685 936.069 531.037 936.069C529.472 935.907 514.905 919.298 509.564 911.318ZM522.998 943.025C522.998 945.775 517.549 946.368 515.876 943.78C514.635 941.623 516.901 939.304 519.491 939.52C519.869 939.52 520.246 939.682 520.624 939.789C521.865 940.275 522.998 941.785 522.998 943.025ZM489.331 904.038C489.763 903.607 490.356 903.553 490.95 903.553C492.784 903.661 495.05 905.548 495.05 907.435C495.05 908.675 494.457 909.808 493.701 909.808C491.813 909.808 488.198 905.224 489.331 904.092V904.038ZM489.817 922.156C486.957 922.156 485.716 920.593 485.716 917.034C485.716 915.47 486.31 914.661 487.173 914.661C488.144 914.823 489.655 916.279 490.518 918.759C491.381 921.132 491.219 922.102 489.763 922.102L489.817 922.156ZM501.632 919.029C504.114 919.029 507.945 929.598 506.866 933.588C506.218 936.177 504.87 937.74 502.981 937.74C499.852 937.74 494.996 933.103 494.996 930.029C494.996 927.387 500.122 919.083 501.578 919.083L501.632 919.029ZM472.174 975.487C474.548 977.32 478.055 986.056 478.055 990.046C478.055 991.125 477.299 992.149 476.436 992.149C475.573 992.149 474.979 991.287 474.979 990.424C474.979 989.399 473.253 986.703 471.257 984.223C469.098 981.85 467.102 978.884 466.67 977.806C466.077 976.404 464.512 977.32 461.815 980.502C458.469 984.492 457.822 984.762 457.822 982.12C457.822 980.394 454.693 966.104 450.862 950.251C446.977 934.397 439.424 902.582 433.813 879.557C428.201 856.585 424.101 837.281 424.479 836.957C424.479 836.957 424.569 836.957 424.748 836.957C425.774 837.065 428.471 839.33 431.493 842.295C437.481 848.281 438.075 850.007 446.06 879.557C450.646 896.597 454.747 915.092 455.34 920.701C457.498 940.437 459.225 946.152 464.944 951.76C471.256 957.854 474.656 967.776 471.796 971.281C470.285 973.114 470.285 973.869 472.282 975.541L472.174 975.487ZM466.832 999.699C468.667 996.571 470.285 995.061 471.418 995.331C472.551 995.493 473.253 997.218 473.253 1000.56C473.253 1005.25 472.767 1006.01 469.692 1006.01C464.458 1006.01 463.973 1004.71 466.832 999.699ZM464.674 995.223L462.678 999.052L461.707 994.953C459.98 988.213 461.221 983.522 464.674 983.522C467.156 983.522 467.803 984.384 467.264 987.35C466.994 989.507 465.807 992.958 464.674 995.223ZM454.747 1006.06C452.535 1006.06 451.509 1004.55 450.808 999.753C449.891 995.007 450.161 992.419 451.024 992.527C451.509 992.689 452.319 993.821 453.02 996.14C453.883 998.62 455.394 1001.86 456.311 1003.31C457.552 1005.58 457.282 1006.06 454.801 1006.06H454.747ZM440.719 992.473C439.154 989.238 432.14 961.467 425.288 930.73C418.49 899.886 410.397 864.027 407.429 850.869C404.408 837.712 402.196 826.604 402.573 826.28L402.681 826.118C403.437 826.118 405.541 826.873 407.915 828.113C411.476 830.001 413.148 832.427 414.983 838.682C418.598 850.707 430.575 899.94 438.345 934.613C442.068 951.275 446.168 969.394 447.517 975.002C450.538 987.674 450.646 991.287 447.679 994.145C446.384 995.547 445.305 998.728 445.305 1001.32C445.305 1005.04 444.711 1006.06 442.068 1006.06C439.424 1006.06 438.938 1005.2 439.478 1001.8C439.748 999.429 440.719 997.704 441.852 997.811C443.147 998.081 442.715 996.194 440.719 992.473ZM385.039 1007.25C386.495 1008.7 385.74 1009.14 381.909 1009.14C378.078 1009.14 376.891 1008.49 376.891 1005.85C376.891 1004.12 378.618 1000.89 380.884 998.566C383.042 996.194 385.632 992.095 386.603 989.345C387.736 986.11 388.761 984.492 389.463 984.492C390.326 984.492 391.081 985.894 391.729 988.968C392.592 992.689 392.106 994.198 389.139 996.679C387.143 998.297 385.038 999.699 384.391 999.807C382.557 999.807 383.042 1005.25 385.039 1007.25ZM353.691 985.355C357.414 978.561 357.414 978.075 354.555 978.075C353.314 978.075 350.562 981.634 348.458 986.164C344.142 995.493 343.44 994.63 341.983 975.757C341.498 968.908 337.667 932.24 333.405 894.224C326.553 832.212 323.963 805.411 321.859 779.528C321.427 774.405 321.859 771.979 322.992 771.979C324.125 771.979 325.959 774.405 328.441 779.528C331.301 785.244 333.027 795.112 337.397 830.001C345.598 897.082 352.181 945.02 359.141 987.404C360.274 994.252 357.306 998.998 353.314 996.625C349.861 994.63 349.861 992.473 353.691 985.409V985.355ZM352.019 1004.77C352.019 1008.11 351.317 1009.14 348.89 1009.14C346.462 1009.14 345.814 1008.11 345.814 1004.66C345.814 1002.18 346.785 999.807 348.026 999.321C348.782 999.052 349.429 998.944 349.915 998.944C351.533 999.052 352.019 1000.78 352.019 1004.77ZM285.926 696.755C286.789 712.285 294.666 794.897 299.09 834.423C299.954 842.134 303.083 871.468 306.212 899.724C309.18 927.872 312.309 957.261 313.172 964.972C314.035 972.683 315.169 984.492 315.654 991.287C316.248 998.135 317.381 1004.98 318.136 1006.44C319.269 1008.7 318.837 1009.19 315.384 1009.19C311.931 1009.19 311.392 1008.7 312.147 1005.58C313.55 1000.35 299.252 979.963 294.127 979.747C291.537 979.585 293.263 985.571 296.123 986.326C300.385 987.404 300.385 994.63 296.123 995.978C294.396 996.463 292.4 996.625 291.645 996.14C289.055 994.522 289.163 996.841 276.592 784.759C275.351 762.542 273.624 743.777 272.761 742.914C270.279 740.434 271.034 776.185 275.135 865.914C277.131 911.911 279.289 956.506 279.613 965.349C280.206 979.801 279.343 983.953 276.753 979.801C275.297 977.32 272.761 977.914 272.761 980.502C272.761 981.904 274.649 983.63 276.753 984.384C280.099 985.625 280.746 986.757 280.206 990.963C279.613 997.65 275.89 997.542 272.383 990.532C268.93 983.575 266.772 983.683 264.29 991.017C262.078 997.326 260.837 999.213 259.596 998.135C257.222 995.762 255.712 918.49 255.604 794.843C255.496 717.516 254.848 645.204 254.363 634.042C251.989 588.8 250.91 633.664 249.777 810.372C249.291 910.778 248.158 993.821 247.511 994.792C245.514 997.811 241.791 995.277 239.418 989.561C238.123 986.703 236.666 984.33 235.911 984.33C235.317 984.33 233.537 987.188 232.08 990.532C230.623 993.983 228.465 996.733 226.954 996.733C224.958 996.733 224.688 994.9 225.336 983.899C227.979 941.03 229.49 913.205 230.839 874.057C231.702 849.737 233.051 816.412 233.914 800.235C235.911 761.949 235.911 743.561 233.914 743.561C233.051 743.561 232.458 744.64 232.458 746.15C232.458 747.659 231.756 756.179 230.893 765.292C230.137 774.244 227.602 813.716 225.551 853.026C221.289 931.054 218.537 973.869 217.566 978.884C217.189 981.149 215.84 982.12 213.574 982.012C209.096 981.85 208.124 985.247 212.171 986.595C214.761 987.296 215.462 988.698 215.03 992.581C214.437 998.998 212.063 998.782 208.61 991.718C205.265 984.708 202.459 985.247 198.143 993.821C196.416 997.056 193.881 999.807 192.586 999.807C190.32 999.807 190.32 1000.18 192.694 1003.64C195.931 1008.76 195.823 1009.14 191.075 1009.14C187.622 1009.14 187.244 1008.65 188.108 1005.63C189.51 1000.67 192.802 973.6 198.143 922.911C200.733 899.023 208.448 828.707 215.192 766.856C230.191 630.645 229.328 640.513 227.602 642.238C224.904 644.935 213.466 729.811 199.006 854.59C189.187 939.466 187.838 950.358 183.252 981.58L178.989 1009.19H173.702C169.44 1009.19 168.576 1008.7 169.44 1006.55C169.925 1005.2 171.436 991.394 172.677 975.864C173.918 960.442 176.022 938.711 177.263 927.657C178.666 916.494 182.389 882.576 185.842 852.11C189.187 821.697 195.175 771.116 199.006 739.517C202.891 707.971 207.477 670.656 209.204 656.636C212.657 626.924 216.379 598.075 218.483 583.354C219.239 577.638 219.886 571.652 219.886 570.035C219.886 567.662 219.778 567.608 218.483 569.657C215.246 575.104 204.186 644.827 195.122 717.138C192.532 738.007 188.917 765.346 187.244 777.749C185.518 790.043 181.687 821.481 178.828 847.58C175.806 873.733 171.975 906.896 170.249 921.455C168.361 935.961 166.526 955.104 165.933 964.055L164.8 980.178L159.674 972.036C152.552 960.442 151.797 963.031 158.541 975.972C162.857 984.331 163.882 987.404 162.803 990.424C161.508 993.767 161.347 993.659 158.811 987.081C155.574 978.669 150.61 973.276 149.207 976.943C148.721 978.291 150.07 981.904 152.228 985.086C154.494 988.321 156.221 992.257 156.221 993.929C156.221 995.6 157.354 998.674 158.649 1000.78C160.052 1002.77 160.807 1005.63 160.267 1006.87C159.728 1008.33 156.976 1009.24 154.764 1009.24C153.038 1009.24 151.581 1008.76 151.581 1007.68C151.581 1006.6 152.282 1004.44 153.307 1002.66C154.656 1000.24 154.548 999.213 153.146 998.728C150.286 997.704 146.833 989.723 146.833 984.169C146.833 981.311 148.56 970.256 150.718 959.579C152.714 948.849 156.545 924.799 159.134 905.979C183.629 728.786 181.903 742.375 179.745 744.424C176.777 747.444 168.9 791.391 157.03 873.302C148.829 929.598 144.297 953.324 141.869 953.324C141.114 953.324 135.988 956.021 130.431 959.418C124.982 962.761 120.342 964.864 120.342 963.893C120.342 963.031 121.475 958.447 122.716 953.594C123.957 948.741 128.003 930.137 131.888 912.18C135.719 894.17 141.438 868.718 144.459 855.507C153.415 816.897 169.601 742.644 173.054 725.011C174.781 715.952 181.148 684.515 187.19 655.072C193.179 625.63 201.003 587.075 204.509 569.711C212.063 531.102 222.53 482.516 224.796 474.536C225.929 470.923 227.17 468.928 228.033 468.82C228.789 468.712 229.166 469.683 229.166 471.947C229.166 473.781 232.026 478.041 235.371 481.492C238.824 484.835 241.684 488.502 241.684 489.473C241.684 490.497 239.795 502.792 237.421 516.92C235.155 531.102 233.698 543.936 234.292 545.23C236.018 549.975 242.493 551.808 250.964 549.975C256.089 548.951 261.539 548.951 266.988 549.975C273.354 551.107 276.322 550.946 279.829 549.22C284.091 547.225 284.307 546.524 284.307 538.543C284.307 533.96 282.688 521.395 280.854 510.826C278.858 500.257 277.725 491.09 278.264 490.335C278.75 489.634 280.962 488.933 283.336 488.933C287.49 488.933 287.706 489.365 293.533 512.552C296.77 525.602 300.115 539.514 301.141 543.504C302.381 548.843 302.22 555.799 300.655 571.491C299.198 584.378 298.389 608.266 298.389 634.959C298.497 680.093 300.763 706.785 306.968 734.879C309.827 747.767 311.931 763.189 316.14 804.171C317.003 812.26 318.729 828.06 320.024 839.06C321.265 850.276 322.992 866.292 323.855 874.865C324.718 883.439 326.445 900.425 327.74 912.881C329.089 925.284 331.193 949.01 332.434 965.673C333.836 982.335 335.185 998.998 335.563 1002.56C336.318 1009.03 336.156 1009.19 331.84 1009.19C328.225 1009.19 327.254 1008.43 326.499 1004.93C324.664 995.601 312.471 894.871 304.486 822.02C302.22 801.529 291.051 708.565 288.839 691.525C286.843 675.779 284.954 678.961 285.818 696.755H285.926ZM305.187 1004.66C304.809 1007.36 303.622 1008.49 300.601 1008.92C295.044 1009.51 294.019 1004.66 299.036 1000.83C300.601 999.483 302.004 998.998 303.137 999.106C304.863 999.267 305.727 1001.26 305.241 1004.71L305.187 1004.66ZM292.994 1005.36C292.994 1006.49 292.4 1007.63 291.537 1007.63C290.674 1007.63 289.918 1006.17 289.918 1004.39C289.918 1002.77 290.512 1001.91 291.159 1002.02C291.321 1002.02 291.429 1002.02 291.591 1002.13C292.454 1002.61 293.047 1004.12 293.047 1005.36H292.994ZM283.66 1003.64C283.66 1005.63 283.066 1007.9 282.203 1008.38C281.232 1008.87 280.584 1007.36 280.584 1004.5C280.584 1001.91 281.34 999.807 282.203 999.807C283.066 999.807 283.66 1001.53 283.66 1003.64ZM272.869 1006.17C272.869 1008.43 271.79 1009.19 268.175 1009.19C264.29 1009.19 263.589 1008.54 263.589 1005.41C263.589 1003.47 264.992 1000.13 266.556 998.135L269.578 994.414L271.142 998.728C272.167 1001.21 272.869 1004.55 272.869 1006.17ZM254.201 1003.31C254.201 1006.55 253.499 1009.19 252.636 1009.19C250.64 1009.19 250.64 1002.99 252.636 999.86C253.122 999.267 253.338 998.998 253.607 999.106C253.985 999.267 254.201 1000.62 254.201 1003.37V1003.31ZM243.302 1007.52C243.302 1010.11 233.968 1009.35 232.997 1006.65C231.864 1003.9 234.831 996.679 237.098 996.679C238.716 996.679 243.302 1004.66 243.302 1007.52ZM226.199 1007.79C226.199 1008.49 225.12 1009.19 223.825 1009.19C222.368 1009.19 221.451 1007.68 221.451 1005.31C221.451 1003.2 222.044 1001.48 222.854 1001.48C224.311 1001.48 226.199 1005.04 226.199 1007.79ZM219.455 990.1C218.969 990.586 218.537 989.615 218.537 987.997C218.699 986.865 218.807 986.38 219.023 986.38C219.185 986.38 219.293 986.649 219.509 987.134C219.886 988.213 219.886 989.507 219.401 990.1H219.455ZM211.308 1008.16C209.689 1008.76 207.801 1009.08 206.074 1009.08C204.348 1009.08 202.945 1008.76 202.351 1008.16C200.949 1006.71 201.11 995.277 202.459 995.277C203.107 995.277 204.833 997.38 206.344 999.86C207.801 1002.45 210.067 1004.55 211.308 1004.55C214.599 1004.55 214.437 1007.03 211.308 1008.16ZM117.212 995.331C112.95 991.502 112.519 990.208 113.759 987.242L115.378 983.791L118.723 987.134C120.72 988.968 122.608 992.689 123.201 995.277C123.687 997.865 125.09 1000.4 126.169 1000.89C127.464 1001.26 128.327 1002.99 128.327 1004.61C128.327 1006.71 127.194 1007.57 124.334 1007.57C120.719 1007.57 120.342 1007.09 121.205 1003.74C121.96 1000.72 121.097 998.89 117.212 995.277V995.331ZM49.7165 998.458L51.8746 994.63L53.709 998.081C54.7341 1000.08 55.1658 1002.5 54.7342 1003.8C53.6011 1006.49 47.5044 1006.76 47.6123 1004.07C47.6123 1003.04 48.5834 1000.45 49.7165 998.458ZM47.3425 993.605C44.3211 993.605 44.1053 993.012 44.8606 988.051C45.3462 984.924 46.2634 981.904 46.749 981.473C47.0188 981.203 47.1267 981.203 47.3425 981.203C48.7992 981.203 50.5797 985.301 50.5797 989.345C50.5797 992.635 49.8783 993.605 47.3425 993.605ZM54.6802 984.33C49.5546 974.624 49.4467 973.977 51.335 967.291C52.4681 963.462 58.0253 944.157 63.6365 924.529C74.0495 888.778 97.5734 795.22 122.824 689.206C140.952 613.173 159.998 538.489 173.432 490.443C179.529 468.712 184.601 450.809 184.87 450.54C184.978 450.432 185.14 450.27 185.464 450.27C187.298 450.162 192.046 452.427 192.046 453.721C192.046 454.746 189.942 463.589 187.298 473.349C178.504 507.052 150.394 620.076 143.164 651.136C135.071 685.701 123.525 735.904 104.857 817.275C86.8366 895.572 77.5565 935.314 73.8877 948.633C69.6253 963.786 63.043 996.355 63.043 1001.8C62.9351 1004.17 62.2877 1006.06 61.4244 1006.06C60.5611 1006.06 59.8597 1003.47 59.8597 1000.18C59.8597 996.463 57.8634 990.478 54.6262 984.33H54.6802ZM425.935 792.038C413.472 791.445 409.48 791.931 389.355 797.161C357.63 805.358 358.493 805.358 350.454 799.156C343.71 794.034 340.85 790.205 327.848 768.851C317.65 752.189 312.687 732.291 307.669 686.941C301.68 633.071 308.532 551.054 322.83 504.679C324.718 498.478 326.175 495.674 327.146 495.836C329.52 496.105 328.765 514.547 324.179 538.274C310.636 608.159 313.118 699.074 329.898 750.194C334.646 764.484 348.89 786.323 356.389 790.583C361.353 793.548 361.461 793.548 378.834 789.342C415.037 780.337 449.945 783.465 449.945 795.651C449.945 797.647 449.351 797.647 444.819 795.382C441.69 793.764 434.622 792.524 425.827 792.038H425.935ZM426.313 802.5C423.939 802.5 422.051 801.853 422.051 800.99C422.051 800.019 422.806 799.534 424.047 799.534C425.18 799.534 426.799 800.019 428.309 800.99C430.036 802.122 429.712 802.5 426.313 802.5ZM248.05 475.56C248.05 472.433 253.607 464.829 259.596 460.03C263.427 456.741 266.718 453.559 266.718 452.804C266.718 450.216 254.848 457.388 248.266 463.967C243.302 468.982 241.198 470.168 239.849 468.82C237.367 466.393 245.299 455.393 254.632 448.437C258.733 445.309 261.215 442.721 260.352 442.343C258.463 441.75 249.507 448.167 240.712 456.633C237.098 460.084 233.752 462.619 233.375 462.187C231.648 460.354 238.716 449.785 247.942 440.456C261.485 426.759 283.875 415.759 297.957 415.759C303.676 415.759 309.503 423.47 311.985 434.309C313.316 439.845 312.453 443.853 309.395 446.334C306.914 448.329 300.925 451.456 296.231 453.182C270.98 462.457 266.34 464.614 258.895 470.168C251.072 476.046 248.104 477.502 248.104 475.506L248.05 475.56ZM249.345 535.847C247.888 542.426 244.759 545.284 242.763 542.048C242.385 541.347 243.788 531.371 245.784 519.94C249.885 496.806 250.64 492.223 251.989 492.492C252.259 492.492 252.636 492.87 253.014 493.247C255.01 495.081 252.744 521.342 249.399 535.847H249.345ZM242.061 107.639C237.475 105.266 227.278 102.894 222.746 103.271C221.289 103.271 220.048 103.271 220.048 103.055C220.048 102.894 225.282 97.5551 231.594 91.1921L243.194 79.6525L247.133 88.2263C255.118 105.644 262.078 105.967 269.146 89.6283C271.412 84.5056 273.732 80.2995 274.272 80.2995C274.865 80.2995 280.476 85.638 287.005 92.1088C293.317 98.6875 297.687 103.541 296.554 102.947C295.583 102.462 290.458 103.109 285.386 104.565C278.534 106.399 274.703 108.663 271.358 112.384C265.261 119.394 265.477 121.389 271.736 117.723C274.595 116.105 280.692 113.624 285.44 112.115C290.134 110.659 295.152 108.394 296.608 107.046C299.09 104.889 299.468 105.158 300.871 108.879C305.133 120.041 301.734 142.42 293.857 154.984C289.54 161.832 276.861 173.264 270.603 175.852C262.618 179.196 256.791 179.735 250.856 177.47C238.015 172.887 223.879 157.734 219.293 143.66C216.433 135.194 215.57 116.644 217.674 110.227C218.645 106.992 219.077 106.884 222.908 108.825C225.282 110.065 230.245 111.791 234.076 112.816C237.961 113.786 243.41 116.051 246.162 117.669C248.859 119.286 251.233 120.149 251.233 119.772C251.233 116.806 245.784 109.472 242.169 107.639H242.061ZM250.91 82.1869C246.755 79.3289 247.295 76.9563 253.338 70.9707C255.712 68.7599 257.6 67.4118 258.463 67.25C258.733 67.1422 258.841 67.25 258.841 67.5196C258.841 68.5442 260.999 70.5394 263.589 71.9953C268.283 74.8533 269.901 80.677 266.448 82.8339C263.319 84.6674 253.985 84.2899 250.91 82.2408V82.1869ZM264.074 90.7607C260.46 97.0698 254.201 97.7169 254.201 91.7314C254.201 90.4911 255.927 89.6283 258.517 89.6283C260.891 89.6283 263.751 88.7655 264.884 87.6332C265.153 87.3635 265.261 87.2018 265.369 87.2018C265.639 87.3635 265.153 88.7116 264.02 90.7068L264.074 90.7607ZM237.583 181.946C236.45 178.818 238.069 179.196 243.032 182.809C251.503 189.118 265.046 188.794 274.973 182.054L280.53 178.225V183.456C280.53 186.152 281.555 191.652 282.688 195.481C284.685 202.221 284.685 202.652 280.8 207.29C278.534 209.878 274.487 213.168 271.736 214.516C263.751 218.452 251.287 217.751 243.842 212.898C234.4 206.805 233.537 204.702 236.126 193.647C237.421 188.417 238.015 183.078 237.529 181.946H237.583ZM224.904 206.05C225.605 206.05 227.008 207.667 227.871 209.663C231.217 216.942 246.647 224.545 258.463 224.653C267.527 224.815 281.34 219.207 287.652 212.844C293.263 207.398 296.123 207.128 296.123 212.251C296.123 215.378 287.922 222.55 279.074 227.134C275.513 228.859 269.254 230.1 261.215 230.369C243.41 231.124 232.727 226.648 225.174 215.594C221.883 210.795 221.829 206.05 224.904 206.05ZM224.742 223.844C230.191 228.967 236.612 233.173 240.335 234.306C243.68 235.276 247.295 237.164 248.266 238.296C249.777 240.022 250.532 240.022 252.852 237.811C255.226 235.654 256.467 235.546 259.704 236.948C262.186 238.08 264.83 238.188 267.042 237.325C268.93 236.57 273.894 235.061 278.102 234.09C283.39 232.634 287.652 229.938 293.263 224.653C297.526 220.393 301.68 217.05 302.543 217.05C303.299 217.05 305.673 218.182 307.669 219.423L311.392 221.903L303.245 238.188C298.605 247.247 293.641 255.929 292.184 257.601C290.727 259.218 284.469 263.424 278.48 266.93C265.046 274.641 260.459 275.503 250.262 271.783C234.831 265.905 227.008 259.704 218.106 246.169C210.66 235.007 204.671 222.281 206.236 221.202C206.668 220.933 208.718 219.585 211.254 218.075L215.57 215.324L224.742 223.898V223.844ZM291.645 391.817C287.814 389.444 290.026 384.861 296.878 381.517C300.493 379.792 302.489 378.929 303.892 379.037C304.755 379.037 305.457 379.414 306.266 380.061C310.097 383.297 309.126 385.616 302.381 388.635C296.824 391.224 296.177 391.979 296.177 397.317C296.177 401.793 295.475 404.111 293.965 404.111C293.155 404.111 292.13 403.41 290.889 402.062C287.652 398.557 287.652 396.185 290.889 394.351C292.67 393.488 292.886 392.572 291.645 391.871V391.817ZM292.886 379.037C288.785 384.375 287.598 384.267 285.44 378.282C283.012 371.326 283.228 370.84 288.192 370.84C295.044 370.84 296.878 374.13 292.886 379.037ZM274.649 392.086C272.383 389.336 273.894 387.826 278.75 387.826C282.095 387.826 282.311 388.312 281.34 392.518C280.746 395.376 280.962 397.155 282.095 397.155C284.954 397.155 283.929 404.111 280.584 407.724C278.858 409.558 277.131 411.175 276.592 411.175C276.214 411.175 275.998 407.293 276.106 402.602C276.376 398.018 275.62 393.165 274.649 392.033V392.086ZM281.447 369.223C277.131 369.223 275.998 372.943 279.883 374.453C282.473 375.424 283.12 381.571 280.584 381.895C279.721 381.895 278.48 382.164 277.617 382.272C276.861 382.434 275.728 382.919 275.027 383.674C272.869 385.939 271.79 384.807 269.901 378.228C266.934 368.198 265.909 367.066 260.46 366.419C255.496 365.933 255.334 366.149 256.197 370.517C256.952 373.86 256.467 375.478 254.74 376.125C251.503 377.365 251.503 377.473 250.64 373.968C249.777 370.247 246.378 369.762 246.378 373.105C246.378 374.507 245.784 375.478 244.975 375.478C244.111 375.478 243.248 376.988 242.978 378.983C242.601 381.571 240.982 382.704 236.396 383.566C233.051 384.267 229.436 385.67 228.195 386.532C225.767 388.689 225.605 394.729 227.818 398.989C228.681 400.714 229.22 402.817 228.95 403.95C228.573 404.974 225.821 401.847 222.854 397.263C219.724 392.518 215.732 387.395 214.005 385.669C209.419 381.679 209.743 378.821 214.869 376.826C218.322 375.586 219.455 375.855 221.073 377.958C222.206 379.414 223.07 381.679 223.07 382.812C223.07 384.052 223.663 384.537 224.418 384.052C225.282 383.566 225.444 381.356 224.688 378.983C223.987 375.963 224.311 373.267 226.145 369.978C229.274 364.531 233.159 363.399 236.99 366.904C239.741 369.331 240.011 369.277 240.335 365.987C240.928 361.889 246.324 358.061 247.457 361.026C248.32 363.399 254.147 363.776 254.147 361.404C254.147 360.541 252.312 359.193 250.046 358.276C246.054 356.82 246.054 356.712 248.644 353.693C250.37 351.859 253.499 350.619 256.521 350.619C261.97 350.619 264.344 353.693 261.323 356.712C259.974 358.168 260.459 358.276 263.589 357.575C267.042 356.712 267.905 357.306 269.578 361.404C271.736 366.419 274.326 367.767 274.326 363.776C274.326 360.487 279.559 360.918 282.634 364.262C286.087 368.252 285.872 369.277 281.34 369.277L281.447 369.223ZM262.078 394.675C263.643 394.783 265.315 395.268 266.179 396.508C269.308 400.768 268.66 402.871 262.941 407.239C260.082 409.342 257.492 411.229 256.952 411.229C255.55 411.229 254.093 400.93 255.064 398.288C255.927 395.915 259.219 394.567 262.078 394.729V394.675ZM257.816 377.904C258.679 376.502 259.272 375.909 259.92 376.071C260.513 376.341 261.215 377.203 262.402 379.037C265.747 384.16 265.747 387.233 262.51 388.474C261.161 389.013 260.459 389.336 259.974 389.336C259.272 389.336 258.841 388.851 257.6 387.611C255.226 385.13 255.226 381.41 257.87 377.904H257.816ZM266.934 411.229C269.308 411.229 268.175 418.509 265.639 419.534C262.186 420.936 261.916 420.774 261.916 417.646C261.916 414.788 264.776 411.229 266.934 411.229ZM244.921 386.101C244.921 384.375 245.191 383.351 246.162 383.351C247.025 383.243 248.536 383.944 250.748 385.616C254.201 387.988 255.064 391.601 253.23 396.346C252.744 397.695 251.827 398.719 251.341 398.719C249.615 398.719 244.921 389.39 244.921 386.155V386.101ZM251.072 417.808C251.072 424.009 249.075 422.931 245.514 414.465C242.763 408.479 242.493 406.484 244.058 404.435C245.191 403.033 246.431 401.954 246.917 401.954C248.266 401.954 251.125 412.793 251.125 417.862L251.072 417.808ZM239.471 401.146C238.177 403.303 236.45 405.028 235.857 405.028C233.105 405.028 230.893 400.93 230.893 396.077C230.893 391.817 231.486 390.954 234.454 390.954C236.342 390.954 238.77 392.41 239.903 394.189C241.63 396.94 241.522 398.072 239.418 401.146H239.471ZM238.177 428.215C233.483 428.215 230.731 423.524 231.217 416.19C231.594 410.96 232.619 408.371 233.698 408.21C235.533 407.94 237.799 412.685 239.418 421.637C240.281 426.975 240.011 428.215 238.123 428.215H238.177ZM241.899 436.088C242.763 436.088 243.032 436.681 242.493 437.544C242.007 438.407 241.252 439.162 240.928 439.162C240.497 439.162 240.173 438.407 240.173 437.544C240.173 436.681 240.928 436.088 241.899 436.088ZM283.228 340.158C281.825 344.04 279.451 343.393 277.023 338.54C275.728 336.168 273.139 332.824 271.304 331.26L267.959 328.133L263.481 333.471C258.517 339.295 258.193 339.295 256.521 333.04C255.765 329.805 256.035 328.78 257.762 328.78C261.485 328.78 266.826 323.711 267.096 319.721C267.204 317.456 268.714 315.461 270.819 314.706C272.707 314.005 276.43 310.608 279.289 307.157C285.008 299.985 288.461 299.068 288.461 304.784C288.461 307.48 287.167 309.098 284.577 310.069C279.721 311.956 279.451 315.299 284.091 318.535C287.328 320.799 287.652 320.799 288.677 317.941C289.271 316.324 290.242 310.608 290.781 305.108C291.375 299.769 292.508 294.431 293.371 293.406C294.234 292.435 294.666 290.656 294.234 289.685C293.533 287.313 273.732 304.245 264.074 315.677C251.989 329.966 241.899 339.511 239.31 339.511C237.044 339.511 237.205 339.026 239.687 335.089C249.992 318.804 275.027 294.646 292.886 283.646C297.148 281.058 299.9 279.656 301.087 279.656C302.489 279.494 302.328 280.788 300.979 283.107C300.115 284.724 297.849 292.274 296.123 299.985C294.396 307.696 290.889 319.128 288.407 325.599C286.034 332.015 283.552 338.486 283.174 339.996L283.228 340.158ZM291.105 277.013C278.804 283.484 274.11 287.043 258.787 302.357C238.177 322.956 227.764 336.923 220.48 353.531C217.782 360.002 214.275 365.556 213.034 365.826C209.581 366.581 210.067 360.972 214.329 351.644C216.325 347.222 219.185 339.996 220.642 335.628C224.742 322.848 252.69 291.788 270.711 279.763C282.742 271.783 299.414 264.072 304.755 263.748C305.511 263.586 306.158 263.748 306.374 264.018C308.856 266.444 304.648 270.111 291.051 277.013H291.105ZM216.595 310.176C221.559 310.176 223.555 313.789 221.397 318.481C219.185 323.226 217.458 323.711 216.325 319.883C215.894 318.427 215.192 315.623 214.599 313.681C213.844 310.985 214.167 310.23 216.595 310.23V310.176ZM305.403 257.385C300.331 257.385 299.414 255.767 303.029 252.748C304.162 251.885 305.403 251.507 306.482 251.507C308.478 251.669 310.097 252.909 310.097 254.958C310.097 256.576 308.64 257.331 305.349 257.331L305.403 257.385ZM216.757 256.253C220.911 260.944 220.102 261.106 209.311 258.248C205.589 257.223 202.028 255.39 201.218 253.988C200.085 251.831 200.841 251.399 205.211 250.86C206.668 250.591 207.963 250.483 208.826 250.483C211.685 250.483 212.764 251.615 216.757 256.199V256.253ZM203.754 263.856C203.754 263.856 204.24 263.586 204.887 263.586C208.988 263.856 223.016 268.17 235.317 273.185C243.41 276.42 251.018 279.17 251.989 279.17C255.873 279.17 256.251 282.729 252.744 285.587C247.403 289.901 246.162 289.739 220.156 279.008C209.473 274.695 206.722 272.807 205.157 269.033C204.024 266.444 203.376 264.072 203.754 263.802V263.856ZM209.042 282.352C210.067 282.082 212.926 283.214 218.915 285.695C225.012 288.283 230.461 290.656 230.839 291.141C231.702 292.004 221.505 290.71 215.246 289.146L211.416 288.122L215.246 291.465C218.484 294.323 220.588 294.7 229.544 294.323C236.288 293.945 240.119 294.485 240.119 295.455C240.119 296.318 237.151 299.931 233.537 303.436L226.954 309.853L220.965 305.647C214.275 300.901 210.822 295.671 210.66 290.225C210.66 288.229 209.905 285.371 209.204 283.754C208.718 282.891 208.61 282.298 209.042 282.298V282.352ZM211.308 393.92C213.574 396.077 215.3 398.234 215.3 399.043C215.3 400.499 214.167 400.499 208.718 398.449C204.132 396.832 203.754 396.077 206.02 392.572C206.398 391.871 206.883 391.493 207.369 391.332C208.232 391.224 209.365 392.086 211.362 393.92H211.308ZM211.739 422.661L214.167 418.94L222.638 426.759C227.332 431.019 231.594 434.47 232.188 434.47C232.673 434.47 234.184 435.064 235.317 435.872C236.936 436.843 236.342 438.838 232.188 445.147C229.328 449.515 226.199 453.128 225.336 453.128C222.26 453.128 207.477 445.417 206.722 443.314C205.589 440.294 208.718 427.299 211.739 422.715V422.661ZM388.599 752.89C388.114 750.302 388.006 747.659 388.492 746.904C389.355 745.341 399.93 742.213 403.383 742.213C403.868 742.213 404.138 742.213 404.354 742.483C405.649 743.723 403.653 748.9 400.038 753.483C395.613 759.091 390.002 758.822 388.599 752.89ZM394.48 772.195C389.247 776.994 386.873 777.156 385.74 772.68C384.499 767.989 388.222 762.381 392.214 762.65C392.484 762.758 392.7 762.758 392.916 762.758C394.804 763.243 396.908 763.783 397.502 763.783C400.146 763.783 398.419 768.636 394.426 772.249L394.48 772.195ZM397.556 734.772C395.182 736.012 391.729 737.36 389.732 738.007C386.279 739.139 386.118 738.87 386.603 731.806L387.089 724.526L394.804 722.531C399.93 721.129 402.358 720.374 403.653 720.536C404.893 720.644 404.893 721.668 404.893 723.501C404.893 728.355 402.304 732.453 397.556 734.826V734.772ZM399.93 709.913C397.07 712.016 392.916 714.227 390.596 714.874C386.333 715.898 386.279 715.737 386.279 708.888V701.77L394.696 699.344C399.444 697.942 401.926 697.187 403.275 697.187C405.055 697.187 404.893 698.481 404.893 701.447C404.893 704.79 403.491 707.163 399.93 709.913ZM401.764 683.113C400.901 684.677 397.448 687.426 394.049 689.206C384.985 693.789 382.503 693.466 383.744 687.48C384.229 684.73 384.769 681.764 384.769 680.632C384.769 678.799 396.8 673.676 401.332 673.676C403.76 673.676 404.03 678.907 401.818 683.113H401.764ZM343.98 477.663C344.735 480.036 342.523 479.82 330.815 476.531C309.665 470.438 302.489 466.393 310.529 465.099C311.014 465.099 311.661 464.991 312.417 464.991C322.236 464.829 342.253 472.541 343.98 477.663ZM339.663 449.353C339.663 447.951 339.933 447.25 340.257 447.25C340.527 447.25 340.85 447.52 341.39 447.951C342.253 448.814 342.847 450.809 342.523 452.319C341.93 455.662 339.663 453.398 339.663 449.299V449.353ZM329.574 481.815C337.991 483.164 349.699 489.095 349.699 491.953C349.699 497.669 335.671 493.086 327.2 484.673L323.369 480.683L329.574 481.815ZM337.289 560.814C341.983 565.289 345.868 569.549 345.868 569.981C345.868 574.295 337.397 567.716 331.301 558.711C329.304 555.691 328.549 554.235 329.035 554.127C329.628 553.858 332.38 556.23 337.236 560.814H337.289ZM334.808 540.269C335.293 539.568 335.779 539.136 336.21 539.136C336.696 539.298 337.343 539.783 338.045 540.646C339.07 541.886 339.663 544.097 339.448 545.607C338.962 547.872 338.692 547.872 336.318 545.23C334.754 543.504 334.214 541.509 334.862 540.215L334.808 540.269ZM343.872 585.133C344.735 585.025 345.706 586.266 346.246 588.746C346.731 591.604 345.868 593.06 342.523 595.055C337.937 597.805 336.426 596.188 340.419 592.79C341.768 591.658 342.793 589.555 342.793 587.937C342.793 586.104 343.278 585.241 343.926 585.079L343.872 585.133ZM338.746 616.733C340.203 614.144 342.847 610.423 344.465 608.266L347.325 604.546V610.855C347.433 615.708 346.731 617.595 344.735 618.027C343.224 618.512 340.581 619.429 339.016 620.022C336.157 621.316 336.156 621.154 338.746 616.679V616.733ZM343.71 646.822C348.836 642.239 349.159 641.214 347.595 638.086C346.57 636.253 345.113 635.121 344.303 635.66C341.714 637.116 341.336 633.772 343.71 630.429C345.167 628.164 346.57 627.14 347.433 627.14C348.458 627.302 348.89 628.542 348.89 630.861C348.89 632.856 349.645 635.121 350.508 635.606C353.637 637.439 351.911 642.023 346.192 647.631C340.743 652.969 338.099 654.587 338.099 652.592C338.099 652.214 340.527 649.626 343.656 646.768L343.71 646.822ZM349.591 664.455C346.839 663.7 346.462 662.945 347.703 659.71C348.458 657.607 348.944 656.744 349.699 657.014C350.077 657.121 350.724 657.607 351.587 658.469C354.932 661.813 353.691 665.587 349.591 664.455ZM349.699 691.039C354.447 685.431 354.555 683.814 350.562 678.745C347.217 674.485 346.462 670.548 348.943 670.548C351.21 670.548 355.094 677.019 356.173 682.465C356.875 686.564 356.173 688.289 351.587 693.304C345.221 699.991 343.71 698.104 349.699 691.039ZM357.145 698.858C357.522 698.858 357.9 698.966 358.277 699.236C360.867 700.854 360.166 708.079 357.145 710.29C352.882 713.526 352.019 712.879 352.019 707.163C352.019 702.471 354.609 698.589 357.145 698.858ZM358.008 722.099C358.439 721.992 358.601 721.992 358.871 721.992C360.759 721.992 362 723.124 363.025 725.712C363.889 727.977 364.482 730.026 364.482 730.404C364.482 732.183 358.277 730.835 356.011 728.57C352.774 725.443 353.637 722.747 358.008 722.099ZM364.158 680.956C362 674.647 363.673 672.166 369.878 672.166C376.082 672.166 378.942 675.725 378.186 683.436C377.917 686.294 376.784 688.559 375.435 688.775C371.334 689.368 365.615 685.431 364.158 680.902V680.956ZM374.464 663.43C372.09 669.632 362.27 662.837 360.544 653.724C359.86 650.417 361.569 648.763 365.669 648.763C369.014 648.763 372.629 649.626 373.654 650.597C375.651 652.592 376.082 659.332 374.518 663.43H374.464ZM371.604 566.422C372.198 562.431 373.6 560.274 375.057 560.274C376.298 560.274 377.485 561.569 378.51 564.157C379.967 568.147 379.104 572.569 376.244 574.564C371.928 577.584 370.147 574.456 371.55 566.422H371.604ZM373.169 637.385C372.305 641.861 371.604 642.616 367.611 642.616C364.158 642.616 362.486 641.484 360.598 638.032C359.357 635.552 358.224 631.723 358.224 629.459C358.224 626.007 358.817 625.63 364.428 625.63C371.712 625.63 374.571 629.351 373.115 637.439L373.169 637.385ZM366.478 619.213C360.166 619.213 357.144 616.786 356.011 611.124C355.418 608.428 354.609 604.815 354.177 603.306C353.584 601.149 354.447 600.717 358.17 600.717C360.597 600.717 364.59 601.31 366.748 602.173C370.309 603.575 370.741 604.546 370.741 611.448C370.741 618.943 370.579 619.321 366.478 619.159V619.213ZM361.137 594.732C355.58 593.977 353.583 591.281 353.152 583.3C352.882 576.721 352.882 576.559 358.277 576.128C358.655 575.966 359.033 575.966 359.518 575.966C365.399 575.858 367.611 579.202 367.611 587.668C367.611 595.001 367.126 595.648 361.137 594.786V594.732ZM365.615 567.015C364.86 568.74 362.594 569.603 358.439 569.603C351.425 569.603 349.375 567.123 348.566 558.441L348.188 553.21H356.011C363.619 553.21 363.727 553.318 365.076 558.926C365.831 562 366.047 565.613 365.561 567.015H365.615ZM354.555 546.254C346.731 546.254 346.57 546.146 344.573 537.303C343.17 531.587 343.44 530.832 346.462 530.131C348.296 529.646 351.911 529.268 354.609 529.268C359.842 529.107 361.353 531.695 361.353 541.185C361.353 546.2 361.245 546.308 354.501 546.308L354.555 546.254ZM355.796 522.043C351.587 523.66 344.25 523.067 343.656 521.072C340.095 510.97 339.376 505.919 341.498 505.919C351.21 505.919 363.133 519.346 355.796 522.043ZM330.168 575.966C330.653 575.265 331.409 574.834 332.272 574.834C334.268 574.996 337.128 576.829 340.257 580.28C341.498 581.628 342.091 582.545 342.091 582.976C342.091 583.785 340.095 583.246 336.156 581.035C333.783 579.795 331.139 579.148 330.276 579.633C328.441 580.766 328.279 578.77 330.168 575.912V575.966ZM333.783 597.59C336.156 597.428 334.916 601.58 331.085 607.296C326.769 613.713 325.743 614.252 325.743 610.423C325.743 607.566 332.056 597.59 333.836 597.59H333.783ZM331.948 625.576C334.322 625.576 333.783 632.856 331.085 637.978C328.225 643.587 325.743 643.964 325.743 638.572C325.743 633.988 329.736 625.576 331.948 625.576ZM334.16 651.891C335.995 651.891 333.675 661.705 331.409 663.053C328.279 665.048 327.146 664.455 327.146 660.68C327.146 657.175 331.409 651.837 334.16 651.837V651.891ZM331.57 675.509C331.57 675.509 332.056 675.401 332.272 675.401C334.16 675.401 336.264 675.887 337.397 676.858C340.419 679.338 340.257 685.431 337.128 686.672C332.164 688.559 329.412 686.456 328.549 679.877C328.063 676.75 328.819 675.887 331.57 675.509ZM337.721 707.163L337.236 711.638L334.214 705.922C331.948 701.608 331.786 698.751 333.081 698.589C333.675 698.589 334.592 699.074 335.833 700.314C337.289 701.716 338.099 704.574 337.667 707.163H337.721ZM334.16 718.109C334.754 718.109 335.563 718.271 336.426 718.379C339.879 718.864 341.498 720.266 342.631 723.717C343.656 726.306 344.357 729.056 344.357 729.811C344.357 730.566 343.009 731.213 341.498 731.213C337.775 731.213 331.948 724.904 331.948 720.913C331.948 718.918 332.326 718.163 334.214 718.163L334.16 718.109ZM342.739 739.625C345.329 739.625 347.325 741.081 348.943 743.939C351.21 748.037 351.102 748.522 348.35 750.517C346.623 751.758 344.897 752.89 344.25 752.89C342.145 752.89 339.502 748.306 339.286 744.046C338.854 740.326 339.502 739.625 342.739 739.625ZM350.832 760.979C351.803 759.846 352.828 759.253 353.961 759.253C355.688 759.145 357.792 760.871 360.544 764.376C364.536 769.714 365.399 773.704 363.673 778.396C362.054 782.386 360.651 781.254 354.824 771.979C350.832 765.508 349.699 762.542 350.832 761.032V760.979ZM362.162 741.836C360.274 738.384 360.274 737.414 361.73 737.414C362.864 737.414 365.076 739.679 366.586 742.536C368.96 746.958 369.176 748.738 367.719 754.184C366.748 757.797 365.615 760.655 365.238 760.655C364.86 760.655 364.536 757.42 364.536 753.537C364.536 749.655 363.511 744.478 362.162 741.836ZM367.611 701.231C367.611 695.677 367.881 695.407 372.899 695.407C378.888 695.407 380.021 697.241 380.021 706.462C380.021 711.153 379.535 712.393 377.323 712.393C369.985 712.016 367.719 709.32 367.611 701.231ZM380.884 719.457L381.316 728.463C381.424 729.972 381.424 731.32 381.424 732.399C381.424 736.174 380.938 737.414 379.427 737.414C376.46 737.414 371.442 730.08 370.255 723.609C369.5 719.727 369.392 718.864 371.712 718.756C372.467 718.756 373.6 718.864 375.057 718.972L380.884 719.457ZM370.093 765.131C370.579 764.268 371.982 763.729 373.223 763.729C374.356 763.729 375.489 764.214 375.489 765.131C375.489 766.856 371.388 768.474 370.255 767.395C369.77 766.91 369.662 765.885 370.093 765.131ZM373.708 778.288C374.571 774.945 376.082 773.165 377.161 773.273C378.025 773.435 378.564 774.675 378.294 777.156C377.917 779.744 376.676 781.739 375.165 782.117C372.899 782.548 372.737 781.739 373.708 778.288ZM377.917 751.919C374.194 745.341 373.654 742.914 376.514 742.86C377.269 742.86 377.971 742.968 379.104 743.13C382.988 743.831 384.553 747.39 384.715 754.831C384.715 761.032 382.341 760.062 377.863 751.973L377.917 751.919ZM395.074 663.43C388.06 668.661 381.909 670.009 380.614 666.666C378.51 661.381 382.125 655.989 389.625 652.861C393.078 651.405 396.8 650.489 398.581 650.597C398.851 650.597 398.959 650.597 399.174 650.758C402.789 652.16 400.415 659.332 395.074 663.43ZM389.894 642.832C387.52 644.449 383.906 645.69 382.017 645.69C379.158 645.69 378.564 644.827 378.564 641.106C378.564 635.768 383.042 631.076 390.38 628.542C392.646 627.787 394.372 627.571 395.613 627.571C397.718 627.679 398.689 629.027 398.689 631.4C398.581 634.851 395.128 639.38 389.894 642.832ZM386.387 620.076C377.809 626.277 374.356 624.821 376.082 615.384C376.945 611.071 378.456 609.507 385.092 606.325C388.815 604.33 391.405 603.359 393.024 603.198C395.02 603.09 395.667 604.492 395.667 607.458C395.667 611.772 393.293 615.061 386.441 620.13L386.387 620.076ZM388.761 590.795C384.499 595.918 376.298 601.095 374.841 599.639C374.356 599.046 373.816 595.918 373.816 592.629C373.816 587.344 374.464 586.427 380.021 583.569C383.744 581.682 386.765 580.819 388.869 580.712C393.617 580.55 394.211 584.432 388.761 590.741V590.795ZM371.442 431.235C356.551 435.819 355.148 435.657 355.148 428.647C355.148 425.357 353.314 417.916 351.156 411.984C348.89 405.999 346.839 400.067 346.462 398.719C345.868 396.993 348.026 395.591 354.447 393.381L363.025 390.523L367.881 394.998C373.708 400.552 377.917 408.695 379.319 416.73C379.913 420.073 380.668 424.009 381.046 425.411C381.639 427.568 379.643 428.755 371.442 431.289V431.235ZM345.598 438.784C341.444 442.936 340.473 441.265 339.016 428.97C338.53 424.71 336.156 417.161 333.675 412.2C329.952 404.489 329.574 403.033 331.57 402.224C331.84 402.116 332.056 402.008 332.272 402.008C340.257 401.092 351.911 432.421 345.598 438.73V438.784ZM334.268 317.402C332.811 335.628 330.923 343.717 326.283 351.644C323.423 356.605 318.729 361.08 317.057 361.08C316.625 361.08 316.409 360.811 316.409 360.217C316.409 359.516 319.485 349.541 323.262 338.001C326.984 326.569 330.545 314.49 331.193 311.255C331.84 308.019 332.919 305.054 333.783 304.406H334.052C334.916 304.406 335.077 308.666 334.322 317.348L334.268 317.402ZM318.514 367.929C320.402 365.933 322.236 364.585 322.992 364.585H323.262C323.639 364.963 324.341 372.135 324.988 380.439L326.121 395.591H322.344C318.891 395.591 318.622 394.998 318.514 387.287C318.406 382.865 317.542 377.473 316.409 375.478C314.791 372.243 315.007 371.38 318.514 367.875V367.929ZM316.733 407.94C319.107 407.832 322.83 410.798 325.905 416.999C329.628 424.872 331.894 443.745 329.035 443.745C328.171 443.745 326.553 444.123 325.312 444.446C323.855 445.04 322.722 442.451 321.319 434.902C320.186 429.186 317.974 421.313 316.194 417.484C313.496 411.283 314.359 408.048 316.679 407.886L316.733 407.94ZM314.791 454.961C315.276 454.8 315.762 454.8 316.248 454.8C317.542 454.8 317.866 455.393 317.65 456.417C317.273 457.55 315.276 458.79 313.388 459.006C310.906 459.383 310.043 458.898 310.421 457.388C310.906 456.256 312.795 455.177 314.737 454.961H314.791ZM266.233 493.463C267.096 493.247 268.606 496.968 270.387 504.787C275.674 530.401 277.563 541.671 276.7 543.181C275.243 545.553 273.246 545.068 272.113 542.048C269.955 536.332 266.664 518.106 265.639 506.027C265.046 497.939 265.261 493.733 266.233 493.463ZM270.98 477.07C266.233 474.59 266.502 470.869 271.466 469.359C271.736 469.251 271.952 469.251 272.329 469.251C277.293 469.251 294.72 476.315 293.587 478.203C293.048 479.119 290.026 479.497 286.357 479.497C280.746 479.497 273.57 478.58 270.98 477.124V477.07ZM299.846 483.271L307.291 477.556L312.741 482.894L318.19 488.34L313.496 505.218C310.852 514.493 307.993 526.356 307.129 531.317C306.158 536.44 305.295 540.754 304.917 541.024C304.432 541.024 292.346 492.708 292.184 490.066C292.184 489.473 295.529 486.453 299.792 483.217L299.846 483.271ZM426.637 763.729C427.5 763.729 428.255 764.484 428.255 765.346C428.255 766.047 427.5 766.802 426.799 766.802C424.425 766.802 416.493 759.361 417.573 758.228C417.734 758.067 418.004 758.067 418.328 758.067C419.191 758.228 420.594 759.091 421.943 760.439C423.669 762.165 425.773 763.675 426.637 763.675V763.729ZM425.072 737.414C425.558 736.659 425.935 736.281 426.151 736.281C426.799 736.12 427.284 736.982 428.04 738.87C428.795 740.973 429.173 743.184 428.795 743.992C428.363 744.586 427.014 745.125 425.774 745.125C423.292 745.125 422.914 740.865 425.072 737.414ZM417.842 773.758C417.357 776.509 412.771 776.509 412.771 773.758C412.771 772.356 413.472 771.655 414.875 771.655C414.983 771.655 415.253 771.763 415.468 771.763C416.925 772.033 417.95 773.057 417.842 773.758ZM432.895 754.4C433.381 753.807 433.651 753.429 433.867 753.267C434.298 753.267 434.514 754.292 434.514 756.395C434.514 758.768 433.759 760.655 432.895 760.655C430.899 760.655 430.899 757.419 432.895 754.454V754.4ZM436.942 769.337C438.075 768.851 438.83 768.582 439.316 768.69C440.179 768.851 440.395 769.822 441.258 772.68C441.582 773.597 441.69 774.298 441.69 774.837C441.69 776.886 439.801 776.347 436.942 773.327C434.514 770.631 434.514 770.361 436.942 769.391V769.337ZM444.927 809.078C446.384 809.186 449.243 808.809 451.24 808.054C452.103 807.784 452.696 807.676 453.236 807.569C454.693 807.461 454.693 808.701 454.369 812.799C453.668 821.211 448.812 821.481 444.549 813.392C442.391 809.24 442.391 808.917 444.927 809.078ZM407.267 542.426C399.174 485.752 388.114 419.372 384.823 407.832C381.478 396.508 373.87 386.964 364.536 382.003C355.094 376.88 356.551 374.669 371.82 371.056C378.025 369.708 382.017 368.953 384.283 368.953C385.524 368.953 386.279 369.223 386.657 369.708C387.682 371.272 394.372 398.018 398.581 417.377C401.44 430.534 414.119 506.62 417.357 530.724C435.215 661.759 468.936 803.201 494.403 853.943C498.125 861.492 501.147 867.801 500.877 867.801C500.607 867.801 494.726 861.978 487.982 854.914L475.519 842.08L466.67 815.765C441.312 740.002 423.777 659.602 407.213 542.426H407.267ZM374.194 363.615C364.212 366.365 353.691 366.958 353.691 364.747C353.691 363.884 353.314 362.267 352.828 360.919C352.073 359.193 353.961 358.168 360.651 356.766C365.507 355.796 371.982 353.908 374.841 352.668C377.323 351.644 379.104 351.212 380.291 351.266C382.395 351.266 383.15 352.992 383.15 356.605C383.15 360.595 382.395 361.188 374.194 363.561V363.615ZM372.737 346.359C368.583 347.815 361.677 349.487 357.306 350.08C350.724 350.781 349.321 350.565 348.458 348.193C347.055 344.634 348.188 343.609 355.904 341.614C359.357 340.751 365.453 338.756 369.446 337.3C373.061 335.898 375.057 335.197 376.46 335.197C378.025 335.197 378.456 336.653 379.319 339.78C380.183 343.339 379.535 344.04 372.737 346.359ZM362.54 332.663C358.439 333.903 352.558 335.413 349.699 335.898L344.357 336.922V309.907C344.357 281.219 345.652 269.302 349.699 259.596L352.289 253.503L356.173 262.562C360.867 273.508 370.039 302.411 373.331 316.378C376.028 328.079 375.435 328.78 362.486 332.663H362.54ZM343.117 257.601C341.39 261.591 334.916 280.734 328.819 300.093C317.381 336.006 303.946 368.414 301.842 364.963C301.248 363.83 301.356 361.835 302.112 360.217C304.701 355.526 310.043 338.217 317.111 311.794C320.834 297.612 326.445 279.116 329.412 270.542C332.434 262.076 336.426 250.267 338.476 244.551L342.091 233.982L345.544 237.541C349.267 241.531 348.89 243.904 343.063 257.547L343.117 257.601ZM331.085 249.89C327.2 259.973 319.269 285.048 313.334 305.916C307.345 326.839 301.41 346.359 300.169 349.541C298.767 352.668 297.58 355.257 297.148 355.257C296.878 355.257 295.421 353.801 293.911 352.129C291.159 349.163 291.321 348.408 295.367 333.148C308.262 285.533 312.417 272.645 327.416 232.095C328.549 229.129 329.79 227.889 331.678 227.997C332.703 227.997 333.944 228.59 335.401 229.722C337.775 231.448 337.559 233.173 331.085 249.836V249.89ZM316.841 237.487C314.629 243.311 311.877 248.056 310.744 248.056C307.291 248.056 307.021 245.468 309.989 241.855C311.769 240.022 314.251 235.438 315.708 231.556C317.111 227.835 318.999 224.707 319.593 224.707C321.697 224.707 321.319 226.109 316.841 237.541V237.487ZM312.902 178.872C310.69 180.382 308.478 181.245 306.212 181.245C303.946 181.245 301.734 180.436 299.468 178.872C294.019 174.99 296.231 173.156 306.698 172.725C317.111 172.509 319.107 174.504 312.902 178.872ZM313.766 145.17C313.28 147.273 311.662 148.621 309.827 148.621C307.183 148.621 306.968 147.92 307.831 143.498C309.18 136.326 311.931 129.963 313.388 129.963C315.007 129.963 315.276 139.777 313.766 145.116V145.17ZM313.28 159.837C313.28 160.7 311.823 163.45 309.989 165.984C306.644 170.568 304.702 171.431 303.191 168.95C302.705 168.195 303.676 166.685 305.403 165.715C309.126 163.827 308.155 161.131 303.838 161.131C300.547 161.131 299.684 157.41 302.435 155.685C302.705 155.523 303.029 155.415 303.407 155.415C306.536 155.146 313.28 158.111 313.28 159.837ZM304.108 97.3394C302.328 97.3394 268.391 66.7647 263.805 60.887C262.186 58.784 260.082 56.8967 259.326 56.8967C258.571 56.8967 254.471 60.5095 250.262 64.8774C246.054 69.1913 236.45 78.4661 229.005 85.1527C214.599 98.0404 210.714 100.197 214.437 93.1334C216.595 88.9813 238.932 66.549 251.503 55.8182C256.629 51.5043 257.33 50.1023 257.33 43.901C257.33 39.9107 257.924 36.7831 258.787 36.7831C259.65 36.7831 260.405 39.9107 260.405 43.4697C260.405 50.2101 260.675 50.5876 279.559 67.7353C296.554 83.1575 308.424 97.3394 304.054 97.3394H304.108ZM216.163 156.224C216.649 157.572 215.462 160.214 213.196 162.318C210.714 164.798 208.898 164.996 207.747 162.911C204.887 157.572 205.75 155.2 210.606 154.499C211.47 154.337 212.063 154.337 212.71 154.337C214.599 154.337 215.678 154.93 216.163 156.224ZM213.79 168.788C213.79 169.651 212.656 170.352 211.416 170.352C210.175 170.352 209.042 169.651 209.042 168.788C209.042 168.033 210.175 167.278 211.416 167.278C212.656 167.278 213.79 168.033 213.79 168.788ZM206.991 145.763C204.402 140.91 203.646 128.022 205.373 128.13C205.643 128.13 205.858 128.399 206.236 128.993C207.261 130.61 208.88 135.625 210.121 139.939C212.495 149.214 210.606 152.827 206.991 145.763ZM206.722 174.019C210.444 174.612 212.926 174.127 214.437 172.617C215.462 171.646 216.703 171.215 217.782 171.215C219.778 171.215 221.505 172.347 221.505 174.342C221.505 175.475 220.048 177.47 218.052 178.818C213.466 182.054 207.099 181.946 203.862 178.387C200.031 174.073 200.733 172.94 206.722 173.965V174.019ZM209.042 246.816C209.042 249.512 200.463 247.894 198.629 244.929C195.769 240.345 196.255 238.727 200.463 238.727C203.808 238.727 209.042 243.581 209.042 246.816ZM193.557 233.173C191.453 227.565 191.722 226.325 194.96 226.325C197.442 226.325 201.38 231.879 201.38 235.762C201.38 239.105 195.068 237.002 193.557 233.173ZM204.348 299.338C209.581 325.814 210.66 332.555 210.66 339.511C210.66 343.771 210.067 347.707 209.257 348.085C206.02 350.08 200.193 331.8 190.374 289.47C186.813 274.317 182.281 256.9 180.23 250.806C175.86 237.919 175.482 233.659 178.828 230.962C179.691 230.207 180.284 229.83 180.824 229.83C182.55 229.722 184.169 233.659 189.402 247.948C195.229 263.856 201.434 285.371 204.294 299.392L204.348 299.338ZM201.003 409.827C201.488 409.827 202.028 409.666 202.405 409.666C205.265 409.666 204.887 411.553 201.38 419.264C199.654 423.254 197.819 430.534 197.28 435.819C196.686 441.049 195.823 445.363 195.176 445.363C194.528 445.363 192.802 443.907 191.291 442.235C185.572 435.926 193.017 411.068 201.003 409.827ZM196.74 367.767C197.388 367.767 198.736 368.737 199.869 370.139C201.488 371.973 201.272 374.238 199.006 381.841C196.147 391.008 194.582 393.758 193.017 391.385C192.046 389.822 195.499 367.821 196.74 367.821V367.767ZM187.298 297.504C191.453 315.137 196.632 335.143 198.898 341.83C201.164 348.57 202.891 355.742 202.891 357.737C202.891 359.732 202.297 361.458 201.38 361.458C196.686 361.458 188.701 338.972 183.36 310.877C179.259 289.847 177.425 282.298 170.842 260.836C168.468 253.125 167.227 246.385 167.821 244.066C168.414 241.693 169.278 240.453 170.087 240.453C170.95 240.345 171.814 241.478 172.353 243.796C172.839 245.684 174.727 251.4 176.454 256.361C178.342 261.321 183.198 279.817 187.406 297.504H187.298ZM183.252 403.518C184.493 402.655 186.489 402.062 188.215 402.062C188.485 402.062 188.701 402.062 188.863 402.17C191.021 402.494 190.805 404.489 188.215 408.156C184.385 413.494 179.637 428.755 179.637 435.603C179.637 439.701 177.802 440.186 174.943 436.843C170.681 431.72 176.346 409.396 183.252 403.572V403.518ZM87.1064 930.73C106.745 844.021 116.187 802.554 126.115 758.282C131.726 733.531 137.553 707.702 139.064 700.854C162.426 597.374 197.118 458.682 200.571 454.961C200.571 454.8 200.841 454.8 201.056 454.692C201.65 454.692 202.891 454.961 204.294 455.285C209.527 457.011 210.283 452.805 185.032 555.583C177.533 585.888 169.116 621.154 166.256 633.988C163.397 646.822 157.948 671.303 154.063 688.451C145.107 728.301 85.7035 993.875 83.8691 1002.5C83.3835 1005.15 82.1426 1006.01 78.5277 1006.01C74.0496 1006.01 73.9417 1005.74 73.9417 999.267C73.9417 990.1 75.6682 980.879 87.1064 930.677V930.73ZM93.6348 1000.78C94.8757 993.821 114.137 904.523 116.727 893.469C119.101 883.493 148.613 750.302 171.814 644.234C184.385 587.074 190.374 560.975 207.747 485.806C210.175 475.237 212.333 464.506 212.603 462.187C212.818 459.329 212.71 458.089 213.843 458.089C214.707 458.089 216.325 458.79 219.293 460.084C222.314 461.324 224.634 463.158 224.634 464.398C224.634 465.531 222.908 472.379 220.75 479.389C218.645 486.507 215.894 497.292 214.653 503.385C213.412 509.532 209.527 526.734 206.074 541.671C202.729 556.716 196.632 584.702 192.748 603.845C178.504 673.514 174.997 690.662 167.174 727.222C152.876 793.548 118.076 944.319 110.846 970.418C109.119 976.727 105.99 985.679 103.994 990.154C101.89 994.63 99.7315 1000.35 99.2999 1002.99C98.4366 1007.3 95.9548 1008.97 93.6887 1006.71C93.0952 1006.22 93.0952 1003.47 93.5808 1000.83L93.6348 1000.78ZM109.659 998.351C110.522 998.351 111.224 998.944 111.224 999.807C111.224 1000.67 112.626 1002.77 114.353 1004.5L117.482 1007.63H112.788C108.634 1007.63 108.148 1007.03 108.148 1002.93C108.148 1000.35 108.796 998.351 109.659 998.351ZM122.392 980.933C121.799 979.531 135.125 972.629 137.715 972.737C137.823 972.737 137.985 972.737 138.093 972.899C138.524 973.276 137.607 977.482 135.988 982.066C134.262 986.649 132.967 991.502 132.967 992.742C132.967 993.983 132.373 995.331 131.618 995.762C130.593 996.463 127.464 991.394 122.392 980.987V980.933ZM128.273 973.6C122.824 976.889 117.698 979.477 116.943 979.585C116.349 979.585 116.835 977.59 118.238 975.002C119.586 972.413 121.205 970.418 121.799 970.418C122.392 970.418 126.654 967.938 131.24 964.81C135.827 961.844 140.251 959.579 140.952 959.849C144.243 960.981 137.391 968.423 128.273 973.654V973.6ZM140.089 998.782C141.546 995.439 142.247 994.091 142.679 994.091C143.11 994.091 143.434 995.061 143.974 996.679C144.567 998.782 145.214 1002.02 145.322 1003.85C145.322 1006.01 144.243 1007.46 142.247 1008C137.769 1009.24 137.014 1005.85 140.089 998.782ZM345.976 846.124C343.386 826.01 341.012 807.407 340.527 804.549L339.933 799.534L345.76 804.279C350.616 808.108 352.073 810.588 353.745 817.814C354.717 822.667 356.605 830.648 357.846 835.447C358.979 840.139 363.079 859.443 366.91 878.047C378.942 936.338 384.445 961.629 385.524 964.487C387.035 968.099 385.956 967.83 381.801 963.516C379.967 961.521 374.625 958.07 369.985 955.805C362 951.814 361.515 951.329 360.004 943.51C357.63 931.809 351.317 888.616 345.976 846.07V846.124ZM387.898 976.619C389.894 980.34 390.002 980.34 382.179 976.458C373.978 972.359 363.025 962.33 363.025 958.717C363.025 957.476 363.133 956.883 363.619 956.883C363.997 956.883 364.32 957.099 364.86 957.476C365.993 958.339 371.172 962.33 376.568 966.428C381.909 970.418 387.035 975.002 387.898 976.619ZM361.623 999.807C362.594 997.056 363.079 995.816 363.619 995.816C364.104 995.708 364.752 996.302 365.453 997.542C366.748 998.998 367.611 1002.39 367.611 1004.71C367.611 1008.33 367.018 1009.08 363.727 1009.08C359.411 1009.08 359.033 1007.3 361.623 999.753V999.807ZM366.371 971.011C366.802 970.742 370.957 973.114 375.704 976.35L384.391 982.174L380.291 989.507C376.028 996.787 374.194 998.189 373.169 994.738C372.791 993.767 371.065 988.051 369.176 982.174C367.342 976.35 366.047 971.335 366.317 971.011H366.371ZM391.189 1002.93C392.053 1000.35 393.671 998.351 394.804 998.351C396.531 998.351 398.635 1002.66 398.635 1006.44C398.635 1007.03 396.639 1007.68 394.049 1007.68C389.732 1007.68 389.625 1007.41 391.189 1002.99V1002.93ZM368.583 858.041C359.033 815.172 357.63 810.426 360.759 810.211C361.461 810.211 362.486 810.319 363.619 810.319C368.043 810.319 369.068 811.074 370.579 815.172C373.708 824.015 388.869 891.743 401.764 953.971C404.246 965.996 407.213 980.286 408.508 985.894C409.911 991.341 411.206 998.62 411.854 1001.8C412.609 1006.39 412.339 1007.63 410.505 1007.63C409.102 1007.63 407.483 1005.2 406.62 1001.8C405.757 998.566 404.03 994.63 402.897 992.85C396.908 984.277 394.319 974.085 368.583 857.987V858.041ZM396.477 891.851C384.391 839.168 380.884 821.427 382.179 820.133C382.395 819.863 382.665 819.863 383.042 819.755C385.74 819.648 392.484 823.206 393.078 825.579C394.912 831.726 405.757 878.91 412.825 911.21C426.637 973.815 429.712 990.208 429.712 998.944C429.712 1006.12 429.334 1007.63 426.96 1007.52C425.504 1007.52 423.508 1007.03 422.644 1006.39C421.673 1005.79 417.68 989.831 413.688 971.065C409.857 952.354 401.98 916.656 396.423 891.797L396.477 891.851ZM137.715 305.215C142.84 277.121 146.887 262.454 152.013 255.39C155.25 250.914 155.735 249.782 153.415 251.777C151.527 253.395 150.07 254.042 150.07 253.233C150.07 250.105 159.242 219.099 162.264 212.359C169.224 195.966 179.799 161.401 185.842 135.464C197.01 87.1479 201.272 72.1031 206.722 60.4556C213.736 45.8962 225.282 33.6016 238.069 27.2386C244.759 24.0032 247.511 23.0326 253.338 22.9247C255.334 22.9247 257.654 22.9247 260.675 23.0865C276.538 23.7875 285.818 27.9396 296.986 39.1018C310.852 53.122 315.546 63.691 328.171 111.899C344.196 173.048 353.044 201.628 366.802 237.271C391.081 299.284 411.692 378.552 425.126 460.947C460.843 679.122 488.791 797.539 528.339 897.891C532.332 907.974 535.299 916.548 534.922 916.926C533.897 917.896 513.502 880.635 504.6 861.654C486.31 822.613 466.401 758.875 451.725 692.28C437.697 628.919 432.086 597.212 415.792 487.262C402.142 395.214 400.253 386.209 383.204 323.334C373.385 287.205 367.072 267.307 356.983 240.938C341.39 200.226 332.488 171.485 320.186 122.306C307.345 71.1325 301.195 56.0878 287.598 43.1461C279.397 35.435 268.175 30.5819 258.733 30.5819C249.291 30.5819 238.716 35.3272 230.03 43.3079C216.487 55.7103 209.635 71.6178 202.028 108.286C197.711 129.262 187.46 169.543 183.414 182.107C178.666 196.289 165.231 231.717 161.508 239.536C159.512 243.796 158.433 247.625 159.081 248.11C163.936 251.453 173.756 295.94 175.806 323.388L176.831 336.329L169.224 334.927C158.055 332.77 142.894 327.486 138.632 324.089L134.801 321.123L137.661 305.215H137.715ZM132.967 330.667L143.542 335.143C149.423 337.516 158.865 340.428 164.584 341.452C172.137 342.908 174.727 344.04 174.134 345.55C173.756 346.683 173.432 348.3 173.432 349.163C173.432 351.59 162.102 350.565 150.826 346.791C135.233 341.668 133.021 340.32 133.021 335.089V330.613L132.967 330.667ZM130.647 348.732C130.647 348.732 130.917 348.624 131.025 348.624C132.427 348.624 136.636 349.756 141.222 351.482C146.563 353.315 155.412 355.796 160.645 356.766C165.987 357.899 170.357 358.923 170.357 359.247C170.357 359.516 169.602 361.512 168.9 363.561C167.174 368.144 166.904 368.144 153.955 365.286C139.819 362.159 130 357.144 130 352.884C130 350.997 130.377 349.163 130.701 348.624L130.647 348.732ZM116.673 470.222C119.317 437.059 127.248 368.09 128.759 366.742C128.759 366.634 128.867 366.634 129.136 366.634C130.377 366.473 134.694 367.497 139.549 369.007C145.053 370.733 152.768 372.62 156.707 373.267C164.422 374.399 165.447 375.855 161.724 380.816C158.001 385.831 158.865 387.125 168.9 391.547L178.342 395.645L174.997 400.768C169.278 409.18 166.688 416.298 165.933 425.034L165.177 433.338L160.052 432.314C154.602 431.343 136.204 424.117 133.614 422.014C131.456 420.289 129.244 433.716 125.252 471.84C121.529 508.616 119.047 548.573 118.831 576.236C118.669 587.506 117.806 600.34 116.673 604.654L114.839 612.365L113.598 601.526C111.871 586.373 113.598 508.616 116.673 470.33V470.222ZM13.2977 1001.48C9.03539 1001.48 9.30515 1000.45 16.5349 986.757C19.8801 980.178 22.4159 974.193 21.8763 973.492C21.3908 972.737 22.4698 968.477 24.1424 964.325C29.4298 950.898 53.8169 868.718 73.8338 796.406C76.5854 786.484 84.3008 759.253 90.991 735.796C102.861 694.383 113.759 654.048 123.849 615.384C138.308 559.627 158.595 488.125 170.465 451.079C171.76 447.358 173.594 445.255 175.213 445.255C175.914 445.255 176.615 445.74 177.209 446.657C177.695 447.358 176.939 451.618 175.752 456.094C173.001 465.261 160.052 511.635 152.39 540.053C149.531 550.784 138.362 594.516 127.626 637.116C116.781 679.877 105.019 726.683 101.188 741.242C97.4655 755.802 88.725 789.396 81.8728 815.819C75.1826 842.295 64.0142 884.572 57.1621 909.754C50.4178 934.99 44.2671 958.339 43.4578 961.79C41.3536 971.065 37.361 970.095 38.0085 960.388C38.3862 953.432 38.2783 952.947 34.8792 953.432C30.5629 954.025 29.268 959.526 32.775 962.491C34.1239 963.462 35.1489 965.727 35.1489 967.291C35.1489 968.854 35.8504 970.31 36.7676 970.31C38.602 970.31 38.7099 979.477 36.7676 982.605C35.6345 984.438 34.9871 984.007 33.6382 980.61C32.775 978.237 32.0197 975.379 32.0197 974.301C32.0197 973.276 31.0485 971.011 29.7536 969.447C27.7573 966.859 27.1638 966.697 25.9229 968.693C24.8978 970.149 25.0596 971.712 26.4085 973.276C27.5415 974.678 29.268 978.992 30.2931 982.982C31.7499 989.13 31.6959 991.448 29.5378 996.679C27.7033 1001.53 26.3006 1002.88 23.3331 1002.88C18.5852 1002.88 18.5852 999.753 23.3331 995.277C27.1638 991.718 29.5378 984.708 27.2717 983.36C24.574 981.58 14.107 995.385 15.4559 998.998C16.0494 1000.62 15.4559 1001.37 13.3517 1001.37L13.2977 1001.48ZM38.8718 1000.78C38.8718 1002.29 38.0085 1003.8 36.8755 1004.12C35.4187 1004.61 34.8792 1003.64 35.3108 1001.15C35.6885 998.998 36.5518 998.027 37.415 997.865C38.1704 997.757 38.8718 998.728 38.8718 1000.72V1000.78ZM477.137 1021.21C411.206 1025.2 79.1212 1024.77 32.6671 1020.78C22.5777 1019.81 21.6066 1019.43 19.0708 1015.07C17.5061 1012.37 16.481 1010 16.6968 1009.78H18.0996C20.6894 1009.78 26.2466 1010.16 32.775 1010.75C87.9696 1015.77 372.305 1016.63 465.969 1012.16C490.302 1010.91 506.596 1010.75 507.459 1011.67C508.161 1012.42 509.024 1014.53 509.294 1016.15C509.779 1019.11 508.431 1019.38 477.137 1021.27V1021.21ZM492.676 982.066C494.942 985.301 496.669 990.046 496.669 992.473C496.669 995.061 497.046 996.733 497.64 996.194C499.258 994.63 502.873 998.351 502.873 1001.53C502.873 1003.64 501.74 1004.5 498.881 1004.5C496.291 1004.5 494.996 1003.64 494.996 1001.64C494.996 1000.18 494.403 998.189 493.539 997.326C491.543 995.331 484.205 974.948 484.205 971.335C484.205 969.879 484.853 968.962 485.716 969.501C486.579 970.095 485.554 967.884 483.45 964.756C480.105 959.795 478.972 957.045 480.105 957.045C480.59 956.937 481.562 957.53 482.964 958.771C488.576 963.516 490.41 965.996 493.809 973.06C497.154 980.556 496.669 984.007 493.054 977.212C491.813 974.732 490.464 973.6 489.817 974.624C489.331 975.595 490.572 978.938 492.676 982.066ZM484.367 1004.5C481.616 1004.5 481.13 1003.53 481.13 999.052C481.13 995.493 481.993 993.497 482.856 993.605C483.45 993.767 484.097 994.63 484.583 996.355C485.069 997.811 485.824 1000.35 486.417 1001.8C487.281 1003.8 486.849 1004.5 484.313 1004.5H484.367Z"
            fill="#231F20" />
    </g>
    <defs>
        <clipPath id="clip0_700_3896">
            <rect width="512" height="512" fill="white" />
        </clipPath>
    </defs>
</svg>