<?xml version="1.0" encoding="UTF-8"?>
<svg version="1.1" xmlns="http://www.w3.org/2000/svg" width="512" height="512">
<path d="M0 0 C1.27230469 0.01804687 2.54460937 0.03609375 3.85546875 0.0546875 C4.83128906 0.07789063 5.80710938 0.10109375 6.8125 0.125 C6.81796844 1.15071106 6.81796844 1.15071106 6.82354736 2.19714355 C6.86546478 9.33554671 6.93487596 16.47331246 7.02001953 23.61132812 C7.05037523 26.27291611 7.06942114 28.9339002 7.08349609 31.59570312 C7.10498215 35.42881643 7.15166563 39.26093602 7.203125 43.09375 C7.20496796 44.86921204 7.20496796 44.86921204 7.20684814 46.68054199 C7.3286907 53.60453451 8.03011645 58.26187665 11.8125 64.125 C17.60011507 68.73146914 22.59182353 69.85323917 29.8125 69.125 C33.13055142 67.80070727 33.13055142 67.80070727 35.8125 66.125 C36.8025 65.795 37.7925 65.465 38.8125 65.125 C39.95459817 63.34271064 39.95459817 63.34271064 40.8125 61.125 C41.1552597 60.37132645 41.49801941 59.61765289 41.85116577 58.84114075 C42.90246256 55.870821 43.08876361 53.56086999 43.13134766 50.41674805 C43.15121735 49.29596359 43.17108704 48.17517914 43.19155884 47.02043152 C43.20311005 45.8213063 43.21466125 44.62218109 43.2265625 43.38671875 C43.24592865 42.15081497 43.2652948 40.91491119 43.2852478 39.64155579 C43.33482555 36.36848033 43.37612829 33.095439 43.41339111 29.82220459 C43.45352019 26.47706543 43.50473452 23.13211627 43.5546875 19.78710938 C43.65066807 13.23318139 43.73573671 6.67917972 43.8125 0.125 C44.4725 0.125 45.1325 0.125 45.8125 0.125 C45.81836624 0.8132486 45.82423248 1.50149719 45.83027649 2.21060181 C45.89426484 9.38106786 45.97869932 16.55108737 46.07495117 23.72119141 C46.10982002 26.39636214 46.13621881 29.07123638 46.15893555 31.74658203 C46.19251267 35.59437788 46.24483279 39.44153489 46.30078125 43.2890625 C46.31036613 45.08000839 46.31036613 45.08000839 46.32014465 46.90713501 C46.42330236 52.74773515 46.56763589 57.0680017 49.8125 62.125 C50.1425 63.115 50.4725 64.105 50.8125 65.125 C52.59478936 66.26709817 52.59478936 66.26709817 54.8125 67.125 C55.534375 67.49625 56.25625 67.8675 57 68.25 C62.30085309 69.89915429 67.07441974 69.86529345 72.1875 67.6875 C73.05375 67.171875 73.92 66.65625 74.8125 66.125 C75.8025 65.795 76.7925 65.465 77.8125 65.125 C78.95459817 63.34271064 78.95459817 63.34271064 79.8125 61.125 C80.1552597 60.37132645 80.49801941 59.61765289 80.85116577 58.84114075 C81.90246256 55.870821 82.08876361 53.56086999 82.13134766 50.41674805 C82.15121735 49.29596359 82.17108704 48.17517914 82.19155884 47.02043152 C82.20311005 45.8213063 82.21466125 44.62218109 82.2265625 43.38671875 C82.24592865 42.15081497 82.2652948 40.91491119 82.2852478 39.64155579 C82.33482555 36.36848033 82.37612829 33.095439 82.41339111 29.82220459 C82.45352019 26.47706543 82.50473452 23.13211627 82.5546875 19.78710938 C82.65066807 13.23318139 82.73573671 6.67917972 82.8125 0.125 C96.58524644 -0.78975526 96.58524644 -0.78975526 100.8203125 2.36328125 C101.89223517 3.3535963 102.93163297 4.38015729 103.9375 5.4375 C104.79468628 6.25021362 104.79468628 6.25021362 105.66918945 7.0793457 C106.84102064 8.1941014 107.99957694 9.32298783 109.14404297 10.46582031 C111.6886253 12.99625367 114.34728948 15.39666945 117 17.8125 C117.49145508 18.26810303 117.98291016 18.72370605 118.48925781 19.19311523 C121.62585864 22.09441883 124.85412481 24.82843361 128.1875 27.5 C133.91772487 32.11071639 139.24335078 37.10256638 144.60546875 42.12890625 C149.2764332 46.50616714 154.10997541 50.6764289 158.984375 54.82421875 C165.82768479 60.65518213 172.55233217 66.57908334 179.15625 72.6796875 C183.67548847 76.84004527 188.31428609 80.85185535 192.9921875 84.83203125 C199.26689773 90.1771871 205.44904327 95.58415786 211.48779297 101.19482422 C214.62753117 104.09248224 217.85416489 106.82846573 221.1875 109.5 C226.43598521 113.71411221 231.33671753 118.24446676 236.21826172 122.87255859 C239.26233182 125.84215549 239.26233182 125.84215549 242.8125 128.125 C242.8125 128.785 242.8125 129.445 242.8125 130.125 C112.1325 130.125 -18.5475 130.125 -153.1875 130.125 C-146.43607685 122.24833966 -146.43607685 122.24833966 -142.3125 118.625 C-141.44367188 117.85800781 -140.57484375 117.09101563 -139.6796875 116.30078125 C-138.85726562 115.58277344 -138.03484375 114.86476563 -137.1875 114.125 C-136.55070312 113.56167969 -135.91390625 112.99835938 -135.2578125 112.41796875 C-132.19727264 109.71865141 -129.10813368 107.05443003 -126 104.41015625 C-119.16028765 98.58620502 -112.44228985 92.66594856 -105.84375 86.5703125 C-101.32451153 82.40995473 -96.68571391 78.39814465 -92.0078125 74.41796875 C-85.16630293 68.5905094 -78.44497892 62.66843269 -71.84375 56.5703125 C-67.32451153 52.40995473 -62.68571391 48.39814465 -58.0078125 44.41796875 C-52.25071488 39.51374482 -46.54103876 34.58573785 -41 29.4375 C-37.37466792 26.06916553 -33.67517607 22.8457798 -29.8125 19.75 C-24.59695239 15.56083567 -19.72298399 11.06317876 -14.86962891 6.46533203 C-14.30421387 5.93149902 -13.73879883 5.39766602 -13.15625 4.84765625 C-12.40504883 4.13234741 -12.40504883 4.13234741 -11.63867188 3.40258789 C-7.66991485 -0.09144063 -5.15586418 -0.09460301 0 0 Z " fill="#000000" transform="translate(211.1875,322.875)"/>
<path d="M0 0 C2.70567626 1.82339052 4.53728718 3.07457436 6 6 C6.5303282 11.85827667 5.83996948 17.57861485 5 23.375 C2.796386 39.21248482 3.13623088 56.61665871 13 70 C22.60857287 81.06250166 35.18799741 82.9151182 49 84 C49.15033691 84.7842334 49.30067383 85.5684668 49.45556641 86.37646484 C54.27780324 112.4545713 54.27780324 112.4545713 64 137 C64.66 137 65.32 137 66 137 C74.45413824 120.34354891 77.58781984 102.20195141 81 84 C90.82165388 83.45164463 98.57899185 83.19742433 107 89 C108.5778125 90.051875 108.5778125 90.051875 110.1875 91.125 C127.91094735 107.14619534 130.79843597 136.74576172 132 159 C132.14576248 164.10919322 132.14458011 169.21920563 132.13037109 174.33007812 C132.1249907 176.62897278 132.13036283 178.92767356 132.13671875 181.2265625 C132.15083897 204.0426919 132.15083897 204.0426919 129 208.625 C125.07904392 211.72909023 121.95144903 212.39611592 117 212 C113.23128299 210.44335602 111.02971026 208.51476785 109 205 C108.76550324 202.22607948 108.69741435 199.68734761 108.77734375 196.921875 C108.79218559 195.72883255 108.79218559 195.72883255 108.80732727 194.51168823 C108.8287092 192.80794055 108.85613792 191.10425999 108.88903809 189.4006958 C108.97027202 184.95748614 108.99290895 180.51416603 109.01171875 176.0703125 C109.01567657 175.19438446 109.0196344 174.31845642 109.02371216 173.41598511 C109.05812827 155.92043986 107.55832668 138.67498003 102 122 C101.99853344 123.01398644 101.99706688 124.02797289 101.99555588 125.0726862 C101.95896314 149.74363948 101.89951646 174.41445698 101.81609726 199.08529758 C101.77628561 211.01593311 101.74390388 222.94650247 101.72900391 234.87719727 C101.71599845 245.27582577 101.68906197 255.67430882 101.64538693 266.07285541 C101.62274737 271.57897887 101.60709082 277.08492275 101.60811615 282.59109688 C101.60886128 287.77448477 101.59096944 292.95747532 101.55883217 298.14076042 C101.55031885 300.04223189 101.54859294 301.94374784 101.55419731 303.8452301 C101.56083717 306.44440812 101.54291754 309.04232192 101.51898193 311.64137268 C101.53062256 312.76639949 101.53062256 312.76639949 101.54249835 313.91415411 C101.45215939 319.46702446 100.07918996 322.53599718 97 327 C92.03118093 330.95477436 87.96435079 331.64731807 81.65234375 331.37890625 C77.43325682 330.77617955 75.36568311 329.67880901 72 327 C67.4279543 320.85230214 67.44841802 315.5966226 67.54589844 308.09790039 C67.54531433 306.91669617 67.54473022 305.73549194 67.54412842 304.51849365 C67.54642891 301.29765472 67.5664146 298.07752136 67.59442425 294.85682225 C67.61952021 291.48428651 67.62178632 288.1117352 67.62652588 284.73912048 C67.63893174 278.36080548 67.67172054 271.98276648 67.71192384 265.60457271 C67.75671637 258.33977511 67.77864731 251.07496396 67.79870558 243.81006253 C67.84045565 228.87322155 67.91076069 213.93663845 68 199 C66.02 199 64.04 199 62 199 C62.00368717 199.61714906 62.00737434 200.23429811 62.01117325 200.87014866 C62.09959679 215.90227392 62.16574472 230.93431912 62.20724869 245.96663761 C62.22785436 253.23623571 62.25593649 260.50565998 62.30175781 267.77514648 C62.34168706 274.11289652 62.36744732 280.45052063 62.37635398 286.78839296 C62.38155854 290.14281492 62.39374863 293.49687668 62.42292023 296.85118294 C62.45196023 300.60030594 62.45595555 304.34868299 62.45410156 308.09790039 C62.46848267 309.20417282 62.48286377 310.31044525 62.49768066 311.45024109 C62.46336897 317.86332368 61.86299607 321.80570969 58 327 C53.03118093 330.95477436 48.96435079 331.64731807 42.65234375 331.37890625 C38.43325682 330.77617955 36.36568311 329.67880901 33 327 C29.17858669 321.5313681 28.41842155 317.57926933 28.48101807 310.99598694 C28.47351681 310.11204221 28.46601556 309.22809748 28.458287 308.31736654 C28.43805405 305.36766786 28.44610393 302.41874108 28.45410156 299.46899414 C28.44536418 297.34975425 28.43487782 295.23052095 28.42277527 293.11129761 C28.39491512 287.36597509 28.3915106 281.62086783 28.39249516 275.87548757 C28.3893661 269.86831291 28.36374798 263.8612352 28.34051514 257.85411072 C28.29995119 246.48227802 28.27961345 235.11050268 28.26654124 223.73860878 C28.25067258 210.79063647 28.21225746 197.84276178 28.17194796 184.89484608 C28.08954355 158.26326348 28.03545477 131.63168356 28 105 C27.05753418 104.67749268 26.11506836 104.35498535 25.14404297 104.02270508 C23.89768066 103.58853271 22.65131836 103.15436035 21.3671875 102.70703125 C19.52036377 102.06858276 19.52036377 102.06858276 17.63623047 101.41723633 C3.73045818 95.99740229 -6.75635422 85.49931107 -13 72 C-19.93075605 53.90808011 -20.44406793 35.10401576 -17.75 16.0625 C-17.64075195 15.24112549 -17.53150391 14.41975098 -17.41894531 13.57348633 C-16.61932931 8.52131934 -15.2846036 5.07265629 -12 1 C-7.89568473 -1.55133111 -4.60180729 -1.15045182 0 0 Z " fill="#000000" transform="translate(191,60)"/>
<path d="M0 0 C6.71497672 4.1205539 10.9741382 11.52558753 13 19 C14.21436191 29.29872316 12.98570441 37.43196737 7 46 C1.82197751 52.10266936 -5.58085526 55.66948308 -13.4375 56.875 C-22.76243553 57.50637584 -30.66251956 54.74072304 -38 49 C-40.38782869 46.52168517 -42.2349169 43.94763052 -44 41 C-44.61875 39.989375 -45.2375 38.97875 -45.875 37.9375 C-48.74258399 30.45087354 -48.04717829 20.74937913 -45.25 13.375 C-41.38496298 5.2704587 -35.46537842 0.1965758 -27.1328125 -3.15234375 C-17.8101523 -5.67480916 -8.42500359 -4.62328113 0 0 Z " fill="#000000" transform="translate(273,80)"/>
<path d="M0 0 C3.96 0 7.92 0 12 0 C12 46.2 12 92.4 12 140 C15.3 140 18.6 140 22 140 C38.11647387 142.78460311 38.11647387 142.78460311 43 149 C43.75 152 43.75 152 43 155 C37.51346715 161.98286 27.28904739 163.19251185 18.9296875 164.46875 C16.28172796 164.74033559 13.65976944 164.90515551 11 165 C10.24074219 165.03996094 9.48148437 165.07992187 8.69921875 165.12109375 C-3.60788839 165.47272538 -20.44787958 164.9088572 -30.25 156.625 C-32 154 -32 154 -32.1875 150.9375 C-30.5920425 146.99084198 -28.66102601 146.11375635 -25 144 C-21.44921875 142.76953125 -21.44921875 142.76953125 -17.6875 141.8125 C-16.45386719 141.48894531 -15.22023438 141.16539062 -13.94921875 140.83203125 C-9.68347203 139.9333131 -5.33272775 139.48141419 -1 139 C-0.67 93.13 -0.34 47.26 0 0 Z M-13 150 C-13 151.32 -13 152.64 -13 154 C-7.12421839 158.40683621 -1.23313491 158.20912612 5.8125 158.25 C6.68970703 158.270625 7.56691406 158.29125 8.47070312 158.3125 C14.09381858 158.34614617 18.04410435 157.72049827 23 155 C24.4818964 152.9648239 24.4818964 152.9648239 25 151 C22.45979921 147.89531014 19.82629933 147.01514064 16 146 C14.68 146 13.36 146 12 146 C12 148.31 12 150.62 12 153 C8.04 153 4.08 153 0 153 C0 150.69 0 148.38 0 146 C-5.04051077 146 -8.54791529 147.77395765 -13 150 Z " fill="#000000" transform="translate(469,267)"/>
<path d="M0 0 C3.96 0 7.92 0 12 0 C12.33 45.87 12.66 91.74 13 139 C19.93 139.99 19.93 139.99 27 141 C38.36633663 143.84158416 38.36633663 143.84158416 43 148 C44.1875 150.9375 44.1875 150.9375 44 154 C40.25842568 159.61236148 34.34028099 161.402043 28 163 C10.42664976 166.1862122 -10.53829481 167.02114934 -27 159 C-30.88118812 155.71287129 -30.88118812 155.71287129 -31.5 152 C-30.87710493 148.26262957 -29.87994096 147.39914948 -27 145 C-24.16015625 143.76953125 -24.16015625 143.76953125 -21.0625 142.8125 C-19.53302734 142.32716797 -19.53302734 142.32716797 -17.97265625 141.83203125 C-11.43746676 140.0028652 -7.33040622 140 0 140 C0 93.8 0 47.6 0 0 Z M-11 149 C-12.4818964 151.0351761 -12.4818964 151.0351761 -13 153 C-10.41531115 156.15906415 -7.90970676 156.97571785 -4 158 C-0.68333112 158.3051796 2.60855612 158.32480208 5.9375 158.3125 C6.80568359 158.32861328 7.67386719 158.34472656 8.56835938 158.36132812 C14.17137438 158.36556321 18.01384265 157.56783853 23 155 C23.66 154.67 24.32 154.34 25 154 C25 152.68 25 151.36 25 150 C21.02024328 146.64208027 17.00498447 146.42415123 12 146 C12 148.31 12 150.62 12 153 C8.04 153 4.08 153 0 153 C0 150.69 0 148.38 0 146 C-4.52370909 146 -7.00905178 146.93061944 -11 149 Z " fill="#000000" transform="translate(31,267)"/>
<path d="M0 0 C5.42343854 2.61487215 8.7323198 6.34390816 11.3125 11.75 C12.52199935 17.46763329 11.98404318 22.13734684 9.25 27.3125 C5.70780113 31.54345976 2.44813679 34.68653302 -3.234375 35.203125 C-7.7371308 35.28702728 -10.41198842 35.304506 -14.5 33.1875 C-17.79121003 31.66181684 -17.79121003 31.66181684 -20.1953125 32.80859375 C-21.87306015 33.71759851 -23.54189302 34.64318348 -25.203125 35.58203125 C-36.5602681 41.33991246 -49.65059767 41.37973461 -61.625 37.8515625 C-63.85881975 37.05062055 -65.90730724 36.11416512 -68 35 C-68.474375 35.495 -68.94875 35.99 -69.4375 36.5 C-73.74327158 39.02045166 -78.71633054 38.58444621 -83.47265625 37.3671875 C-86.59945789 36.9129072 -88.14404511 37.58089544 -91 38.875 C-101.53628305 43.58340149 -113.00993861 43.13291903 -123.890625 39.65625 C-125.9501021 38.90097782 -125.9501021 38.90097782 -128 39 C-128 56.49 -128 73.98 -128 92 C-124.7 92.66 -121.4 93.32 -118 94 C-117.34 95.32 -116.68 96.64 -116 98 C-118.24274185 100.57915313 -119.65239182 101.4127966 -123 102 C-125.63938612 102.1456986 -128.2354028 102.23062681 -130.875 102.25 C-131.56980469 102.270625 -132.26460938 102.29125 -132.98046875 102.3125 C-137.75285607 102.34845019 -140.91395996 101.43369156 -145 99 C-145 97.68 -145 96.36 -145 95 C-143.56445975 94.49440092 -142.1264798 93.9957251 -140.6875 93.5 C-139.88699219 93.2215625 -139.08648437 92.943125 -138.26171875 92.65625 C-136 92 -136 92 -133 92 C-133.04164212 84.68553917 -133.11394227 77.37184089 -133.20751953 70.05786133 C-133.23573752 67.56997565 -133.25694787 65.08200018 -133.27099609 62.59399414 C-133.29241321 59.01662193 -133.3390602 55.44033027 -133.390625 51.86328125 C-133.39185364 50.75165115 -133.39308228 49.64002106 -133.39434814 48.4947052 C-133.50561764 42.62217065 -133.65822826 39.33256848 -138 35 C-137.93572343 31.78617168 -137.53112958 29.83862565 -135.8125 27.125 C-133.05655076 25.41441082 -131.17374516 25.54660783 -128 26 C-125.16508061 28.06872496 -124.17530012 29.3572329 -123.25 32.75 C-123.12625 33.86375 -123.12625 33.86375 -123 35 C-113.17515541 38.20811252 -105.58922924 36.64834429 -96 33 C-93.81883732 31.79995511 -91.98972087 30.50573471 -90 29 C-89.34 29 -88.68 29 -88 29 C-88.1546875 27.453125 -88.1546875 27.453125 -88.3125 25.875 C-87.90167957 20.78082662 -86.60018491 19.51645968 -83 16 C-79.38069302 14.79356434 -76.80768995 14.67731441 -73 15 C-69.91806022 16.6281946 -67.73579333 18.03009062 -65.625 20.8125 C-64.74194766 23.90318318 -64.87720098 26.8072254 -65 30 C-59.51754254 33.33773083 -53.17295819 32.6141302 -47 32 C-39.59951518 30.09046184 -33.31429555 27.08945468 -27.48828125 22.13671875 C-26 21 -26 21 -24 21 C-24.061875 19.989375 -24.12375 18.97875 -24.1875 17.9375 C-23.94423322 12.8288976 -22.95601817 9.01487982 -19.3125 5.26171875 C-13.04113445 -0.21266076 -8.34147306 -0.78610741 0 0 Z M-134 95 C-134.99 95.33 -135.98 95.66 -137 96 C-136.67 96.99 -136.34 97.98 -136 99 C-134.37536158 99.05395478 -132.75021459 99.09277195 -131.125 99.125 C-130.22007812 99.14820313 -129.31515625 99.17140625 -128.3828125 99.1953125 C-125.81193006 99.24324836 -125.81193006 99.24324836 -124 97 C-125.32 96.34 -126.64 95.68 -128 95 C-128 95.99 -128 96.98 -128 98 C-129.65 98 -131.3 98 -133 98 C-133.33 97.01 -133.66 96.02 -134 95 Z " fill="#000000" transform="translate(481,231)"/>
<path d="M0 0 C2.64 0 5.28 0 8 0 C9.82238662 1.82238662 9.11997696 4.34756083 9.12442017 6.7724762 C9.12082489 7.60109665 9.11722961 8.4297171 9.11352539 9.28344727 C9.11367142 10.15166107 9.11381744 11.01987488 9.1139679 11.91439819 C9.11326846 14.79842586 9.10547463 17.6823898 9.09765625 20.56640625 C9.09579218 22.56037867 9.09436823 24.55435155 9.09336853 26.54832458 C9.08954248 31.80745702 9.07971145 37.06656203 9.06866455 42.32568359 C9.0584523 47.68782175 9.05387131 53.04996431 9.04882812 58.41210938 C9.03808926 68.94141833 9.0210118 79.47070689 9 90 C10.99724833 89.98207092 12.99449666 89.96414185 14.991745 89.94621277 C17.44733383 90.01198097 19.49850463 90.4994746 21.8125 91.3125 C22.54082031 91.55613281 23.26914062 91.79976563 24.01953125 92.05078125 C26.19818918 93.09499008 27.48174868 94.12701707 29 96 C29.25 98.4375 29.25 98.4375 28 101 C20.63215498 105.54451097 13.18392582 106.18090068 4.75 106.1875 C3.53763672 106.20586914 3.53763672 106.20586914 2.30078125 106.22460938 C-6.14724677 106.24488464 -13.21080276 105.22245942 -20 100 C-19.67 98.02 -19.34 96.04 -19 94 C-17.34015202 93.31653318 -15.67163195 92.65411685 -14 92 C-13.071875 91.62875 -12.14375 91.2575 -11.1875 90.875 C-8 90 -8 90 0 90 C0 60.3 0 30.6 0 0 Z M-8 97 C-5.44623161 99.82738643 -3.83706273 101.5736597 0 102 C5.54510377 102.27271002 9.74425465 101.75191512 15 100 C15.33 98.68 15.66 97.36 16 96 C13.69 95.34 11.38 94.68 9 94 C9 95.65 9 97.3 9 99 C6.03 99 3.06 99 0 99 C0 97.35 0 95.7 0 94 C-3.08009879 94 -5.31135136 95.5972268 -8 97 Z " fill="#000000" transform="translate(400,270)"/>
<path d="M0 0 C2.64 0 5.28 0 8 0 C8 29.7 8 59.4 8 90 C10.64 90 13.28 90 16 90 C19.1875 90.875 19.1875 90.875 22 92 C22.94875 92.37125 23.8975 92.7425 24.875 93.125 C25.57625 93.41375 26.2775 93.7025 27 94 C27.33 95.98 27.66 97.96 28 100 C20.72347812 105.59732452 12.74416835 106.39267027 3.75 106.375 C2.93023682 106.37411377 2.11047363 106.37322754 1.26586914 106.37231445 C-5.86107357 106.23500319 -12.52795984 105.18803955 -19 102 C-21 99 -21 99 -20.875 97 C-19.69361818 94.29969869 -18.55507855 93.47925601 -16 92 C-12.16713392 90.5995297 -8.81801891 89.89457028 -4.765625 89.94921875 C-2.90164062 89.97435547 -2.90164062 89.97435547 -1 90 C-1.00222061 88.88722183 -1.00444122 87.77444366 -1.00672913 86.62794495 C-1.02695955 76.1650787 -1.04197166 65.70221639 -1.05181217 55.23933506 C-1.05704125 49.85966238 -1.06413935 44.48000542 -1.07543945 39.1003418 C-1.08626745 33.91325157 -1.09227665 28.72617651 -1.09487724 23.53907585 C-1.09673165 21.5554372 -1.10035256 19.57179942 -1.10573006 17.58816719 C-1.11293932 14.81990864 -1.11399099 12.05171362 -1.11352539 9.28344727 C-1.11712067 8.45482681 -1.12071594 7.62620636 -1.12442017 6.7724762 C-1.11405216 1.11405216 -1.11405216 1.11405216 0 0 Z M-8 96 C-7.67 97.32 -7.34 98.64 -7 100 C-0.41366512 102.19544496 5.42909946 103.29528229 12 100.5 C12.99 100.005 13.98 99.51 15 99 C15 98.01 15 97.02 15 96 C12.69 95.34 10.38 94.68 8 94 C8 95.65 8 97.3 8 99 C5.03 99 2.06 99 -1 99 C-1 97.35 -1 95.7 -1 94 C-3.6465335 94 -5.5808163 94.98139634 -8 96 Z " fill="#000000" transform="translate(104,270)"/>
<path d="M0 0 C3.5 1.75 3.5 1.75 6 4 C6.7425 4.61875 7.485 5.2375 8.25 5.875 C11.18067071 9.43367157 11.87277932 12.85501389 12.375 17.375 C11.75619085 23.35682182 9.5125757 27.97851928 4.9375 31.9375 C-0.19224433 35.53923538 -4.92423231 35.5126429 -11 35 C-16.18479602 33.23912588 -18.86460732 30.4418063 -22 26 C-24.46824152 20.95132416 -24.32792639 16.35981883 -23 11 C-17.66629792 0.90406391 -10.74719568 -1.02689173 0 0 Z " fill="#000000" transform="translate(43,231)"/>
<path d="M0 0 C2.4375 2.125 2.4375 2.125 4 5 C3.9375 8.125 3.9375 8.125 3 11 C2.49458176 11.44882034 1.98916351 11.89764069 1.46842957 12.36006165 C-0.55768684 14.62282322 -0.39595649 16.10600636 -0.43237305 19.11401367 C-0.45216721 20.15486618 -0.47196136 21.19571869 -0.49235535 22.26811218 C-0.50194023 23.95104118 -0.50194023 23.95104118 -0.51171875 25.66796875 C-0.52966995 26.81791824 -0.54762115 27.96786774 -0.56611633 29.15266418 C-0.62036261 32.83090532 -0.65416171 36.50901564 -0.6875 40.1875 C-0.72066034 42.67905472 -0.75514878 45.17059215 -0.79101562 47.66210938 C-0.87609735 53.77462228 -0.94438656 59.88715182 -1 66 C-0.30132812 66.13277344 0.39734375 66.26554687 1.1171875 66.40234375 C2.02726562 66.57894531 2.93734375 66.75554687 3.875 66.9375 C4.77992188 67.11152344 5.68484375 67.28554688 6.6171875 67.46484375 C9 68 9 68 11 69 C10.8125 71.375 10.8125 71.375 10 74 C5.83460133 76.33262325 1.65299111 76.30150913 -3 76.25 C-4.04800781 76.26160156 -4.04800781 76.26160156 -5.1171875 76.2734375 C-9.1673006 76.25815405 -12.40825352 75.9272786 -16 74 C-17.3125 71.875 -17.3125 71.875 -18 70 C-13.64760954 66.96651574 -11.76497986 66.82356855 -6 66 C-6 48.51 -6 31.02 -6 13 C-12.4134062 13.69285357 -12.4134062 13.69285357 -16.02734375 15.0390625 C-26.42219093 18.39928905 -38.43300638 15.78349681 -48 11 C-46.125 6.25 -46.125 6.25 -45 4 C-42.49400083 4.99792467 -39.9922171 6.00322261 -37.5 7.03515625 C-36.2625 7.54369141 -36.2625 7.54369141 -35 8.0625 C-34.175 8.40410156 -33.35 8.74570312 -32.5 9.09765625 C-25.46846826 11.63559974 -17.91276793 12.11752279 -11 9 C-9.67913623 5.54384941 -9.67913623 5.54384941 -9 2 C-5.50434664 -0.33043558 -4.1134271 -0.58763244 0 0 Z M-7 69 C-7.99 69.99 -8.98 70.98 -10 72 C-7.47524538 73.26237731 -5.68799534 73.09856404 -2.875 73.0625 C-1.96492188 73.05347656 -1.05484375 73.04445313 -0.1171875 73.03515625 C0.93082031 73.01775391 0.93082031 73.01775391 2 73 C2.33 72.01 2.66 71.02 3 70 C1.68 69.67 0.36 69.34 -1 69 C-1 69.99 -1 70.98 -1 72 C-2.65 72 -4.3 72 -6 72 C-6.33 71.01 -6.66 70.02 -7 69 Z " fill="#000000" transform="translate(165,257)"/>
<path d="M0 0 C3.048231 2.37084634 4.92120844 3.85673872 5.60546875 7.796875 C5.87007752 12.05922172 5.62582441 14.88064703 2.875 18.25 C-0.98357848 21.92483665 -3.3342891 22.09320334 -8.4921875 22.03515625 C-11.86376856 21.60933373 -13.49020743 20.21522826 -15.75 17.75 C-18.27481154 14.26335549 -18.18474022 10.95248882 -17.75 6.75 C-16.1218054 3.66806022 -14.71990938 1.48579333 -11.9375 -0.625 C-7.65437443 -1.84875016 -4.06770435 -1.84895652 0 0 Z " fill="#000000" transform="translate(113.75,247.25)"/>
<path d="M0 0 C3.23458297 1.1118879 5.91913511 2.55780571 8.75 4.4375 C18.88494959 10.75781911 28.38249527 10.33837392 40 10 C40.495 11.485 40.495 11.485 41 13 C39.77493102 13.65357278 38.54470484 14.29748233 37.3125 14.9375 C36.62800781 15.29714844 35.94351563 15.65679687 35.23828125 16.02734375 C26.49430785 19.82708088 16.58825633 18.41976828 7.625 16.1875 C6.62666138 15.93963745 6.62666138 15.93963745 5.6081543 15.68676758 C1.45148462 14.57752193 -2.21965255 13.04232393 -6 11 C-4.18690997 7.22272911 -2.0926741 3.62730178 0 0 Z " fill="#000000" transform="translate(56,253)"/>
<path d="M0 0 C3.7364797 0.93411993 6.60899585 2.22742965 10 4 C10 5.32 10 6.64 10 8 C8.71086513 8.67154933 7.41859796 9.33708859 6.125 10 C5.40570313 10.37125 4.68640625 10.7425 3.9453125 11.125 C2 12 2 12 0 12 C0 8.04 0 4.08 0 0 Z " fill="#000000" transform="translate(245,144)"/>
<path d="M0 0 C0 3.96 0 7.92 0 12 C-3.91211733 10.84414715 -6.8745041 9.64465038 -10 7 C-8.89184175 3.78634109 -8.01470446 3.0085776 -5 1.25 C-2 0 -2 0 0 0 Z " fill="#000000" transform="translate(267,144)"/>
<path d="M0 0 C0 1.65 0 3.3 0 5 C-3.75 6.125 -3.75 6.125 -6 5 C-6 3.35 -6 1.7 -6 0 C-3.50907189 -1.24546405 -2.58919267 -0.7767578 0 0 Z " fill="#000000" transform="translate(259,178)"/>
<path d="M0 0 C1.65 0.33 3.3 0.66 5 1 C4.67 2.65 4.34 4.3 4 6 C2.35 5.67 0.7 5.34 -1 5 C-0.67 3.35 -0.34 1.7 0 0 Z " fill="#000000" transform="translate(254,167)"/>
<path d="M0 0 C1.65 0.33 3.3 0.66 5 1 C4.67 2.65 4.34 4.3 4 6 C2.35 5.67 0.7 5.34 -1 5 C-0.67 3.35 -0.34 1.7 0 0 Z " fill="#000000" transform="translate(254,158)"/>
</svg>
