<?xml version="1.0" encoding="UTF-8"?>
<svg version="1.1" xmlns="http://www.w3.org/2000/svg" width="512" height="512">
<path d="M0 0 C1.134375 0.350625 2.26875 0.70125 3.4375 1.0625 C9.04699206 2.53868212 14.52465601 1.82511466 20 0 C23.11785474 -0.53172717 25.89317712 -0.64725477 29 0 C31.08990076 1.54669242 32.63877263 3.17852158 34.296875 5.17578125 C38.0233522 9.16721439 41.67777097 10.33331839 47 10.9375 C54.93840985 12.17301232 54.93840985 12.17301232 58 16 C60.09503258 20.23878685 62 24.22663128 62 29 C62.99 29.309375 62.99 29.309375 64 29.625 C68.37049271 31.62814249 73.78923947 34.57847894 76 39 C75.92047045 40.87103733 75.83754813 42.74202888 75.73266602 44.61181641 C75.32117975 53.26142556 76.55995507 58.1485892 81.48828125 65.49609375 C83 68 83 68 83.25 71.6875 C82 75 82 75 80.828125 76.75390625 C76.59306083 83.11895857 76.44077856 88.69980244 76.71679688 96.17285156 C76.74070596 102.05209445 76.74070596 102.05209445 74.61230469 104.77587891 C71.83575077 107.20822561 68.91969194 109.04772208 65.74609375 110.93359375 C61.35778631 114.23574828 60.5188633 118.73248708 58.78515625 123.78515625 C56.46743387 127.95908517 54.50139288 128.63316075 50 130 C48.23699572 130.26658838 46.46458993 130.4793811 44.6875 130.625 C38.54094336 131.57775844 35.59996855 134.75616278 31.265625 138.98828125 C29 141 29 141 25.5 142.25 C21.51252444 141.96518032 18.19509806 140.89595533 14.41796875 139.64453125 C9.78158058 138.40866041 5.94527716 139.69616091 1.5 141.125 C-2.7670537 142.19176343 -4.78007246 142.35895972 -9 141 C-12.56064765 138.222486 -15.80227553 135.18485636 -19 132 C-26.2196781 138.99406316 -32.56538969 146.6363472 -38.72119141 154.56420898 C-41.88765913 158.62738995 -45.14817435 162.58873897 -48.5 166.5 C-52.82397423 171.55184066 -57.0222898 176.68654785 -61.05078125 181.97827148 C-63.14306387 184.71636283 -65.20117199 187.20146915 -67.64453125 189.6484375 C-70.01704206 192.079966 -71.71186328 193.85069514 -73 197 C-72.14640957 201.78544138 -70.33851786 205.76143639 -68 210 C-67.62302979 209.41621582 -67.24605957 208.83243164 -66.85766602 208.23095703 C-51.32901916 184.28436049 -35.0228448 165.23427613 -6 159 C15.72551507 155.25335446 37.50826052 159.39896208 55.875 171.6875 C58.88892679 173.82789886 60.70973245 175.49488815 62 179 C61.81416141 182.03536365 61.44051393 184.22262247 59.9375 186.875 C56.8027266 188.69519101 53.4968966 188.44586732 50 188 C46.578125 186.390625 46.578125 186.390625 43.25 184.25 C28.69602459 175.29173642 12.14450801 172.7085984 -4.625 176.0625 C-25.30566114 181.54659106 -38.47518599 194.87133256 -49.17578125 212.76171875 C-55.65015007 224.25476319 -58.35930744 234.27508538 -58.4375 247.4375 C-58.48680664 248.89639648 -58.48680664 248.89639648 -58.53710938 250.38476562 C-58.58966867 257.53760771 -57.11932263 263.07936487 -53 269 C-49.60439724 272.18399216 -46.43134694 274.52288435 -42 276 C-42.0314209 274.23740845 -42.0314209 274.23740845 -42.06347656 272.43920898 C-42.13616277 268.05782371 -42.1819034 263.6764912 -42.21972656 259.29467773 C-42.23977703 257.4023338 -42.26702477 255.51005132 -42.30175781 253.61791992 C-42.35056652 250.88965649 -42.37303442 248.16221585 -42.390625 245.43359375 C-42.42159271 244.17536049 -42.42159271 244.17536049 -42.45318604 242.89170837 C-42.45537845 237.08418742 -41.336838 233.77906302 -38 229 C-32.76516924 224.14820563 -28.46896441 223.61141061 -21.54296875 223.63671875 C-16.14925465 224.18976772 -11.41532855 225.93819104 -6.34765625 227.80859375 C7.81394991 232.84860528 21.323958 229.72388767 35 225 C41.25748829 222.91417057 48.60456403 222.8653198 54.5625 225.6875 C60.57978995 231.39621098 63.00536133 236.8427236 63.22705078 245.12109375 C63.22674033 246.55993469 63.2158167 247.99880513 63.1953125 249.4375 C63.1924826 250.20304199 63.18965271 250.96858398 63.18673706 251.75732422 C63.17565648 254.17171724 63.15057601 256.58572154 63.125 259 C63.11495448 260.64973418 63.1058314 262.29947424 63.09765625 263.94921875 C63.07575712 267.96629268 63.04131325 271.98308073 63 276 C70.48214094 271.59827955 75.3116553 267.60457647 78.375 259.25 C81.43404991 242.97711596 77.02861326 225.85150388 69.125 211.625 C67.68790376 208.27177543 67.92525528 206.4545366 69 203 C70.75863959 200.16663622 72.103962 199.97112167 75.375 199.0625 C79 199 79 199 81.46875 200.5 C84.67082105 203.6625393 86.29063854 206.868963 88.125 210.9375 C88.47119385 211.69095703 88.8173877 212.44441406 89.17407227 213.22070312 C92.03314446 219.65378578 93.88924438 226.0386264 95 233 C95.12890625 233.76183594 95.2578125 234.52367187 95.390625 235.30859375 C97.64973447 251.50878665 96.18044179 266.83274574 86.3203125 280.29296875 C80.20681053 287.07554497 71.18262338 291.72109833 62.375 293.89453125 C58.42628582 295.18791796 56.82234992 296.74957172 54.0625 299.8125 C50.46039489 303.65694857 47.28700353 306.3860165 42.49609375 308.57421875 C40.03847174 310.91633894 40.27629161 313.74884259 40 317 C40.61818604 317.0501123 41.23637207 317.10022461 41.87329102 317.15185547 C88.88268285 320.99986323 88.88268285 320.99986323 103.8125 336.75 C110.79464774 345.51744506 114.16767025 355.79159111 116.87060547 366.50292969 C117.38242504 368.52939827 117.91421943 370.54985184 118.44921875 372.5703125 C121 382.36369764 121 382.36369764 121 387 C121.66 387 122.32 387 123 387 C123.14888672 385.67548828 123.14888672 385.67548828 123.30078125 384.32421875 C124.15456544 378.39243016 125.71398942 372.614249 127.1875 366.8125 C127.46658203 365.65685547 127.74566406 364.50121094 128.03320312 363.31054688 C131.72018304 348.8149371 137.90284174 335.81002874 150.9375 327.625 C153.15234375 326.3515625 153.15234375 326.3515625 156 325 C156.95664551 324.51853516 156.95664551 324.51853516 157.93261719 324.02734375 C166.06028442 320.31065444 174.5996494 319.65734792 183.375 318.75 C184.93373324 318.57677137 186.49232897 318.40230078 188.05078125 318.2265625 C199.12773731 317 199.12773731 317 204 317 C204.18532398 314.03481625 204.19425961 312.66684244 203 310 C200.44947952 307.7571472 197.74248398 305.93122463 194.92578125 304.03515625 C190.42401273 300.90375251 185.40926381 297.09517903 183.0871582 291.99511719 C181.92519791 289.58500651 180.92587821 287.86967974 179 286 C174.97628089 284.95073085 171.07218473 285.10750938 166.9375 285.25 C164.78022781 285.29342644 162.62253828 285.32015813 160.46484375 285.328125 C159.512146 285.3580957 158.55944824 285.38806641 157.57788086 285.41894531 C155 285 155 285 152.68945312 283.4609375 C150.40006152 280.12610117 150.44268184 277.2023939 150.50390625 273.296875 C150.50245102 272.54142395 150.50099579 271.7859729 150.49949646 271.00762939 C150.50115555 269.40381021 150.51271826 267.79997514 150.53344727 266.19628906 C150.56191334 263.79939812 150.55415588 261.40479268 150.54101562 259.0078125 C150.55826473 245.3389105 152.21624361 232.20288703 157.1875 219.375 C157.48938232 218.582146 157.79126465 217.78929199 158.10229492 216.97241211 C166.03087863 196.81255008 179.31967921 179.81236333 199 170 C218.51121673 161.88531194 240.8735712 159.29189788 261 167 C270.1298557 170.7711667 278.65757489 175.32380628 286 182 C286.79535156 182.69222656 287.59070313 183.38445312 288.41015625 184.09765625 C297.61909199 192.62339428 304.3214653 203.40144614 309 215 C310.15082685 212.75243216 311.29576858 210.50218252 312.4375 208.25 C312.76298828 207.61578125 313.08847656 206.9815625 313.42382812 206.328125 C315.89019468 201.86193928 315.89019468 201.86193928 317 197 C315.80898559 194.85673693 315.80898559 194.85673693 313.875 192.75 C313.13894531 191.87730469 312.40289062 191.00460938 311.64453125 190.10546875 C311.01732178 189.37336182 311.01732178 189.37336182 310.37744141 188.62646484 C307.71655651 185.48452667 305.15025697 182.26467065 302.5625 179.0625 C298.17887119 173.66707213 293.7806375 168.2837193 289.375 162.90625 C286.97807445 159.97317005 284.58804688 157.03461396 282.20068359 154.09375 C281.07457982 152.7073782 279.94731649 151.32194739 278.81884766 149.9375 C276.27945697 146.82039606 273.75241663 143.69668734 271.2734375 140.53125 C270.48195313 139.5309375 269.69046875 138.530625 268.875 137.5 C268.19179688 136.6234375 267.50859375 135.746875 266.8046875 134.84375 C266.20914062 134.2353125 265.61359375 133.626875 265 133 C261.07028559 133 260.482888 134.21894533 257.75 136.9375 C254.90780771 139.51881473 253.22971171 140.92064505 249.5625 142.1875 C245.51581072 141.97451635 242.24256536 140.91168202 238.41796875 139.64453125 C233.78158058 138.40866041 229.94527716 139.69616091 225.5 141.125 C221.2329463 142.19176343 219.21992754 142.35895972 215 141 C213.46285115 139.5808772 211.96713857 138.11638879 210.5 136.625 C205.23644052 131.49910284 200.33960562 130.57364872 193.3203125 129.73046875 C189.5117834 128.89259235 188.29056566 128.11090778 186 125 C185.26391685 123.13002405 184.60156397 121.22998514 184 119.3125 C180.9970268 111.55798693 175.78664261 108.38217261 169 104 C168.67 103.67 168.34 103.34 168 103 C168.08062964 101.17522396 168.16475496 99.35052931 168.26733398 97.52685547 C168.68982297 88.59231509 167.54233792 83.43844599 162.43359375 75.9296875 C160.56379698 72.10857693 160.91781986 70.06750468 162 66 C163.41015625 63.7265625 163.41015625 63.7265625 165.0625 61.625 C168.64963677 56.13431188 168.42883732 51.29755956 167.86547852 44.97705078 C167.5962214 40.97731687 167.72060884 39.34972066 170.265625 36.1640625 C171.61914062 35.09285156 171.61914062 35.09285156 173 34 C173.64324219 33.47792969 174.28648437 32.95585938 174.94921875 32.41796875 C179.77777778 29 179.77777778 29 182 29 C182.0825 28.360625 182.165 27.72125 182.25 27.0625 C183.46087106 22.11810983 185.0481191 16.89155787 188.76953125 13.28515625 C191.51201213 11.70498776 193.73785859 11.41772339 196.875 11.0625 C202.75761806 10.18545513 206.32409218 8.61815441 210.62890625 4.40625 C213.6542715 1.53655232 215.70154925 -0.40042199 220 -0.5 C222.70964648 -0.29755515 224.73668235 0.23191852 227.375 1.0625 C233.0189234 2.52213536 238.49400489 1.8353317 244 0 C247.11785474 -0.53172717 249.89317712 -0.64725477 253 0 C255.08990076 1.54669242 256.63877263 3.17852158 258.296875 5.17578125 C262.86098375 10.06440232 267.70067724 10.57137617 274.0625 11.27734375 C277.65983075 12.16232538 279.40625455 13.36579751 282 16 C283.16015625 18.69921875 283.16015625 18.69921875 284.0625 21.6875 C286.66347185 28.56450323 290.53468653 31.31699859 296.453125 35.2578125 C299 37 299 37 300 39 C300.05647321 41.00584491 300.10940988 43.01189136 300.13916016 45.01831055 C300.30361736 53.24864584 301.2648571 58.65951473 305.74609375 65.75390625 C307 68 307 68 307.1875 71.625 C306.15611928 74.55629258 305.02059052 76.7365158 303.4375 79.375 C301.24150207 83.20342117 299.99146505 86.23608105 300.26171875 90.69140625 C301.89650358 95.80335247 306.31787551 99.27310803 310 103 C312.31122955 105.71588927 314.54780371 108.48170726 316.78125 111.26171875 C318.27203682 113.10158065 319.79374418 114.91677453 321.34375 116.70703125 C322.0759375 117.56683594 322.808125 118.42664063 323.5625 119.3125 C324.22378906 120.07175781 324.88507813 120.83101563 325.56640625 121.61328125 C327.38057695 124.63360359 327.37088864 126.53054803 327 130 C325.5 132.875 325.5 132.875 323 135 C319.92138686 135.40349212 317.95979874 135.62038838 315 135 C312.57721151 133.0734084 310.97202883 131.53020898 309.0625 129.1875 C308.55525391 128.60524658 308.04800781 128.02299316 307.52539062 127.4230957 C305.06347202 124.5721475 302.70507169 121.64357455 300.37109375 118.6875 C299.19740234 117.2025 299.19740234 117.2025 298 115.6875 C297.319375 114.78386719 296.63875 113.88023438 295.9375 112.94921875 C295.298125 112.30597656 294.65875 111.66273437 294 111 C290.14485112 110.62231412 290.14485112 110.62231412 288 112.375 C285.12440228 116.149222 283.02865286 120.34870011 282 125 C283.18962988 128.92341509 286.28113697 131.83600296 288.9375 134.875 C292.91485485 139.49420312 296.76456315 144.18316394 300.5 149 C304.0668006 153.59123293 307.7183572 158.08405179 311.5 162.5 C316.32107378 168.13434998 320.94031216 173.90474938 325.47265625 179.7734375 C327.01904798 181.77107907 328.59282683 183.68664811 330.24609375 185.6015625 C330.88675781 186.35179687 331.52742188 187.10203125 332.1875 187.875 C332.73792969 188.49117187 333.28835938 189.10734375 333.85546875 189.7421875 C335.56194307 193.10854298 335.46619054 196.33531898 335 200 C333.97700063 202.94324587 332.54177874 205.60670793 331.0625 208.34375 C330.23568098 209.97817155 329.41445472 211.6154315 328.59814453 213.25512695 C327.95839691 214.53741684 327.95839691 214.53741684 327.3057251 215.84561157 C318.49399871 233.75883434 315.16157403 248.57895511 316.4375 268.50390625 C316.48832733 269.31534592 316.53915466 270.12678558 316.59152222 270.96281433 C316.69913213 272.47576147 316.8315928 273.98723208 316.99368286 275.49531555 C317.28331644 278.85831694 317.25336453 280.62111543 315.35009766 283.46728516 C312.48625086 285.33506307 311.0307235 285.40082073 307.640625 285.22265625 C306.09556274 285.18519287 306.09556274 285.18519287 304.51928711 285.14697266 C303.44042236 285.11909668 302.36155762 285.0912207 301.25 285.0625 C293.07119258 284.93884276 293.07119258 284.93884276 285.88671875 288.25390625 C283.96507242 291.08438732 282.48938931 293.92499679 281 297 C279.109375 299.21484375 279.109375 299.21484375 277.1875 301.0625 C276.64480469 301.58972656 276.10210937 302.11695313 275.54296875 302.66015625 C274 304 274 304 271 306 C272.56002967 309.84689135 274.99295903 312.06444182 278 314.875 C289.01199314 325.580902 297.1327893 338.3983679 302 353 C311.35865538 330.73407811 319.84900182 308.1419465 328.38407898 285.55117798 C331.01391473 278.59399899 333.66101475 271.64368897 336.32421875 264.69921875 C340.2439031 254.47657787 344.13904644 244.24497566 348 234 C348.32069458 233.14978271 348.64138916 232.29956543 348.97180176 231.42358398 C350.87535815 226.37007519 352.76206838 221.31077366 354.62628174 216.24261475 C355.20029268 214.68715135 355.77857566 213.13325653 356.36151123 211.58111572 C357.15989684 209.45171621 357.94138692 207.31683569 358.71875 205.1796875 C359.16154297 203.98069824 359.60433594 202.78170898 360.06054688 201.54638672 C361.3691568 196.60645227 362.10747276 191.94880866 359.48828125 187.33984375 C358.77027344 186.54707031 358.05226563 185.75429687 357.3125 184.9375 C356.49910156 184.01324219 355.68570312 183.08898437 354.84765625 182.13671875 C354.39535645 181.63962402 353.94305664 181.1425293 353.47705078 180.63037109 C351.26842554 178.1924869 349.11650993 175.70636106 346.96166992 173.22094727 C345.84871532 171.93940647 344.730646 170.66228355 343.60668945 169.39038086 C334.26735907 158.75268722 334.26735907 158.75268722 333.4375 153.3125 C334 150 334 150 335.5625 147.5625 C338.95704368 145.38651046 341.0365649 145.44372841 345 146 C348.73451778 148.60050682 351.44643798 151.56343788 354.25 155.125 C357.24503551 158.8700361 360.30655783 162.47975855 363.5625 166 C372.40897764 175.73112541 378.62464201 183.58251565 378.39746094 197.04736328 C377.67381834 204.2437844 375.15241081 210.71887129 372.625 217.4375 C372.03750572 219.04796515 371.45153339 220.65898617 370.86694336 222.27050781 C368.94818383 227.52770038 366.97773554 232.76476196 365 238 C364.49928986 239.32985931 364.49928986 239.32985931 363.98846436 240.68658447 C359.24078367 253.29355713 354.40548024 265.86603098 349.54199219 278.42871094 C346.82354492 285.45156539 344.11873391 292.47964374 341.4140625 299.5078125 C339.98118515 303.22845488 338.5480158 306.94898462 337.11471558 310.66946411 C336.1672832 313.12932003 335.22027833 315.58934066 334.27371216 318.04953003 C329.80327019 329.66565521 325.32604375 341.27561715 320.64453125 352.80859375 C320.32417404 353.60203186 320.00381683 354.39546997 319.67375183 355.21295166 C318.24338147 358.75541221 316.80080144 362.29134069 315.3269043 365.81591797 C314.84777588 366.99686035 314.36864746 368.17780273 313.875 369.39453125 C313.45992188 370.39331299 313.04484375 371.39209473 312.6171875 372.42114258 C311.75496166 374.95888651 311.75496166 374.95888651 312.81054688 377.14990234 C313.20306641 377.76043457 313.59558594 378.3709668 314 379 C314.3815625 380.05832031 314.763125 381.11664063 315.15625 382.20703125 C317.96551014 389.74466821 320.54935756 394.48726039 327.73046875 398.66796875 C331.69452413 400.99454859 331.69452413 400.99454859 333 403 C333.0616475 405.72423218 332.98881102 408.29215656 332.8125 411 C332.53800433 418.21542361 333.72472255 422.4653947 337.640625 428.65625 C339.34079029 431.58756946 339.8521618 433.64926181 339.609375 437.0078125 C338.83620455 439.53548512 337.52462842 441.28123981 336 443.4375 C332.33009699 448.90403767 332.56925996 453.68575049 333.13476562 460.02319336 C333.40179035 463.99610065 333.27943211 465.64729024 330.765625 468.8203125 C327.82184388 471.14041118 324.85294774 473.34433244 321.76953125 475.47265625 C319.67704241 477.27875589 318.82216322 478.34978671 318 481 C318.37666751 486.8522971 320.28530397 492.06005001 322.359375 497.48242188 C323.88155265 501.72964744 324.17550507 504.63842655 323 509 C321.9375 510.875 321.9375 510.875 320 512 C312.98118341 512.77986851 312.98118341 512.77986851 309.88671875 510.3203125 C307.80137098 507.75572331 306.8192835 505.55624354 305.75 502.4375 C305.24726562 501.01244141 305.24726562 501.01244141 304.734375 499.55859375 C304 497 304 497 304 494 C297.80818561 495.52257731 294.24652842 497.44532049 289.5 501.75 C284.72043891 505.87446041 284.72043891 505.87446041 281.51171875 506.43359375 C278.05688711 506.06778805 275.13748379 505.04949417 271.875 503.875 C267.10525122 502.42333733 263.15117664 503.62997894 258.5 505.125 C254.34837556 506.16290611 252.11380982 506.22692574 248 505 C244.33434581 502.33406968 241.19715758 499.19715758 238 496 C234.65261094 495.36362823 231.32014839 494.84036782 227.94140625 494.40820312 C224.53953504 493.87254937 222.3185552 493.27189813 219.6796875 491.01953125 C218 488 218 488 215 478 C196.19 478 177.38 478 158 478 C157.34 483.61 156.68 489.22 156 495 C154.6 505.8 154.6 505.8 152.375 510.25 C149.4192991 512.42788488 147.51937089 512.67305124 143.90625 512.41015625 C142 512 142 512 139.5 510.5 C136.05117699 504.75196165 138.37706366 496.50572767 139.4375 490.1875 C139.63956055 488.9200293 139.63956055 488.9200293 139.84570312 487.62695312 C140.38822939 484.29504791 140.92985885 481.21042346 142 478 C128.8 478 115.6 478 102 478 C102.66 480.64 103.32 483.28 104 486 C107.47208122 505.5465313 107.47208122 505.5465313 104.5 510.5 C101.50581291 512.29651226 99.43101006 512.51498599 96 512.62890625 C92.60974615 511.56283033 91.79551101 510.08649827 90 507 C88.93743951 502.85473479 88.33816919 498.67280025 87.75 494.4375 C87.49089844 492.73303711 87.49089844 492.73303711 87.2265625 490.99414062 C86.57393586 486.60444951 86 482.44491827 86 478 C67.19 478 48.38 478 29 478 C28.01 481.3 27.02 484.6 26 488 C24.29296875 491.046875 24.29296875 491.046875 22 493 C19.34107576 493.61605676 16.99947964 493.99365166 14.3125 494.25 C7.03077029 495.22493906 3.79964257 497.37550938 -1.06640625 503.0234375 C-3.59812516 505.61141683 -5.34664744 506.20904736 -8.91015625 506.30078125 C-11.35990522 505.94820056 -13.5336899 505.23741718 -15.875 504.4375 C-21.445695 502.55216525 -25.43884168 503.5318542 -31 505 C-34.09622269 505.80883022 -36.80640281 506.44307565 -40 506 C-43.08798917 504.04189674 -45.45167855 501.59743257 -48 499 C-50.85349936 496.5500258 -53.06180752 495.51759562 -56.75 494.8125 C-57.94882813 494.57466797 -57.94882813 494.57466797 -59.171875 494.33203125 C-59.77515625 494.22246094 -60.3784375 494.11289062 -61 494 C-61.18175781 494.72445313 -61.36351563 495.44890625 -61.55078125 496.1953125 C-64.19512195 506.36585366 -64.19512195 506.36585366 -67 511 C-70.22118215 512.61059107 -73.51642342 512.59090254 -77 512 C-79.5625 510 -79.5625 510 -81 507 C-81.11490085 500.79535403 -78.78057865 495.30413635 -76.73974609 489.52368164 C-75.10750265 484.75283281 -74.49097941 480.98840182 -75 476 C-75.66 475.79375 -76.32 475.5875 -77 475.375 C-81.37049271 473.37185751 -86.78923947 470.42152106 -89 466 C-88.93943114 464.09521385 -88.87482569 462.19041039 -88.78320312 460.28686523 C-88.45418853 452.42492726 -88.98074745 447.70758576 -93.640625 441.1171875 C-95.43171237 438.32762038 -95.84401424 436.37608789 -95.609375 433.09765625 C-94.82804467 430.40807686 -93.48497844 428.37242985 -92 426 C-88.63304587 420.41444965 -88.5209436 415.97266931 -89.13476562 409.65820312 C-89.41194513 405.84983266 -89.09022202 403.59246977 -86.75 400.64453125 C-84.41790117 398.40187371 -82.95416725 397.22999343 -80.0625 396 C-73.93490289 392.49024211 -72.34320196 385.26097595 -70 379 C-69.58596924 378.44151367 -69.17193848 377.88302734 -68.74536133 377.30761719 C-67.5157157 373.50066976 -69.38686924 370.33277046 -70.84765625 366.80078125 C-71.17080307 365.98518234 -71.49394989 365.16958344 -71.82688904 364.32926941 C-72.5266247 362.56929549 -73.2335352 360.81216095 -73.94677734 359.05761719 C-75.06740304 356.30043659 -76.16882994 353.53626959 -77.265625 350.76953125 C-80.47464781 342.69253708 -83.73675084 334.63731376 -87.01792908 326.58940125 C-88.23523409 323.59705182 -89.44198918 320.60050809 -90.64743042 317.60336304 C-91.48151196 315.54561159 -92.33391594 313.49615307 -93.18774414 311.4465332 C-95.89959737 304.8138942 -98.01479072 299.22292215 -97 292 C-94.92747393 289.37031035 -93.98627152 288.99618653 -90.625 288.0625 C-87 288 -87 288 -84.5390625 289.37133789 C-80.93535588 293.10221377 -79.54408695 297.18400026 -77.75 301.99609375 C-77.3694043 302.98062027 -76.98880859 303.96514679 -76.59667969 304.97950745 C-75.3836646 308.12696256 -74.19158327 311.28187706 -73 314.4375 C-72.19929124 316.52591816 -71.39722129 318.61381498 -70.59375 320.70117188 C-69.05962402 324.69294709 -67.53489086 328.68807569 -66.01953125 332.68701172 C-64.80238209 335.89767651 -63.57542073 339.10372147 -62.32421875 342.30126953 C-61.86660156 343.47157715 -61.40898438 344.64188477 -60.9375 345.84765625 C-60.55464844 346.81840088 -60.17179687 347.78914551 -59.77734375 348.78930664 C-59 351 -59 351 -59 353 C-58.34 353 -57.68 353 -57 353 C-56.90589844 352.3296875 -56.81179687 351.659375 -56.71484375 350.96875 C-52.57670439 333.78303461 -39.42379478 319.78607148 -27 308 C-28.12949048 304.61152855 -29.12283218 303.80305816 -31.8125 301.5625 C-33.99565014 299.73160298 -36.02299899 297.97468723 -37.94140625 295.86328125 C-40.35738562 293.67652193 -41.95718546 293.26225715 -45.125 292.625 C-56.12170654 289.87216268 -64.38603963 283.53888167 -70.3125 273.85546875 C-71.31826566 271.92158846 -72.20680879 270.03009831 -73 268 C-73.36996094 267.17242187 -73.73992187 266.34484375 -74.12109375 265.4921875 C-74.9429298 262.22675891 -75.03290056 260.05528458 -74.88671875 256.73828125 C-74.23353353 239.47591862 -78.3874305 227.12586557 -85.71557617 211.78051758 C-86.0574295 211.05711182 -86.39928284 210.33370605 -86.75149536 209.58837891 C-87.397376 208.23522878 -88.05871627 206.88929664 -88.73873901 205.55297852 C-91.08093408 200.71247909 -91.46219438 197.25763252 -91 192 C-89.46803473 189.43092091 -88.12088736 187.51987006 -86.1875 185.3125 C-85.69121094 184.714375 -85.19492188 184.11625 -84.68359375 183.5 C-83.1411389 181.64983319 -81.57341936 179.82385982 -80 178 C-79.06774943 176.90080782 -78.13671271 175.8005847 -77.20703125 174.69921875 C-75.85104511 173.09473686 -74.49324232 171.49210021 -73.12768555 169.89575195 C-69.81187473 166.00997188 -66.63417267 162.0332293 -63.5 158 C-59.88641699 153.35203368 -56.19007364 148.79658025 -52.375 144.3125 C-51.92624512 143.77786133 -51.47749023 143.24322266 -51.01513672 142.69238281 C-48.8109042 140.07550771 -46.57116545 137.52876217 -44.203125 135.05859375 C-39.60797805 130.47481224 -39.60797805 130.47481224 -38.0078125 124.52734375 C-38.76617715 122.13649942 -39.74545282 120.16694512 -41 118 C-41.433125 116.88625 -41.86625 115.7725 -42.3125 114.625 C-44.41019689 111.36191594 -46.53307428 110.60011956 -50 109 C-50.49886719 109.62003906 -50.99773437 110.24007812 -51.51171875 110.87890625 C-56.07710954 116.5098281 -60.73591074 122.03696458 -65.5 127.5 C-70.01484815 132.67923617 -74.4323796 137.91835871 -78.7578125 143.2578125 C-81.30253683 146.37000148 -83.89618225 149.43726497 -86.5 152.5 C-90.61640545 157.34391653 -94.66211419 162.23900379 -98.671875 167.171875 C-100.85132382 169.81939337 -103.06365014 172.43383606 -105.29174805 175.0402832 C-107.5435672 177.68041204 -109.77126743 180.34035558 -112 183 C-112.89525391 184.03833984 -112.89525391 184.03833984 -113.80859375 185.09765625 C-117.18054351 189.29110085 -117.52102844 192.81960223 -117 198 C-116.26729626 200.69119075 -115.49329101 203.15338899 -114.5078125 205.7421875 C-114.246017 206.46014999 -113.9842215 207.17811249 -113.7144928 207.91783142 C-112.86347521 210.24156873 -111.9943534 212.55806794 -111.125 214.875 C-110.53318907 216.48357411 -109.9424591 218.0925463 -109.3527832 219.7019043 C-106.61866405 227.13355544 -103.81310736 234.53502216 -100.91015625 241.90234375 C-100.44786621 243.08006348 -99.98557617 244.2577832 -99.50927734 245.47119141 C-98.65086667 247.64115974 -97.7807409 249.80654353 -96.89697266 251.96630859 C-94.81244005 257.19901771 -93.29644914 261.34913935 -94 267 C-95.934304 269.72235378 -97.30613681 270.75092091 -100.4375 271.875 C-103.78035845 272.03806627 -105.17962183 271.88025212 -108 270 C-108.99259949 268.18635559 -108.99259949 268.18635559 -109.93823242 265.95629883 C-110.28292572 265.14536774 -110.62761902 264.33443665 -110.98275757 263.49893188 C-112.5242497 259.71214151 -113.99750843 255.90505508 -115.42578125 252.07421875 C-115.8918 250.83270805 -115.8918 250.83270805 -116.36723328 249.56611633 C-117.02146031 247.82118654 -117.6743406 246.07575128 -118.32592773 244.32983398 C-119.29630662 241.73087069 -120.27181901 239.13388044 -121.24804688 236.53710938 C-123.18748646 231.3661286 -125.09965735 226.18546279 -127 221 C-127.332276 220.09745483 -127.664552 219.19490967 -128.00689697 218.26501465 C-128.99281946 215.57483168 -129.96518202 212.88012344 -130.93359375 210.18359375 C-131.38041252 208.96865486 -131.38041252 208.96865486 -131.83625793 207.72917175 C-134.87642984 199.16464795 -135.9441682 190.69654385 -132.3125 182.0625 C-128.39975865 175.28487395 -122.78667644 169.57909374 -117.58203125 163.78369141 C-113.91053718 159.64419516 -110.4754298 155.30383765 -107 151 C-101.58044841 144.3075996 -96.06317089 137.71521398 -90.44213867 131.19213867 C-86.66808726 126.80377655 -82.99487048 122.34213621 -79.34765625 117.84765625 C-76.59050146 114.50328713 -73.76774044 111.21997945 -70.9375 107.9375 C-68.95492748 105.62789874 -66.97625795 103.31500584 -65 101 C-63.75863281 99.5459375 -63.75863281 99.5459375 -62.4921875 98.0625 C-61.77289063 97.19625 -61.05359375 96.33 -60.3125 95.4375 C-59.68988281 94.69371094 -59.06726563 93.94992188 -58.42578125 93.18359375 C-56.74060806 90.60273947 -56.08762 89.09436956 -56 86 C-57.61263135 82.61175861 -59.5537113 79.53844217 -61.53125 76.3515625 C-63.31832638 72.27360629 -63.14346615 70.26468704 -62 66 C-60.58984375 63.47265625 -60.58984375 63.47265625 -58.9375 61.0625 C-55.63044438 55.43894552 -55.52829608 50.89197764 -56.13452148 44.57055664 C-56.41561895 40.69525566 -56.22067042 39.27279429 -53.734375 36.19921875 C-52.83203125 35.47347656 -51.9296875 34.74773438 -51 34 C-50.35675781 33.47792969 -49.71351562 32.95585938 -49.05078125 32.41796875 C-44.22222222 29 -44.22222222 29 -42 29 C-41.9175 28.360625 -41.835 27.72125 -41.75 27.0625 C-40.53912894 22.11810983 -38.9518809 16.89155787 -35.23046875 13.28515625 C-32.48798787 11.70498776 -30.26214141 11.41772339 -27.125 11.0625 C-21.42015489 10.21092725 -17.50909345 8.91655307 -13.62890625 4.40625 C-9.44778641 -0.39807199 -6.26007249 -0.98089164 0 0 Z M-4.82421875 18.4609375 C-5.43910156 19.09257812 -6.05398437 19.72421875 -6.6875 20.375 C-11.54395469 24.86903269 -16.18439717 25.72826567 -22.6328125 26.1875 C-25.25033511 26.77607061 -25.25033511 26.77607061 -26.23046875 29.4765625 C-26.54628906 30.51554687 -26.86210938 31.55453125 -27.1875 32.625 C-29.0545737 37.75644127 -30.5289071 39.76086754 -35.3125 42.375 C-38.01422543 43.8500086 -38.01422543 43.8500086 -40 46 C-40.52976131 49.63769432 -40.31115737 52.8916239 -40.015625 56.55078125 C-39.99520351 61.05882558 -41.39722328 63.4677446 -44.00390625 67.03515625 C-45.37253549 69.73484452 -44.90843028 71.16569752 -44 74 C-43.319375 74.969375 -42.63875 75.93875 -41.9375 76.9375 C-39.5725201 80.68685838 -40.03942556 83.66511379 -40.375 88 C-40.6168791 91.65345149 -40.6168791 91.65345149 -40 95 C-37.69440255 97.31002278 -35.36906123 98.59427732 -32.5078125 100.1484375 C-29.29269045 102.5222192 -28.83317584 104.47017185 -27.6875 108.25 C-26.70961824 111.40930536 -26.70961824 111.40930536 -25 114 C-21.76074491 115.32068803 -18.79467065 115.75236124 -15.33203125 116.2109375 C-11.40152716 117.1417251 -9.85680491 118.57897817 -7 121.375 C-4.68658047 123.59935131 -4.68658047 123.59935131 -2 125 C1.47341562 124.71421264 4.38151211 123.81035745 7.6875 122.72265625 C11.59537082 121.87011368 13.62724361 122.47107813 17.375 123.75 C20.27963444 124.74111091 20.27963444 124.74111091 23 125 C25.12032531 123.56004281 26.33112141 121.91319514 27.88671875 119.8828125 C30.79874382 117.28836503 33.9070404 116.98123605 37.625 116.3125 C40.33869 115.76950157 42.39635886 115.08710276 45 114 C46.92525202 111.036068 47.77094258 108.33121942 48.75 104.9453125 C50.30632284 101.2782268 51.87399972 100.46322654 55.3125 98.5625 C57.99980365 97.07701453 57.99980365 97.07701453 60 95 C60.53277312 91.63464977 60.31201998 88.68201133 60.015625 85.29296875 C59.99411193 80.7590891 61.62596136 77.98221834 64.00390625 74.21875 C65.28822385 71.3579955 64.95811831 69.9462138 64 67 C63.319375 66.030625 62.63875 65.06125 61.9375 64.0625 C59.5725201 60.31314162 60.03942556 57.33488621 60.375 53 C60.6168791 49.34654851 60.6168791 49.34654851 60 46 C57.6953644 43.69094091 55.37246026 42.40753074 52.51171875 40.85546875 C49.28438573 38.47135804 48.79552334 36.47712538 47.625 32.6875 C46.6447596 29.54162507 46.6447596 29.54162507 45 27 C41.98247079 25.92198882 39.32480987 25.75074101 36.1328125 25.55859375 C32.26064597 24.86817004 30.59526186 23.41347964 27.6875 20.8125 C24.14448142 17.50569465 24.14448142 17.50569465 19.4375 16.9375 C18.303125 17.288125 17.16875 17.63875 16 18 C10.34724208 18.99520386 6.44134545 19.1512296 1 17 C-2.86915766 16.58326492 -2.86915766 16.58326492 -4.82421875 18.4609375 Z M219.17578125 18.4609375 C218.56089844 19.09257812 217.94601562 19.72421875 217.3125 20.375 C212.45604531 24.86903269 207.81560283 25.72826567 201.3671875 26.1875 C198.74966489 26.77607061 198.74966489 26.77607061 197.76953125 29.4765625 C197.45371094 30.51554687 197.13789063 31.55453125 196.8125 32.625 C194.9454263 37.75644127 193.4710929 39.76086754 188.6875 42.375 C185.98577457 43.8500086 185.98577457 43.8500086 184 46 C183.47023869 49.63769432 183.68884263 52.8916239 183.984375 56.55078125 C184.00479649 61.05882558 182.60277672 63.4677446 179.99609375 67.03515625 C178.62746451 69.73484452 179.09156972 71.16569752 180 74 C180.680625 74.969375 181.36125 75.93875 182.0625 76.9375 C184.4274799 80.68685838 183.96057444 83.66511379 183.625 88 C183.3831209 91.65345149 183.3831209 91.65345149 184 95 C186.30690923 97.31133707 188.63224878 98.59503063 191.49609375 100.1484375 C194.71166823 102.52625701 195.13307016 104.4605781 196.25 108.25 C197.2036529 111.42055163 197.2036529 111.42055163 199 114 C202.54960505 115.33657968 205.84961092 115.80922999 209.60546875 116.29296875 C214.04787323 117.21825668 215.89924863 119.01383602 218.66796875 122.4765625 C220.02695079 124.29011292 220.02695079 124.29011292 223 125 C224.82811892 124.51364598 226.63931839 123.96245375 228.4375 123.375 C233.4664278 121.97469323 236.37726833 122.09663523 241.3125 123.75 C244.24594045 124.7420511 244.24594045 124.7420511 247 125 C249.12354594 123.56101821 250.32987935 121.91481628 251.88671875 119.8828125 C254.79874382 117.28836503 257.9070404 116.98123605 261.625 116.3125 C264.33869 115.76950157 266.39635886 115.08710276 269 114 C270.92525202 111.036068 271.77094258 108.33121942 272.75 104.9453125 C274.30632284 101.2782268 275.87399972 100.46322654 279.3125 98.5625 C281.99980365 97.07701453 281.99980365 97.07701453 284 95 C284.53277312 91.63464977 284.31201998 88.68201133 284.015625 85.29296875 C283.99411193 80.7590891 285.62596136 77.98221834 288.00390625 74.21875 C289.29156818 71.35054616 288.94836835 69.95890926 288 67 C287.35100663 65.81148203 286.66266795 64.64363404 285.9375 63.5 C283.8146404 59.60192679 284.00810999 56.81505072 284.375 52.4375 C284.61643713 49.07989881 284.61643713 49.07989881 284 46 C281.68911885 43.76452188 279.32099451 42.44219153 276.51171875 40.890625 C273.30476376 38.47668065 272.79762841 36.47944782 271.625 32.6875 C270.6447596 29.54162507 270.6447596 29.54162507 269 27 C265.98247079 25.92198882 263.32480987 25.75074101 260.1328125 25.55859375 C256.26064597 24.86817004 254.59526186 23.41347964 251.6875 20.8125 C248.14448142 17.50569465 248.14448142 17.50569465 243.4375 16.9375 C242.303125 17.288125 241.16875 17.63875 240 18 C234.34724208 18.99520386 230.44134545 19.1512296 225 17 C221.13084234 16.58326492 221.13084234 16.58326492 219.17578125 18.4609375 Z M189 198 C188.38511719 198.58007812 187.77023437 199.16015625 187.13671875 199.7578125 C172.31981486 214.94939672 166.76413238 237.94011318 166.9375 258.4375 C166.94201172 259.45521484 166.94652344 260.47292969 166.95117188 261.52148438 C166.96287563 264.01438509 166.97927152 266.50716074 167 269 C169.29109597 269.08075665 171.58299267 269.13907731 173.875 269.1875 C175.15117187 269.22230469 176.42734375 269.25710938 177.7421875 269.29296875 C178.81726563 269.19628906 179.89234375 269.09960938 181 269 C183.28142494 265.57786259 183.2501255 264.28914983 183.2734375 260.265625 C183.2940625 259.13382812 183.3146875 258.00203125 183.3359375 256.8359375 C183.36180819 254.46100845 183.38013914 252.08598431 183.390625 249.7109375 C183.52904447 242.92838333 183.71267691 238.37989897 188 233 C190.31772132 230.82144086 192.78182097 228.96267374 195.375 227.125 C196.42868774 226.35845093 196.42868774 226.35845093 197.50366211 225.57641602 C223.3473308 206.95979551 223.3473308 206.95979551 238.61328125 208.21484375 C248.16074303 209.77391605 255.79065342 215.3322977 263.5 220.875 C264.23686035 221.4023877 264.9737207 221.92977539 265.73291016 222.47314453 C267.17856765 223.51168242 268.62218453 224.55306838 270.06347656 225.59765625 C271.69978548 226.78259805 273.34501504 227.9552065 274.9921875 229.125 C276.17167969 229.99125 276.17167969 229.99125 277.375 230.875 C278.02210938 231.34679687 278.66921875 231.81859375 279.3359375 232.3046875 C283.35162594 236.39578793 284.37237938 240.84516494 284.44140625 246.421875 C284.48104492 248.20658203 284.48104492 248.20658203 284.52148438 250.02734375 C284.53501953 251.25582031 284.54855469 252.48429687 284.5625 253.75 C284.59682023 256.20326124 284.63935782 258.65642585 284.69140625 261.109375 C284.70989624 262.73311035 284.70989624 262.73311035 284.72875977 264.38964844 C284.73943187 267.15959082 284.73943187 267.15959082 287 269 C290.35744112 269.24377883 290.35744112 269.24377883 294.125 269.125 C296.04699219 269.09792969 296.04699219 269.09792969 298.0078125 269.0703125 C299.48894531 269.03550781 299.48894531 269.03550781 301 269 C301.93064209 243.57915324 297.9541773 219.66606164 280.6875 199.75 C268.37261394 186.76831808 254.15679807 179.22569276 236.09375 178.59545898 C217.25615735 178.34396818 202.381256 184.68783827 189 198 Z M214.875 232.375 C213.35159426 233.50785521 211.82815719 234.6406683 210.3046875 235.7734375 C209.5828125 236.3317627 208.8609375 236.89008789 208.1171875 237.46533203 C206 239 206 239 203.9140625 240.09326172 C201.8145165 241.23745028 200.47951837 242.11226171 199 244 C198.07183193 248.12938507 198.15771785 252.15916265 198.25 256.375 C198.35826845 269.70748688 198.35826845 269.70748688 195 276 C194.67 276.99 194.34 277.98 194 279 C199.61451396 289.8061775 210.42843923 296.29587115 221.5 300.25 C234.64845751 303.06752661 247.8478292 301.91579461 259.375 294.46484375 C265.12159345 290.20343408 271.68201462 284.95395613 274 278 C273.04504326 276.30712215 272.0409066 274.64142963 271 273 C269.88845025 269.73959964 270.03484249 267.00815919 270.31640625 263.59765625 C271.20051949 252.11965808 271.20051949 252.11965808 267.36767578 241.67041016 C263.19030245 237.6720245 258.33918126 234.87261777 253.24072266 232.20019531 C251.25647984 231.13737796 249.44340523 230.00516294 247.60546875 228.7109375 C235.11205756 219.93933972 226.18546016 223.76120186 214.875 232.375 Z M44 239 C42.54980469 239.50660156 42.54980469 239.50660156 41.0703125 240.0234375 C20.60973819 247.08453811 2.52575088 248.32147731 -18.140625 240.8671875 C-20.9622236 240.01145678 -23.08099866 239.93184494 -26 240 C-26.24844463 246.24360454 -26.4292204 252.48429541 -26.54931641 258.73168945 C-26.59940377 260.85329332 -26.66749899 262.97455545 -26.75439453 265.0949707 C-27.64190073 277.21048589 -27.64190073 277.21048589 -23.91186523 288.34643555 C-21.36863811 290.68117431 -19.03001056 292.36166263 -16 294 C-15.08694092 294.52811279 -14.17388184 295.05622559 -13.2331543 295.6003418 C-1.65806318 301.99436843 9.90946711 303.11085536 22.64453125 300 C32.76718153 296.9832381 39.5943366 291.4056634 47 284 C47.12604257 280.93258218 47.18870085 277.88893175 47.203125 274.8203125 C47.20882507 273.89660858 47.21452515 272.97290466 47.22039795 272.02120972 C47.22986345 270.06249137 47.23638806 268.10375698 47.24023438 266.14501953 C47.2499367 263.14457452 47.28094401 260.1448152 47.3125 257.14453125 C47.31903002 255.24479575 47.3242805 253.34505533 47.328125 251.4453125 C47.3466452 250.09519577 47.3466452 250.09519577 47.36553955 248.71780396 C47.36253845 247.88038666 47.35953735 247.04296936 47.35644531 246.18017578 C47.36009094 245.44372833 47.36373657 244.70728088 47.36749268 243.94851685 C46.90222149 241.48155954 45.89150402 240.58560241 44 239 Z M-4 316 C-4.0825 319.733125 -4.165 323.46625 -4.25 327.3125 C-4.28641602 328.48594971 -4.32283203 329.65939941 -4.36035156 330.8684082 C-4.3703418 331.79484131 -4.38033203 332.72127441 -4.390625 333.67578125 C-4.41157227 334.62364502 -4.43251953 335.57150879 -4.45410156 336.5480957 C-4.22353569 339.14411467 -4.22353569 339.14411467 -2.09350586 340.79077148 C3.39323189 343.9599624 9.84735017 343.47389862 16 343 C18.93958838 342.18787643 21.79371191 341.20628809 24 339 C24.08713831 337.29227642 24.10700007 335.58101351 24.09765625 333.87109375 C24.09515869 332.93966553 24.09266113 332.0082373 24.09008789 331.04858398 C24.08098389 329.85692627 24.07187988 328.66526855 24.0625 327.4375 C24.0315625 321.7759375 24.0315625 321.7759375 24 316 C14.76 316 5.52 316 -4 316 Z M220 316 C219.9175 319.733125 219.835 323.46625 219.75 327.3125 C219.71358398 328.48594971 219.67716797 329.65939941 219.63964844 330.8684082 C219.6296582 331.79484131 219.61966797 332.72127441 219.609375 333.67578125 C219.58842773 334.62364502 219.56748047 335.57150879 219.54589844 336.5480957 C219.77646431 339.14411467 219.77646431 339.14411467 221.90649414 340.79077148 C227.39323189 343.9599624 233.84735017 343.47389862 240 343 C242.93958838 342.18787643 245.79371191 341.20628809 248 339 C248.08713831 337.29227642 248.10700007 335.58101351 248.09765625 333.87109375 C248.09515869 332.93966553 248.09266113 332.0082373 248.09008789 331.04858398 C248.08098389 329.85692627 248.07187988 328.66526855 248.0625 327.4375 C248.0315625 321.7759375 248.0315625 321.7759375 248 316 C238.76 316 229.52 316 220 316 Z M-23.00390625 326.9140625 C-32.2387725 336.69879101 -44 351.95804391 -44 366 C-42.515 365.505 -42.515 365.505 -41 365 C-35.97804081 364.64128863 -32.35028553 365.12290809 -27.5625 366.6875 C-22.55377287 368.17975526 -19.93405494 367.7102129 -15.17578125 365.80859375 C-11.31720648 364.37461713 -7.9919772 363.80173366 -4 365 C-1.29742929 367.12619307 1.07961162 369.45374895 3.5234375 371.87109375 C6.51451311 374.4422865 8.74968724 375.20401244 12.6015625 375.68359375 C13.39304688 375.78800781 14.18453125 375.89242187 15 376 C15.64001953 376.07549072 16.28003906 376.15098145 16.93945312 376.22875977 C19.14722527 376.60692422 20.97193779 377.04228891 23 378 C24.49748178 380.50302224 25.3544673 382.36376465 26.25 385.0625 C29.1664698 392.54882197 32.86617105 396.02697246 39.5234375 400.36328125 C42 402 42 402 43 404 C42.95829624 405.93922465 42.91198521 407.87854634 42.83398438 409.81665039 C42.5470517 417.70312854 42.67298368 422.74075582 48 429 C50.27128649 428.88352377 52.54202187 428.75629385 54.8125 428.625 C56.70935547 428.52058594 56.70935547 428.52058594 58.64453125 428.4140625 C63.8293069 428.01971697 68.90343836 426.99969436 74 426 C73.69819824 425.2471875 73.39639648 424.494375 73.08544922 423.71875 C61.38285115 394.30833197 54.64472587 365.5500239 52 334 C48.04 333.67 44.08 333.34 40 333 C39.896875 334.711875 39.79375 336.42375 39.6875 338.1875 C39.30463694 342.56790389 38.66768236 345.40442812 36 349 C36 349.66 36 350.32 36 351 C33.2114139 352.41010136 30.40595342 353.76643718 27.5625 355.0625 C26.45068359 355.57490234 26.45068359 355.57490234 25.31640625 356.09765625 C16.05742026 359.70444506 3.34058239 359.25106482 -5.953125 355.9140625 C-11.18670182 353.57693087 -14.74204211 350.70593918 -18 346 C-18.88639389 343.34081834 -19.17989025 341.51935359 -19.31640625 338.76953125 C-19.35830078 337.96708984 -19.40019531 337.16464844 -19.44335938 336.33789062 C-19.48267578 335.50451172 -19.52199219 334.67113281 -19.5625 333.8125 C-19.60568359 332.96751953 -19.64886719 332.12253906 -19.69335938 331.25195312 C-19.79931518 329.16815567 -19.9001502 327.08409897 -20 325 C-21.34133651 324.8848816 -21.34133651 324.8848816 -23.00390625 326.9140625 Z M264 325 C263.97421875 326.30195313 263.9484375 327.60390625 263.921875 328.9453125 C263.86557299 330.67190756 263.80822613 332.39846876 263.75 334.125 C263.73582031 334.9809375 263.72164062 335.836875 263.70703125 336.71875 C263.44579938 343.51077854 261.72654773 347.42083323 256.6875 352.1875 C246.81137816 358.84814031 234.43894467 359.46576817 222.94140625 357.46875 C215.6957669 355.43952985 210.41340994 352.21146585 206 346 C204.05749132 342.11498265 204.34650443 337.25705445 204 333 C200.04 333.33 196.08 333.66 192 334 C191.80664062 335.91683594 191.61328125 337.83367187 191.4140625 339.80859375 C191.1513174 342.351591 190.88828118 344.89455819 190.625 347.4375 C190.43550781 349.32758789 190.43550781 349.32758789 190.2421875 351.25585938 C188.83613157 364.71884487 188.83613157 364.71884487 187 371 C183.30513897 373.46324069 181.36706908 373.38991688 177 373 C175.30078125 371.70703125 175.30078125 371.70703125 174 370 C173.42895531 363.3758816 174.40694341 356.85700399 175.2878418 350.29248047 C175.91390715 345.48541159 176.08726486 340.84865381 176 336 C165.96702025 337.23811239 157.89817771 341.06659721 151.3515625 348.8984375 C144.4448568 359.63776602 141.80829286 372.32047496 138.4777832 384.49975586 C137.71717796 387.26586352 136.92062473 390.01714265 136.08813477 392.76245117 C130.09337844 412.60461826 129.10860287 426.62179616 136.24137878 446.48835754 C137 450 137 450 137 462 C157.79 462 178.58 462 200 462 C201.29376578 459.41246844 201.16832397 457.45041015 201.1875 454.5625 C201.20167969 453.59441406 201.21585937 452.62632812 201.23046875 451.62890625 C201.19149451 448.76733273 201.19149451 448.76733273 199 446 C196.89478247 445.25816772 196.89478247 445.25816772 194.3671875 444.93359375 C193.37944336 444.77745605 192.39169922 444.62131836 191.37402344 444.46044922 C184.26699811 443.49056139 177.14550397 442.62724854 170.01757812 441.82543945 C167.97124309 441.59348652 165.92712361 441.34673898 163.8828125 441.09765625 C162.68027832 440.95851807 161.47774414 440.81937988 160.23876953 440.67602539 C156.84797078 439.96826708 154.7111168 439.15019608 152 437 C150.64090558 428.78742336 153.93074366 422.33192474 157.25 414.9375 C157.98669922 413.23883789 157.98669922 413.23883789 158.73828125 411.50585938 C160.12873635 408.32264417 161.55602034 405.15922869 163 402 C163.37253906 401.15783936 163.74507813 400.31567871 164.12890625 399.44799805 C165.140625 397.2578125 165.140625 397.2578125 167 394 C171.10989278 392.75235398 173.94231483 392.86989909 178 394 C179.70100781 402.19731905 177.80902937 407.48407724 174.5625 415.0625 C174.12873047 416.11888672 173.69496094 417.17527344 173.24804688 418.26367188 C172.18293246 420.85037831 171.10016665 423.42805344 170 426 C173.20720862 426.5073957 176.41592163 427.004579 179.625 427.5 C180.52863281 427.64308594 181.43226563 427.78617187 182.36328125 427.93359375 C190.31521693 429.70699045 190.31521693 429.70699045 197.6796875 427.8125 C201.31075448 422.30656837 201.40083873 417.1329631 200.99169922 410.72460938 C200.74667742 406.18456413 201.08484285 403.54478072 204 400 C206.26953125 398.4375 206.26953125 398.4375 208.8125 397 C215.16728018 392.80379815 217.57606269 387.04518365 220 380 C220 379.34 220 378.68 220 378 C221.02738281 377.88785156 222.05476563 377.77570313 223.11328125 377.66015625 C233.54712423 376.2649404 239.44340958 373.63261246 247 366 C248.5516502 364.4483498 250.03729761 364.8305084 252.1875 364.8125 C256.18139996 364.84404739 259.22214219 365.6859625 263 367 C266.86013072 367.28073678 269.71379612 367.08325931 273.4375 366 C278.46635464 364.58839168 282.96462103 364.32154034 288 366 C286.58320348 351.26531622 277.50765872 336.05571696 266.23046875 326.703125 C265.49441406 326.14109375 264.75835937 325.5790625 264 325 Z M68 336 C68.75779237 364.22776566 75.82181966 391.23970722 87.19140625 417.00390625 C87.56346191 417.85525146 87.93551758 418.70659668 88.31884766 419.58374023 C89.04765603 421.23938544 89.79019741 422.88907436 90.54833984 424.53149414 C92.52256792 429.00428008 93.78410728 432.17072969 92 437 C88.39780827 440.80410699 83.93723443 440.80253433 79 441.31640625 C78.12730469 441.41839828 77.25460938 441.52039032 76.35546875 441.62547302 C73.57151124 441.94958664 70.78608854 442.25729054 68 442.5625 C65.2141706 442.87297184 62.42892108 443.18710167 59.64453125 443.51023865 C57.91364509 443.71063003 56.18187059 443.90352533 54.44921875 444.08802795 C53.66160156 444.17829758 52.87398437 444.2685672 52.0625 444.36157227 C51.02802734 444.4745742 51.02802734 444.4745742 49.97265625 444.58985901 C47.70438349 445.06146253 45.98462191 445.80929048 44 447 C42.76310938 449.47378124 42.86689913 451.17915317 42.875 453.9375 C42.87242187 454.81277344 42.86984375 455.68804687 42.8671875 456.58984375 C42.90177997 459.14459056 42.90177997 459.14459056 44 462 C53.4488689 462.09267099 62.89758142 462.16375 72.34680557 462.20724869 C76.73445942 462.22812571 81.12180241 462.2564451 85.50927734 462.30175781 C89.74328416 462.34521201 93.97699194 462.36913624 98.21120453 462.37950897 C99.82677671 462.38690117 101.44233249 462.4013365 103.0577774 462.42292023 C105.32045383 462.45194982 107.58189395 462.45595638 109.84472656 462.45410156 C111.77665863 462.46742523 111.77665863 462.46742523 113.74761963 462.48101807 C117.02811716 462.24145601 117.02811716 462.24145601 119.38470459 460.34661865 C121.73276064 456.93548277 122.31204122 454.17769374 121.72059059 450.05003929 C121.23679717 447.74502576 120.66588802 445.47742654 120.06567383 443.19995117 C119.8479129 442.3357103 119.63015198 441.47146942 119.40579224 440.58103943 C118.68456394 437.73189303 117.94624579 434.88749702 117.20703125 432.04296875 C116.69870981 430.05548934 116.19120974 428.06779968 115.68449402 426.07991028 C114.6199772 421.91450987 113.54730254 417.75132395 112.46850586 413.58959961 C111.09097984 408.27380625 109.73099942 402.95372077 108.37682056 397.63193798 C107.33024989 393.52524936 106.27569481 389.42064433 105.21863365 385.31664467 C104.71460031 383.35691951 104.2126872 381.39664771 103.71299171 379.435812 C103.01028084 376.68452008 102.29718206 373.93612218 101.58129883 371.18823242 C101.3790419 370.38844971 101.17678497 369.58866699 100.96839905 368.76464844 C97.85367904 356.94127707 93.02302928 346.86370854 82.37890625 340.25390625 C77.80465778 337.84284917 73.20327608 336 68 336 Z M-37.4296875 382.42578125 C-38.14511719 383.35970703 -38.14511719 383.35970703 -38.875 384.3125 C-42.33421778 388.11688918 -45.03030718 388.51519792 -50.0625 389.125 C-53.75580786 389.60982308 -53.75580786 389.60982308 -57 391 C-59.11637558 394.16360904 -60.23751327 397.2143068 -61.4921875 400.80078125 C-63.27154121 404.57614572 -64.76160396 405.47982443 -68.375 407.4375 C-71.04743565 408.88408347 -71.04743565 408.88408347 -73 411 C-73.52592751 414.63729696 -73.31104912 417.89273088 -73.01171875 421.55078125 C-72.99620286 426.11762575 -74.57377234 428.45596282 -77.0078125 432.17578125 C-78.28449257 434.06871797 -78.28449257 434.06871797 -77.5 436.75 C-76.49705769 438.25441347 -75.45444321 439.73309193 -74.375 441.18359375 C-72.57687159 444.86669201 -73.07029482 447.26748678 -73.5 451.3125 C-73.66282243 454.10436646 -73.4708117 456.17512977 -73 459 C-70.45501361 461.66617621 -67.87848263 463.2375518 -64.703125 465.08984375 C-60.9275562 467.75783962 -60.01660773 470.56125765 -58.78125 474.8984375 C-58.10152859 477.35598364 -58.10152859 477.35598364 -55 479 C-53.29744147 479.25119716 -51.587497 479.45423819 -49.875 479.625 C-44.98072488 480.37451595 -42.9495976 481.68622595 -39.625 485.3125 C-37.53570028 487.56582473 -37.53570028 487.56582473 -35 489 C-31.54262643 488.71448786 -28.63332174 487.79479882 -25.33984375 486.71875 C-21.42031959 485.87525006 -19.48429623 486.48052173 -15.75 487.8125 C-12.84011716 488.83616139 -12.84011716 488.83616139 -10 489 C-7.35692334 487.31149277 -5.53762681 485.34785736 -3.421875 483.0390625 C-0.38706092 480.48394484 1.79054209 480.27018216 5.6875 479.75 C10.58560852 478.92462545 10.58560852 478.92462545 13.84765625 475.40625 C14.79091964 473.28325052 15.68372043 471.13718214 16.52734375 468.97265625 C18.20845791 465.57921361 19.61211362 464.60572846 22.8125 462.6875 C25.23233119 461.18808121 25.23233119 461.18808121 27 459 C27.6961339 455.18220907 27.74982853 451.60047988 27.7421875 447.72265625 C28.01419055 443.79509712 28.82298525 441.9195664 30.875 438.625 C32.30054128 436.33266515 32.30054128 436.33266515 33 434 C32.11503467 431.54329938 30.82791491 429.74629765 29.31640625 427.62109375 C27.55210992 424.10820699 27.77791279 421.28335422 27.8125 417.375 C27.79592158 412.05065318 27.79592158 412.05065318 24.90234375 407.90234375 C23.11828537 406.83295971 21.3082835 405.80582999 19.4765625 404.8203125 C16.26869194 402.46247704 15.78920712 400.44673366 14.625 396.6875 C13.6532312 393.54272581 13.6532312 393.54272581 12 391 C8.93893424 389.89498645 6.24822451 389.69137921 3.0078125 389.484375 C-1.28740624 388.79267744 -3.29378302 386.66821111 -6.18359375 383.55859375 C-8.44641026 381.6169512 -10.05503254 381.27155503 -13 381 C-15.00431449 381.65358081 -17.0040278 382.32136945 -19 383 C-23.89909325 383.34993523 -27.4096947 382.63210855 -32 381 C-35.86447158 380.5292408 -35.86447158 380.5292408 -37.4296875 382.42578125 Z M246.65234375 387.0625 C243.49103797 389.37178964 241.55125774 389.52299832 237.6875 389.75 C234.63825794 389.94047354 234.63825794 389.94047354 232 391 C230.24762743 393.91461453 229.35521371 396.75146559 228.3515625 399.99609375 C226.70622333 403.65293138 225.24167118 404.40580748 221.75 406.25 C219.02501801 407.72389095 219.02501801 407.72389095 217 410 C216.34727578 413.45906962 216.17239318 416.52139845 216.21142578 420.01879883 C216.2357994 424.58143521 215.75231797 427.20394289 213.125 430.9375 C211.70276764 432.92515793 211.70276764 432.92515793 211 435 C211.90016707 437.41451063 213.20560739 439.23995139 214.68359375 441.34765625 C216.4286599 444.86367975 216.22232476 447.65825721 216.1875 451.5625 C216.26792967 456.9812033 216.26792967 456.9812033 219.09765625 461.35546875 C220.87793313 462.62709509 222.69206893 463.85250131 224.53515625 465.03125 C227.5100604 467.40740165 228.05053373 469.16454619 229.1875 472.75 C230.14912432 475.64373766 230.14912432 475.64373766 232 478 C235.17660248 479.26038207 238.07538035 480.00620456 241.41308594 480.63232422 C245.79680341 481.4942186 248.07318987 482.43251126 250.9375 485.875 C252.38412617 487.71185632 252.38412617 487.71185632 254 489 C257.56332025 488.60618767 257.56332025 488.60618767 259.828125 487.69921875 C265.07749454 486.00922388 270.55029978 486.38959991 275.5625 488.5 C276.696875 488.665 277.83125 488.83 279 489 C281.32988454 487.17761506 283.31433666 485.12120806 285.39453125 483.01953125 C288.54177591 480.58006275 290.90931493 480.14251759 294.8125 479.5 C299.23105348 478.83789313 299.23105348 478.83789313 302.61328125 476.2265625 C303.60140842 474.1740049 304.34361859 472.1793579 305 470 C306.90161823 465.79642286 308.71281292 464.61815848 312.6875 462.5625 C315.19356614 461.16239977 315.19356614 461.16239977 317 459 C317.46504978 455.39475697 317.24369615 452.10203784 316.9765625 448.48046875 C317.00730001 443.91594811 318.57217212 441.60600862 321.0078125 437.890625 C322.30877972 435.86644737 322.30877972 435.86644737 321.5 432.75 C320.08477 430.0189386 320.08477 430.0189386 318.3828125 427.7578125 C316.61446901 424.23111616 316.99145214 422.02014164 317.375 418.125 C317.57921609 412.90865021 317.57921609 412.90865021 315.078125 408.53125 C310.97311309 405.16797855 310.97311309 405.16797855 306 404 C305.80664062 403.39671875 305.61328125 402.7934375 305.4140625 402.171875 C305.15367187 401.37265625 304.89328125 400.5734375 304.625 399.75 C304.36976563 398.96109375 304.11453125 398.1721875 303.8515625 397.359375 C303.57054687 396.58078125 303.28953125 395.8021875 303 395 C302.7628125 394.26910156 302.525625 393.53820312 302.28125 392.78515625 C301.07262293 390.71328665 301.07262293 390.71328665 298.2421875 390.19921875 C296.57542969 389.94591797 296.57542969 389.94591797 294.875 389.6875 C289.98247738 388.73378138 287.17104264 387.77510145 283.625 384.25 C280.75066146 381.25627485 280.75066146 381.25627485 276.5625 381 C275.386875 381.33 274.21125 381.66 273 382 C267.86828669 382.95138505 264.07862362 383.11922802 259.0625 381.5625 C253.12523356 380.14450879 250.83047366 383.15499146 246.65234375 387.0625 Z " fill="#000000" transform="translate(134,0)"/>
</svg>
