<?xml version="1.0" encoding="UTF-8"?>
<svg version="1.1" xmlns="http://www.w3.org/2000/svg" width="512" height="512">
<path d="M0 0 C3.10050906 -1.40806116 5.4648492 -3.12270465 8.0625 -5.3125 C20.2001536 -14.91064453 35.068038 -17.77443023 50.25 -16.7890625 C66.12626942 -14.5511841 79.43038775 -7.10854609 89.859375 5.02734375 C92.40392278 8.56092197 94.46545703 12.18621292 96.4375 16.0625 C96.7677417 16.71089844 97.0979834 17.35929687 97.43823242 18.02734375 C101.17465183 25.81896632 102.39017463 33.59776459 102.375 42.1875 C102.37556396 43.00468506 102.37612793 43.82187012 102.37670898 44.66381836 C102.23138254 52.79654026 100.6690644 60.6618712 97 68 C97.74572266 67.98428955 98.49144531 67.9685791 99.25976562 67.95239258 C102.67309843 67.88962412 106.08630931 67.85087661 109.5 67.8125 C110.67304688 67.78736328 111.84609375 67.76222656 113.0546875 67.73632812 C127.30266032 67.61626094 127.30266032 67.61626094 132.54858398 72.41723633 C136.69749599 77.14520197 137.12791718 80.75298041 137.16113281 86.85473633 C137.16609772 87.54779373 137.17106262 88.24085114 137.17617798 88.95491028 C137.19078016 91.24729406 137.1975987 93.53960861 137.203125 95.83203125 C137.20887851 97.42762758 137.21463622 99.02322389 137.22039795 100.61882019 C137.23090272 103.96536582 137.23674866 107.31188747 137.24023438 110.65844727 C137.24571487 114.93901951 137.2697354 119.21927299 137.29820633 123.49974537 C137.31686491 126.79665542 137.32204004 130.09348923 137.32357025 133.39044762 C137.32659057 134.96805245 137.33459813 136.54565614 137.34775543 138.123209 C137.36488215 140.33474324 137.36291988 142.54550574 137.35644531 144.75708008 C137.36009094 146.01378006 137.36373657 147.27048004 137.36749268 148.56526184 C136.83807725 153.51339685 135.24302541 156.79056988 131.6875 160.25 C126.77706868 163.44749016 122.77260716 164.09634393 117 164 C117.00888245 164.58722839 117.01776489 165.17445679 117.0269165 165.77947998 C117.11607549 171.94484629 117.17601571 178.11002662 117.21972656 184.27587891 C117.2397223 186.57055106 117.26692802 188.86517304 117.30175781 191.15966797 C117.56617834 209.03916175 117.12120341 222.84072445 104.5625 236.6875 C103.716875 237.450625 102.87125 238.21375 102 239 C101.28457031 239.72123047 101.28457031 239.72123047 100.5546875 240.45703125 C88.64783279 251.81743611 71.62621704 252.31031274 56.07836914 252.25878906 C54.73957633 252.26150794 53.40078501 252.26507384 52.06199646 252.26940918 C48.46686141 252.27842996 44.87184274 252.27503189 41.27670598 252.26865101 C37.48764468 252.26353592 33.69859239 252.26829769 29.90953064 252.27142334 C23.54912555 252.27504755 17.18876712 252.27030516 10.82836914 252.26074219 C3.51031471 252.24986532 -3.80762818 252.25338389 -11.12567991 252.264395 C-17.44543875 252.27351779 -23.76516431 252.27472877 -30.08492762 252.26951766 C-33.84333371 252.26642463 -37.60168766 252.26591406 -41.36009026 252.27259064 C-44.89708142 252.27843654 -48.43393108 252.27423725 -51.97090721 252.26280212 C-53.86222523 252.25896506 -55.75355545 252.26477915 -57.64486694 252.27105713 C-75.72827195 252.18326181 -90.48297727 249.34271574 -103.87890625 236.38671875 C-113.67135126 225.36796386 -116.17515115 212.88456579 -116.09765625 198.5703125 C-116.0962413 197.57998016 -116.09482635 196.58964783 -116.09336853 195.56930542 C-116.08779252 192.42117227 -116.07524442 189.27311148 -116.0625 186.125 C-116.0574819 183.98437603 -116.05291954 181.84375094 -116.04882812 179.703125 C-116.03783094 174.46872551 -116.02111675 169.23436793 -116 164 C-116.69105835 163.94426315 -117.3821167 163.88852631 -118.09411621 163.83110046 C-118.99827271 163.75108292 -119.9024292 163.67106537 -120.83398438 163.58862305 C-121.73129272 163.5122612 -122.62860107 163.43589935 -123.55310059 163.35722351 C-126.63607592 162.9071391 -128.26011276 161.96222229 -130.5 159.8125 C-131.1290625 159.24144531 -131.758125 158.67039062 -132.40625 158.08203125 C-135.859309 153.57104977 -136.25294926 148.71735514 -136.2746582 143.18774414 C-136.27976913 142.53486923 -136.28488007 141.88199432 -136.29014587 141.20933533 C-136.30395746 139.06784702 -136.30309163 136.92668359 -136.30078125 134.78515625 C-136.30467268 133.28592308 -136.30900827 131.786691 -136.31376648 130.28746033 C-136.32121044 127.15132059 -136.3209506 124.01529347 -136.31567383 120.87915039 C-136.30987998 116.87336855 -136.32681664 112.86804921 -136.3500185 108.86234379 C-136.3647967 105.76783076 -136.36562204 102.6734281 -136.36250877 99.57888603 C-136.36301988 98.10259523 -136.36821789 96.6262979 -136.37832069 95.15004158 C-136.39074868 93.08027765 -136.38385685 91.01140162 -136.37231445 88.94165039 C-136.37294388 87.76727921 -136.3735733 86.59290802 -136.3742218 85.38294983 C-135.76874882 79.90949878 -133.95980638 75.17026706 -129.5625 71.625 C-128.98628906 71.14289063 -128.41007812 70.66078125 -127.81640625 70.1640625 C-124.12302485 67.7971213 -120.21851077 67.83102733 -115.921875 67.68359375 C-114.76171875 67.64169922 -113.6015625 67.59980469 -112.40625 67.55664062 C-111.1996875 67.51732422 -109.993125 67.47800781 -108.75 67.4375 C-106.91695312 67.37272461 -106.91695312 67.37272461 -105.046875 67.30664062 C-102.0313608 67.20062645 -99.01576552 67.09856064 -96 67 C-96.28004883 66.17508057 -96.56009766 65.35016113 -96.84863281 64.50024414 C-97.21311523 63.41864014 -97.57759766 62.33703613 -97.953125 61.22265625 C-98.49694824 59.6140271 -98.49694824 59.6140271 -99.05175781 57.97290039 C-103.48263178 44.08135757 -101.13374568 28.57379122 -94.75 15.6875 C-86.27644883 -0.09691133 -74.27729783 -9.49922108 -57.3125 -15.25 C-35.98719695 -20.0783705 -16.27031198 -14.51135933 0 0 Z M-61 24 C-66.13331627 31.0495995 -68.71114751 37.18177082 -68 46 C-65.91575333 54.51276651 -62.57836659 60.30406112 -55.24121094 65.1652832 C-47.67792991 69.09602406 -39.71007552 68.44359598 -31.4375 68.25 C-29.93687287 68.2298987 -28.43621966 68.21165436 -26.93554688 68.1953125 C-23.28981517 68.15161687 -19.64507801 68.08279202 -16 68 C-15.87510277 63.62590696 -15.78506219 59.2527961 -15.7253418 54.87744141 C-15.70041162 53.39353321 -15.66645375 51.90974505 -15.62280273 50.42626953 C-15.33083562 40.23833481 -15.80987541 31.86192227 -22.88427734 23.87182617 C-28.03437803 18.70429352 -34.2421385 16.26804853 -41.49609375 15.859375 C-48.61880844 16.25940266 -55.97968616 18.82050548 -61 24 Z M24 24 C18.74036287 30.64448839 16.72930649 37.54698031 16.8046875 46.02734375 C16.81113281 47.31318359 16.81757813 48.59902344 16.82421875 49.92382812 C16.84092399 51.26172154 16.85785381 52.59961217 16.875 53.9375 C16.88504678 55.30272783 16.89416964 56.6679628 16.90234375 58.03320312 C16.92582395 61.35565199 16.95866641 64.67773321 17 68 C21.51651109 68.12483978 26.03207334 68.2149125 30.54980469 68.2746582 C32.0822095 68.29959759 33.61449792 68.33356266 35.14648438 68.37719727 C45.26329429 68.65785289 53.98231997 68.44138698 61.89160156 61.28955078 C67.2359305 55.75109745 69.13126001 49.70357711 69.5 42.125 C69.25100707 33.89785859 66.19488637 27.76590909 60.3125 22.0625 C49.54799874 13.41827929 33.86439062 14.26143068 24 24 Z M-103 101 C-103 110.9 -103 120.8 -103 131 C-34.69 131 33.62 131 104 131 C104 121.1 104 111.2 104 101 C35.69 101 -32.62 101 -103 101 Z " fill="#000000" transform="translate(255,139)"/>
<path d="M0 0 C1.56095705 -0.00445668 1.56095705 -0.00445668 3.15344858 -0.0090034 C6.63994556 -0.0176738 10.12640814 -0.01919727 13.61291504 -0.02069092 C16.11322096 -0.02532034 18.61352617 -0.03034517 21.11383057 -0.03573608 C27.90758836 -0.04885195 34.70133272 -0.05534079 41.49510002 -0.05974674 C45.74228413 -0.06251392 49.98946598 -0.0667522 54.23664856 -0.07125092 C66.00980232 -0.08344187 77.78295427 -0.09374063 89.5561142 -0.09712601 C90.30909008 -0.09734557 91.06206597 -0.09756514 91.8378593 -0.09779136 C92.96994178 -0.09811878 92.96994178 -0.09811878 94.12489462 -0.09845281 C95.65410455 -0.09889626 97.18331448 -0.09934283 98.71252441 -0.09979248 C99.47105644 -0.10001391 100.22958847 -0.10023534 101.01110631 -0.10046348 C113.28769471 -0.10440709 125.56422359 -0.12184854 137.84078902 -0.145152 C150.46328745 -0.16891741 163.08575608 -0.18133026 175.70827723 -0.18249393 C182.7878662 -0.18340792 189.86737767 -0.18909025 196.94694519 -0.20731354 C203.61181717 -0.22440952 210.27651762 -0.22592851 216.94141388 -0.21717453 C219.38017928 -0.21640643 221.8189527 -0.22071666 224.25769806 -0.23063278 C253.63533442 -0.34302508 278.4424067 6.43699129 300.01721191 27.44122314 C321.38342164 49.98829421 326.28871543 77.04628467 326.15563965 107.06280518 C326.15943085 109.5222301 326.16493746 111.98165288 326.17201233 114.44107056 C326.18444428 120.38371108 326.17847743 126.3261561 326.16333675 132.26877417 C326.14633427 139.21067291 326.1497046 146.15252025 326.15343083 153.09443341 C326.15928758 165.49148574 326.14522302 177.888436 326.1204834 190.28546143 C326.0965587 202.27573469 326.08948601 214.26587169 326.09997559 226.25616455 C326.11141996 239.36105996 326.11327236 252.46589261 326.09887749 265.57078731 C326.09735189 266.97166943 326.09583153 268.37255155 326.09431648 269.77343369 C326.09355867 270.4624283 326.09280085 271.15142292 326.09202008 271.86129615 C326.08730518 276.68406141 326.0891086 281.50679835 326.09338188 286.32956314 C326.09886195 292.83538012 326.08793074 299.34105166 326.06642723 305.84683609 C326.0608989 308.22348399 326.06035733 310.60014999 326.0653801 312.97679901 C326.12227606 343.77812359 319.62954342 369.42672857 297.65393066 392.14044189 C275.50826957 413.27652138 249.26404937 417.60590353 219.92028809 417.54449463 C217.44484653 417.55020615 214.96940761 417.55717342 212.49397278 417.56529236 C206.50014216 417.58130395 200.50646261 417.5833418 194.51262542 417.57807945 C189.63421809 417.57401695 184.75584157 417.57550582 179.87743568 417.58082771 C179.17972329 417.58157614 178.4820109 417.58232456 177.7631557 417.58309566 C176.34516387 417.58462734 174.92717204 417.58616569 173.50918023 417.58771063 C160.24901526 417.60139882 146.98890949 417.59602417 133.72874591 417.58452541 C121.63646327 417.57459882 109.54433377 417.58753031 97.45207473 417.61145961 C84.99198034 417.63592825 72.53195705 417.64543937 60.07183915 417.63880688 C53.0939665 417.63533158 46.11621145 417.63743384 39.13835716 417.65505791 C32.57263847 417.67143741 26.00716254 417.66647826 19.44143486 417.64775276 C17.04466047 417.64409002 14.64786413 417.64710696 12.25111008 417.65763855 C-17.55757466 417.77852712 -42.54419415 411.336051 -64.52966309 390.04669189 C-78.98626898 375.4676139 -88.37882588 355.97338717 -90.46270752 335.57757568 C-90.54639831 334.76132548 -90.63008911 333.94507527 -90.71631598 333.10409021 C-91.6860843 322.71428829 -91.62611742 312.32187241 -91.6048584 301.89630127 C-91.60757564 299.62878813 -91.61114064 297.36127588 -91.61547852 295.09376526 C-91.62451768 288.99254715 -91.62109358 282.89139745 -91.61472034 276.7901783 C-91.6096161 270.37026933 -91.61436399 263.95036577 -91.61749268 257.53045654 C-91.62135107 246.06647776 -91.61518059 234.60253359 -91.604974 223.13856024 C-91.59604092 212.78516832 -91.59759371 202.43182128 -91.60681152 192.07843018 C-91.61756135 179.99896546 -91.62147382 167.91953588 -91.615587 155.84006548 C-91.61248738 149.46644039 -91.61200219 143.09284607 -91.61865997 136.71922302 C-91.62448641 130.72393442 -91.62034076 124.7287296 -91.60887146 118.73344994 C-91.60625297 116.54833807 -91.60694108 114.36321901 -91.61139679 112.17811012 C-91.63026158 101.97717358 -91.50471123 91.86267068 -90.46661377 81.70721436 C-90.35276317 80.58600874 -90.35276317 80.58600874 -90.23661256 79.4421525 C-87.517254 55.90671061 -74.40098143 34.11214423 -56.08825684 19.31622314 C-39.36626391 7.03687191 -20.81731511 -0.01861382 0 0 Z M-43.34606934 53.14044189 C-55.48351861 67.76701651 -58.5127244 83.63187593 -58.4797821 102.09436035 C-58.48204766 103.04449438 -58.48431322 103.99462841 -58.48664743 104.97355437 C-58.4929337 108.12978215 -58.49216154 111.2859664 -58.49133301 114.44219971 C-58.49432785 116.71649734 -58.49773113 118.99079447 -58.50151062 121.26509094 C-58.5103216 127.42433599 -58.51268751 133.58356714 -58.51332641 139.74281788 C-58.51403854 143.59604091 -58.51617596 147.44926044 -58.51882362 151.3024826 C-58.52759095 164.06612904 -58.53224453 176.82976395 -58.53149315 189.59341267 C-58.53145319 190.28005048 -58.53141324 190.96668829 -58.53137207 191.6741333 C-58.53133119 192.36161918 -58.53129031 193.04910506 -58.53124819 193.75742385 C-58.53084196 204.89240308 -58.54040817 216.02734846 -58.55451044 227.1623179 C-58.5689099 238.62329212 -58.57559596 250.08424301 -58.57491666 261.54522777 C-58.57466236 267.96857518 -58.57747587 274.39188425 -58.58809471 280.81522369 C-58.59781489 286.85961707 -58.59782807 292.90393574 -58.59057808 298.94833183 C-58.58953711 301.1581146 -58.59186593 303.36790211 -58.59793854 305.57767677 C-58.65802937 328.97194925 -56.76085858 349.47445937 -40.18591309 367.48809814 C-23.33506486 383.36031271 -4.93014221 384.7400332 16.98620605 384.65802002 C19.43020544 384.66344809 21.87420155 384.67057457 24.31819153 384.67926025 C30.23763842 384.69553403 36.15689855 384.69325237 42.07634003 384.68160969 C46.89141456 384.6725353 51.70643233 384.67136856 56.52151299 384.67570496 C57.20970304 384.67631789 57.89789309 384.67693082 58.60693739 384.67756233 C60.00545142 384.67884137 61.40396544 384.68013822 62.80247944 384.68145269 C75.88129263 384.69282789 88.95999323 384.67979261 102.03878795 384.65825123 C113.2361607 384.640379 124.43336754 384.64349127 135.6307373 384.66192627 C148.66782797 384.68338041 161.70482028 384.69173372 174.74192613 384.67947721 C176.13467211 384.67820316 177.5274181 384.67694567 178.92016411 384.67570496 C179.94776683 384.6747793 179.94776683 384.6747793 180.9961292 384.67383495 C185.80023466 384.67039594 190.60427718 384.67617885 195.40837288 384.68562317 C201.88542969 384.69807781 208.36224803 384.68908529 214.83927727 384.66604614 C217.20912027 384.66077985 219.57898973 384.66223694 221.94882202 384.6710968 C243.43084203 384.74397478 259.99985137 381.58417697 275.92346191 365.99591064 C287.76327674 353.61407282 292.97802637 338.69991441 292.9213562 321.78201294 C292.92815287 320.27339729 292.92815287 320.27339729 292.93508685 318.73430455 C292.94768806 315.38379633 292.94611322 312.03345157 292.94445801 308.68292236 C292.95044599 306.27246391 292.95725216 303.86200738 292.96481323 301.45155334 C292.98062407 295.59430784 292.98692053 289.73710028 292.98803799 283.8798378 C292.98899103 279.11377569 292.99311405 274.34772678 292.99943924 269.58166885 C293.0170394 256.04245092 293.02628025 242.50326459 293.02477829 228.96403514 C293.02469838 228.23527671 293.02461847 227.50651828 293.02453613 226.75567627 C293.02441349 225.66118975 293.02441349 225.66118975 293.02428837 224.5445924 C293.02347623 212.73119954 293.04259888 200.91793442 293.07081287 189.10457848 C293.09961373 176.94866867 293.11334915 164.79282099 293.11162531 152.63687623 C293.1109638 145.82276201 293.11635036 139.00878164 293.13798141 132.19469833 C293.15742493 125.78089954 293.15744628 119.36738228 293.14294815 112.95357323 C293.14086643 110.60875344 293.14552264 108.26391576 293.15766907 105.91912651 C293.26330868 84.10081735 290.65088908 66.89776346 274.95861816 50.38653564 C262.98756263 38.71982898 248.94789481 32.81814048 232.2951355 32.87301636 C230.76836715 32.86621969 230.76836715 32.86621969 229.21075499 32.85928571 C225.81334891 32.84666494 222.41610363 32.84826061 219.01867676 32.84991455 C216.57718704 32.84392778 214.13569921 32.83712189 211.69421387 32.82955933 C205.75762383 32.81373791 199.82107124 32.80745147 193.88446443 32.80633457 C189.05448734 32.80538208 184.22452329 32.80126175 179.39455032 32.79493332 C165.67834607 32.77732962 151.96217305 32.76809283 138.24595742 32.76959427 C137.50740988 32.76967418 136.76886234 32.76975409 136.00793457 32.76983643 C135.26847724 32.76991819 134.5290199 32.76999995 133.76715477 32.77008419 C121.79459361 32.77089636 109.82215847 32.75177389 97.84963374 32.72355969 C85.53442878 32.69476878 73.21928514 32.68102287 60.9040457 32.68274724 C53.99884632 32.68340911 47.09377899 32.67800674 40.18861008 32.65639114 C33.68949431 32.63617598 27.19058464 32.63691629 20.69145203 32.65142441 C18.31396196 32.65350798 15.9364543 32.64883879 13.55899429 32.63670349 C-9.05024719 32.5288281 -27.07648982 35.93875105 -43.34606934 53.14044189 Z " fill="#000000" transform="translate(138.3460693359375,47.85955810546875)"/>
</svg>
