<?xml version="1.0" encoding="UTF-8"?>
<svg version="1.1" xmlns="http://www.w3.org/2000/svg" width="512" height="512">
<path d="M0 0 C1.68714608 -0.0045697 3.37429031 -0.00987761 5.06143188 -0.0158844 C8.58660473 -0.02478531 12.11155067 -0.02242751 15.63671875 -0.01245117 C20.12753181 -0.00097299 24.61755715 -0.02117047 29.10826683 -0.05036831 C32.5898425 -0.06882173 36.07123264 -0.06841964 39.552845 -0.06273079 C41.20725229 -0.06257865 42.86167302 -0.06853313 44.51603317 -0.08102226 C57.77708766 -0.16703746 68.40157879 1.42102793 78.6640625 10.43359375 C79.24671875 10.91183594 79.829375 11.39007813 80.4296875 11.8828125 C101.5578081 30.77439781 104.95881111 66.95441941 106.6640625 93.43359375 C106.79187655 97.58419448 106.80473674 101.73046529 106.796875 105.8828125 C106.79783173 107.02087845 106.79878845 108.1589444 106.79977417 109.33149719 C106.80044958 111.71717383 106.79864027 114.10285237 106.79443359 116.48852539 C106.78906123 120.1219497 106.79440812 123.75525126 106.80078125 127.38867188 C106.80012065 129.72005235 106.79883985 132.05143276 106.796875 134.3828125 C106.79889923 135.45802658 106.80092346 136.53324066 106.80300903 137.64103699 C106.74740584 155.66331212 106.74740584 155.66331212 101.6640625 161.43359375 C97.28032796 164.35608345 93.88628651 164.99311775 88.6640625 164.43359375 C83.98235982 162.68943001 81.45157059 160.56323536 78.6640625 156.43359375 C77.66505182 153.43656172 77.5537382 151.51932603 77.58227539 148.39331055 C77.5888063 147.363405 77.59533722 146.33349945 77.60206604 145.27238464 C77.61350143 144.15382584 77.62493683 143.03526703 77.63671875 141.8828125 C77.64939373 139.48632972 77.66175246 137.08984525 77.67382812 134.69335938 C77.6983517 130.93785242 77.7260071 127.18243545 77.76000977 123.42700195 C77.96563484 99.18429121 77.1657708 75.51257711 70.09545898 52.16113281 C69.69265968 50.82795013 69.69265968 50.82795013 69.28172302 49.46783447 C69.07789505 48.79653503 68.87406708 48.1252356 68.6640625 47.43359375 C68.66047997 49.39521753 68.66047997 49.39521753 68.65682507 51.39647007 C68.59946149 82.44190558 68.5267283 113.48726316 68.43507622 144.53261537 C68.4238081 148.35401864 68.41266964 152.17542228 68.40161133 155.99682617 C68.39940764 156.75759677 68.39720396 157.51836736 68.3949335 158.30219161 C68.35956404 170.61941818 68.33469793 182.93664469 68.31371548 195.25390322 C68.29195062 207.89316636 68.2588937 220.53236362 68.21536094 233.17157072 C68.188856 240.97023221 68.17115212 248.7688116 68.16471646 256.5675159 C68.15883739 262.54824046 68.13724528 268.52880316 68.10978699 274.50947189 C68.10098597 276.96244321 68.09728843 279.4154389 68.09905434 281.86842537 C68.10070358 285.2161756 68.08403662 288.56335412 68.06278992 291.911026 C68.07006128 293.36872889 68.07006128 293.36872889 68.07747954 294.85588032 C67.99592347 302.63675434 66.35013363 308.74752262 60.6640625 314.43359375 C54.55109699 318.96281275 48.06198614 319.40070776 40.6640625 318.43359375 C34.5465585 316.70473392 29.99928107 312.80818163 26.6640625 307.43359375 C24.94888707 303.06188847 24.41605962 299.43539598 24.42355347 294.7517395 C24.42184462 294.10549523 24.42013577 293.45925096 24.41837513 292.79342353 C24.41509821 290.64227784 24.42605384 288.49144867 24.43701172 286.34033203 C24.43757622 284.79266874 24.43725851 283.2450049 24.43612671 281.69734192 C24.43555373 277.50563498 24.44729924 273.3140429 24.46127462 269.12236261 C24.47379103 264.73814637 24.4749532 260.3539274 24.47732544 255.96969604 C24.48353753 247.67190938 24.49994469 239.37417551 24.52002442 231.07641208 C24.54239184 221.6278507 24.55337897 212.17928677 24.56341529 202.7307055 C24.58431115 183.298305 24.61948187 163.86595362 24.6640625 144.43359375 C22.3540625 144.43359375 20.0440625 144.43359375 17.6640625 144.43359375 C17.66682788 145.24750643 17.66959326 146.06141911 17.67244244 146.8999958 C17.73869848 166.70524034 17.78834125 186.51046577 17.81949902 206.31579781 C17.83496721 215.89351507 17.85605584 225.47115835 17.89038086 235.04882812 C17.92028465 243.39682689 17.93963785 251.74477207 17.94632798 260.09282291 C17.95023858 264.51296997 17.95942805 268.93296375 17.98125267 273.35306168 C18.00163328 277.51447087 18.00789312 281.67566379 18.00338554 285.83711815 C18.00421004 287.36331419 18.01016639 288.88951755 18.02167892 290.41567039 C18.03664821 292.50264834 18.03300064 294.58881426 18.02482605 296.67581177 C18.02759143 297.84280169 18.03035681 299.0097916 18.03320599 300.21214485 C17.38788135 305.84377702 14.57855171 310.41330753 10.6640625 314.43359375 C4.56133898 318.97000082 -1.94631925 319.39962201 -9.3359375 318.43359375 C-15.4534415 316.70473392 -20.00071893 312.80818163 -23.3359375 307.43359375 C-26.00151294 301.4999229 -25.64297093 295.47103139 -25.65478516 289.09423828 C-25.66483078 287.85465866 -25.6748764 286.61507904 -25.68522644 285.3379364 C-25.71076275 281.95199964 -25.7276516 278.56622935 -25.74065447 275.18023539 C-25.75632057 271.63678157 -25.78309964 268.09341189 -25.8086853 264.55001831 C-25.85541165 257.84600725 -25.89218541 251.14198026 -25.92535818 244.43788993 C-25.96362307 236.80301932 -26.01302175 229.16823334 -26.06334233 221.53343415 C-26.16657076 205.83354859 -26.2558606 190.1336155 -26.3359375 174.43359375 C-28.25489076 175.70901147 -30.1733301 176.98520243 -32.09155273 178.26171875 C-33.69413185 179.3276123 -33.69413185 179.3276123 -35.3290863 180.41503906 C-39.82629141 183.43409583 -44.22038117 186.58824909 -48.62109375 189.74609375 C-51.3359375 191.43359375 -51.3359375 191.43359375 -54.3359375 191.43359375 C-56.10686903 189.11995739 -57.66006817 186.82954663 -59.2109375 184.37109375 C-60.26630044 182.74223831 -61.32376949 181.1147464 -62.3828125 179.48828125 C-62.98931641 178.55338867 -63.59582031 177.61849609 -64.22070312 176.65527344 C-68.08965286 170.76253789 -72.06325844 164.94025936 -76.02496338 159.10964966 C-77.90556332 156.34166585 -79.78377525 153.57206623 -81.6618042 150.80233765 C-82.51235248 149.54804407 -83.36312984 148.2939058 -84.21417236 147.03994751 C-89.33942712 139.48666312 -89.33942712 139.48666312 -89.2043457 137.43237305 C-88.07688555 134.83734457 -86.79677457 134.00107337 -84.44140625 132.453125 C-83.65056641 131.92912109 -82.85972656 131.40511719 -82.04492188 130.86523438 C-81.21283203 130.33091797 -80.38074219 129.79660156 -79.5234375 129.24609375 C-78.70294922 128.70017578 -77.88246094 128.15425781 -77.03710938 127.59179688 C-70.35751174 123.2199921 -70.35751174 123.2199921 -66.3359375 122.43359375 C-65.8984375 125.59375 -65.8984375 125.59375 -66.3359375 129.43359375 C-68.33986588 131.7469084 -70.75582068 133.25478505 -73.3359375 134.87109375 C-74.33753906 135.53915039 -74.33753906 135.53915039 -75.359375 136.22070312 C-77.00408658 137.31326153 -78.6682676 138.37641015 -80.3359375 139.43359375 C-79.9140918 140.0663623 -79.49224609 140.69913086 -79.05761719 141.35107422 C-65.69677734 161.39233398 -65.69677734 161.39233398 -52.3359375 181.43359375 C-47.95722487 180.52376669 -44.76992391 178.2327082 -41.140625 175.7265625 C-40.08862915 175.01057388 -40.08862915 175.01057388 -39.01538086 174.28012085 C-36.74358343 172.73238517 -34.47731111 171.17675797 -32.2109375 169.62109375 C-30.66336581 168.5650249 -29.11535116 167.50960487 -27.56689453 166.45483398 C-25.2708489 164.89066256 -22.97509897 163.32607788 -20.68087769 161.75923157 C-14.88286911 157.79958777 -9.06021804 153.87971371 -3.2109375 149.99609375 C-2.48503418 149.51358154 -1.75913086 149.03106934 -1.01123047 148.53393555 C0.54644699 147.49935286 2.10510037 146.46623961 3.6640625 145.43359375 C-0.29447131 139.07651039 -4.38884452 132.83088371 -8.61328125 126.6484375 C-9.07312408 125.97487213 -9.53296692 125.30130676 -10.00674438 124.60733032 C-11.91749119 121.81103374 -13.83019271 119.01611361 -15.74829102 116.22485352 C-17.16572563 114.16048842 -18.57741743 112.09229669 -19.98828125 110.0234375 C-20.42567123 109.39018051 -20.86306122 108.75692352 -21.31370544 108.10447693 C-24.3359375 103.66058055 -24.3359375 103.66058055 -24.3359375 101.43359375 C-27.3059375 103.08359375 -30.2759375 104.73359375 -33.3359375 106.43359375 C-34.01953125 100.671875 -34.01953125 100.671875 -33.3359375 98.43359375 C-32.18606746 97.74022943 -31.01614233 97.07982158 -29.8359375 96.43945312 C-27.50906801 94.82210223 -26.49789022 94.00157257 -25.71290588 91.24858093 C-25.52580959 88.50886513 -25.54890519 85.84582006 -25.65234375 83.1015625 C-25.66224838 82.10981522 -25.67215302 81.11806793 -25.68235779 80.0962677 C-25.72146664 76.93635615 -25.809283 73.77995058 -25.8984375 70.62109375 C-25.93355584 68.47596172 -25.96549393 66.33077509 -25.99414062 64.18554688 C-26.07121549 58.93370467 -26.18826592 53.68389964 -26.3359375 48.43359375 C-30.51745966 62.75583033 -30.51745966 62.75583033 -33.0859375 77.43359375 C-33.19808594 78.25085938 -33.31023438 79.068125 -33.42578125 79.91015625 C-35.08156078 92.80575684 -35.42361184 105.74927773 -35.328125 118.734375 C-35.32035034 119.79510223 -35.31257568 120.85582947 -35.30456543 121.94869995 C-35.26771299 126.33599889 -35.22504414 130.72306545 -35.16455078 135.11010742 C-35.12233035 138.35989466 -35.09884453 141.60938947 -35.078125 144.859375 C-35.05950409 145.84891678 -35.04088318 146.83845856 -35.021698 147.85798645 C-35.00295489 152.86373579 -35.00185426 156.39843258 -38.3359375 160.43359375 C-42.11747084 163.49646464 -46.11574997 164.78254909 -50.9609375 164.49609375 C-55.67818933 163.69766425 -58.05865089 161.870748 -61.3359375 158.43359375 C-67.37099653 149.14525045 -64.53777497 130.29488933 -64.5234375 119.43359375 C-64.52283325 118.58153351 -64.522229 117.72947327 -64.52160645 116.85159302 C-64.45548281 82.35400305 -63.42047459 37.82197537 -37.5859375 11.44921875 C-26.08140424 1.14307437 -14.82162293 -0.03528438 0 0 Z M15.6640625 15.43359375 C13.01933772 21.71635064 13.01933772 21.71635064 12.6640625 28.43359375 C16.12994024 30.59976734 18.73198406 31.72057991 22.7890625 31.37109375 C27.11058577 30.68173921 27.11058577 30.68173921 30.6640625 26.43359375 C29.6740625 22.80359375 28.6840625 19.17359375 27.6640625 15.43359375 C23.7040625 15.43359375 19.7440625 15.43359375 15.6640625 15.43359375 Z M14.6640625 36.43359375 C13.03441332 47.78974197 11.41048272 59.14667812 9.79597473 70.50498962 C9.06325907 75.65356539 8.31970113 80.80028403 7.5625 85.9453125 C7.28365884 87.87887809 7.00498935 89.81246846 6.7265625 91.74609375 C6.59854248 92.58930176 6.47052246 93.43250977 6.33862305 94.30126953 C5.48628798 100.31917521 5.41799548 103.92925064 9.02734375 108.84375 C10.00115846 110.06861599 10.9845517 111.28591758 11.9765625 112.49609375 C12.46318359 113.10775391 12.94980469 113.71941406 13.45117188 114.34960938 C16.0312799 117.56172233 18.67542303 120.5869324 21.6640625 123.43359375 C24.16410764 120.47722969 26.64937648 117.5118173 29.1015625 114.515625 C30.51441984 112.79228917 31.92083799 111.16962412 33.4765625 109.5703125 C35.70603269 107.11916203 36.63598635 105.29552298 36.74536133 101.93774414 C35.8228348 90.48703049 34.23993302 79.12744316 32.65283203 67.75268555 C32.15997211 64.21674797 31.67520352 60.67976593 31.19140625 57.14257812 C30.88067994 54.89186192 30.56949881 52.64120846 30.2578125 50.390625 C30.11299438 49.33446487 29.96817627 48.27830475 29.81896973 47.19013977 C29.68212769 46.2144957 29.54528564 45.23885162 29.40429688 44.23364258 C29.22562073 42.94796135 29.22562073 42.94796135 29.04333496 41.63630676 C28.69243101 39.26759531 28.69243101 39.26759531 27.6640625 36.43359375 C23.3740625 36.43359375 19.0840625 36.43359375 14.6640625 36.43359375 Z " fill="#000000" transform="translate(89.3359375,139.56640625)"/>
<path d="M0 0 C86.13 0 172.26 0 261 0 C261 25.74 261 51.48 261 78 C269.58 78 278.16 78 287 78 C287 80.97 287 83.94 287 87 C180.41 87 73.82 87 -36 87 C-36 61.26 -36 35.52 -36 9 C-31 11 -31 11 -28.8125 12.125 C-22.43086744 14.1103968 -16.74334255 13.68599557 -10.6875 10.875 C-5.77216835 8.16229338 -2.53845391 5.07690781 0 0 Z " fill="#000000" transform="translate(202,299)"/>
<path d="M0 0 C0.33 0.99 0.66 1.98 1 3 C-0.7578125 3.5859375 -2.515625 4.171875 -4.2734375 4.7578125 C-6.29814875 5.93233906 -6.29814875 5.93233906 -6.6875 8.75390625 C-8.65460269 13.61897271 -12.21657602 15.21910716 -16.625 17.8125 C-17.47006104 18.32441895 -18.31512207 18.83633789 -19.18579102 19.36376953 C-20.92768425 20.41259185 -22.67490282 21.4526189 -24.42724609 22.48388672 C-26.85773227 23.91616221 -29.26746609 25.37851692 -31.67578125 26.84765625 C-33.09495327 27.69246196 -34.51545702 28.53503592 -35.9375 29.375 C-36.59250488 29.77436768 -37.24750977 30.17373535 -37.92236328 30.58520508 C-42.40235046 33.15303137 -42.40235046 33.15303137 -45.2578125 32.421875 C-46.99441173 31.00456083 -48.46498717 29.56369893 -49.9375 27.875 C-52.36702732 25.31236903 -52.36702732 25.31236903 -55.875 24.625 C-56.57625 24.74875 -57.2775 24.8725 -58 25 C-58.04898437 25.56847656 -58.09796875 26.13695313 -58.1484375 26.72265625 C-58.30464717 28.33592512 -58.48726757 29.94678038 -58.69140625 31.5546875 C-58.94866844 33.59324614 -59.13899249 35.64011134 -59.3125 37.6875 C-62.1441824 43.24598767 -67.45512147 44.71424139 -73 47 C-73.74636719 47.32097656 -74.49273437 47.64195313 -75.26171875 47.97265625 C-77.66580704 49.00410033 -80.07983601 50.00691171 -82.5 51 C-83.27730469 51.32742187 -84.05460937 51.65484375 -84.85546875 51.9921875 C-85.59410156 52.28351563 -86.33273437 52.57484375 -87.09375 52.875 C-87.75052734 53.14054687 -88.40730469 53.40609375 -89.08398438 53.6796875 C-91.70033152 54.11707887 -92.81279685 53.44366054 -95 52 C-97.18589461 49.26674316 -99.21132845 46.48691329 -101.20117188 43.61132812 C-103.2365797 40.80831673 -104.4608742 39.17272962 -107.81640625 38.09765625 C-108.53699219 38.06542969 -109.25757813 38.03320312 -110 38 C-110.12955078 38.82177734 -110.12955078 38.82177734 -110.26171875 39.66015625 C-110.56721071 41.38380353 -110.92509541 43.098475 -111.31640625 44.8046875 C-112.07379435 48.07443603 -112.07379435 48.07443603 -112.40234375 51.7578125 C-113.86659107 59.72015196 -113.86659107 59.72015196 -117 63 C-124.02261165 66.86318509 -132.99495384 69.44884283 -141 70 C-144.82796413 68.83011322 -146.23855792 66.55963695 -148.3125 63.24609375 C-148.91320312 62.30958984 -149.51390625 61.37308594 -150.1328125 60.40820312 C-151.3793646 58.42493352 -152.62415227 56.44055385 -153.8671875 54.45507812 C-154.46789062 53.51986328 -155.06859375 52.58464844 -155.6875 51.62109375 C-156.22761719 50.7592749 -156.76773438 49.89745605 -157.32421875 49.00952148 C-159.18737533 46.77530794 -160.15886599 46.33463792 -163 46 C-163.16580566 46.59425781 -163.33161133 47.18851563 -163.50244141 47.80078125 C-165.400172 54.38333431 -167.72397128 60.68589444 -170.375 67 C-170.74882812 67.93972656 -171.12265625 68.87945312 -171.5078125 69.84765625 C-171.88421875 70.74355469 -172.260625 71.63945312 -172.6484375 72.5625 C-172.98020996 73.36816406 -173.31198242 74.17382812 -173.65380859 75.00390625 C-175.8800087 78.30485149 -179.00391622 78.75527252 -182.71875 79.66796875 C-184.09546875 79.92513672 -184.09546875 79.92513672 -185.5 80.1875 C-186.4178125 80.36667969 -187.335625 80.54585938 -188.28125 80.73046875 C-191.2697824 81.02674567 -193.14503403 80.94486434 -196 80 C-197.71337891 77.77856445 -197.71337891 77.77856445 -199.2265625 74.86328125 C-199.7834375 73.81076172 -200.3403125 72.75824219 -200.9140625 71.67382812 C-201.47867188 70.56458984 -202.04328125 69.45535156 -202.625 68.3125 C-203.19734375 67.22259766 -203.7696875 66.13269531 -204.359375 65.00976562 C-206.96346274 60.03474683 -209.49454636 55.02532783 -212 50 C-213.32 50 -214.64 50 -216 50 C-216.42297363 50.80107178 -216.84594727 51.60214355 -217.28173828 52.42749023 C-218.87703304 55.44322011 -220.47665115 58.45657617 -222.07910156 61.46850586 C-222.76732825 62.76415203 -223.45389825 64.0606798 -224.13867188 65.3581543 C-235.25870902 86.41956967 -235.25870902 86.41956967 -240 88 C-241.39439664 88.06665376 -242.79169875 88.08538199 -244.1875 88.0625 C-245.445625 88.041875 -246.70375 88.02125 -248 88 C-251.69132572 81.18427571 -254.9230766 74.30451927 -257.7734375 67.09375 C-258.25449951 65.87727783 -258.73556152 64.66080566 -259.23120117 63.4074707 C-260.19819894 60.93737095 -261.15162605 58.46191336 -262.09106445 55.98120117 C-262.53925537 54.83627197 -262.98744629 53.69134277 -263.44921875 52.51171875 C-263.84455811 51.47490967 -264.23989746 50.43810059 -264.6472168 49.36987305 C-265.76801599 46.83002544 -265.76801599 46.83002544 -268.15942383 46.15551758 C-268.76681396 46.10419678 -269.3742041 46.05287598 -270 46 C-270.39372803 47.08414185 -270.39372803 47.08414185 -270.79541016 48.19018555 C-272.03069444 51.07159754 -273.48042228 53.38932055 -275.2734375 55.95703125 C-275.92803955 56.89796631 -276.5826416 57.83890137 -277.25708008 58.80834961 C-278.30545044 60.29540405 -278.30545044 60.29540405 -279.375 61.8125 C-280.08873779 62.82900635 -280.80247559 63.8455127 -281.5378418 64.89282227 C-283.68255847 67.93530502 -285.83833784 70.96953823 -288 74 C-288.61987793 74.87043945 -289.23975586 75.74087891 -289.87841797 76.63769531 C-291.50953757 78.9145902 -293.15615237 81.17891546 -294.8125 83.4375 C-295.29702637 84.11079346 -295.78155273 84.78408691 -296.28076172 85.4777832 C-297.44668271 87.04298934 -298.71462724 88.53130708 -300 90 C-300.99 90 -301.98 90 -303 90 C-304.63904103 84.98805 -306.27461309 79.97498493 -307.90722656 74.9609375 C-308.46100345 73.26174723 -309.01566418 71.5628447 -309.57128906 69.86425781 C-312.91888696 59.62810106 -316.14239057 49.38491891 -319 39 C-323.85129551 39.74931793 -325.26210773 40.99237558 -328.25 44.9375 C-331.95283152 49.68598162 -335.8057619 54.19015467 -339.859375 58.640625 C-342.44721283 61.49291341 -344.973899 64.3949218 -347.4921875 67.30859375 C-348.23855469 68.14583984 -348.23855469 68.14583984 -349 69 C-349.46277344 69.57492188 -349.92554688 70.14984375 -350.40234375 70.7421875 C-352 72 -352 72 -354.26171875 72.07421875 C-355.06222656 71.94660156 -355.86273438 71.81898438 -356.6875 71.6875 C-357.49574219 71.56761719 -358.30398438 71.44773437 -359.13671875 71.32421875 C-359.75160156 71.21722656 -360.36648438 71.11023438 -361 71 C-361.875 68.9375 -361.875 68.9375 -362 66 C-360.70911956 64.18354681 -359.22026649 62.64769082 -357.6953125 61.0234375 C-351.61242679 53.76321907 -348.96627129 44.34675237 -347.875 35.125 C-347.58333333 32.75 -347.29166667 30.375 -347 28 C-345.90365234 28.24814453 -344.80730469 28.49628906 -343.67773438 28.75195312 C-332.98143252 31.159621 -322.2687213 33.43934289 -311.5 35.5 C-310.71905975 35.64963196 -309.93811951 35.79926392 -309.1335144 35.95343018 C-297.32257039 38.19542788 -285.50562548 40.00366272 -273.5625 41.375 C-272.8730127 41.45435791 -272.18352539 41.53371582 -271.47314453 41.61547852 C-257.88597158 43.15509689 -244.34739315 44.15016534 -230.66796875 44.203125 C-228.83347923 44.21364647 -228.83347923 44.21364647 -226.96192932 44.22438049 C-223.03708159 44.24177989 -219.11238489 44.2482329 -215.1875 44.25 C-214.51785721 44.25044186 -213.84821442 44.25088371 -213.15827942 44.25133896 C-192.27860647 44.25855952 -171.7173252 43.83180444 -151 41 C-149.72624512 40.83371094 -148.45249023 40.66742188 -147.14013672 40.49609375 C-100.29958196 34.25299871 -53.48287663 22.24977632 -10.39233398 2.69140625 C-9.60286377 2.33691406 -8.81339355 1.98242188 -8 1.6171875 C-7.319375 1.30378418 -6.63875 0.99038086 -5.9375 0.66748047 C-4 0 -4 0 0 0 Z " fill="#000000" transform="translate(506,60)"/>
<path d="M0 0 C0.99 0.33 1.98 0.66 3 1 C2.81259155 2.81016541 2.81259155 2.81016541 2 5 C-0.25082397 6.52101135 -0.25082397 6.52101135 -3.00146484 8.03735352 C-6.82615538 10.57058389 -6.82615538 10.57058389 -8.88995361 14.51217651 C-9.15533804 17.52038389 -9.12687245 20.38615825 -8.9765625 23.40234375 C-8.96241302 24.48004532 -8.94826355 25.55774689 -8.9336853 26.66810608 C-8.87791458 30.09412202 -8.75251959 33.51347863 -8.625 36.9375 C-8.57481639 39.26618125 -8.52919304 41.59496553 -8.48828125 43.92382812 C-8.37831401 49.61813895 -8.21122744 55.3085939 -8 61 C-12.53952614 59.63223444 -16.44641883 57.7974939 -20.578125 55.48046875 C-21.18960388 55.14002029 -21.80108276 54.79957184 -22.43109131 54.44880676 C-24.37344652 53.36648854 -26.31192264 52.27745691 -28.25 51.1875 C-33.15598549 48.43863783 -38.07251888 45.71014972 -43 43 C-44.47025635 42.17423462 -44.47025635 42.17423462 -45.97021484 41.33178711 C-47.27273193 40.63001343 -47.27273193 40.63001343 -48.6015625 39.9140625 C-49.33713379 39.51010254 -50.07270508 39.10614258 -50.83056641 38.68994141 C-54.8854349 37.40037823 -58.36764521 39.13117978 -62 41 C-62.06477539 42.10964111 -62.06477539 42.10964111 -62.13085938 43.24169922 C-62.70788319 51.88249858 -63.82724649 60.36585369 -65.15673828 68.91503906 C-65.50482313 71.15605191 -65.84470247 73.39820521 -66.18359375 75.640625 C-67.85547277 86.56641832 -67.85547277 86.56641832 -69 90 C-72.6538776 88.3731545 -75.59595747 86.13308374 -78.75 83.6875 C-79.30494141 83.25743652 -79.85988281 82.82737305 -80.43164062 82.38427734 C-86.51755421 77.6420288 -92.49566525 72.76584689 -98.46875 67.8828125 C-99.08492187 67.39200195 -99.70109375 66.90119141 -100.3359375 66.39550781 C-102 65 -102 65 -104.34375 62.4921875 C-107.98393889 60.06795996 -107.98393889 60.06795996 -117 63 C-121.29 78.51 -125.58 94.02 -130 110 C-133.36805724 108.31597138 -134.72298373 107.50555185 -137.12524414 104.91137695 C-137.71008072 104.28765701 -138.2949173 103.66393707 -138.8974762 103.02131653 C-139.52041061 102.35041489 -140.14334503 101.67951324 -140.78515625 100.98828125 C-142.13319634 99.57597441 -143.48285798 98.16521389 -144.83398438 96.75585938 C-146.95364231 94.53752136 -149.06256034 92.31243473 -151.14526367 90.05932617 C-153.16418436 87.88229292 -155.21985696 85.7462459 -157.28515625 83.61328125 C-157.89392105 82.93630692 -158.50268585 82.25933258 -159.12989807 81.56184387 C-162.01072462 78.64607271 -163.7373939 77.07867037 -167.92941284 76.81747437 C-170.67403572 77.05949768 -173.30572156 77.43055084 -176 78 C-176.24210709 78.87147675 -176.24210709 78.87147675 -176.48910522 79.76055908 C-179.01466397 88.73370849 -182.41536384 97.40517552 -185.6875 106.125 C-186.30042377 107.76551535 -186.91305638 109.40613952 -187.52539062 111.046875 C-189.01357276 115.03251263 -190.50568894 119.01665642 -192 123 C-192.99 123 -193.98 123 -195 123 C-196.8572715 121.08572017 -198.51967088 119.19430105 -200.1875 117.125 C-200.67798828 116.53074219 -201.16847656 115.93648438 -201.67382812 115.32421875 C-204.48255119 111.90969267 -207.24432795 108.45742704 -210 105 C-210.6290625 104.21882813 -211.258125 103.43765625 -211.90625 102.6328125 C-213.0444937 101.20151352 -214.17743339 99.76563104 -215.28125 98.30761719 C-216.66612798 96.47914549 -218.08101272 94.67707475 -219.5 92.875 C-219.92667969 92.29363281 -220.35335937 91.71226562 -220.79296875 91.11328125 C-222.64520999 88.80493256 -224.14010482 87.14660897 -227.125 86.63769531 C-229.58824703 86.59451329 -229.58824703 86.59451329 -233 87 C-233.25625404 87.82661133 -233.25625404 87.82661133 -233.51768494 88.66992188 C-235.27842575 94.16960399 -237.40679539 99.3163823 -239.94140625 104.5 C-240.30975082 105.26175537 -240.6780954 106.02351074 -241.05760193 106.80834961 C-241.82887323 108.39944355 -242.6029138 109.98919792 -243.37963867 111.57763672 C-244.57111947 114.01765168 -245.74987138 116.46354351 -246.92773438 118.91015625 C-247.6815406 120.46130272 -248.43607149 122.01209728 -249.19140625 123.5625 C-249.54352676 124.2946875 -249.89564728 125.026875 -250.25843811 125.78125 C-252.77022841 130.8851142 -252.77022841 130.8851142 -255 132 C-255.44279297 131.33057373 -255.88558594 130.66114746 -256.34179688 129.97143555 C-258.3919805 126.87509293 -260.44596972 123.78129206 -262.5 120.6875 C-263.19609375 119.63498047 -263.8921875 118.58246094 -264.609375 117.49804688 C-268.68292125 111.36886849 -272.86377735 105.35413186 -277.25585938 99.44848633 C-279 97 -279 97 -280.21801758 94.21679688 C-281.91683498 91.59370962 -281.91683498 91.59370962 -285.64526367 91.43237305 C-287.15306381 91.43316335 -288.66101019 91.4613423 -290.16796875 91.51171875 C-290.96278152 91.51879349 -291.7575943 91.52586823 -292.57649231 91.53315735 C-295.11445361 91.56114126 -297.65020607 91.6238816 -300.1875 91.6875 C-301.90817125 91.71257795 -303.6288771 91.73539201 -305.34960938 91.75585938 C-309.56725697 91.81098033 -313.78325407 91.89727588 -318 92 C-318 90.35 -318 88.7 -318 87 C-317.083396 86.98541748 -316.16679199 86.97083496 -315.22241211 86.95581055 C-222.81723644 85.3374762 -131.20817602 70.2805829 -4.93359375 3.21264648 C-3.34034144 2.06686347 -1.67490262 1.02272815 0 0 Z " fill="#000000" transform="translate(509,68)"/>
<path d="M0 0 C8.61231771 5.2368448 15.76649967 13.42329259 18.5625 23.26171875 C20.4517744 35.0865523 19.88059108 46.44224496 13.26953125 56.6796875 C6.80258894 65.37972565 -1.18457776 71.21464381 -12 73 C-24.15970189 74.0740849 -34.54011492 72.55377899 -44.15625 64.69140625 C-52.38011692 57.14705376 -57.38796953 49.12696202 -58.23828125 37.8359375 C-58.51979847 24.70834506 -55.1483802 15.67729622 -46.2578125 6.12890625 C-34.04202265 -5.65603624 -14.9548627 -8.1286915 0 0 Z " fill="#000000" transform="translate(130,58)"/>
<path d="M0 0 C25.41 0 50.82 0 77 0 C77 6.93 77 13.86 77 21 C51.59 21 26.18 21 0 21 C0 14.07 0 7.14 0 0 Z " fill="#000000" transform="translate(363,273)"/>
<path d="M0 0 C17.49 0 34.98 0 53 0 C53 6.6 53 13.2 53 20 C35.18 20 17.36 20 -1 20 C-0.67 13.4 -0.34 6.8 0 0 Z " fill="#000000" transform="translate(205,274)"/>
<path d="M0 0 C3.64784315 1.25794107 5.21494257 3.29994668 7.34765625 6.4296875 C8.25547852 7.74646484 8.25547852 7.74646484 9.18164062 9.08984375 C9.80232422 10.00894531 10.42300781 10.92804688 11.0625 11.875 C12.30298944 13.68516725 13.54386113 15.49507263 14.78515625 17.3046875 C15.33051025 18.10890137 15.87586426 18.91311523 16.43774414 19.74169922 C17.4806678 21.24928537 18.56953347 22.72607956 19.70092773 24.16845703 C21 26 21 26 21 28 C19.35 28.33 17.7 28.66 16 29 C15.28714844 27.96101563 14.57429688 26.92203125 13.83984375 25.8515625 C13.37876221 25.18012207 12.91768066 24.50868164 12.44262695 23.81689453 C11.43676025 22.35206546 10.43139145 20.88689437 9.42651367 19.42138672 C6.05599103 14.51277409 2.6357021 9.64417855 -0.85546875 4.8203125 C-2 3 -2 3 -2 1 C-1.34 0.67 -0.68 0.34 0 0 Z " fill="#000000" transform="translate(59,256)"/>
<path d="M0 0 C4.81035973 4.3730543 8.59926143 9.46277438 12 15 C12 15.66 12 16.32 12 17 C10.35 17.33 8.7 17.66 7 18 C-0.50378119 8.6585581 -0.50378119 8.6585581 -0.4375 3.375 C-0.293125 2.26125 -0.14875 1.1475 0 0 Z " fill="#000000" transform="translate(56,275)"/>
</svg>
