<?xml version="1.0" encoding="UTF-8"?>
<svg version="1.1" xmlns="http://www.w3.org/2000/svg" width="512" height="512">
<path d="M0 0 C2.74348436 1.255438 5.04001464 2.93097501 7.4375 4.75 C8.46339233 5.49165405 8.46339233 5.49165405 9.51000977 6.24829102 C10.95461855 7.29325373 12.39392608 8.34558024 13.828125 9.40478516 C16.63140761 11.46376094 19.47614435 13.46008515 22.32446289 15.45605469 C24.45912659 16.95266235 26.58778047 18.45745699 28.71484375 19.96484375 C32.97295119 22.98169008 37.23603509 25.99144051 41.5 29 C42.91668922 29.99996804 44.33335588 30.99996805 45.75 32 C46.45125 32.495 47.1525 32.99 47.875 33.5 C110.5625 77.75 110.5625 77.75 173.25 122 C174.3033252 122.74334595 174.3033252 122.74334595 175.37792969 123.50170898 C176.7852826 124.49537268 178.19218869 125.48966955 179.59863281 126.48461914 C183.27926506 129.08710795 186.96851711 131.67602484 190.671875 134.24609375 C191.43822266 134.78041016 192.20457031 135.31472656 192.99414062 135.86523438 C194.45351708 136.88237554 195.91558923 137.89566454 197.38085938 138.90429688 C198.37569336 139.59942383 198.37569336 139.59942383 199.390625 140.30859375 C199.96844727 140.70876709 200.54626953 141.10894043 201.14160156 141.52124023 C201.75487305 142.00923096 202.36814453 142.49722168 203 143 C204.32970825 144.03930664 204.32970825 144.03930664 205.6862793 145.09960938 C208.8867529 149.11159907 208.70803091 152.10486914 208.62890625 157.09765625 C208.63131821 157.96893661 208.63373016 158.84021698 208.63621521 159.73789978 C208.63523826 161.57441778 208.62188078 163.41096578 208.59692383 165.24731445 C208.56256518 168.05716918 208.57628353 170.86388607 208.59570312 173.67382812 C208.58880567 175.46095087 208.57913418 177.24806552 208.56640625 179.03515625 C208.57136612 179.87377701 208.57632599 180.71239777 208.58143616 181.57643127 C208.56559982 182.36082077 208.54976349 183.14521027 208.53344727 183.95336914 C208.5241494 184.98331749 208.5241494 184.98331749 208.5146637 186.03407288 C207.73826684 188.99977583 206.43574584 190.1786183 204 192 C200.984375 192.390625 200.984375 192.390625 197.75 192.25 C196.67234375 192.21390625 195.5946875 192.1778125 194.484375 192.140625 C193.66453125 192.09421875 192.8446875 192.0478125 192 192 C192.00888245 193.04347595 192.01776489 194.0869519 192.0269165 195.16204834 C192.10796883 204.99112581 192.16794928 214.82013557 192.20724869 224.64947128 C192.22813214 229.7029792 192.25646371 234.75621755 192.30175781 239.80957031 C192.34518839 244.68547468 192.3691314 249.5611196 192.37950897 254.43720245 C192.38690535 256.29838394 192.40134866 258.15955108 192.42292023 260.02062225 C192.45191744 262.62571504 192.45595759 265.22973298 192.45410156 267.83496094 C192.46848267 268.60604187 192.48286377 269.3771228 192.49768066 270.17156982 C192.47040029 273.70542797 192.2977964 275.61702342 190.09661865 278.44781494 C188 280 188 280 186 281 C187.49505474 302.59398448 189.06119475 324.18000408 190.82421875 345.75390625 C190.97856005 347.64976731 191.13286702 349.54563117 191.28713989 351.4414978 C191.9115109 359.10371557 192.53779634 366.76576257 193.17407227 374.42700195 C193.57250591 379.22769141 193.96412402 384.02889776 194.35154152 388.8304882 C194.49693783 390.61689624 194.64475709 392.40310919 194.79532433 394.18908882 C195.53215516 402.93756267 196.15413427 411.68503023 196.33911133 420.46459961 C196.3672652 421.16723466 196.39541906 421.86986971 196.42442608 422.59379673 C196.45233594 425.97915056 196.23036307 427.69890076 194.14726257 430.42164612 C187.59502311 435.23789576 177.01684207 432.50029319 169.48193359 431.42285156 C155.23319398 428.99526775 142.37952011 423.2914127 133 412 C130 406.9375 130 406.9375 130 404 C129.06800781 403.97421875 128.13601563 403.9484375 127.17578125 403.921875 C113.25405564 403.30250601 100.68562506 400.3529101 89.78515625 391.125 C87.29887992 388.16540629 86.87811898 385.52750101 87.18371296 381.69757652 C87.32952399 380.90529467 87.47533503 380.11301281 87.62556458 379.29672241 C87.78958267 378.3801889 87.95360077 377.4636554 88.12258911 376.51934814 C88.31005707 375.52602478 88.49752502 374.53270142 88.69067383 373.50927734 C88.88238663 372.45332367 89.07409943 371.39737 89.2716217 370.30941772 C89.90801106 366.81659365 90.5574697 363.32633384 91.20703125 359.8359375 C91.65288188 357.40335631 92.09791305 354.97062481 92.54216003 352.53775024 C93.7152868 346.12565748 94.89948472 339.71565745 96.08599854 333.30603027 C97.28593228 326.81330297 98.47558422 320.31869375 99.66601562 313.82421875 C101.59395164 303.31279042 103.52803079 292.80251594 105.4708252 282.29382324 C105.81295672 280.44219978 106.1537806 278.59033411 106.49314308 276.73820114 C106.84550478 274.83463196 107.20623775 272.93260105 107.57349205 271.03184891 C107.75711611 270.06708004 107.94074017 269.10231117 108.12992859 268.10830688 C108.29679515 267.24704508 108.46366171 266.38578327 108.63558483 265.49842262 C109.01258641 262.91370782 109.22549164 260.60543054 109 258 C107.1859058 255.98036803 105.49859712 254.34913135 103.4375 252.625 C102.3249157 251.64521797 101.21293304 250.66475233 100.1015625 249.68359375 C99.06853014 248.78811358 98.03476713 247.89347501 97 247 C81.98127082 233.90896211 71.33713664 211.62692171 69 192 C67.68 192 66.36 192 65 192 C65.66 190.35 66.32 188.7 67 187 C68.32 183.37 69.64 179.74 71 176 C110.93 176 150.86 176 192 176 C192 170.72 192 165.44 192 160 C189.70189362 160.0199855 189.70189362 160.0199855 187.35736084 160.04037476 C172.93684606 160.16187157 158.51651885 160.25224443 144.09562302 160.31087303 C136.68121543 160.34181744 129.26718978 160.38400814 121.85302734 160.45263672 C115.39115148 160.51242204 108.9295522 160.55114493 102.46740746 160.56453097 C99.04526296 160.57235661 95.62390972 160.59075784 92.20201874 160.63438034 C88.38256929 160.67777829 84.56477249 160.68394057 80.74511719 160.68115234 C79.60935745 160.702724 78.47359772 160.72429565 77.30342102 160.746521 C74.4098829 160.72358275 71.81810699 160.65552174 69 160 C65.43580275 156.22650543 64.5827983 153.48140617 64.625 148.375 C64.16745508 140.36796398 61.4637589 133.43425499 55.70703125 127.7265625 C52.54290059 125.19732265 49.8562062 123.28540207 46 122 C44.89453125 120.14453125 44.89453125 120.14453125 43.8125 117.8125 C40.1710981 110.95488983 34.48426467 106.99818183 27.19921875 104.5078125 C24.62242938 103.91281673 22.13844794 103.72990497 19.5 103.5625 C14.88213883 103.26105628 11.65049652 102.23926918 7.65625 99.9375 C2.06334602 96.77170529 -4.80274493 97.48916336 -11 98 C-14.24917683 98.97920398 -17.0736163 100.29750107 -20 102 C-22.90662564 103.45331282 -25.77003206 103.38469051 -29 103.6875 C-37.1314224 104.65837259 -43.59325709 106.84628683 -48.90625 113.32421875 C-50.82033869 116.12763638 -52.48304279 118.96608558 -54 122 C-55.37547409 122.74709961 -56.77585205 123.44873314 -58.1875 124.125 C-65.00996357 127.82366467 -69.00097762 133.50358759 -71.48828125 140.79296875 C-72.29242362 144.26121638 -72.46877969 147.73782287 -72.59375 151.2890625 C-73 154 -73 154 -76 160 C-116.92 160 -157.84 160 -200 160 C-200 165.28 -200 170.56 -200 176 C-160.07 176 -120.14 176 -79 176 C-74 188 -74 188 -73 192 C-74.32 192 -75.64 192 -77 192 C-77.12955078 192.83917969 -77.12955078 192.83917969 -77.26171875 193.6953125 C-81.61052908 218.5114595 -94.89642911 238.15665091 -113 255 C-114.08427025 255.67204987 -114.08427025 255.67204987 -115.19044495 256.35767651 C-117.24428007 257.85480992 -117.24428007 257.85480992 -117.23985291 260.30801105 C-117.11808182 261.19373389 -116.99631073 262.07945673 -116.87084961 262.99201965 C-116.74249725 263.97477686 -116.6141449 264.95753407 -116.48190308 265.97007179 C-116.32287506 266.9699481 -116.16384705 267.96982441 -116 269 C-115.85990509 269.89808569 -115.71981018 270.79617138 -115.57546997 271.72147179 C-115.10654577 274.53074924 -114.59272241 277.32860874 -114.06640625 280.12768555 C-113.8727951 281.17958069 -113.67918396 282.23147583 -113.47970581 283.31524658 C-112.84519637 286.75659756 -112.20380969 290.19662918 -111.5625 293.63671875 C-111.11742107 296.04554692 -110.67284918 298.45446882 -110.22875977 300.86347961 C-109.06284851 307.18219203 -107.89141144 313.49986602 -106.71838379 319.81726074 C-104.8398669 329.93763085 -102.96846581 340.05931478 -101.09957886 350.18146706 C-100.447607 353.70706422 -99.79246507 357.23206153 -99.13696289 360.75700378 C-98.73573927 362.92481659 -98.33461114 365.09264708 -97.93359375 367.26049805 C-97.7517453 368.23368484 -97.56989685 369.20687164 -97.38253784 370.20954895 C-94.65103757 385.02290519 -94.65103757 385.02290519 -95.9375 388.625 C-102.75465996 396.47506298 -112.80187024 401.18656584 -123 403 C-125.3125 403 -127.625 403 -129.9375 403 C-134.87226312 403.15447905 -134.87226312 403.15447905 -138.74609375 405.78515625 C-139.51732213 407.34095606 -140.23429273 408.92452932 -140.90234375 410.52734375 C-144.73457623 419.16009521 -153.66996902 423.79974111 -162.02001953 427.25683594 C-172.78430696 431.29709376 -188.55606936 435.40255485 -199.828125 432.1953125 C-202 431 -202 431 -204 428 C-205.32221536 413.48031144 -203.1756796 398.42758207 -201.98070908 383.96496367 C-201.6953206 380.49197172 -201.41803479 377.01833247 -201.13989258 373.54475403 C-200.61393625 366.99061333 -200.08141199 360.43702537 -199.54617405 353.88363677 C-198.75920846 344.24497594 -197.98126705 334.60558559 -197.20457458 324.96609211 C-197.1474936 324.2576908 -197.09041262 323.54928949 -197.03160191 322.81942147 C-196.91782414 321.40731949 -196.80406649 319.9952159 -196.69032955 318.58311063 C-196.35801995 314.46029037 -196.02341226 310.3376648 -195.68678284 306.21519506 C-195.42942718 303.06046226 -195.17391894 299.90557951 -194.91796875 296.75073242 C-194.82446136 295.61362823 -194.73095398 294.47652405 -194.63461304 293.30496216 C-194.5504715 292.26384781 -194.46632996 291.22273346 -194.37963867 290.15007019 C-194.30589523 289.24666995 -194.23215179 288.34326971 -194.15617371 287.41249371 C-194.01805004 285.27882804 -194 283.13813173 -194 281 C-194.928125 280.5978125 -194.928125 280.5978125 -195.875 280.1875 C-198 279 -198 279 -200 276 C-200.18420757 273.28123789 -200.25227988 270.66655035 -200.22705078 267.94848633 C-200.22734283 267.12874832 -200.22763489 266.30901031 -200.22793579 265.46443176 C-200.22654188 262.75352411 -200.21097781 260.04289092 -200.1953125 257.33203125 C-200.19158259 255.45301972 -200.18873551 253.57400624 -200.18673706 251.69499207 C-200.17909889 246.74820592 -200.15944879 241.80153713 -200.1373291 236.85479736 C-200.11687466 231.80751127 -200.1077362 226.76020622 -200.09765625 221.71289062 C-200.0762031 211.80854218 -200.0420649 201.90428085 -200 192 C-200.81984375 192.04640625 -201.6396875 192.0928125 -202.484375 192.140625 C-203.56203125 192.17671875 -204.6396875 192.2128125 -205.75 192.25 C-206.81734375 192.29640625 -207.8846875 192.3428125 -208.984375 192.390625 C-212 192 -212 192 -214.35728455 190.23728943 C-216.1098143 187.85043888 -216.50721384 186.85931232 -216.53344727 183.95336914 C-216.5492836 183.16897964 -216.56511993 182.38459015 -216.58143616 181.57643127 C-216.57647629 180.73781052 -216.57151642 179.89918976 -216.56640625 179.03515625 C-216.57260483 178.16483261 -216.57880341 177.29450897 -216.58518982 176.39781189 C-216.59228457 174.5595715 -216.58911994 172.72126682 -216.57641602 170.88305664 C-216.5625623 168.07512682 -216.5966082 165.27053835 -216.63476562 162.46289062 C-216.63571699 160.67447835 -216.63385708 158.88606192 -216.62890625 157.09765625 C-216.64216446 156.26105972 -216.65542267 155.4244632 -216.66908264 154.56251526 C-216.60167032 150.32653533 -216.43243441 148.54666324 -213.72729492 145.12695312 C-208.88511701 141.35065253 -208.88511701 141.35065253 -206.734375 139.87109375 C-205.93555908 139.31728027 -205.13674316 138.7634668 -204.3137207 138.19287109 C-203.46769287 137.61359863 -202.62166504 137.03432617 -201.75 136.4375 C-199.94638494 135.1891338 -198.14300326 133.94043036 -196.33984375 132.69140625 C-195.43991699 132.07023926 -194.53999023 131.44907227 -193.61279297 130.80908203 C-189.82859569 128.18892675 -186.06922853 125.53432183 -182.3125 122.875 C-180.92321693 121.89317278 -179.53389412 120.91140179 -178.14453125 119.9296875 C-177.46213379 119.44725586 -176.77973633 118.96482422 -176.07666016 118.46777344 C-172.55232484 115.97679014 -169.02605299 113.48855097 -165.5 111 C-164.08332432 110.00001278 -162.66665764 109.00001278 -161.25 108 C-106 69 -106 69 -50.75 30 C-50.04842773 29.5047583 -49.34685547 29.0095166 -48.62402344 28.49926758 C-47.21066613 27.50163226 -45.79725487 26.50407338 -44.38378906 25.5065918 C-40.06043818 22.45543026 -35.73889178 19.40174192 -31.41967773 16.34472656 C-29.98613023 15.33235522 -28.55077461 14.32253884 -27.11352539 13.31542969 C-23.81465133 11.00310243 -20.5418723 8.67047295 -17.32421875 6.24609375 C-16.74961914 5.82287842 -16.17501953 5.39966309 -15.58300781 4.96362305 C-14.05536334 3.83692859 -12.54076388 2.69260514 -11.02734375 1.546875 C-7.24345222 -0.38657151 -4.11909299 -0.85676343 0 0 Z M-85 98 C-87.07976712 100.16071467 -87.07976712 100.16071467 -88 103 C-87.23827309 106.53164296 -86.56128588 108.43871412 -84 111 C-78.88452432 112.96749065 -73.52700192 112.61080077 -68.5625 110.625 C-65.91143428 109.25274335 -65.91143428 109.25274335 -65 107 C-64.5999866 103.31987667 -64.48970103 101.6510711 -66.8125 98.6875 C-71.8791934 94.77890795 -79.55390051 94.7323403 -85 98 Z M58 99 C56.57958179 101.84083641 56.68547728 103.85477278 57 107 C59.23206431 109.84780619 60.54992999 110.84997666 64 112 C69.68797888 112.37298222 73.00450005 112.04603656 78 109 C79.43920901 107.77678378 79.43920901 107.77678378 79.3125 104.125 C79.30771435 100.71716002 79.30771435 100.71716002 77.1875 98.0625 C70.43383438 94.78214813 64.30220471 95.00347994 58 99 Z M-143 271 C-143.1522377 282.03231597 -142.67321515 293.01010961 -142.16015625 304.02734375 C-142.07266512 305.94819722 -141.98538376 307.86906026 -141.89830017 309.78993225 C-141.71603065 313.79648411 -141.53176535 317.80293736 -141.34594727 321.80932617 C-141.10960635 326.90686946 -140.87746641 332.00459312 -140.6467371 337.10239315 C-140.46711497 341.06362861 -140.28564707 345.02477785 -140.10360527 348.98590279 C-140.01743715 350.86387577 -139.93172744 352.74186986 -139.84651375 354.6198864 C-139.36987184 365.09300027 -138.81960422 375.54708158 -138 386 C-137.11795898 386.04793701 -136.23591797 386.09587402 -135.32714844 386.14526367 C-132.17138672 386.31677246 -132.17138672 386.31677246 -129.015625 386.48828125 C-125.24133684 386.33269174 -122.1965551 384.95036329 -118.74902344 383.46948242 C-117.13275055 382.77999763 -117.13275055 382.77999763 -115.48382568 382.07658386 C-114.66416321 381.72131119 -113.84450073 381.36603851 -113 381 C-115.58773008 366.70910752 -118.17800245 352.41867786 -120.77121639 338.12877941 C-121.97521973 331.49386531 -123.17839739 324.85880345 -124.37963867 318.22338867 C-125.5382536 311.82344645 -126.69915978 305.42392235 -127.86148262 299.02465248 C-128.30521587 296.57948975 -128.74817281 294.13418602 -129.19035149 291.68874168 C-129.80837723 288.27153206 -130.42912664 284.85482792 -131.05053711 281.43823242 C-131.32566635 279.91153931 -131.32566635 279.91153931 -131.60635376 278.35400391 C-131.77601151 277.42432297 -131.94566925 276.49464203 -132.12046814 275.53678894 C-132.26703322 274.72837649 -132.41359831 273.91996405 -132.56460476 273.08705425 C-132.99526812 270.82115786 -132.99526812 270.82115786 -134 268 C-137.30355546 268 -140.02108249 269.67603666 -143 271 Z M126 268 C121.35084837 290.43006781 117.31488859 312.97030872 113.23968506 335.5100708 C112.30923778 340.65349944 111.37617458 345.7964535 110.44335938 350.93945312 C108.62640733 360.95918372 106.81226275 370.97942027 105 381 C114.26374696 385.33172546 114.26374696 385.33172546 124.25 386.3125 C125.89742188 386.24482422 125.89742188 386.24482422 127.578125 386.17578125 C128.37734375 386.11777344 129.1765625 386.05976563 130 386 C131.3691358 363.27283737 132.47667384 340.53378003 133.52221298 317.78981781 C133.62450079 315.57331759 133.7279383 313.35687377 133.83169556 311.14044189 C133.99812423 307.58097754 134.16130995 304.02137774 134.32214928 300.46165657 C134.4108107 298.51288079 134.50220546 296.56422995 134.59370422 294.61558533 C134.94449569 286.73793258 135.06953183 278.88516686 135 271 C132.03 270.01 129.06 269.02 126 268 Z M152 277 C151.11706675 283.30904172 150.70429992 289.56425084 150.42749023 295.92651367 C150.37857635 296.99254318 150.32966248 298.05857269 150.27926636 299.15690613 C150.11930182 302.6604619 149.9638746 306.16420252 149.80859375 309.66796875 C149.69816674 312.11079498 149.58749104 314.55360998 149.47657776 316.99641418 C149.24522257 322.10616694 149.01594999 327.21600725 148.78833008 332.32592773 C148.49650143 338.87648226 148.20090964 345.42685985 147.90394497 351.97718334 C147.67562524 357.01711132 147.44856934 362.05709554 147.22197151 367.09710121 C147.11334506 369.51285108 147.0044939 371.92859085 146.89541435 374.3443203 C146.74347148 377.71671881 146.59305482 381.08918182 146.44311523 384.46166992 C146.39793259 385.45970642 146.35274994 386.45774292 146.30619812 387.48602295 C146.26557251 388.40689194 146.2249469 389.32776093 146.18309021 390.27653503 C146.14751731 391.07271335 146.11194441 391.86889166 146.07529354 392.68919659 C146.05044667 393.45176171 146.0255998 394.21432684 146 395 C145.95626283 395.86054646 145.91252565 396.72109293 145.86746311 397.60771656 C146.03737224 400.67456676 147.2849509 402.28495324 149.32421875 404.51953125 C156.16564896 410.56359197 165.30800095 413.7748667 174.28515625 414.578125 C175.17211182 414.6596582 176.05906738 414.74119141 176.97290039 414.82519531 C177.9763147 414.91172363 177.9763147 414.91172363 179 415 C176.57155504 382.63062009 174.12639077 350.26246524 171.57675171 317.90237427 C171.35915109 315.14031696 171.14275056 312.37816981 170.92739868 309.61593628 C170.62659355 305.75933409 170.32138682 301.90308755 170.015625 298.046875 C169.9272789 296.90918167 169.8389328 295.77148834 169.74790955 294.59931946 C169.35467812 289.68700037 168.94121368 284.84503952 168 280 C165.89679937 279.49595192 163.79240209 278.99689492 161.6875 278.5 C160.51574219 278.2215625 159.34398437 277.943125 158.13671875 277.65625 C155.04470156 276.89760916 155.04470156 276.89760916 152 277 Z M-169.6875 278.5 C-171.79166667 279 -173.89583333 279.5 -176 280 C-177.69560937 295.13348898 -178.96689043 310.28862545 -180.1640625 325.46875 C-180.36280853 327.96790965 -180.56173557 330.46705491 -180.76083374 332.96618652 C-181.17408651 338.15979441 -181.58573456 343.35352598 -181.99609375 348.54736328 C-182.47006788 354.54577233 -182.94640756 360.54398815 -183.42426455 366.54208899 C-183.88674951 372.34751193 -184.34785243 378.15304371 -184.80823898 383.95863342 C-185.00332822 386.41791523 -185.19870294 388.8771744 -185.39436722 391.33641052 C-185.66596547 394.753477 -185.93600113 398.17066325 -186.20556641 401.58789062 C-186.28658096 402.6038884 -186.36759552 403.61988617 -186.45106506 404.66667175 C-186.52390213 405.59413712 -186.5967392 406.52160248 -186.67178345 407.47717285 C-186.7355549 408.28303078 -186.79932636 409.0888887 -186.86503029 409.91916656 C-186.9746918 411.6098224 -187 413.30579139 -187 415 C-175.10038128 414.4734682 -164.70820912 411.41533213 -156 403 C-153.6036264 399.40543959 -153.82097581 398.08504087 -154.01660156 393.84008789 C-154.07042999 392.5594043 -154.12425842 391.2787207 -154.17971802 389.95922852 C-154.24981916 388.54702776 -154.32012764 387.13483728 -154.390625 385.72265625 C-154.45623634 384.25378448 -154.5209047 382.78487033 -154.58468628 381.31591797 C-154.75827629 377.37821152 -154.94482211 373.44121729 -155.13394928 369.5042305 C-155.32690158 365.44447539 -155.5083989 361.38420979 -155.69091797 357.32397461 C-155.98225182 350.87194345 -156.2802055 344.42025255 -156.58300781 337.96875 C-156.94532779 330.24031549 -157.28686253 322.51112291 -157.6171875 314.78125 C-157.74635405 311.79253637 -157.87592374 308.80384062 -158.0057373 305.81515503 C-158.08455707 303.99594729 -158.16277427 302.17671333 -158.24035645 300.35745239 C-158.34709698 297.87486375 -158.45806369 295.3925011 -158.5703125 292.91015625 C-158.5993869 292.21438477 -158.6284613 291.51861328 -158.65841675 290.80175781 C-158.87436599 286.15494823 -159.37834522 281.60595507 -160 277 C-163.44122867 277 -166.34012803 277.70458488 -169.6875 278.5 Z " fill="#000000" transform="translate(260,0)"/>
<path d="M0 0 C15.0984223 11.61596886 25.4116399 26.28617941 27.99609375 45.4453125 C30.45048795 72.50007159 18.43739107 89.76067706 3.24511719 110.57861328 C0.49189355 114.35707306 -2.24157049 118.14974106 -4.9765625 121.94140625 C-6.05070422 123.42844106 -7.12492326 124.91542002 -8.19921875 126.40234375 C-10.45903539 129.53111126 -12.71650908 132.66155427 -14.97265625 135.79296875 C-15.54886719 136.5921875 -16.12507813 137.39140625 -16.71875 138.21484375 C-17.80921152 139.72741941 -18.89910221 141.24040684 -19.98828125 142.75390625 C-21.47873855 144.82057127 -22.97592183 146.88212577 -24.4765625 148.94140625 C-25.01812988 149.68874023 -25.55969727 150.43607422 -26.11767578 151.20605469 C-26.64989746 151.93083008 -27.18211914 152.65560547 -27.73046875 153.40234375 C-28.20943604 154.0576709 -28.68840332 154.71299805 -29.18188477 155.38818359 C-31.404822 158.05503758 -32.73089256 157.96642232 -36.2890625 158.31640625 C-39.49382739 158.55195957 -40.35082436 158.04738848 -42.86328125 155.9296875 C-45.98624248 152.35858834 -48.74078115 148.625421 -51.4765625 144.75390625 C-52.63268933 143.13532868 -53.78894287 141.51684161 -54.9453125 139.8984375 C-55.82509766 138.662146 -55.82509766 138.662146 -56.72265625 137.40087891 C-59.45595338 133.56802321 -62.2169698 129.7553479 -64.9765625 125.94140625 C-66.05479405 124.44799359 -67.13291865 122.9545037 -68.2109375 121.4609375 C-70.42619952 118.39329277 -72.64540367 115.32854915 -74.8671875 112.265625 C-77.5899914 108.51114598 -80.30102827 104.74840035 -83.00585938 100.98095703 C-84.3662969 99.09432106 -85.74026342 97.21836381 -87.1171875 95.34375 C-99.77615727 77.8971747 -102.36694951 60.38537347 -100.08203125 39.30078125 C-96.74280768 23.53102863 -86.32109393 8.85584222 -72.9765625 0.00390625 C-50.41373046 -13.19261463 -22.21674534 -15.44497461 0 0 Z M-49.8515625 45.56640625 C-52.05564143 50.14410864 -52.2737264 53.94693036 -51.4765625 58.94140625 C-49.13186352 63.81116567 -46.2090177 66.38588044 -41.4765625 68.94140625 C-36.91137267 70.43005511 -33.69609401 69.82319515 -29.375 68.03515625 C-25.68869581 65.91135959 -23.37147228 62.73122581 -21.4765625 58.94140625 C-20.93620656 54.01619475 -20.93220781 50.07198907 -23.1015625 45.56640625 C-26.34429895 41.98232912 -28.94132146 39.34605384 -33.875 38.55859375 C-41.13308094 38.23165317 -44.94555938 40.14398175 -49.8515625 45.56640625 Z " fill="#000000" transform="translate(292.4765625,290.05859375)"/>
<path d="M0 0 C0.65175249 -0.00581376 1.30350497 -0.01162753 1.97500753 -0.01761746 C4.16842374 -0.03226594 6.36072934 -0.01831103 8.55413818 -0.00457001 C10.13866881 -0.00917704 11.72319517 -0.01552863 13.30771255 -0.02347898 C17.66927279 -0.04022269 22.03048426 -0.0319032 26.39204597 -0.01953411 C31.09287032 -0.01050648 35.7936335 -0.02444195 40.4944458 -0.0354538 C49.70624226 -0.05326811 58.91790858 -0.04938609 68.1297102 -0.03780323 C75.61433673 -0.02878062 83.09892672 -0.02753982 90.58355713 -0.0318985 C91.64759899 -0.03251143 92.71164086 -0.03312436 93.80792642 -0.03375587 C95.96930537 -0.03503473 98.13068431 -0.03633158 100.29206324 -0.03764623 C120.57353582 -0.04906057 140.85493615 -0.03592495 161.13639688 -0.01444477 C178.55009424 0.00342698 195.96368494 0.00032311 213.37738037 -0.01811981 C233.58479952 -0.03951147 253.79215531 -0.04796185 273.9995842 -0.03567076 C276.15314483 -0.03439652 278.30670547 -0.03313904 280.46026611 -0.0318985 C282.04977943 -0.03097285 282.04977943 -0.03097285 283.67140412 -0.03002849 C291.1496242 -0.02657047 298.62780419 -0.03241366 306.10601807 -0.04181671 C315.21578288 -0.05301915 324.32540978 -0.0500337 333.43515873 -0.02869374 C338.08577124 -0.01815962 342.73615356 -0.01410154 347.38676453 -0.02729034 C351.64048136 -0.03917141 355.89375369 -0.03272305 360.14742994 -0.01138014 C361.68976255 -0.00689579 363.23213238 -0.00922121 364.77444124 -0.01888329 C366.86477557 -0.03097846 368.95357047 -0.01864547 371.04382324 0 C372.20663692 0.00064941 373.36945061 0.00129882 374.56750107 0.00196791 C378.15783417 0.61128776 379.30872934 1.67019109 381.52191162 4.50336456 C382.89940216 7.99300727 382.63305991 9.22814022 381.20941162 12.75336456 C379.52191162 15.50336456 379.52191162 15.50336456 377.52191162 16.50336456 C375.44644871 16.6021527 373.36772909 16.63439176 371.2899189 16.63758564 C370.3157517 16.64111399 370.3157517 16.64111399 369.32190436 16.64471361 C367.12465111 16.65142175 364.92745675 16.65094485 362.73019409 16.65053558 C361.14739449 16.65383307 359.56459573 16.65755839 357.98179805 16.66167706 C353.61583359 16.67171809 349.24988288 16.67541722 344.88390851 16.67806637 C340.18170411 16.68196314 335.47951066 16.69154181 330.77731323 16.70027924 C319.41429498 16.72006008 308.05127581 16.73011131 296.68824464 16.73900703 C291.34216937 16.74338674 285.99609509 16.74875432 280.6500206 16.7539959 C262.88759886 16.77100879 245.12517774 16.78550458 227.3627491 16.79274464 C222.75125248 16.79465464 218.13975587 16.79657496 213.52825928 16.79853058 C211.80893554 16.79925619 211.80893554 16.79925619 210.05487798 16.79999646 C191.47287958 16.80830277 172.89094544 16.83364956 154.30897512 16.86611126 C135.24784201 16.89913966 116.1867416 16.91718952 97.12557971 16.92038888 C86.41665786 16.92255775 75.70782974 16.93136153 64.9989357 16.95685005 C55.88182287 16.97849938 46.76482652 16.98663597 37.64769091 16.97688327 C32.99302793 16.97232194 28.33860558 16.97433063 23.68397522 16.99364471 C19.42650125 17.0111589 15.16944554 17.0103752 10.91196786 16.99474742 C9.36822007 16.99235337 7.82444419 16.99678708 6.28073956 17.00857607 C4.18850682 17.02356991 2.09778029 17.01411228 0.00558662 16.99834919 C-1.1583112 16.999326 -2.32220903 17.00030281 -3.52137649 17.00130922 C-7.10477852 16.39782266 -8.27610298 15.33578004 -10.47808838 12.50336456 C-11.00933838 10.50336456 -11.00933838 10.50336456 -10.97808838 8.50336456 C-10.99355713 7.51336456 -10.99355713 7.51336456 -11.00933838 6.50336456 C-9.48571447 0.76736867 -5.31627701 0.00296904 0 0 Z " fill="#000000" transform="translate(70.47808837890625,463.4966354370117)"/>
<path d="M0 0 C1.68921727 0.98354859 3.31330046 2.07663806 4.9296875 3.17578125 C8.36153438 5.31701904 10.8049907 5.2848602 14.8046875 5.05078125 C18.76951623 4.99772393 20.75009241 5.09560487 24.4296875 6.73828125 C28.2692727 10.48187682 31.06366303 14.76312832 31.9296875 20.17578125 C32.9609375 20.40265625 33.9921875 20.62953125 35.0546875 20.86328125 C39.79761804 22.21977863 43.2955944 24.77333974 46.109375 28.91015625 C47.24744798 32.05340544 46.93167103 34.72588154 46.7421875 38.05078125 C46.52476881 42.76178198 46.52476881 42.76178198 47.96484375 47.109375 C49.28412282 48.46711701 50.60687916 49.82147747 51.9296875 51.17578125 C53.8714729 55.72093381 54.42152462 59.71740943 52.8046875 64.42578125 C51.75581205 66.9560581 50.69623549 68.42947725 48.8125 70.4765625 C46.37962437 73.96435723 46.6383713 75.92105908 46.9296875 80.11328125 C47.04256548 84.43425028 47.09458341 86.79322274 45.3671875 90.80078125 C41.55960609 94.51073237 37.29552492 97.31724726 31.9296875 98.17578125 C31.7028125 99.20703125 31.4759375 100.23828125 31.2421875 101.30078125 C29.88569012 106.04371179 27.33212901 109.54168815 23.1953125 112.35546875 C20.05206331 113.49354173 17.37958721 113.17776478 14.0546875 112.98828125 C8.14409579 112.7656558 8.14409579 112.7656558 3.2421875 115.61328125 C2.0975 116.88171875 2.0975 116.88171875 0.9296875 118.17578125 C-3.87781942 119.77828356 -9.34688395 120.26001413 -14.140625 118.3515625 C-15.82984227 117.36801391 -17.45392546 116.27492444 -19.0703125 115.17578125 C-22.50215938 113.03454346 -24.9456157 113.0667023 -28.9453125 113.30078125 C-32.69314705 113.33261965 -34.91656557 113.23557172 -38.4453125 111.86328125 C-41.07335512 109.17266618 -42.23696208 107.01654538 -43.8828125 103.67578125 C-46.48906255 98.49078775 -48.61618703 96.85825868 -54.015625 95.00390625 C-57.6874335 93.52401385 -59.36483645 90.58673336 -61.0703125 87.17578125 C-61.02136189 83.66468742 -60.87378332 80.16400943 -60.71484375 76.65625 C-61.13639074 72.52879543 -62.31096467 71.17995107 -65.0703125 68.17578125 C-67.78238512 63.70476057 -67.84968169 59.27224445 -67.0703125 54.17578125 C-65.99009808 51.86381153 -64.7679078 49.92264208 -63.26171875 47.8671875 C-60.80700605 44.38230029 -61.06752708 41.4518463 -61.2578125 37.36328125 C-61.28332948 32.07488712 -60.89895199 29.10259098 -57.0703125 25.17578125 C-54.22046567 23.19212916 -51.24323437 21.63167164 -48 20.37109375 C-45.39962754 18.76033672 -44.86544416 17.09747891 -43.6953125 14.30078125 C-41.45557252 9.67421389 -40.06005149 7.10164542 -35.0703125 5.17578125 C-31.49269557 5.1204792 -27.93898414 5.2427096 -24.36328125 5.36328125 C-19.60450043 5.09231864 -18.18855273 3.63112853 -15.0703125 0.17578125 C-10.26280558 -1.42672106 -4.79374105 -1.90845163 0 0 Z M-12.6328125 19.61328125 C-18.19109348 22.61193656 -22.87353248 22.70592403 -29.0703125 22.17578125 C-29.31523437 22.83964844 -29.56015625 23.50351563 -29.8125 24.1875 C-32.64354365 30.87462034 -35.37147341 33.6025501 -42.05859375 36.43359375 C-43.05439453 36.80097656 -43.05439453 36.80097656 -44.0703125 37.17578125 C-44.01230469 37.85382813 -43.95429688 38.531875 -43.89453125 39.23046875 C-43.56649875 45.99731062 -44.54400224 50.14738565 -48.171875 55.88671875 C-49.34856907 58.20095779 -49.34856907 58.20095779 -48.3203125 60.76953125 C-47.36240527 62.61350267 -46.40397383 64.45720177 -45.4453125 66.30078125 C-43.34264401 71.06612542 -43.8211943 76.07347145 -44.0703125 81.17578125 C-43.46703125 81.40652344 -42.86375 81.63726562 -42.2421875 81.875 C-37.31332528 83.88629378 -33.88813788 85.44183461 -31.0703125 90.17578125 C-29.8203125 93.48828125 -29.8203125 93.48828125 -29.0703125 96.17578125 C-28.39226562 96.11777344 -27.71421875 96.05976563 -27.015625 96 C-20.2673528 95.67286769 -16.04273012 96.66536592 -10.26171875 100.1796875 C-8.1545761 101.36113747 -8.1545761 101.36113747 -6.0078125 100.95703125 C-4.03721643 100.16243606 -2.32629603 99.2090845 -0.5078125 98.11328125 C4.51735567 95.481955 9.38896779 95.80911597 14.9296875 96.17578125 C15.16042969 95.5725 15.39117187 94.96921875 15.62890625 94.34765625 C17.64020003 89.41879403 19.19574086 85.99360663 23.9296875 83.17578125 C27.2421875 81.92578125 27.2421875 81.92578125 29.9296875 81.17578125 C29.88328125 80.47453125 29.836875 79.77328125 29.7890625 79.05078125 C29.52727361 72.16947328 30.56016116 68.07583541 33.9296875 62.17578125 C35.07060232 59.64905079 35.07060232 59.64905079 34.9296875 57.17578125 C33.10915396 54.0282951 33.10915396 54.0282951 30.9296875 51.17578125 C29.87991786 48.02647232 29.82837155 45.78763669 29.8671875 42.48828125 C29.87621094 41.49441406 29.88523437 40.50054687 29.89453125 39.4765625 C29.90613281 38.71730469 29.91773438 37.95804688 29.9296875 37.17578125 C29.26582031 36.93085938 28.60195313 36.6859375 27.91796875 36.43359375 C21.23084841 33.6025501 18.50291865 30.87462034 15.671875 24.1875 C15.42695313 23.52363281 15.18203125 22.85976562 14.9296875 22.17578125 C13.8778125 22.24539062 13.8778125 22.24539062 12.8046875 22.31640625 C6.90096645 22.54100433 2.7849187 22.22245405 -2.31640625 19.1484375 C-6.61215205 16.76616422 -8.45977281 17.07645811 -12.6328125 19.61328125 Z " fill="#000000" transform="translate(263.0703125,112.82421875)"/>
<path d="M0 0 C1.11132168 -0.00623996 2.22264336 -0.01247993 3.36764145 -0.01890898 C7.10500833 -0.03490991 10.84172943 -0.02220637 14.57910156 -0.00964355 C17.25298985 -0.01506152 19.9268331 -0.02203715 22.60070801 -0.03088379 C29.11741334 -0.0486858 35.63393457 -0.04482163 42.15064716 -0.03323323 C47.44610927 -0.02420575 52.74151972 -0.02297192 58.0369873 -0.02732849 C58.79018871 -0.02794142 59.54339012 -0.02855436 60.31941581 -0.02918586 C61.84945076 -0.03046474 63.3794857 -0.03176159 64.90952063 -0.03307623 C79.26227098 -0.04448694 93.6149192 -0.03136064 107.9676528 -0.00987476 C120.28740563 0.00799669 132.6070077 0.00489272 144.92675781 -0.0135498 C159.22756051 -0.03494787 173.52827365 -0.04338826 187.82909012 -0.03110075 C189.35354867 -0.02982653 190.87800724 -0.02856905 192.40246582 -0.02732849 C193.15256101 -0.02671139 193.90265621 -0.02609429 194.67548156 -0.02545848 C199.96560166 -0.02200238 205.25566505 -0.02783951 210.54577637 -0.0372467 C216.99124235 -0.04845628 223.43651345 -0.04544878 229.88195705 -0.02412373 C233.17164144 -0.01359898 236.46093288 -0.01166235 239.75062561 -0.02272034 C243.31389592 -0.03359637 246.87624223 -0.02000708 250.43945312 0 C251.48341122 -0.00892289 252.52736931 -0.01784577 253.60296249 -0.02703905 C260.58294909 0.04936139 260.58294909 0.04936139 263.8348999 2.39124298 C265.50557423 4.94484944 266.14669434 6.44058136 266.21972656 9.50793457 C263.94261813 15.14648879 263.94261813 15.14648879 261.21972656 16.50793457 C259.72790274 16.60459532 258.23182786 16.63890813 256.73687935 16.64215565 C255.313381 16.64884241 255.313381 16.64884241 253.86112511 16.65566427 C252.81134134 16.6554799 251.76155756 16.65529554 250.67996216 16.65510559 C249.57034933 16.65878228 248.4607365 16.66245897 247.31749904 16.66624707 C243.57412889 16.67731993 239.83078645 16.68113381 236.08740234 16.68493652 C233.41382683 16.69119835 230.74025433 16.69783174 228.06668091 16.70484924 C220.02590347 16.72462296 211.98512476 16.7346804 203.94432908 16.74357703 C200.16029198 16.7479579 196.37625629 16.75332518 192.59222031 16.7585659 C180.01799116 16.77557806 167.44376289 16.79007355 154.869524 16.79731464 C151.60556156 16.79922462 148.34159913 16.80114494 145.07763672 16.80310059 C144.26636975 16.80358433 143.45510277 16.80406807 142.61925195 16.80456647 C129.46912305 16.81287169 116.31908497 16.83821694 103.16899575 16.87068126 C89.67656322 16.90372 76.18417689 16.92176046 62.69170368 16.92495888 C55.11268093 16.9271268 47.53379068 16.93591653 39.95480728 16.96142006 C33.50200153 16.98308353 27.04936045 16.99119903 20.59652247 16.98145328 C17.30278164 16.97689596 14.0094533 16.98104097 10.71574402 16.99821472 C7.14802434 17.01578142 3.58117689 17.00890205 0.01345825 16.99568176 C-1.03186408 17.00665101 -2.07718641 17.01762025 -3.15418518 17.0289219 C-10.14522261 16.96605412 -10.14522261 16.96605412 -13.42167854 14.60245037 C-14.88532158 12.34598416 -15.32196814 11.17639575 -15.28027344 8.50793457 C-15.29574219 7.51793457 -15.29574219 7.51793457 -15.31152344 6.50793457 C-13.30023975 -1.06395696 -6.38612236 -0.05458327 0 0 Z " fill="#000000" transform="translate(130.7802734375,495.4920654296875)"/>
<path d="M0 0 C5.59137949 3.37887664 10.95614309 9.07457238 12.5625 15.5 C14.04442542 22.90962711 13.44011931 28.95338574 9.875 35.6875 C5.02071288 41.59136272 0.14418266 46.02924169 -7.70703125 46.8359375 C-16.22326573 46.92983204 -22.11345494 46.6177288 -28.40234375 40.62890625 C-34.7841668 33.72505269 -35.91792252 28.29832071 -35.7421875 18.9453125 C-35.04689797 11.08319245 -31.38995981 6.95041296 -25.53515625 1.9453125 C-18.47077988 -2.92213491 -7.84396301 -3.47595223 0 0 Z " fill="#000000" transform="translate(267.4375,149.5)"/>
</svg>
