<svg width="512" height="512" viewBox="0 0 512 512" fill="none" xmlns="http://www.w3.org/2000/svg">
    <g clip-path="url(#clip0_701_4540)">
        <path d="M457.808 400.947H55.1953V459H457.808V400.947Z" fill="#7F7F7F" />
        <path d="M464.148 394.321H48.5371V407.257H464.148V394.321Z" fill="black" />
        <path
            d="M360.164 426.818H152.518V323.333H360.164V426.818ZM165.515 413.883H347.167V336.269H165.515V413.883Z"
            fill="black" />
        <path d="M107.186 187.667H55.1953V433.129H107.186V187.667Z" fill="black" />
        <path
            d="M113.526 439.754H48.5371V181.356H113.526V439.754ZM61.5349 426.818H100.528V194.292H61.5349V426.818Z"
            fill="black" />
        <path d="M457.807 187.667H405.816V433.129H457.807V187.667Z" fill="black" />
        <path
            d="M464.147 439.754H399.158V181.356H464.147V439.754ZM412.156 426.818H451.149V194.292H412.156V426.818Z"
            fill="black" />
        <path d="M464.148 77.8711H48.5371V90.8068H464.148V77.8711Z" fill="black" />
        <path d="M464.148 116.678H48.5371V129.613H464.148V116.678Z" fill="black" />
        <path
            d="M407.401 125.828L382.356 99.9565L356.995 125.828L331.95 99.9565L306.906 125.828L281.544 99.9565L256.5 125.828L231.139 99.9565L206.094 125.828L181.05 99.9565L155.688 125.828L130.644 99.9565L105.599 125.828L80.238 99.9565L55.1935 125.828L46 116.678L80.238 81.3418L105.599 107.213L130.644 81.3418L155.688 107.213L181.05 81.3418L206.094 107.213L231.139 81.3418L256.5 107.213L281.544 81.3418L306.906 107.213L331.95 81.3418L356.995 107.213L382.356 81.3418L407.401 107.213L432.445 81.3418L467 116.678L457.489 125.828L432.445 99.9565L407.401 125.828Z"
            fill="black" />
        <path d="M68.1911 52H55.1934V90.807H68.1911V52Z" fill="black" />
        <path d="M198.17 52H185.172V90.807H198.17V52Z" fill="black" />
        <path d="M327.83 52H314.832V90.807H327.83V52Z" fill="black" />
        <path d="M457.806 52H444.809V90.807H457.806V52Z" fill="black" />
        <path d="M117.013 122.989H91.0176V148.861H117.013V122.989Z" fill="#D6D6D6" />
        <path
            d="M123.353 155.486H84.3594V116.679H123.353V155.486ZM97.3571 142.55H110.355V129.614H97.3571V142.55Z"
            fill="black" />
        <path d="M214.337 122.989H188.342V148.861H214.337V122.989Z" fill="#D6D6D6" />
        <path
            d="M220.677 155.486H181.684V116.679H220.677V155.486ZM194.681 142.55H207.679V129.614H194.681V142.55Z"
            fill="black" />
        <path d="M318.001 122.989H292.006V148.861H318.001V122.989Z" fill="#D6D6D6" />
        <path
            d="M324.659 155.486H285.666V116.679H324.659V155.486ZM298.664 142.55H311.662V129.614H298.664V142.55Z"
            fill="black" />
        <path d="M421.984 122.989H395.988V148.861H421.984V122.989Z" fill="#D6D6D6" />
        <path
            d="M428.323 155.486H389.33V116.679H428.323V155.486ZM402.645 142.55H415.643V129.614H402.645V142.55Z"
            fill="black" />
        <path d="M217.507 375.076H178.514V388.012H217.507V375.076Z" fill="black" />
        <path d="M204.509 375.076H191.512V452.69H204.509V375.076Z" fill="black" />
        <path d="M211.167 439.755H185.172V452.691H211.167V439.755Z" fill="black" />
        <path d="M275.839 375.076H236.846V388.012H275.839V375.076Z" fill="black" />
        <path d="M262.842 375.076H249.844V452.69H262.842V375.076Z" fill="black" />
        <path d="M269.499 439.755H243.504V452.691H269.499V439.755Z" fill="black" />
        <path d="M334.487 375.076H295.494V388.012H334.487V375.076Z" fill="black" />
        <path d="M321.49 375.076H308.492V452.69H321.49V375.076Z" fill="black" />
        <path d="M327.829 439.755H301.834V452.691H327.829V439.755Z" fill="black" />
        <path d="M327.829 349.205H152.518V362.141H327.829V349.205Z" fill="black" />
        <path d="M87.529 362.141H74.5312V407.258H87.529V362.141Z" fill="black" />
        <path d="M438.152 362.141H425.154V407.258H438.152V362.141Z" fill="black" />
        <path
            d="M346.804 224.016C352.487 226.645 355.773 229.902 359.25 235.079C359.944 239.414 359.944 239.414 359.937 244.236C359.937 245.985 359.938 247.735 359.939 249.538C359.912 251.355 359.884 253.173 359.855 255.045C359.865 256.857 359.875 258.669 359.885 260.536C359.785 275.735 359.785 275.735 355.102 283.482C348.07 288.755 340.034 288.749 331.592 287.631C324.559 284.365 321.825 280.984 319.145 273.801C318.538 267.801 318.567 261.849 318.627 255.823C318.611 254.215 318.595 252.607 318.578 250.95C318.613 240.855 319.442 234.269 325.974 226.263C332.58 222.757 339.479 222.934 346.804 224.016Z"
            fill="#060606" />
        <path
            d="M173.851 223.412C175.93 223.37 175.93 223.37 178.051 223.328C188.162 223.335 188.162 223.335 192.883 226.593C194.682 229.548 194.682 229.548 194.509 233.179C193.299 236.463 193.299 236.463 190.533 239.229C186.964 239.429 183.55 239.487 179.988 239.402C179.011 239.389 178.034 239.377 177.028 239.364C174.614 239.331 172.202 239.282 169.789 239.229C169.789 242.423 169.789 245.618 169.789 248.909C171.088 248.861 171.088 248.861 172.414 248.812C173.544 248.787 174.675 248.762 175.839 248.737C177.524 248.688 177.524 248.688 179.242 248.639C182.235 248.909 182.235 248.909 185.001 251.675C184.742 256.516 184.742 256.516 183.618 261.356C178.578 264.716 175.718 264.345 169.789 264.122C169.789 266.86 169.789 269.598 169.789 272.419C171.254 272.387 172.719 272.355 174.229 272.322C176.149 272.296 178.068 272.271 179.988 272.246C180.954 272.223 181.92 272.2 182.916 272.176C185.456 272.152 187.996 272.277 190.533 272.419C193.299 275.185 193.299 275.185 193.731 280.025C193.588 281.623 193.446 283.22 193.299 284.866C187.113 288.989 181.213 288.087 173.938 288.064C172.54 288.086 171.142 288.108 169.702 288.131C167.691 288.133 167.691 288.133 165.64 288.134C164.413 288.138 163.187 288.142 161.923 288.147C158.006 287.516 157.025 286.543 154.576 283.483C154.164 279.267 153.995 275.339 154.025 271.123C154.021 269.911 154.018 268.699 154.013 267.45C154.011 264.888 154.018 262.326 154.036 259.764C154.058 255.839 154.036 251.916 154.009 247.991C154.012 245.503 154.017 243.014 154.025 240.525C154.017 239.35 154.009 238.174 154 236.963C154.098 228.762 154.098 228.762 156.486 225.783C161.197 222.066 168.111 223.371 173.851 223.412Z"
            fill="#040404" />
        <path
            d="M218.796 223.843C224.059 225.505 224.548 225.845 227.093 230.325C227.806 231.894 228.519 233.463 229.254 235.079C230.11 233.881 230.11 233.881 230.983 232.659C235.861 226.386 235.861 226.386 238.935 224.016C244.049 224.22 246.344 224.511 249.998 228.164C249.998 236.799 246.09 242.995 241.814 250.34C239.883 255.632 240.784 257.684 243.083 262.738C244.833 266.263 246.695 269.706 248.583 273.158C250.143 276.916 250.373 279.453 249.998 283.482C248.529 286.075 248.529 286.075 245.849 287.631C241.095 287.89 241.095 287.89 236.169 286.248C233.673 282.795 232.1 279.172 230.637 275.184C229.883 276.532 229.883 276.532 229.114 277.907C223.428 287.353 223.428 287.353 217.931 288.754C214.042 287.631 214.042 287.631 211.362 285.383C209.369 280.928 210.153 278.519 211.276 273.801C213.314 269.831 215.603 266.1 217.942 262.3C219.906 257.832 219.761 256.244 218.191 251.674C216.146 247.416 213.91 243.294 211.659 239.141C209.868 235.022 209.4 232.587 209.893 228.164C212.323 223.876 213.832 224.023 218.796 223.843Z"
            fill="#070707" />
        <path
            d="M288.721 224.016C294.51 225.682 297.729 228.806 301.773 233.264C304.584 239.224 305.567 243.834 303.934 250.291C300.475 255.943 296.374 260.143 290.623 263.429C287.132 264.164 283.98 264.168 280.424 264.121C280.488 265.354 280.552 266.588 280.618 267.859C280.668 269.478 280.718 271.096 280.769 272.764C280.834 274.369 280.898 275.973 280.964 277.626C280.424 282.099 280.424 282.099 277.858 285.41C274.892 287.631 274.892 287.631 271.348 288.236C267.341 287.516 266.331 286.62 263.828 283.482C263.416 279.266 263.247 275.338 263.277 271.122C263.273 269.91 263.269 268.698 263.265 267.449C263.263 264.887 263.27 262.325 263.288 259.763C263.31 255.838 263.288 251.915 263.261 247.99C263.264 245.502 263.269 243.013 263.277 240.524C263.269 239.349 263.261 238.173 263.252 236.962C263.35 228.79 263.35 228.79 265.649 225.785C271.447 221.379 281.733 223.356 288.721 224.016Z"
            fill="#090909" />
    </g>
    <defs>
        <clipPath id="clip0_701_4540">
            <rect width="421" height="407" fill="white" transform="translate(46 52)" />
        </clipPath>
    </defs>
</svg>