<?xml version="1.0" encoding="UTF-8"?>
<svg version="1.1" xmlns="http://www.w3.org/2000/svg" width="512" height="512">
<path d="M0 0 C0.80932983 -0.0038269 1.61865967 -0.00765381 2.45251465 -0.01159668 C4.16724896 -0.01431652 5.8820247 -0.00695017 7.59667969 0.00976562 C10.18262134 0.03095397 12.76571355 0.01008516 15.3515625 -0.015625 C26.93631011 -0.03639509 37.68242684 0.83372639 47.28125 8.09375 C48.06628906 8.67253906 48.85132813 9.25132813 49.66015625 9.84765625 C51.46677476 11.32517537 53.11156531 12.8419089 54.71875 14.53125 C56.69147716 13.56234418 58.62670032 12.58607959 60.515625 11.4609375 C67.83285939 7.50963093 75.65756067 7.55291107 83.71875 8.53125 C86.6397369 9.59042844 89.07965146 10.78636281 91.703125 12.4375 C93.92249699 13.849211 93.92249699 13.849211 97.71875 13.53125 C99.35677546 12.40810232 99.35677546 12.40810232 100.84375 10.84375 C109.26709742 3.19766426 119.4341642 0.22699684 130.57421875 0.1953125 C131.39827713 0.1886557 132.22233551 0.1819989 133.07136536 0.17514038 C134.80170475 0.16507186 136.53208252 0.16032155 138.26245117 0.16064453 C140.90933339 0.15624487 143.55458107 0.11979415 146.20117188 0.08203125 C147.88801516 0.0761671 149.57486632 0.07219502 151.26171875 0.0703125 C152.44461739 0.04875595 152.44461739 0.04875595 153.65141296 0.02676392 C157.06751956 0.0552507 159.31641433 0.27253547 162.21850586 2.13867188 C164.22235343 5.33439298 164.20549307 7.51240283 164.1796875 11.2734375 C164.17582031 12.58699219 164.17195313 13.90054687 164.16796875 15.25390625 C164.15556152 15.93598145 164.1431543 16.61805664 164.13037109 17.32080078 C164.09398694 19.39275696 164.08935118 21.46291463 164.08984375 23.53515625 C164.03587756 29.65732068 163.9239919 34.76022543 161.71875 40.53125 C162.36424805 40.51030273 163.00974609 40.48935547 163.67480469 40.46777344 C166.60596068 40.38450795 169.53686777 40.33255794 172.46875 40.28125 C173.48453125 40.24773438 174.5003125 40.21421875 175.546875 40.1796875 C177.01640625 40.16035156 177.01640625 40.16035156 178.515625 40.140625 C179.41635742 40.11967773 180.31708984 40.09873047 181.24511719 40.07714844 C183.71875 40.53125 183.71875 40.53125 186.05249023 42.09985352 C188.40083549 45.52654515 187.94820885 47.72176255 187.58203125 51.82421875 C187.48478709 53.26969446 187.39266873 54.7155224 187.30517578 56.16162109 C187.25717834 56.90820984 187.20918091 57.65479858 187.159729 58.42401123 C186.21291413 69.43157241 186.21291413 69.43157241 188.94775391 79.78271484 C192.25593797 82.96393235 196.31937386 84.26716492 200.60986328 85.68066406 C204.33467159 87.18300629 207.22462652 89.72560319 210.28125 92.28125 C210.8395752 92.73097168 211.39790039 93.18069336 211.97314453 93.64404297 C215.59247442 96.56061148 219.15282925 99.54981851 222.71875 102.53125 C227.6734559 100.75167699 232.01927271 98.05757489 236.45898438 95.27734375 C240.37889747 92.93824807 243.16687737 91.75092898 247.71875 92.53125 C252.79006556 95.44241741 255.09148403 100.03767024 257.78125 105.03125 C258.43758423 106.23249512 258.43758423 106.23249512 259.10717773 107.45800781 C264.59479556 117.73401309 267.90090491 127.68006892 267.78125 139.40625 C267.77222656 140.55867187 267.76320313 141.71109375 267.75390625 142.8984375 C267.73650391 144.20167969 267.73650391 144.20167969 267.71875 145.53125 C268.42 145.3146875 269.12125 145.098125 269.84375 144.875 C275.62505195 143.17831356 280.69999089 141.70107633 286.71875 142.53125 C291.96779559 146.52020361 293.0621393 150.83724898 294.46875 156.96875 C294.67628906 157.80212891 294.88382812 158.63550781 295.09765625 159.49414062 C298.70919296 174.23154043 297.82361723 186.09091351 293.71875 200.53125 C294.97171875 200.48484375 296.2246875 200.4384375 297.515625 200.390625 C299.16664281 200.35310187 300.81768642 200.31670229 302.46875 200.28125 C303.29375 200.24773437 304.11875 200.21421875 304.96875 200.1796875 C305.76796875 200.16679687 306.5671875 200.15390625 307.390625 200.140625 C308.1237793 200.11967773 308.85693359 200.09873047 309.61230469 200.07714844 C312.73106984 200.74948307 313.84246957 201.97930072 315.71875 204.53125 C316.23632812 207.640625 316.23632812 207.640625 316.25 211.28125 C316.2538269 211.93520752 316.25765381 212.58916504 316.26159668 213.26293945 C316.26431403 214.64812762 316.25696484 216.03336724 316.24023438 217.41845703 C316.2190917 219.49764664 316.23989023 221.57327114 316.265625 223.65234375 C316.29014282 234.87982621 313.67309305 244.345686 308.46875 254.28125 C307.94796875 255.28671875 307.4271875 256.2921875 306.890625 257.328125 C306.50390625 258.05515625 306.1171875 258.7821875 305.71875 259.53125 C306.853125 259.61375 307.9875 259.69625 309.15625 259.78125 C314.04348395 260.39106529 318.49457481 261.98973381 322.71875 264.53125 C325.25768803 268.33965705 325.051418 269.98179026 324.71875 274.53125 C321.11098461 292.48825133 314.44299013 305.5579589 301.71875 318.53125 C302.63398438 319.08554687 303.54921875 319.63984375 304.4921875 320.2109375 C305.69279875 320.94255998 306.89331463 321.67433898 308.09375 322.40625 C308.69703125 322.77105469 309.3003125 323.13585937 309.921875 323.51171875 C312.42386595 325.04071322 314.63746354 326.44996354 316.71875 328.53125 C318.00481601 335.36732984 315.88201981 340.29876844 312.28125 345.96875 C311.82967529 346.70520752 311.37810059 347.44166504 310.9128418 348.20043945 C307.11792576 354.23397799 302.85703584 359.57613007 297.71875 364.53125 C297.12449219 365.11132812 296.53023438 365.69140625 295.91796875 366.2890625 C291.64620633 370.19747961 286.85390642 372.89962789 281.71875 375.53125 C282.50121094 376.24410156 283.28367187 376.95695312 284.08984375 377.69140625 C285.11276666 378.65802148 286.13485865 379.62551656 287.15625 380.59375 C287.67251953 381.05974609 288.18878906 381.52574219 288.72070312 382.00585938 C291.42327005 384.60244328 292.70178297 386.47292184 293.75390625 390.08984375 C293.67695019 397.62298734 287.35559617 402.28482031 282.33105469 407.28466797 C272.50864251 416.83325842 261.79073533 421.88065897 248.71875 425.53125 C249.2240625 426.40007812 249.729375 427.26890625 250.25 428.1640625 C250.906919 429.32774759 251.56313179 430.49183155 252.21875 431.65625 C252.8684375 432.79320312 253.518125 433.93015625 254.1875 435.1015625 C255.80047479 438.71429685 256.3508969 440.64354658 255.71875 444.53125 C252.74078458 449.82450171 247.64323599 452.28080048 242.46875 455.09375 C241.57921631 455.57755127 240.68968262 456.06135254 239.77319336 456.55981445 C227.80149977 462.84059119 216.32841881 465.37020219 202.71875 464.53125 C203.04359375 465.583125 203.04359375 465.583125 203.375 466.65625 C205.07168644 472.43755195 206.54892367 477.51249089 205.71875 483.53125 C201.72979639 488.78029559 197.41275102 489.8746393 191.28125 491.28125 C190.44787109 491.48878906 189.61449219 491.69632812 188.75585938 491.91015625 C174.01845957 495.52169296 162.15908649 494.63611723 147.71875 490.53125 C147.76515625 491.78421875 147.8115625 493.0371875 147.859375 494.328125 C147.89689813 495.97914281 147.93329771 497.63018642 147.96875 499.28125 C148.00226563 500.10625 148.03578125 500.93125 148.0703125 501.78125 C148.08964844 502.98007812 148.08964844 502.98007812 148.109375 504.203125 C148.13032227 504.9362793 148.15126953 505.66943359 148.17285156 506.42480469 C147.50051693 509.54356984 146.27069928 510.65496957 143.71875 512.53125 C140.609375 513.04882812 140.609375 513.04882812 136.96875 513.0625 C136.31479248 513.0663269 135.66083496 513.07015381 134.98706055 513.07409668 C133.60187238 513.07681403 132.21663276 513.06946484 130.83154297 513.05273438 C128.75235336 513.0315917 126.67672886 513.05239023 124.59765625 513.078125 C113.77834295 513.10134449 104.35553925 510.94227947 94.84375 505.59375 C94.00070312 505.13097656 93.15765625 504.66820312 92.2890625 504.19140625 C89.71875 502.53125 89.71875 502.53125 87.2109375 499.87890625 C82.58717084 495.94863089 76.46087037 496.88041759 70.71875 496.90625 C18.7228308 496.0312139 -30.85726228 477.59741383 -70.28125 443.53125 C-71.20292969 442.73976563 -72.12460938 441.94828125 -73.07421875 441.1328125 C-92.67527879 423.86892178 -108.22062868 403.85458128 -121.22265625 381.23828125 C-121.58415771 380.61236084 -121.94565918 379.98644043 -122.31811523 379.34155273 C-123.28125 377.53125 -123.28125 377.53125 -124.6015625 374.1171875 C-126.10196738 371.17929173 -126.10196738 371.17929173 -129.64453125 370.61328125 C-130.94777344 370.52433594 -132.25101563 370.43539063 -133.59375 370.34375 C-138.88926753 369.94856212 -142.70618326 369.32058721 -147.28125 366.53125 C-152.73929536 355.61515928 -146.99979735 334.34109181 -145.85810089 322.83072782 C-145.51612009 319.3650696 -145.18303315 315.89855692 -144.84912109 312.43211365 C-144.21703623 305.88257346 -143.57835993 299.3336967 -142.93665886 292.78509229 C-141.78657663 281.04816531 -140.64395333 269.31051732 -139.50964546 257.57205528 C-139.11215234 253.46184538 -138.7104955 249.35207066 -138.3053894 245.24260437 C-137.99494435 242.08462769 -137.68932677 238.92618252 -137.3828125 235.76782227 C-137.27060364 234.64195709 -137.15839478 233.51609192 -137.04278564 232.35610962 C-136.19294913 223.95419682 -136.19294913 223.95419682 -136.28125 215.53125 C-138.45715984 213.28415107 -140.17183881 211.84402478 -142.71875 210.15625 C-144.01664434 209.21508876 -145.30961296 208.26709869 -146.59765625 207.3125 C-147.23074707 206.84585938 -147.86383789 206.37921875 -148.51611328 205.8984375 C-161.37147317 195.94131228 -169.46042238 180.31299208 -172.28125 164.53125 C-173.62498418 146.3361625 -171.61685606 132.79259398 -159.625 118.56640625 C-151.63136765 109.95062799 -141.35207587 104.86816752 -129.66015625 104.21484375 C-117.71004292 103.81536527 -107.44072767 105.1027566 -96.78125 110.90625 C-93.5184112 112.90702083 -93.5184112 112.90702083 -90.9375 111.75390625 C-89.62265625 111.14869141 -89.62265625 111.14869141 -88.28125 110.53125 C-87.3325 110.23347656 -86.38375 109.93570313 -85.40625 109.62890625 C-78.20810344 107.2445202 -72.95524468 103.99012399 -67.37573242 98.97412109 C-63.16281759 95.20258323 -58.76613648 91.90208569 -54.09375 88.71875 C-53.4649292 88.28739746 -52.8361084 87.85604492 -52.18823242 87.41162109 C-51.56537354 86.99090332 -50.94251465 86.57018555 -50.30078125 86.13671875 C-49.67204102 85.70069336 -49.04330078 85.26466797 -48.39550781 84.81542969 C-46.28125 83.53125 -46.28125 83.53125 -43.58105469 82.45800781 C-40.49763302 81.106356 -38.54500536 80.0414119 -36.28125 77.53125 C-35.11821796 71.95017381 -35.51239303 66.56237333 -35.90625 60.90625 C-36.03194584 58.63409304 -36.14287387 56.36293617 -36.23129272 54.08901978 C-36.28943055 52.6787839 -36.37065585 51.26925875 -36.47793579 49.86190796 C-36.64513319 46.5721764 -36.49278481 44.83872985 -34.60400391 42.09326172 C-31.83058877 40.22818814 -30.39489271 40.06349087 -27.078125 40.140625 C-26.0984375 40.15351562 -25.11875 40.16640625 -24.109375 40.1796875 C-23.09359375 40.21320312 -22.0778125 40.24671875 -21.03125 40.28125 C-20 40.29929688 -18.96875 40.31734375 -17.90625 40.3359375 C-15.36363936 40.38302288 -12.82291838 40.4487695 -10.28125 40.53125 C-10.60432129 39.68578613 -10.92739258 38.84032227 -11.26025391 37.96923828 C-12.87728141 32.52424038 -12.65319759 27.1272558 -12.65185547 21.48095703 C-12.6562538 19.40445394 -12.69270307 17.33003773 -12.73046875 15.25390625 C-12.73433594 13.94035156 -12.73820313 12.62679688 -12.7421875 11.2734375 C-12.75040527 10.0757373 -12.75862305 8.87803711 -12.76708984 7.64404297 C-12.28125 4.53125 -12.28125 4.53125 -10.77001953 2.14306641 C-7.26950136 -0.12399471 -4.03833613 -0.04230498 0 0 Z M3.71875 16.53125 C3.59228298 28.39385669 5.17671594 38.09192947 13.28515625 47.3125 C14.6591072 48.74715289 14.6591072 48.74715289 16.71875 48.53125 C17.07066406 47.73460938 17.42257813 46.93796875 17.78515625 46.1171875 C22.20310433 36.63532503 25.79614584 31.82218616 35.65625 28.15625 C37.33873334 27.5991963 39.02468728 27.05202877 40.71875 26.53125 C40.71875 25.87125 40.71875 25.21125 40.71875 24.53125 C29.65459058 15.69912274 17.1119672 16.22876831 3.71875 16.53125 Z M110.71875 24.53125 C110.71875 25.19125 110.71875 25.85125 110.71875 26.53125 C111.770625 26.84255859 111.770625 26.84255859 112.84375 27.16015625 C120.88430074 29.77115031 127.11654428 32.82189234 131.3203125 40.4296875 C132.55048455 43.10307815 133.68295407 45.77742716 134.71875 48.53125 C139.91127993 46.41827245 142.01753208 42.23248473 144.71875 37.53125 C147.05467454 31.96952491 147.77948427 26.3094669 147.7421875 20.3046875 C147.73058594 18.43683594 147.73058594 18.43683594 147.71875 16.53125 C128.05422111 15.96394552 128.05422111 15.96394552 110.71875 24.53125 Z M65.71875 29.53125 C64.1332832 32.72633476 64.1332832 32.72633476 63.03125 36.21875 C60.90788481 42.4366826 60.90788481 42.4366826 58.71875 43.53125 C56.84375 43.6640625 56.84375 43.6640625 54.71875 43.65625 C53.666875 43.66011719 53.666875 43.66011719 52.59375 43.6640625 C50.71875 43.53125 50.71875 43.53125 48.71875 42.53125 C43.91903693 42.39923432 40.60057454 42.8370477 36.78125 45.84375 C33.6661685 49.90279559 32.69766039 51.20260464 32.78125 56.46875 C33.44787269 60.80581326 35.43564503 62.63899086 38.71875 65.53125 C41.20416326 68.67944013 41.71875 70.03542231 41.71875 74.09375 C40.51386477 78.23554299 39.11559159 79.0240574 35.71875 81.53125 C32.88937141 85.68100527 32.23103721 88.79074132 33.07421875 93.63671875 C34.36782452 97.43913572 37.20610435 99.46955739 40.3828125 101.69921875 C44.45290157 103.14893275 48.74381398 102.20040119 52.96289062 101.72070312 C58.22994592 101.23654484 58.22994592 101.23654484 60.59765625 102.6640625 C62.01381932 105.0226895 62.78729471 107.33884935 63.59375 109.96875 C64.7643578 113.2709123 65.65544488 115.45118765 67.84375 118.21875 C72.05027046 120.13911804 76.18554346 120.49455639 80.71875 119.53125 C85.31945286 116.72461739 86.71172817 113.87101908 88.40625 108.84375 C90.52961519 102.6258174 90.52961519 102.6258174 92.71875 101.53125 C96.91615513 101.38651189 100.6635027 101.49462381 104.78125 102.28125 C109.60408926 102.58746202 112.11299034 101.68034353 115.71875 98.53125 C118.17955287 95.14764605 118.96635969 92.57752335 118.71875 88.46875 C117.99416488 84.23395253 115.92686927 82.35745031 112.71875 79.53125 C110.23333674 76.38305987 109.71875 75.02707769 109.71875 70.96875 C110.92363523 66.82695701 112.32190841 66.0384426 115.71875 63.53125 C118.54812859 59.38149473 119.20646279 56.27175868 118.36328125 51.42578125 C117.03538226 47.52256301 114.07478453 45.44985404 110.78125 43.21875 C107.33058152 42.06852717 103.999422 41.890914 100.71875 43.53125 C93.36839388 43.99793928 93.36839388 43.99793928 91.08203125 42.35546875 C89.35697383 40.0471541 88.68737861 37.84487516 87.84375 35.09375 C86.6731422 31.7915877 85.78205512 29.61131235 83.59375 26.84375 C76.96494399 23.81755595 70.90099041 24.28025681 65.71875 29.53125 Z M-20.28125 56.53125 C-20.397847 67.46804839 -19.33493303 76.70286634 -12.28125 85.53125 C-3.57290782 94.07862467 4.82399201 95.9563367 16.71875 96.53125 C16.67234375 95.86480469 16.6259375 95.19835937 16.578125 94.51171875 C16.32013771 87.92382915 17.26988435 83.00965199 19.84375 76.94140625 C20.94625249 74.33194827 20.94625249 74.33194827 20.71875 70.53125 C19.69394531 70.01175781 18.66914063 69.49226563 17.61328125 68.95703125 C16.25234757 68.25310004 14.89168473 67.54864502 13.53125 66.84375 C12.85771484 66.50408203 12.18417969 66.16441406 11.49023438 65.81445312 C8.12612927 64.05855436 5.74713443 62.55996593 3.04296875 59.82421875 C-0.95391093 55.88107863 -4.97575693 56.41855368 -10.40820312 56.44335938 C-11.12943359 56.45173828 -11.85066406 56.46011719 -12.59375 56.46875 C-13.70459961 56.47551758 -13.70459961 56.47551758 -14.83789062 56.48242188 C-16.65237899 56.49412825 -18.46682534 56.51206102 -20.28125 56.53125 Z M145.53125 61.78125 C140.62828103 65.77223328 135.33506273 68.66535584 129.71875 71.53125 C130.16347656 72.64113281 130.16347656 72.64113281 130.6171875 73.7734375 C130.98070312 74.68351562 131.34421875 75.59359375 131.71875 76.53125 C131.99976563 77.21445313 132.28078125 77.89765625 132.5703125 78.6015625 C134.849261 84.65573882 135.0429855 90.1065836 134.71875 96.53125 C145.01540344 96.17741311 154.37956757 94.64994691 162.12109375 87.34765625 C170.26981862 78.08321355 171.84607516 68.47435007 171.71875 56.53125 C169.1767911 56.47690884 166.63601318 56.4374161 164.09375 56.40625 C163.38089844 56.38949219 162.66804688 56.37273438 161.93359375 56.35546875 C155.39646679 56.29549511 150.59589848 57.43172596 145.53125 61.78125 Z M-28.28125 92.53125 C-31.28864187 94.47841181 -34.28580426 96.44076984 -37.28125 98.40625 C-38.56902344 99.23962891 -38.56902344 99.23962891 -39.8828125 100.08984375 C-40.69492188 100.62480469 -41.50703125 101.15976563 -42.34375 101.7109375 C-43.09785156 102.20319824 -43.85195312 102.69545898 -44.62890625 103.20263672 C-45.17417969 103.6410791 -45.71945313 104.07952148 -46.28125 104.53125 C-46.28125 105.19125 -46.28125 105.85125 -46.28125 106.53125 C-45.37632812 106.92957031 -45.37632812 106.92957031 -44.453125 107.3359375 C-43.65390625 107.68914062 -42.8546875 108.04234375 -42.03125 108.40625 C-41.24234375 108.75429687 -40.4534375 109.10234375 -39.640625 109.4609375 C-37.28125 110.53125 -37.28125 110.53125 -35.234375 111.7265625 C-32.68951833 112.77504345 -31.83368557 112.54197722 -29.28125 111.53125 C-27.17136848 110.39158602 -25.08949479 109.19922243 -23.03125 107.96875 C-21.95359375 107.32808594 -20.8759375 106.68742187 -19.765625 106.02734375 C-18.94578125 105.53363281 -18.1259375 105.03992188 -17.28125 104.53125 C-18.17426656 103.46638145 -19.0708447 102.40449959 -19.96875 101.34375 C-20.46761719 100.75207031 -20.96648437 100.16039063 -21.48046875 99.55078125 C-23.65438444 97.11278904 -25.95619842 94.82461433 -28.28125 92.53125 Z M178.71875 92.53125 C177.56266119 93.75255408 176.44391104 95.00933386 175.34375 96.28125 C174.73789062 96.97734375 174.13203125 97.6734375 173.5078125 98.390625 C171.8368444 100.38994928 170.2605534 102.43137052 168.71875 104.53125 C169.65074219 105.06492187 170.58273437 105.59859375 171.54296875 106.1484375 C181.53562706 111.95704925 190.58578992 118.40297711 199.4609375 125.82421875 C201.51289353 127.73227895 201.51289353 127.73227895 203.71875 127.53125 C204.51150148 126.1151901 205.30290312 124.69837447 206.09375 123.28125 C206.53460938 122.49234375 206.97546875 121.7034375 207.4296875 120.890625 C208.57638423 118.7918225 209.65571321 116.67313081 210.71875 114.53125 C195.90122028 100.76875372 195.90122028 100.76875372 178.71875 92.53125 Z M-14.28125 121.53125 C-15.94324934 122.53898804 -17.60784591 123.54256575 -19.28125 124.53125 C-18.78158477 126.9319404 -18.09059802 128.96006068 -17.08984375 131.2109375 C-11.19775693 144.94235351 -10.78970379 162.5366645 -16.28125 176.53125 C-23.57814949 194.47205987 -36.51212281 207.92197487 -53.28125 217.53125 C-52.74219952 226.85186151 -51.07296404 235.93314044 -49.3975811 245.09971619 C-48.89244641 247.86671511 -48.39417004 250.63487278 -47.89772034 253.40344238 C-46.48659889 261.26732059 -45.06523355 269.12932002 -43.63500977 276.98974609 C-42.7568891 281.81854245 -41.88816155 286.64895449 -41.02504158 291.48045349 C-40.69652551 293.30855175 -40.36445795 295.13601581 -40.02862358 296.96278381 C-35.62267818 320.93767772 -35.62267818 320.93767772 -38.78125 327.78125 C-44.74686311 334.34342442 -50.51185503 339.87625719 -59.70605469 340.76586914 C-62.23823582 340.82467125 -64.74964851 340.79458138 -67.28125 340.71875 C-68.15136719 340.70521484 -69.02148438 340.69167969 -69.91796875 340.67773438 C-72.03933627 340.64276678 -74.16037974 340.5889753 -76.28125 340.53125 C-76.46300781 341.56185547 -76.46300781 341.56185547 -76.6484375 342.61328125 C-76.89980469 343.96486328 -76.89980469 343.96486328 -77.15625 345.34375 C-77.31867188 346.23707031 -77.48109375 347.13039063 -77.6484375 348.05078125 C-78.28125 350.53125 -78.28125 350.53125 -80.28125 353.53125 C-71.49095295 369.14805433 -61.65419985 382.56996103 -49.28125 395.53125 C-48.46914062 396.39621094 -47.65703125 397.26117188 -46.8203125 398.15234375 C-22.48169435 423.39676807 10.67419387 438.84624194 44.71875 445.53125 C45.7411377 445.75941406 45.7411377 445.75941406 46.78417969 445.9921875 C50.58278241 446.82196986 53.90302957 447.41663423 57.71875 446.53125 C60.88737491 443.58974681 62.67335401 440.29477863 64.71875 436.53125 C65.71179776 435.52434576 66.70983523 434.52225504 67.71875 433.53125 C67.71875 432.87125 67.71875 432.21125 67.71875 431.53125 C68.28980469 431.26957031 68.86085937 431.00789063 69.44921875 430.73828125 C71.87954574 429.44573213 73.8608015 427.90937568 76.03125 426.21875 C86.45893097 418.97982364 96.08181369 417.32395956 108.46875 417.21875 C116.87857045 417.12539775 121.87607169 416.41554928 128.33203125 410.59375 C133.2738158 406.3232717 139.76866964 404.24369614 146.05078125 402.7265625 C154.18506816 400.73797082 157.4563095 398.15226172 162.34375 391.4140625 C165.01252802 388.1746576 167.75240234 386.02881921 171.21875 383.71875 C171.77425537 383.34790283 172.32976074 382.97705566 172.90209961 382.5949707 C175.36788821 380.98248669 177.86713831 379.44445684 180.41015625 377.95703125 C185.48985596 374.9025166 187.63316135 372.55584521 189.72265625 367.01171875 C192.77238683 359.41729162 197.40877236 353.67679152 203.46875 348.28125 C209.0001242 342.99856156 210.09683241 338.68909491 211.125 331.25 C212.10366068 325.12049365 214.31884149 318.838413 217.99487305 313.77270508 C222.04440911 308.10592618 222.20971634 303.91976567 221.78125 297.09375 C221.49379207 288.90499041 222.08912269 281.7704271 224.38500977 273.89868164 C226.15137815 267.75940829 225.08147576 264.37196158 222.71875 258.65625 C220.50534655 252.38234235 220.51306739 246.57995543 220.46875 239.96875 C220.34761203 231.50860854 219.63219007 226.40624336 213.78125 219.91796875 C209.52533666 214.99303873 207.41391631 208.50952597 205.94921875 202.234375 C204.1233932 194.57130422 201.77950244 191.10917871 195.42895508 186.4074707 C189.0997121 181.59578241 185.6173165 175.34606703 181.71875 168.53125 C180.76742187 166.99984375 180.76742187 166.99984375 179.796875 165.4375 C175.23533644 157.82098607 175.23533644 157.82098607 175.65625 153.53125 C177.39622839 148.61836985 180.49890064 146.91947365 184.90625 144.34375 C185.80730469 143.81394531 186.70835937 143.28414062 187.63671875 142.73828125 C188.32378906 142.33996094 189.01085937 141.94164062 189.71875 141.53125 C188.18932781 137.44028021 185.29770437 135.30952389 181.90625 132.78125 C181.04 132.12709106 181.04 132.12709106 180.15625 131.4597168 C175.25761803 127.81828525 170.20233792 124.49907819 164.92578125 121.42578125 C161.71875 119.53125 161.71875 119.53125 158.85546875 117.48046875 C151.47475828 112.6023568 145.26472415 111.86637028 136.53125 111.78125 C135.52151123 111.76578125 134.51177246 111.7503125 133.47143555 111.734375 C126.98144552 111.87034664 122.57119857 113.23982882 116.92260742 116.39501953 C114.10781895 117.84622431 111.61090148 118.15917006 108.46875 118.34375 C104.23915557 118.88356022 104.23915557 118.88356022 100.8359375 121.25 C99.84791734 122.63633195 98.90239578 124.05403434 98.00390625 125.5 C94.71279264 130.70176011 89.49286693 133.66522884 83.71875 135.53125 C74.37234648 136.67454095 65.42703248 136.46506598 57.71875 130.53125 C54.21559632 127.16560329 51.40836006 123.56566509 48.71875 119.53125 C45.90339983 118.89868715 43.11886263 118.6459984 40.25 118.3515625 C36.96536808 117.5885396 34.94197227 116.62914075 32.03515625 115.015625 C26.39301671 112.08696981 21.45056618 111.6098069 15.15625 111.65625 C14.11428467 111.65778076 13.07231934 111.65931152 11.9987793 111.66088867 C1.58569292 112.01681643 -5.80774238 115.82178677 -14.28125 121.53125 Z M226.5078125 122.63671875 C223.71818926 125.77357358 221.48925939 128.71067711 219.71875 132.53125 C220.72292969 132.61761719 221.72710937 132.70398438 222.76171875 132.79296875 C232.90636285 133.79098643 241.51271656 135.92823328 250.71875 140.53125 C250.33463584 130.42904771 248.06508332 121.56993887 241.71875 113.53125 C236.35056165 113.53125 230.2310415 119.09109961 226.5078125 122.63671875 Z M-149.28125 132.53125 C-155.68358068 141.95955786 -156.35489601 151.38940865 -155.28125 162.53125 C-151.95127513 178.36893538 -141.30360734 190.55349404 -128.28515625 199.6171875 C-110.78901651 210.83555187 -110.78901651 210.83555187 -91.03125 215.53125 C-69.16190543 209.69942478 -48.43779834 197.64835424 -35.53125 178.71875 C-29.106326 167.61125428 -27.13110801 155.00153831 -29.9765625 142.46875 C-33.52203329 132.69635992 -40.08947937 127.05129562 -49.28125 122.53125 C-57.80322371 119.58339746 -68.57758722 120.87426599 -76.71875 124.2421875 C-80.278735 126.03303361 -83.6095366 128.10616984 -86.89453125 130.359375 C-90.01175925 131.88992885 -91.83378652 131.98576633 -95.28125 131.53125 C-97.73357608 130.32057237 -99.92779645 129.11298394 -102.21875 127.65625 C-117.52680167 118.06116999 -136.89129996 118.43424017 -149.28125 132.53125 Z M196.71875 156.53125 C195.52959439 158.376245 195.52959439 158.376245 195.71875 160.53125 C198.83045234 166.82849169 204.32606319 174.32912659 210.71875 177.53125 C213.44615198 177.5894704 215.53373959 177.11206606 218.140625 176.31640625 C220.7560038 175.51990453 223.13074627 175.29339607 225.84375 175.03125 C232.41779027 173.74323271 235.08903619 168.73539095 238.71875 163.53125 C239.86664041 162.14053662 241.03110046 160.76316735 242.21875 159.40625 C243.04375 158.4575 243.86875 157.50875 244.71875 156.53125 C229.43814173 146.61444708 211.95700682 145.87975945 196.71875 156.53125 Z M253.71875 171.53125 C253.05875 172.52125 252.39875 173.51125 251.71875 174.53125 C252.46898437 174.82257813 253.21921875 175.11390625 253.9921875 175.4140625 C262.98317007 179.01498499 271.35224077 183.146942 278.71875 189.53125 C282.05475271 179.52324188 280.29334263 171.58442124 277.71875 161.53125 C268.88848976 161.53125 260.44795657 165.98520063 253.71875 171.53125 Z M220.71875 192.53125 C222.09974992 200.81724951 224.97056029 210.98742539 231.71875 216.53125 C239.01999083 218.23635685 248.52178936 218.04892802 255.2734375 214.84375 C258.08230941 212.79873067 258.08230941 212.79873067 260.4296875 210.57421875 C263.00042896 208.27985393 265.59686085 206.95724259 268.71875 205.53125 C266.20719998 199.5663187 260.72327974 195.99623239 255.04296875 193.2265625 C243.02452291 188.34796374 233.15333802 188.88550692 220.71875 192.53125 Z M270.71875 222.53125 C271.70875 223.3046875 271.70875 223.3046875 272.71875 224.09375 C280.67397422 230.55736968 287.614906 237.2644823 293.71875 245.53125 C298.51210811 236.31683345 300.1161614 226.86394643 299.71875 216.53125 C289.38605357 216.1338386 279.93316655 217.73789189 270.71875 222.53125 Z M-119.28125 224.53125 C-120.84757588 240.90763379 -122.41228654 257.28417098 -123.97506714 273.66089344 C-124.70070795 281.26464394 -125.42688 288.86834301 -126.15429688 296.47192383 C-126.78820883 303.09812572 -127.42112996 309.72442137 -128.05285454 316.35083216 C-128.38747355 319.86041616 -128.72259323 323.36995074 -129.05889893 326.87937355 C-129.4340347 330.79419193 -129.80695862 334.70921926 -130.1796875 338.62426758 C-130.29189636 339.7916748 -130.40410522 340.95908203 -130.51971436 342.16186523 C-130.6206842 343.22617264 -130.72165405 344.29048004 -130.82568359 345.38703918 C-130.91417572 346.31344113 -131.00266785 347.23984308 -131.09384155 348.19431782 C-131.32121879 350.63891082 -131.32121879 350.63891082 -131.28125 353.53125 C-116.87326929 354.38016539 -105.94942632 351.01517209 -94.28125 342.53125 C-92.98712916 341.46017127 -92.98712916 341.46017127 -93.1451416 338.93443298 C-93.16213181 327.3617783 -93.74290958 315.83859197 -94.375 304.28515625 C-94.48744778 302.1766898 -94.59954286 300.06820451 -94.71130371 297.95970154 C-95.00371886 292.46057233 -95.30086493 286.96170903 -95.59906006 281.46289062 C-95.90358171 275.83153549 -96.20354129 270.19993747 -96.50390625 264.56835938 C-97.09193653 253.55574972 -97.68497436 242.54341607 -98.28125 231.53125 C-101.40430373 230.35932565 -104.52999739 229.19461124 -107.65625 228.03125 C-108.54570313 227.69738281 -109.43515625 227.36351562 -110.3515625 227.01953125 C-111.20234375 226.70371094 -112.053125 226.38789063 -112.9296875 226.0625 C-113.71520996 225.76923828 -114.50073242 225.47597656 -115.31005859 225.17382812 C-117.25262234 224.42793911 -117.25262234 224.42793911 -119.28125 224.53125 Z M-76.96875 228.53125 C-78.40625 229.19791667 -79.84375 229.86458333 -81.28125 230.53125 C-81.39305798 242.54960972 -81.09508645 254.47895571 -80.40625 266.4765625 C-80.31613891 268.10991082 -80.22646697 269.74328341 -80.13720703 271.37667847 C-79.90481314 275.60830298 -79.66658869 279.83957824 -79.42700195 284.07080078 C-79.18207477 288.41548894 -78.94286536 292.76049185 -78.703125 297.10546875 C-78.23465286 305.5810411 -77.75999931 314.05625197 -77.28125 322.53125 C-70.16373373 324.99680289 -63.67746701 326.11224757 -56.65625 322.84375 C-53.87699941 320.13763758 -53.6419381 319.32104991 -53.28125 315.53125 C-53.60888984 312.7165054 -54.01543697 310.00455138 -54.52880859 307.22436523 C-54.67335983 306.40100677 -54.81791107 305.57764832 -54.96684265 304.7293396 C-55.44573627 302.01454512 -55.93757764 299.30227096 -56.4296875 296.58984375 C-56.76578122 294.70098587 -57.10110768 292.81199133 -57.43569946 290.92286682 C-58.31821424 285.95319637 -59.21191938 280.98559951 -60.10772705 276.01831055 C-60.83720976 271.96268864 -61.55884123 267.90568891 -62.28003502 263.84858608 C-63.13990514 259.01188941 -64.0029508 254.17576193 -64.8671875 249.33984375 C-65.03213085 248.41688444 -65.1970742 247.49392513 -65.36701584 246.54299736 C-65.8346374 243.93127406 -66.3043567 241.31993811 -66.77490234 238.70874023 C-66.91313919 237.93616379 -67.05137604 237.16358734 -67.19380188 236.36759949 C-67.79245446 233.05738365 -68.44147142 229.78819874 -69.28125 226.53125 C-72.51780184 226.53125 -74.06877639 227.1863347 -76.96875 228.53125 Z M235.71875 232.53125 C235.35513402 246.51927988 235.35513402 246.51927988 240.71875 258.53125 C250.68851656 263.69624302 259.43147713 263.99008006 269.93359375 260.66601562 C270.64644531 260.43591797 271.35929687 260.20582031 272.09375 259.96875 C272.82980469 259.73478516 273.56585938 259.50082031 274.32421875 259.25976562 C276.12356238 258.6872472 277.92132277 258.10975686 279.71875 257.53125 C275.87770098 247.205081 268.12511187 239.83987007 258.21875 235.15625 C251.07810595 232.50401078 243.24899115 232.70596557 235.71875 232.53125 Z M277.71875 274.53125 C279.04062863 277.38174658 280.54505051 279.66733743 282.53125 282.09375 C286.18101785 286.85004894 288.3706973 292.05246036 290.71875 297.53125 C291.37461355 298.8699304 292.03725582 300.20543406 292.71875 301.53125 C300.05014511 296.41632318 303.27255131 289.57675755 305.03125 280.90625 C305.27539338 279.45034908 305.51041496 277.99270475 305.71875 276.53125 C296.32554078 273.42483435 287.45366235 272.33646976 277.71875 274.53125 Z M240.71875 276.53125 C238.19702799 284.29154928 236.00152824 292.49807757 238.3046875 300.58984375 C240.46229029 303.55207741 243.4864956 304.970415 246.65625 306.65625 C253.63778409 310.47727273 253.63778409 310.47727273 256.71875 312.53125 C258.70198717 312.21008196 258.70198717 312.21008196 260.71875 311.53125 C263.47192974 311.30734683 266.21180329 311.11731338 268.96875 310.96875 C269.71382813 310.92556641 270.45890625 310.88238281 271.2265625 310.83789062 C273.057099 310.73228275 274.88790176 310.63130799 276.71875 310.53125 C275.56916732 300.53966435 271.21107613 292.29616583 263.71875 285.53125 C256.89160285 280.53826178 249.29811518 276.53125 240.71875 276.53125 Z M233.71875 319.53125 C226.90829442 330.4751419 226.90829442 330.4751419 225.71875 342.53125 C227.68641345 345.10038263 229.78707016 347.16941067 232.2265625 349.29296875 C234.71875 351.53125 234.71875 351.53125 236.98828125 354.6875 C240.5714654 358.41934272 243.29679044 358.75759467 248.28125 359.34375 C249.78265545 359.55787016 251.28396117 359.77269112 252.78515625 359.98828125 C254.08324219 360.16746094 255.38132812 360.34664063 256.71875 360.53125 C258.05585024 360.84913653 259.39046547 361.17833487 260.71875 361.53125 C261.6830738 349.66470987 258.32478215 339.34414905 251.00390625 329.984375 C246.14730355 324.77079125 240.88595295 320.57514102 233.71875 319.53125 Z M269.71875 327.53125 C270.04488281 328.27246094 270.37101562 329.01367188 270.70703125 329.77734375 C274.49574348 338.90825199 276.28393316 347.79082676 277.71875 357.53125 C286.42142518 352.88072514 292.36148037 346.42734216 296.71875 337.53125 C296.71875 336.87125 296.71875 336.21125 296.71875 335.53125 C294.47118216 334.38042315 292.22093252 333.23548142 289.96875 332.09375 C289.33453125 331.76826172 288.7003125 331.44277344 288.046875 331.10742188 C283.07995695 328.59809348 279.49428194 327.38749218 273.96875 327.46875 C272.76992188 327.48228516 272.76992188 327.48228516 271.546875 327.49609375 C270.64195312 327.51349609 270.64195312 327.51349609 269.71875 327.53125 Z M216.71875 358.53125 C208.10483758 366.37793046 208.10483758 366.37793046 202.71875 376.53125 C203.18242046 383.79959781 208.16956601 392.01723044 212.71875 397.53125 C215.7844374 399.56599828 218.40618651 400.67929691 221.921875 401.70703125 C224.88714531 402.58087487 227.09919708 403.91887001 229.71875 405.53125 C230.37875 405.53125 231.03875 405.53125 231.71875 405.53125 C234.94137366 395.47666419 235.19787302 384.8787612 231.05078125 375.03125 C227.47751047 368.32481803 222.74990381 363.09139069 216.71875 358.53125 Z M-101.34375 365.03125 C-103.00083984 365.72734375 -103.00083984 365.72734375 -104.69140625 366.4375 C-105.54605469 366.7984375 -106.40070313 367.159375 -107.28125 367.53125 C-106.70859344 372.06976688 -104.81987326 375.5059763 -102.46875 379.34375 C-102.07494141 379.99174561 -101.68113281 380.63974121 -101.27539062 381.30737305 C-94.60999525 392.04849802 -86.9006489 402.12760181 -78.28515625 411.375 C-76.42342233 413.37826924 -74.6639384 415.43698297 -72.90625 417.53125 C-42.56663498 452.08662018 6.52092875 474.2266956 51.71875 478.53125 C51.71875 473.58125 51.71875 468.63125 51.71875 463.53125 C50.01332031 463.17933594 48.30789062 462.82742188 46.55078125 462.46484375 C16.87427448 456.20559504 -11.7212018 446.94949658 -36.28125 428.53125 C-36.86374512 428.09989746 -37.44624023 427.66854492 -38.04638672 427.22412109 C-60.8246488 410.23809881 -79.31637713 389.49677382 -93.07421875 364.55859375 C-93.47253906 363.88957031 -93.87085937 363.22054688 -94.28125 362.53125 C-96.61646425 362.53125 -99.25266001 364.15079106 -101.34375 365.03125 Z M248.71875 375.53125 C248.88117188 376.49933594 249.04359375 377.46742188 249.2109375 378.46484375 C249.83501684 382.84773309 249.86587015 387.17340644 249.84375 391.59375 C249.84761719 392.37041016 249.85148437 393.14707031 249.85546875 393.94726562 C249.8481762 398.2535159 249.57361782 402.29083423 248.71875 406.53125 C258.72892831 406.00439851 266.33122808 398.56109256 272.71875 391.53125 C266.18577036 383.15563507 258.9960785 378.30102648 248.71875 375.53125 Z M172.99609375 403.72265625 C170.46916068 407.30054619 170.67901551 410.16489067 171.14453125 414.45703125 C172.9998279 424.57501025 172.9998279 424.57501025 179.53125 432.21875 C181.24647775 433.34444762 182.97522831 434.44989275 184.71875 435.53125 C186.11593521 436.67125421 187.49400901 437.83545095 188.84375 439.03125 C189.7925 439.85625 190.74125 440.68125 191.71875 441.53125 C192.70038422 439.59499902 193.67897454 437.65720461 194.65625 435.71875 C195.20152344 434.63980469 195.74679687 433.56085938 196.30859375 432.44921875 C200.00284375 424.80488426 199.9694956 414.67032388 197.96484375 406.43359375 C197.01579124 404.02560562 195.96935777 401.79586407 194.71875 399.53125 C194.3371875 398.8196875 193.955625 398.108125 193.5625 397.375 C192.65324137 395.73833446 191.69223529 394.13054726 190.71875 392.53125 C184.2535771 392.53125 177.3726136 399.42851795 172.99609375 403.72265625 Z M215.71875 416.53125 C215.63238281 417.53542969 215.54601562 418.53960937 215.45703125 419.57421875 C214.45901357 429.71886285 212.32176672 438.32521656 207.71875 447.53125 C218.03804764 447.13888127 226.37497171 444.67929716 234.71875 438.53125 C232.4668649 428.77308125 224.75897547 421.89715155 216.71875 416.53125 C216.38875 416.53125 216.05875 416.53125 215.71875 416.53125 Z M133.71875 426.53125 C130.07240296 430.17759704 131.11643282 435.78770981 131.06518555 440.71533203 C131.22970645 447.75380122 132.83067864 451.96464404 137.67578125 457.2421875 C139.97014607 459.81292896 141.29275741 462.40936085 142.71875 465.53125 C148.6836813 463.01969998 152.25376761 457.53577974 155.0234375 451.85546875 C159.90203626 439.83702291 159.36449308 429.96583802 155.71875 417.53125 C148.13791273 417.53125 139.6365451 421.89297817 133.71875 426.53125 Z M78.76171875 445.2890625 C71.51345124 453.24414003 68.65978751 461.80837681 68.09375 472.46875 C68.05507812 473.15259766 68.01640625 473.83644531 67.9765625 474.54101562 C67.88352588 476.20404513 67.80011213 477.86760847 67.71875 479.53125 C78.43298836 481.59168045 88.55946284 479.441923 97.71875 473.53125 C106.57241017 467.08831092 112.19025091 459.22961058 114.71875 448.53125 C115.05831265 445.7217773 115.21962918 442.92008461 115.34375 440.09375 C115.38242187 439.36220703 115.42109375 438.63066406 115.4609375 437.87695312 C115.55408984 436.09541468 115.63745286 434.31336878 115.71875 432.53125 C101.20183879 432.3595446 89.58075524 435.14023181 78.76171875 445.2890625 Z M173.71875 448.53125 C173.42742187 449.28148437 173.13609375 450.03171875 172.8359375 450.8046875 C169.23501501 459.79567007 165.103058 468.16474077 158.71875 475.53125 C168.66857368 478.91842402 176.73211188 477.37009129 186.71875 474.53125 C185.82978723 464.30817815 181.64952274 456.06232589 174.71875 448.53125 C174.38875 448.53125 174.05875 448.53125 173.71875 448.53125 Z M124.71875 467.53125 C124.34363281 468.12292969 123.96851563 468.71460938 123.58203125 469.32421875 C118.00611888 477.93387689 111.0251206 484.55066317 102.71875 490.53125 C112.06646323 495.39394931 121.29392831 496.66590862 131.71875 496.53125 C131.73117304 480.86889388 131.73117304 480.86889388 124.71875 467.53125 Z " fill="#000000" transform="translate(180.28125,-0.53125)"/>
<path d="M0 0 C5.82485779 3.51996782 10.54466582 8.98962934 12.5625 15.5 C13.36764105 23.33608208 13.68710392 31.11922577 8.5625 37.5 C3.75801361 42.54521222 -0.59927055 46.10562995 -7.70703125 46.8359375 C-16.22326573 46.92983204 -22.11345494 46.6177288 -28.40234375 40.62890625 C-34.7841668 33.72505269 -35.91792252 28.29832071 -35.7421875 18.9453125 C-35.04689797 11.08319245 -31.38995981 6.95041296 -25.53515625 1.9453125 C-18.47077988 -2.92213491 -7.84396301 -3.47595223 0 0 Z M-16.8125 17.125 C-18.92456506 20.21186432 -19.04945145 21.8282913 -18.4375 25.5 C-16.9375 28 -16.9375 28 -14.4375 29.5 C-10.7657913 30.11195145 -9.14936432 29.98706506 -6.0625 27.875 C-3.95043494 24.78813568 -3.82554855 23.1717087 -4.4375 19.5 C-5.9375 17 -5.9375 17 -8.4375 15.5 C-12.1092087 14.88804855 -13.72563568 15.01293494 -16.8125 17.125 Z " fill="#000000" transform="translate(267.4375,49.5)"/>
</svg>
