<?xml version="1.0" encoding="UTF-8"?>
<svg version="1.1" xmlns="http://www.w3.org/2000/svg" width="512" height="512">
<path d="M0 0 C7.41706536 5.20535009 14.30393315 11.1803647 21.2578125 16.98046875 C21.91988708 17.51199051 22.58196167 18.04351227 23.26409912 18.59114075 C25.46875 20.4453125 25.46875 20.4453125 27.22415161 22.28938293 C33.87245348 28.69116032 41.0380508 28.37579333 49.71277618 28.21779251 C52.27807948 28.17107916 54.84050059 28.167044 57.40618896 28.17318726 C61.92231578 28.17709726 66.43725443 28.14380649 70.953125 28.0980835 C78.19370832 28.02537725 85.43366593 27.98448399 92.67461395 27.99131393 C95.19738029 27.98447528 97.71836154 27.9462473 100.24078369 27.90591431 C101.788449 27.9015966 103.33611854 27.89854787 104.88378906 27.89697266 C105.58103088 27.8773497 106.27827271 27.85772675 106.99664307 27.83750916 C110.69757213 27.86694576 112.40521304 28.39874901 115.41845703 30.60702515 C117.81853519 33.92953154 118.03306427 35.36062664 117.85839844 39.40625 C117.82317078 40.58517822 117.78794312 41.76410645 117.75164795 42.97875977 C117.69438538 44.24647217 117.6371228 45.51418457 117.578125 46.8203125 C117.53960965 48.83197736 117.50120146 50.84365036 117.46879959 52.85542297 C117.38505519 57.79878345 117.25752636 62.73816424 117.03369141 67.67724609 C115.77271378 82.91682725 115.77271378 82.91682725 120.06054688 96.94985962 C123.93893259 101.05909878 128.4477993 103.81138603 133.44641113 106.37554932 C136.00773996 107.73042377 138.16075325 109.40901271 140.375 111.26953125 C140.99246094 111.76001953 141.60992187 112.25050781 142.24609375 112.75585938 C143.09880859 113.43745117 143.09880859 113.43745117 143.96875 114.1328125 C144.59910156 114.62974609 145.22945313 115.12667969 145.87890625 115.63867188 C150.34920401 119.20622052 150.34920401 119.20622052 151.46875 121.4453125 C151.57505318 123.92760312 151.62095724 126.38237654 151.62265015 128.86531067 C151.6270324 129.63936664 151.63141465 130.41342261 151.6359297 131.21093482 C151.64934224 133.81876689 151.65550203 136.42656515 151.66162109 139.03442383 C151.66952007 140.89850519 151.67778889 142.76258501 151.68640137 144.62666321 C151.71264299 150.76020848 151.72793013 156.89376067 151.7421875 163.02734375 C151.74754611 165.13654777 151.75292361 167.24575175 151.75831985 169.35495567 C151.77995081 178.12639302 151.79868888 186.8978285 151.80994225 195.66928577 C151.82619018 208.25217219 151.85938606 220.83475021 151.91634309 233.41752034 C151.95500165 242.25833007 151.97457004 251.09905716 151.97986281 259.93994921 C151.98352158 265.22362862 151.9955988 270.50697927 152.02796555 275.7905674 C152.05797462 280.7605597 152.06438362 285.7300231 152.05258179 290.70008659 C152.05236046 292.52503553 152.06071442 294.35000851 152.07823563 296.17487335 C152.10084758 298.66534413 152.09267088 301.15388404 152.07675171 303.6443634 C152.0906338 304.36771513 152.10451588 305.09106686 152.11881864 305.83633834 C152.06463703 309.27302012 151.48517007 311.41706565 149.75439739 314.39445114 C144.51361737 317.66568264 139.34640803 317.12276527 133.29039001 317.06004333 C131.91948453 317.06365636 130.54858336 317.06945996 129.17769533 317.07726532 C125.41114783 317.09233315 121.64527958 317.07618922 117.87878549 317.0549587 C113.81671008 317.0374905 109.75470294 317.04884393 105.69261169 317.05662537 C97.73553491 317.06730473 89.77872246 317.05133801 81.82168596 317.0264871 C72.55945851 316.99858043 63.29728485 316.99721419 54.03502233 316.99704409 C37.51181694 316.99585634 20.98873312 316.97087174 4.46557617 316.93237305 C-11.57577981 316.89502102 -27.61704737 316.87377716 -43.65844727 316.87084961 C-44.64655457 316.8706668 -45.63466187 316.87048399 -46.65271182 316.87029564 C-47.63909392 316.87011667 -48.62547602 316.8699377 -49.64174849 316.8697533 C-51.62766938 316.86938789 -53.61359026 316.86901552 -55.59951115 316.86863613 C-56.57884625 316.86845062 -57.55818135 316.8682651 -58.56719327 316.86807397 C-73.84370295 316.86450525 -89.12019893 316.84605527 -104.39669471 316.82614289 C-109.93762236 316.81911622 -115.47854676 316.81433586 -121.01947791 316.81118154 C-129.8074101 316.80613628 -138.5952807 316.79473091 -147.38318116 316.76988124 C-151.39982944 316.75864546 -155.4164171 316.75054563 -159.43308258 316.75101471 C-163.10747581 316.75132232 -166.7817255 316.74242334 -170.4560812 316.72604669 C-172.42029748 316.71966085 -174.38453799 316.72307005 -176.34876114 316.7267856 C-177.51012917 316.71972001 -178.6714972 316.71265442 -179.8680582 316.70537472 C-181.37452013 316.70244833 -181.37452013 316.70244833 -182.91141564 316.69946283 C-185.6254321 316.43617589 -187.25427552 315.92293144 -189.53125 314.4453125 C-191.04141714 311.42497821 -190.68290287 308.30092461 -190.68515015 304.98735046 C-190.6895324 304.20921094 -190.69391465 303.43107142 -190.6984297 302.62935191 C-190.71184249 300.00770032 -190.71800209 297.38608236 -190.72412109 294.7644043 C-190.73202004 292.89047086 -190.74028886 291.01653894 -190.74890137 289.14260864 C-190.77514321 282.97659767 -190.79043014 276.81057983 -190.8046875 270.64453125 C-190.8100461 268.52418323 -190.8154236 266.40383525 -190.82081985 264.28348732 C-190.84245084 255.4657268 -190.86118891 246.64796814 -190.87244225 237.8301878 C-190.88869026 225.180739 -190.9218863 212.53159697 -190.97884309 199.88226384 C-191.01750127 190.99474537 -191.03706999 182.1073091 -191.04236281 173.21970874 C-191.04602163 167.9080844 -191.05809939 162.59678707 -191.09046555 157.28525352 C-191.12047394 152.2889972 -191.12688386 147.29326699 -191.11508179 142.29693985 C-191.11486045 140.46231567 -191.12321486 138.62766759 -191.14073563 136.79312706 C-191.16334642 134.2895224 -191.15517136 131.78783864 -191.13925171 129.28422546 C-191.1531338 128.55698279 -191.16701588 127.82974011 -191.18131864 127.08045977 C-191.12082386 123.22340722 -190.67213975 121.61441493 -188.17074013 118.61211872 C-187.29970839 117.89707267 -186.42867664 117.18202662 -185.53125 116.4453125 C-184.59410156 115.61773437 -183.65695313 114.79015625 -182.69140625 113.9375 C-181.66140268 113.0620967 -180.62873792 112.18981713 -179.59375 111.3203125 C-178.76472168 110.62059326 -178.76472168 110.62059326 -177.91894531 109.90673828 C-172.45887258 105.32914789 -166.85977618 100.93413898 -161.234375 96.5625 C-159.31814558 95.07690982 -159.31814558 95.07690982 -157.53125 93.4453125 C-157.43397726 91.56413822 -157.40608946 89.67934164 -157.40527344 87.7956543 C-157.40146667 86.58737473 -157.39765991 85.37909515 -157.39373779 84.13420105 C-157.39271057 82.81761002 -157.39168335 81.50101898 -157.390625 80.14453125 C-157.37870643 78.09262586 -157.3633318 76.04076293 -157.34791946 73.98888111 C-157.30985598 68.91060637 -157.27863365 63.8325839 -157.28076172 58.75415039 C-157.28154885 55.22539496 -157.2581836 51.69751279 -157.2188797 48.16898537 C-157.20332687 46.17047105 -157.21376702 44.1718093 -157.22454834 42.17326355 C-157.20813293 40.9555275 -157.19171753 39.73779144 -157.17480469 38.4831543 C-157.17115906 37.4113945 -157.16751343 36.3396347 -157.16375732 35.23539734 C-156.53125 32.4453125 -156.53125 32.4453125 -154.4553833 30.09115601 C-150.74621702 28.00345801 -148.34841606 27.995664 -144.1015625 28.07397461 C-143.00525261 28.08497192 -143.00525261 28.08497192 -141.88679504 28.09619141 C-140.30437047 28.11360257 -138.7220223 28.13965565 -137.13986206 28.17341423 C-134.62356086 28.22330437 -132.10880104 28.24208238 -129.59204102 28.25160217 C-122.43893417 28.28155697 -115.28715653 28.34545692 -108.13525391 28.48266602 C-103.75227667 28.56452983 -99.37167274 28.59155966 -94.98797607 28.58539009 C-93.32942343 28.59346561 -91.67082797 28.62157743 -90.01300049 28.671278 C-80.71741832 28.94333448 -74.31925828 28.43596603 -67.16333008 22.07763672 C-65.23439643 20.24372321 -63.38703594 18.35538315 -61.53125 16.4453125 C-60.20131407 15.33075742 -58.85692989 14.23234044 -57.48046875 13.17578125 C-56.93156982 12.74531494 -56.3826709 12.31484863 -55.81713867 11.87133789 C-55.02593628 11.25826782 -55.02593628 11.25826782 -54.21875 10.6328125 C-53.63391846 10.1783374 -53.04908691 9.7238623 -52.4465332 9.25561523 C-50.80873531 7.98470225 -49.17002879 6.71496042 -47.53125 5.4453125 C-46.7578125 4.82398438 -45.984375 4.20265625 -45.1875 3.5625 C-31.72979089 -7.06481791 -14.95142455 -9.18312804 0 0 Z M-42.53125 20.6328125 C-43.30597656 21.27412109 -44.08070313 21.91542969 -44.87890625 22.57617188 C-47.74962524 24.96016726 -47.74962524 24.96016726 -50.53125 27.4453125 C-50.53125 27.7753125 -50.53125 28.1053125 -50.53125 28.4453125 C-30.40125 28.4453125 -10.27125 28.4453125 10.46875 28.4453125 C6.41584949 24.39241199 2.41556336 20.81966598 -2.03125 17.2578125 C-3.00771484 16.45827148 -3.00771484 16.45827148 -4.00390625 15.64257812 C-9.10035721 11.54997357 -13.14525794 9.1672516 -19.84375 9.0703125 C-20.72675781 9.04195312 -21.60976562 9.01359375 -22.51953125 8.984375 C-30.55446232 10.21410505 -36.503064 15.52922695 -42.53125 20.6328125 Z M-142.53125 43.4453125 C-142.53125 76.7753125 -142.53125 110.1053125 -142.53125 144.4453125 C-126.88770881 155.40117979 -126.88770881 155.40117979 -111.21875 166.3203125 C-109.27473377 167.67186664 -107.33072353 169.02342939 -105.38671875 170.375 C-104.41911621 171.04756836 -103.45151367 171.72013672 -102.45458984 172.41308594 C-98.60065445 175.09223729 -94.74739945 177.77236328 -90.89526367 180.45410156 C-88.99738528 181.77360511 -87.09782589 183.09069436 -85.1965332 184.40527344 C-80.13819075 187.90743656 -75.1223117 191.4567823 -70.1484375 195.078125 C-69.10365234 195.82964844 -68.05886719 196.58117187 -66.98242188 197.35546875 C-64.9703462 198.80416324 -62.96850606 200.26720826 -60.97851562 201.74609375 C-59.6240332 202.71482422 -59.6240332 202.71482422 -58.2421875 203.703125 C-57.05568604 204.57155029 -57.05568604 204.57155029 -55.84521484 205.45751953 C-53.51511945 206.73598199 -53.51511945 206.73598199 -50.88647461 205.71801758 C-48.31702747 204.32955195 -46.05367125 202.76183251 -43.71875 201.0078125 C-35.16397552 194.89362747 -26.01207266 192.55543133 -15.53125 193.4453125 C-8.35778037 194.68284089 -2.83660457 197.11551807 3.08203125 201.3359375 C6.37987024 202.86881192 8.0040293 202.48905961 11.46875 201.4453125 C13.81614073 200.07815087 15.95584425 198.70247915 18.15625 197.1328125 C19.49457136 196.21002775 20.83448964 195.28955582 22.17578125 194.37109375 C22.87783691 193.88850098 23.57989258 193.4059082 24.30322266 192.90869141 C27.92855077 190.45883608 31.63554135 188.14201107 35.34375 185.8203125 C44.90994949 179.81071415 54.42666062 173.72565415 63.9375 167.62890625 C67.83669293 165.12943871 71.73844929 162.63410937 75.64456177 160.14547729 C77.35829586 159.05361141 79.07154625 157.96099045 80.78466797 156.86816406 C82.93380268 155.49756347 85.08381824 154.12834272 87.23486328 152.76074219 C88.21181152 152.1371582 89.18875977 151.51357422 90.1953125 150.87109375 C91.04689941 150.32880127 91.89848633 149.78650879 92.77587891 149.2277832 C96.06416938 147.0511913 99.25987312 144.73736741 102.46875 142.4453125 C102.46875 109.7753125 102.46875 77.1053125 102.46875 43.4453125 C21.61875 43.4453125 -59.23125 43.4453125 -142.53125 43.4453125 Z M-164.65625 118.4453125 C-165.21957031 118.92226562 -165.78289062 119.39921875 -166.36328125 119.890625 C-167.75631197 121.07115951 -169.14426538 122.25768041 -170.53125 123.4453125 C-166.73379414 127.33427332 -163.05428104 130.45840521 -158.53125 133.4453125 C-157.87125 133.4453125 -157.21125 133.4453125 -156.53125 133.4453125 C-156.53125 126.8453125 -156.53125 120.2453125 -156.53125 113.4453125 C-159.95001639 113.4453125 -162.16276082 116.30473014 -164.65625 118.4453125 Z M117.46875 113.4453125 C117.46875 119.7153125 117.46875 125.9853125 117.46875 132.4453125 C122.57541637 129.89197932 126.88761228 127.65210891 131.46875 124.4453125 C127.51874819 120.24843557 123.23978566 116.68917086 118.46875 113.4453125 C118.13875 113.4453125 117.80875 113.4453125 117.46875 113.4453125 Z M-176.53125 138.4453125 C-176.53125 189.9253125 -176.53125 241.4053125 -176.53125 294.4453125 C-170.83704409 291.22549109 -170.83704409 291.22549109 -165.5078125 287.6328125 C-164.80591797 287.12105469 -164.10402344 286.60929688 -163.38085938 286.08203125 C-162.64673828 285.54191406 -161.91261719 285.00179687 -161.15625 284.4453125 C-159.55526891 283.2778481 -157.95369243 282.11119982 -156.3515625 280.9453125 C-155.5462207 280.35878906 -154.74087891 279.77226562 -153.91113281 279.16796875 C-150.30815115 276.55998367 -146.67141396 274.00101805 -143.03125 271.4453125 C-137.20216399 267.34969078 -131.41843296 263.19695334 -125.65625 259.0078125 C-119.47966176 254.51983136 -113.22779031 250.16390825 -106.90625 245.8828125 C-100.26367126 241.3822174 -93.7962581 236.71122463 -87.41357422 231.8503418 C-80.29828895 226.45568156 -72.9287112 221.44253363 -65.53125 216.4453125 C-68.21918638 213.63124133 -70.94012757 211.32068112 -74.14453125 209.1171875 C-75.50384766 208.17746094 -75.50384766 208.17746094 -76.890625 207.21875 C-77.86515625 206.55101562 -78.8396875 205.88328125 -79.84375 205.1953125 C-81.93366917 203.75271343 -84.02351079 202.31000199 -86.11328125 200.8671875 C-87.18143066 200.13177734 -88.24958008 199.39636719 -89.35009766 198.63867188 C-94.25494102 195.25685201 -99.14271751 191.85064612 -104.03125 188.4453125 C-105.94782363 187.11184543 -107.8644906 185.77851251 -109.78125 184.4453125 C-113.61458333 181.77864583 -117.44791667 179.11197917 -121.28125 176.4453125 C-122.2307251 175.7848291 -123.1802002 175.1243457 -124.15844727 174.44384766 C-126.0678694 173.11551167 -127.97721234 171.78706184 -129.88647461 170.45849609 C-134.78832703 167.04774759 -139.69169789 163.63921547 -144.59765625 160.234375 C-146.59645099 158.8464936 -148.5951504 157.4584749 -150.59375 156.0703125 C-151.54975098 155.40644531 -152.50575195 154.74257813 -153.49072266 154.05859375 C-159.57969836 149.8231536 -165.63926389 145.54999783 -171.63696289 141.18603516 C-173.8692314 139.26246591 -173.8692314 139.26246591 -176.53125 138.4453125 Z M128.28125 143.0703125 C121.53590524 147.46529022 114.76529147 151.81743138 107.96875 156.1328125 C96.84377498 163.20117757 85.74126699 170.30429885 74.64208984 177.41308594 C69.41841156 180.75836199 64.19352586 184.10175104 58.96875 187.4453125 C56.91796282 188.75780324 54.8671816 190.07030328 52.81640625 191.3828125 C42.3671875 198.0703125 31.91796875 204.7578125 21.46875 211.4453125 C22.62825304 214.92382161 23.39819589 215.36857867 26.34375 217.37890625 C27.56130981 218.21929443 27.56130981 218.21929443 28.8034668 219.07666016 C29.68301025 219.67269043 30.56255371 220.2687207 31.46875 220.8828125 C33.3088495 222.1493681 35.14868917 223.41630127 36.98828125 224.68359375 C37.91334473 225.3173291 38.8384082 225.95106445 39.79150391 226.60400391 C43.60368315 229.22587659 47.38153272 231.89491919 51.15625 234.5703125 C52.5454697 235.55222938 53.93479243 236.53400052 55.32421875 237.515625 C56.00661621 237.99805664 56.68901367 238.48048828 57.39208984 238.97753906 C60.91642516 241.46852236 64.44269701 243.95676153 67.96875 246.4453125 C69.38542568 247.44529972 70.80209236 248.44529972 72.21875 249.4453125 C72.92 249.9403125 73.62125 250.4353125 74.34375 250.9453125 C97.71875 267.4453125 97.71875 267.4453125 99.84570312 268.94677734 C101.25575103 269.94204805 102.66590648 270.93716641 104.07617188 271.93212891 C107.7200235 274.50321848 111.36170402 277.0773035 115 279.65625 C115.74830078 280.18605469 116.49660156 280.71585938 117.26757812 281.26171875 C118.67844417 282.26071707 120.08866054 283.26063394 121.49804688 284.26171875 C126.43256363 287.75353734 131.43346217 291.08845395 136.46875 294.4453125 C136.46875 242.9653125 136.46875 191.4853125 136.46875 138.4453125 C133.84333979 138.4453125 130.50636074 141.61095744 128.28125 143.0703125 Z M-48.67578125 221.91015625 C-53.42393196 225.39583719 -58.27503565 228.71224721 -63.15625 232.0078125 C-69.81310432 236.51655218 -76.29044288 241.20133021 -82.68847656 246.06884766 C-87.81947306 249.95616028 -93.07644051 253.62040123 -98.40014648 257.23754883 C-103.42394835 260.65962941 -108.36451848 264.18386101 -113.28125 267.7578125 C-119.67628637 272.40333529 -126.11291977 276.98270625 -132.59375 281.5078125 C-133.8322168 282.3730957 -133.8322168 282.3730957 -135.09570312 283.25585938 C-138.41866039 285.57644775 -141.74253272 287.89571547 -145.06787109 290.21289062 C-147.47453087 291.8914104 -149.87817934 293.57416 -152.28125 295.2578125 C-153.38158569 296.02266968 -153.38158569 296.02266968 -154.50415039 296.80297852 C-156.19787604 297.99181399 -157.8675649 299.21478893 -159.53125 300.4453125 C-159.53125 300.7753125 -159.53125 301.1053125 -159.53125 301.4453125 C-67.46125 301.4453125 24.60875 301.4453125 119.46875 301.4453125 C115.15280382 297.09835922 115.15280382 297.09835922 110.45703125 293.5703125 C109.33470093 292.81536499 109.33470093 292.81536499 108.18969727 292.04516602 C106.99751587 291.25323853 106.99751587 291.25323853 105.78125 290.4453125 C99.28604685 286.06834116 92.86180693 281.61987376 86.53125 277.0078125 C77.72316802 270.60008319 68.80467837 264.35790859 59.87207031 258.12548828 C54.07924389 254.07568826 48.31225435 249.98915882 42.54101562 245.90869141 C40.4509521 244.4327441 38.35861911 242.96006928 36.265625 241.48828125 C29.6901571 236.8612407 23.13357062 232.21336835 16.6315918 227.48339844 C10.21926085 222.82212447 3.78244198 218.20429054 -2.78125 213.7578125 C-3.37695801 213.34772949 -3.97266602 212.93764648 -4.58642578 212.51513672 C-21.7624971 201.02683096 -34.42964914 211.4150082 -48.67578125 221.91015625 Z " fill="#000000" transform="translate(273.53125,124.5546875)"/>
<path d="M0 0 C0.99 -0.33 1.98 -0.66 3 -1 C10.0614882 -1.69588171 16.2593899 -1.4970206 22 3 C27.05117226 8.28741863 29.64412416 13.44124158 30.375 20.75 C30.0059097 30.98739947 23.91443998 38.93906764 17 46 C14.69187848 48.12927584 12.31406551 50.14759853 9.875 52.125 C9.30152832 52.5986499 8.72805664 53.0722998 8.13720703 53.56030273 C4.20920307 56.60262436 1.11546004 57.91604169 -4 58 C-15.49453035 53.73232849 -26.50976175 40.51851471 -32 30 C-33.93551652 24.19345044 -33.62023075 18.06743585 -31.875 12.25 C-24.24534036 -0.97474337 -14.41724147 -2.52301726 0 0 Z M-14.75 13.9375 C-17.63526277 16.58232421 -18.47596863 18.10719554 -19 22 C-15.75026975 29.62980146 -9.66518003 36.15259634 -3 41 C1.3986819 39.5889533 3.90914951 37.46727413 7.125 34.1875 C7.97320312 33.33542969 8.82140625 32.48335938 9.6953125 31.60546875 C12.71278829 28.1941868 14.78777391 25.4855826 15.4375 20.9375 C15.20885588 17.9341267 15.20885588 17.9341267 13.375 15.625 C10.28796154 13.51281579 8.67986146 13.47430551 5 14 C4.175 14.515625 3.35 15.03125 2.5 15.5625 C0 17 0 17 -2.9375 16.875 C-6 16 -6 16 -9.0625 14.25 C-11.94196482 12.63871135 -11.94196482 12.63871135 -14.75 13.9375 Z " fill="#000000" transform="translate(254,353)"/>
<path d="M0 0 C4.53200904 1.40995837 6.65508276 5.85554258 9.109375 9.65625 C9.84027344 10.73519531 10.57117188 11.81414062 11.32421875 12.92578125 C13.27789544 15.82024426 15.20330207 18.73030429 17.109375 21.65625 C17.14675781 20.47546875 17.18414062 19.2946875 17.22265625 18.078125 C17.28832649 16.52080212 17.35477347 14.96351186 17.421875 13.40625 C17.44443359 12.62894531 17.46699219 11.85164062 17.49023438 11.05078125 C17.65044119 7.64274529 17.82930898 5.20199798 19.40234375 2.13671875 C22.00927902 -0.12421596 23.92408162 0.15785419 27.23828125 0.328125 C29.109375 0.65625 29.109375 0.65625 31.046875 1.96875 C32.90110371 4.91370148 33.2393364 7.47667123 33.27050781 10.86474609 C33.28011536 11.70927338 33.2897229 12.55380066 33.29962158 13.42391968 C33.30387146 14.33332306 33.30812134 15.24272644 33.3125 16.1796875 C33.31820007 17.11801422 33.32390015 18.05634094 33.32977295 19.02310181 C33.33921894 21.00855381 33.34575534 22.99402146 33.34960938 24.97949219 C33.35931548 28.01264864 33.39034286 31.04512756 33.421875 34.078125 C33.42840523 36.00780848 33.43365562 37.9374968 33.4375 39.8671875 C33.4498468 40.77254242 33.4621936 41.67789734 33.47491455 42.61068726 C33.45790561 47.4328349 33.30702438 50.76866349 30.109375 54.65625 C27.22075791 56.10055855 25.31289799 56.03313506 22.109375 55.65625 C17.48312898 51.74947033 14.49478129 46.9373444 11.296875 41.84375 C10.54374023 40.66135742 10.54374023 40.66135742 9.77539062 39.45507812 C8.54760355 37.52569844 7.32581917 35.59279337 6.109375 33.65625 C6.08359375 34.90921875 6.0578125 36.1621875 6.03125 37.453125 C5.97496331 39.10420123 5.9176161 40.75524155 5.859375 42.40625 C5.83810547 43.64375 5.83810547 43.64375 5.81640625 44.90625 C5.56969194 51.02476478 5.56969194 51.02476478 3.25 54.20703125 C0.32661234 56.18618604 -1.42782087 56.16124227 -4.890625 55.65625 C-7.04676819 54.42834473 -7.04676819 54.42834473 -8.890625 52.65625 C-9.39183044 50.45544434 -9.39183044 50.45544434 -9.39233398 47.86523438 C-9.40171494 46.8941272 -9.41109589 45.92302002 -9.42076111 44.92248535 C-9.40952713 43.87556519 -9.39829315 42.82864502 -9.38671875 41.75 C-9.38817398 40.67375366 -9.38962921 39.59750732 -9.39112854 38.48864746 C-9.38946792 36.21229344 -9.37788853 33.93592838 -9.35717773 31.65966797 C-9.32823706 28.16976364 -9.33656321 24.68137875 -9.34960938 21.19140625 C-9.3433718 18.98176343 -9.33498072 16.77212542 -9.32421875 14.5625 C-9.32715439 13.51557983 -9.33009003 12.46865967 -9.33311462 11.39001465 C-9.32043045 10.41890747 -9.30774628 9.44780029 -9.29467773 8.44726562 C-9.28927475 7.59249634 -9.28387177 6.73772705 -9.27830505 5.85705566 C-8.39405461 0.83728909 -4.81778053 -0.21099769 0 0 Z " fill="#000000" transform="translate(173.890625,214.34375)"/>
<path d="M0 0 C1.95873047 -0.0309375 1.95873047 -0.0309375 3.95703125 -0.0625 C5.20613281 -0.06765625 6.45523437 -0.0728125 7.7421875 -0.078125 C9.46864502 -0.09214355 9.46864502 -0.09214355 11.22998047 -0.10644531 C14.125 0.25 14.125 0.25 15.96923828 1.62207031 C17.58084196 3.8920689 17.99236344 5.46463214 18.125 8.25 C16.9834081 10.5331838 15.93487317 12.44012683 14.125 14.25 C11.26232433 14.32325168 8.424281 14.34238205 5.5625 14.3125 C4.75619141 14.30798828 3.94988281 14.30347656 3.11914062 14.29882812 C1.12106244 14.28700518 -0.87697783 14.26906914 -2.875 14.25 C-2.875 16.23 -2.875 18.21 -2.875 20.25 C-1.21210938 20.19779297 -1.21210938 20.19779297 0.484375 20.14453125 C1.94790148 20.11638651 3.41144439 20.08908708 4.875 20.0625 C5.60460937 20.03736328 6.33421875 20.01222656 7.0859375 19.98632812 C10.36105041 19.94166749 12.68981481 20.00892122 15.5859375 21.61328125 C17.6585493 23.81740395 17.98166565 25.23997863 18.125 28.25 C17.40823984 31.05188062 16.9144081 32.68834289 14.52734375 34.38671875 C11.15558048 35.59836051 7.90585516 35.4617696 4.375 35.375 C3.67761719 35.36597656 2.98023438 35.35695312 2.26171875 35.34765625 C0.54933042 35.32419888 -1.16288004 35.28833104 -2.875 35.25 C-2.875 37.23 -2.875 39.21 -2.875 41.25 C-1.68261719 41.21519531 -0.49023438 41.18039063 0.73828125 41.14453125 C2.30467342 41.11639247 3.87108081 41.0890924 5.4375 41.0625 C6.61602539 41.02479492 6.61602539 41.02479492 7.81835938 40.98632812 C8.57568359 40.97666016 9.33300781 40.96699219 10.11328125 40.95703125 C11.15802612 40.93346558 11.15802612 40.93346558 12.22387695 40.90942383 C14.71583378 41.35584476 15.56387217 42.298371 17.125 44.25 C18 46.625 18 46.625 18.125 49.25 C16.9834081 51.5331838 15.93487317 53.44012683 14.125 55.25 C9.50636347 55.53230229 4.8762329 55.48184011 0.25 55.5 C-1.70873047 55.5309375 -1.70873047 55.5309375 -3.70703125 55.5625 C-4.95613281 55.56765625 -6.20523437 55.5728125 -7.4921875 55.578125 C-9.21864502 55.59214355 -9.21864502 55.59214355 -10.97998047 55.60644531 C-13.875 55.25 -13.875 55.25 -15.71142578 53.91699219 C-17.72433285 51.03320506 -18.00479435 48.44773577 -18.03613281 45.04150391 C-18.04574036 44.19697662 -18.0553479 43.35244934 -18.06524658 42.48233032 C-18.06949646 41.57292694 -18.07374634 40.66352356 -18.078125 39.7265625 C-18.08667511 38.31907242 -18.08667511 38.31907242 -18.09539795 36.88314819 C-18.10484394 34.89769619 -18.11138034 32.91222854 -18.11523438 30.92675781 C-18.12494048 27.89360136 -18.15596786 24.86112244 -18.1875 21.828125 C-18.19403023 19.89844152 -18.19928062 17.9687532 -18.203125 16.0390625 C-18.2154718 15.13370758 -18.2278186 14.22835266 -18.24053955 13.29556274 C-18.19211494 -0.43313901 -11.96139391 0.04695346 0 0 Z " fill="#000000" transform="translate(345.875,214.75)"/>
<path d="M0 0 C1.9375 0.49609375 1.9375 0.49609375 3.48828125 1.9453125 C5.61719329 5.69242722 6.82853129 9.64861239 8.125 13.74609375 C8.39763672 14.5865625 8.67027344 15.42703125 8.95117188 16.29296875 C9.62011471 18.35847645 10.27973257 20.42700009 10.9375 22.49609375 C11.17984375 21.89023438 11.4221875 21.284375 11.671875 20.66015625 C12.37625739 18.89920028 13.08208742 17.13882293 13.7890625 15.37890625 C14.54468363 13.48214302 15.28979072 11.58115167 16.0234375 9.67578125 C16.36632812 8.79148438 16.70921875 7.9071875 17.0625 6.99609375 C17.37445313 6.18140625 17.68640625 5.36671875 18.0078125 4.52734375 C18.9375 2.49609375 18.9375 2.49609375 20.9375 0.49609375 C27.84160959 -0.05185146 27.84160959 -0.05185146 30.9375 1.49609375 C33.23172455 6.08454285 32.12830384 11.40589603 30.69995117 16.12036133 C30.13980809 17.79818481 29.5660034 19.47149317 28.98046875 21.140625 C28.67683914 22.03222824 28.37320953 22.92383148 28.06037903 23.842453 C27.41976549 25.7142984 26.77315245 27.58410026 26.12084961 29.4519043 C25.12371431 32.31228188 24.14946513 35.17973362 23.17773438 38.04882812 C22.55081949 39.8715553 21.92260917 41.69383754 21.29296875 43.515625 C21.0022197 44.37186966 20.71147064 45.22811432 20.41191101 46.11030579 C19.99181511 47.30250984 19.99181511 47.30250984 19.56323242 48.51879883 C19.32118576 49.21636795 19.0791391 49.91393707 18.82975769 50.63264465 C17.80244105 52.77815966 16.80112195 54.01885717 14.9375 55.49609375 C11.3072863 55.95812095 8.98304184 56.23985333 5.93286133 54.07006836 C3.04301554 50.3422274 1.87361977 46.33600667 0.44921875 41.875 C0.14176224 40.93808823 -0.16569427 40.00117645 -0.48246765 39.03587341 C-1.12784576 37.05833084 -1.76710484 35.07878218 -2.40063477 33.09741211 C-3.37222454 30.06724977 -4.36921721 27.04630506 -5.36914062 24.02539062 C-5.99373106 22.10076066 -6.6168288 20.1756455 -7.23828125 18.25 C-7.53712723 17.34778214 -7.83597321 16.44556427 -8.14387512 15.51600647 C-10.61524867 7.68387171 -10.61524867 7.68387171 -9.0625 3.49609375 C-6.91293423 -0.17081256 -3.8791829 0.11020406 0 0 Z " fill="#000000" transform="translate(222.0625,214.50390625)"/>
<path d="M0 0 C4.79132188 4.58300354 7.89644681 9.81904001 8.0625 16.5234375 C7.55928834 23.50549933 5.90400858 28.47594007 0.625 33.25 C-4.57512015 37.66654041 -9.55437237 38.46592244 -16.21875 38.3046875 C-21.49394068 37.7267874 -25.18602737 35.96843754 -28.7890625 32.05859375 C-34.02027716 25.32743365 -34.94583295 19.46950416 -34 11 C-31.50264907 4.41216048 -26.47859806 -0.41194436 -20.125 -3.3125 C-12.43031319 -5.0053311 -6.70158653 -4.12602459 0 0 Z M-17.75 12.25 C-19.18732873 14.26226023 -19.77568598 15.53254577 -20 18 C-19.00974907 20.66606019 -18.5722047 21.71389765 -16 23 C-13.04211431 23.4167552 -13.04211431 23.4167552 -10 23 C-7.90235835 21.48105194 -7.90235835 21.48105194 -7 19 C-6.99325074 15.87319901 -6.99325074 15.87319901 -8 13 C-11.47231962 10.68512025 -14.13716844 9.66940603 -17.75 12.25 Z " fill="#000000" transform="translate(192,75)"/>
<path d="M0 0 C1.14825256 -0.00430527 1.14825256 -0.00430527 2.31970215 -0.00869751 C3.93693787 -0.0107375 5.5541983 -0.00521213 7.17138672 0.00732422 C9.64737091 0.02337992 12.12172285 0.00747453 14.59765625 -0.01171875 C16.16927444 -0.00973631 17.74089161 -0.0058926 19.3125 0 C20.05318726 -0.00607269 20.79387451 -0.01214539 21.55700684 -0.0184021 C26.668492 0.05156823 26.668492 0.05156823 29.09179688 1.77490234 C30.58943771 4.05914811 31.02590867 5.66126963 31.15625 8.3984375 C30.0146581 10.6816213 28.96612317 12.58856433 27.15625 14.3984375 C25.47016034 14.47049261 23.78124341 14.48229818 22.09375 14.4609375 C21.17464844 14.45191406 20.25554687 14.44289062 19.30859375 14.43359375 C18.59832031 14.42199219 17.88804687 14.41039062 17.15625 14.3984375 C17.17719727 15.49833008 17.19814453 16.59822266 17.21972656 17.73144531 C17.29218635 21.81643631 17.33807115 25.90137064 17.37597656 29.98681641 C17.3960785 31.75416622 17.42336472 33.52144963 17.45800781 35.28857422 C17.50659009 37.83057035 17.52923226 40.37168646 17.546875 42.9140625 C17.57784271 44.09708954 17.57784271 44.09708954 17.60943604 45.30401611 C17.61088889 48.86476117 17.46679301 50.96932046 15.35058594 53.89355469 C12.10744606 56.11771069 9.98950324 56.01449606 6.15625 55.3984375 C2.9878142 52.49262794 2.20699376 50.8311508 1.70214844 46.52612305 C1.70277634 45.02898472 1.72505873 43.53174502 1.765625 42.03515625 C1.77128479 41.24317337 1.77694458 40.45119049 1.78277588 39.63520813 C1.80507692 37.11815656 1.85525861 34.60255507 1.90625 32.0859375 C1.92632325 30.37436959 1.94457258 28.66277926 1.9609375 26.95117188 C2.00492075 22.76637265 2.07390231 18.5826505 2.15625 14.3984375 C1.5362915 14.41003906 0.91633301 14.42164063 0.27758789 14.43359375 C-0.53460205 14.44261719 -1.34679199 14.45164063 -2.18359375 14.4609375 C-3.39196899 14.47833984 -3.39196899 14.47833984 -4.62475586 14.49609375 C-6.84375 14.3984375 -6.84375 14.3984375 -9.40625 13.3984375 C-11.34984364 10.69430722 -11.28352831 8.60138719 -11.27734375 5.3359375 C-9.96213108 -0.54104883 -5.06994558 -0.0415671 0 0 Z " fill="#000000" transform="translate(291.84375,214.6015625)"/>
<path d="M0 0 C2.9375 2.5 2.9375 2.5 5 5 C7.22655661 4.00188842 8.76254312 3.29399424 10.3125 1.375 C12 0 12 0 15.4375 -0.4375 C19 0 19 0 21.4375 1.625 C23.51114192 4.77693571 23.66859841 6.28556438 23 10 C21.51218453 12.26518619 19.88393594 14.02186726 18 16 C18.99936512 18.22935295 19.74171995 19.78145534 21.625 21.375 C23 23 23 23 23.375 25.9375 C22.95505383 29.36706039 22.56078044 30.6952976 20 33 C17.1875 34 17.1875 34 14 34 C11.95708818 32.73339467 9.95309888 31.40113616 8 30 C6.68 30 5.36 30 4 30 C3.54625 30.474375 3.0925 30.94875 2.625 31.4375 C0.21434888 33.75543377 -1.70801313 33.86832053 -5 34 C-7.8125 33 -7.8125 33 -10 31 C-11.125 27.6875 -11.125 27.6875 -11 24 C-9.56997861 21.6009165 -8.00082673 20.00082673 -6 18 C-7.03587181 15.76889149 -8.00552411 13.99362603 -9.625 12.125 C-11.51480585 9.20439096 -11.49800393 7.41488407 -11 4 C-8.0623219 -0.46527072 -5.12830352 -0.80973213 0 0 Z " fill="#000000" transform="translate(353,79)"/>
<path d="M0 0 C3 2 3 2 4 5 C4.10566303 6.46140347 4.15845601 7.92698889 4.17700195 9.39208984 C4.18983719 10.27665863 4.20267242 11.16122742 4.21589661 12.07260132 C4.22697701 13.50232773 4.22697701 13.50232773 4.23828125 14.9609375 C4.246353 15.94365631 4.25442474 16.92637512 4.26274109 17.93887329 C4.27657155 20.01847575 4.28729835 22.09810081 4.29516602 24.17773438 C4.31239648 27.35590565 4.35629424 30.53304132 4.40039062 33.7109375 C4.41051629 35.73176319 4.41903278 37.75259771 4.42578125 39.7734375 C4.44328934 40.72253998 4.46079742 41.67164246 4.47883606 42.64950562 C4.4648602 46.90533534 4.37190637 49.36225967 2.19213867 53.10009766 C0 55 0 55 -3.5 55.625 C-7 55 -7 55 -9.18554688 53.11157227 C-11.80301921 48.62291713 -11.57400339 44.70023034 -11.53125 39.58984375 C-11.5350769 38.58538712 -11.53890381 37.58093048 -11.54284668 36.54603577 C-11.54556359 34.42708328 -11.53821794 32.30809714 -11.52148438 30.18920898 C-11.50004983 26.94504172 -11.52130575 23.70308343 -11.546875 20.45898438 C-11.54423212 18.39843261 -11.53910798 16.33788222 -11.53125 14.27734375 C-11.53934692 13.30748032 -11.54744385 12.33761688 -11.55578613 11.33836365 C-11.46282369 4.66945924 -11.46282369 4.66945924 -9.18945312 1.38110352 C-6.02065767 -0.61776757 -3.66534578 -0.3998559 0 0 Z " fill="#000000" transform="translate(271,215)"/>
<path d="M0 0 C3 2 3 2 4 5 C4.10566303 6.46140347 4.15845601 7.92698889 4.17700195 9.39208984 C4.18983719 10.27665863 4.20267242 11.16122742 4.21589661 12.07260132 C4.22697701 13.50232773 4.22697701 13.50232773 4.23828125 14.9609375 C4.246353 15.94365631 4.25442474 16.92637512 4.26274109 17.93887329 C4.27657155 20.01847575 4.28729835 22.09810081 4.29516602 24.17773438 C4.31239648 27.35590565 4.35629424 30.53304132 4.40039062 33.7109375 C4.41051629 35.73176319 4.41903278 37.75259771 4.42578125 39.7734375 C4.44328934 40.72253998 4.46079742 41.67164246 4.47883606 42.64950562 C4.4648602 46.90533534 4.37190637 49.36225967 2.19213867 53.10009766 C0 55 0 55 -3.5 55.625 C-7 55 -7 55 -9.18554688 53.11157227 C-11.80301921 48.62291713 -11.57400339 44.70023034 -11.53125 39.58984375 C-11.5350769 38.58538712 -11.53890381 37.58093048 -11.54284668 36.54603577 C-11.54556359 34.42708328 -11.53821794 32.30809714 -11.52148438 30.18920898 C-11.50004983 26.94504172 -11.52130575 23.70308343 -11.546875 20.45898438 C-11.54423212 18.39843261 -11.53910798 16.33788222 -11.53125 14.27734375 C-11.53934692 13.30748032 -11.54744385 12.33761688 -11.55578613 11.33836365 C-11.46282369 4.66945924 -11.46282369 4.66945924 -9.18945312 1.38110352 C-6.02065767 -0.61776757 -3.66534578 -0.3998559 0 0 Z " fill="#000000" transform="translate(155,215)"/>
<path d="M0 0 C2.83333391 2.37634457 2.97885738 3.80266883 3.375 7.5 C2.82531646 12.63037975 2.82531646 12.63037975 0 15 C-3.97344161 16.10373378 -6.08999772 16.41543583 -9.875 14.6875 C-12 13 -12 13 -13 11 C-13.5801105 4.73480663 -13.5801105 4.73480663 -11.125 1.625 C-7.12931871 -1.43052099 -4.90999475 -1.11982336 0 0 Z " fill="#000000" transform="translate(426,170)"/>
</svg>
