<?xml version="1.0" encoding="UTF-8"?>
<svg version="1.1" xmlns="http://www.w3.org/2000/svg" width="512" height="512">
<path d="M0 0 C10.98615497 0.57821868 21.90828049 1.16306957 32.859375 2.0859375 C35.43378158 2.29593885 38.00824719 2.50521746 40.58276367 2.71386719 C41.24385352 2.76763079 41.90494337 2.82139439 42.58606625 2.87678719 C67.43625472 4.89507411 92.28238033 6.58352638 117.1875 7.75 C118.41859497 7.80871277 119.64968994 7.86742554 120.91809082 7.92791748 C155.22625986 9.54264304 189.53126295 10.21155776 223.875 10.1875 C224.73947628 10.18723312 225.60395256 10.18696625 226.49462509 10.18669128 C294.6729082 10.16049026 362.8837987 7.55737622 430.78344727 1.21923828 C431.67555908 1.13717133 432.5676709 1.05510437 433.48681641 0.97055054 C435.09949336 0.82109055 436.71178482 0.66735643 438.32348633 0.50772095 C444.29310869 -0.04777634 449.92229426 0 456 0 C456 84.48 456 168.96 456 256 C435.18932803 254.84385156 435.18932803 254.84385156 425.0078125 254.0625 C423.32895462 253.93500366 423.32895462 253.93500366 421.61618042 253.80493164 C419.29238554 253.62776595 416.96866477 253.44962553 414.64501953 253.27050781 C411.08264285 252.99674492 407.51985994 252.72874613 403.95703125 252.4609375 C401.68226505 252.28680573 399.40752444 252.11233921 397.1328125 251.9375 C395.5423259 251.81870483 395.5423259 251.81870483 393.91970825 251.69750977 C392.93702972 251.62072998 391.9543512 251.5439502 390.94189453 251.46484375 C390.08129425 251.399021 389.22069397 251.33319824 388.33401489 251.26538086 C386.1443674 251.01641478 384.12031777 250.59046727 382 250 C384.24032483 254.07605141 386.48239306 258.15113693 388.72607422 262.2253418 C389.48892301 263.61114594 390.2512968 264.99721166 391.01318359 266.38354492 C392.10909916 268.37748256 393.20672586 270.37046972 394.3046875 272.36328125 C394.6443454 272.98213699 394.9840033 273.60099274 395.33395386 274.23860168 C396.80393237 276.90315447 398.31041441 279.46562162 400 282 C400 282.99 400 283.98 400 285 C395.41055653 285.24822252 390.82505014 285.42906459 386.23046875 285.54931641 C384.67020619 285.59944922 383.11040997 285.66758435 381.55175781 285.75439453 C368.7082886 286.4515177 368.7082886 286.4515177 364.86572266 283.18652344 C363.26145135 280.53402803 362.14942702 277.87798662 361 275 C359.81072805 272.85984395 358.59315621 270.73523239 357.3515625 268.625 C356.10775915 266.41757636 354.86558863 264.20923194 353.625 262 C352.98433594 260.86949219 352.34367187 259.73898437 351.68359375 258.57421875 C351.07902344 257.49785156 350.47445313 256.42148437 349.8515625 255.3125 C349.02906006 253.85263672 349.02906006 253.85263672 348.18994141 252.36328125 C347 250 347 250 347 248 C346.20313782 248.00507568 345.40627563 248.01015137 344.58526611 248.01538086 C336.97607244 248.0427777 329.39873808 247.87829362 321.796875 247.5625 C291.36314386 246.39154451 260.95698017 245.75 230.5 245.75 C229.64768673 245.75 228.79537346 245.75 227.91723251 245.75 C197.35780338 245.76155736 166.85603751 246.51122614 136.32107544 247.69293213 C127.21047974 248.02970261 118.11549955 248.10795558 109 248 C108.72905518 248.87994629 108.45811035 249.75989258 108.17895508 250.66650391 C107.07079207 253.79983537 105.77901955 256.45486515 104.13671875 259.3359375 C103.57919922 260.31820313 103.02167969 261.30046875 102.44726562 262.3125 C101.57618164 263.8284375 101.57618164 263.8284375 100.6875 265.375 C100.11837891 266.37789063 99.54925781 267.38078125 98.96289062 268.4140625 C97.84092044 270.38234086 96.69809598 272.3388969 95.53344727 274.28222656 C93.9657685 276.90008761 93.9657685 276.90008761 93.05834961 279.49121094 C91.97303974 282.07580009 91.27919666 283.33878802 89 285 C83.36716813 285.99498216 77.88026219 285.75224487 72.1875 285.5 C70.62053294 285.45985042 69.05346778 285.42335215 67.48632812 285.390625 C63.65512608 285.30266498 59.82863668 285.16476794 56 285 C56.70037252 281.28752421 58.29741956 278.33508645 60.08984375 275.02734375 C61.01893555 273.30741211 61.01893555 273.30741211 61.96679688 271.55273438 C62.290271 270.95936279 62.61374512 270.36599121 62.94702148 269.75463867 C63.93481942 267.94241781 64.91620881 266.12684588 65.89648438 264.31054688 C70.69055451 255.46416823 70.69055451 255.46416823 73 252 C65.0369982 251.88930437 57.20854243 252.17914241 49.27734375 252.875 C48.21060928 252.96378418 47.14387482 253.05256836 46.04481506 253.14404297 C42.67529651 253.42468077 39.30636067 253.71157926 35.9375 254 C31.48870611 254.38027697 27.03944695 254.75432762 22.58984375 255.125 C21.59057358 255.21249512 20.59130341 255.29999023 19.56175232 255.39013672 C18.60027786 255.47021973 17.63880341 255.55030273 16.64819336 255.6328125 C15.82056992 255.70387207 14.99294647 255.77493164 14.14024353 255.84814453 C9.43205902 256.07582228 4.7136863 256 0 256 C0 171.52 0 87.04 0 0 Z M29 32 C29 95.36 29 158.72 29 224 C36.93165301 224.02804114 36.93165301 224.02804114 44.79296875 223.66455078 C45.81940994 223.5908577 46.84585114 223.51716461 47.90339661 223.4412384 C48.98715073 223.36008286 50.07090485 223.27892731 51.1875 223.1953125 C53.58161182 223.02301912 55.9757367 222.85090731 58.36987305 222.67895508 C59.61489594 222.58836823 60.85991882 222.49778137 62.14266968 222.40444946 C81.31456224 221.01551602 100.48549149 219.70449625 119.6875 218.8125 C120.84294312 218.75778534 120.84294312 218.75778534 122.02172852 218.70196533 C126.76676882 218.48002981 131.51239847 218.28607845 136.25924683 218.10714722 C138.14430865 218.03345246 140.02917564 217.95465337 141.91384888 217.87161255 C168.1448075 216.72115214 194.39082605 216.81256604 220.6418457 216.81469727 C225.88113912 216.81477788 231.1203439 216.80792486 236.35961914 216.79418945 C283.71864491 216.67221535 330.93324011 217.87107537 378.1875 221.0625 C382.19409578 221.32691588 386.20098228 221.58686281 390.20783997 221.84727478 C392.63025223 222.00542518 395.05254269 222.16546275 397.47465515 222.32814026 C407.31433158 222.98274438 417.14851397 223.48150074 427 224 C427 160.64 427 97.28 427 32 C408.7552117 32.82202229 408.7552117 32.82202229 390.53125 33.90234375 C388.56433481 34.02896048 386.59741883 34.15556552 384.63047028 34.28166294 C379.96537799 34.58102365 375.30056679 34.88413225 370.63623047 35.19506836 C324.99536469 38.22412493 279.35952184 39.3432983 233.62304688 39.26074219 C227.27171045 39.24934893 220.92054176 39.25615091 214.56921101 39.26761532 C168.91216057 39.33750296 123.3667621 38.01411139 77.8125 34.9375 C73.80590422 34.67308412 69.79901772 34.41313719 65.79216003 34.15272522 C63.36974777 33.99457482 60.94745731 33.83453725 58.52534485 33.67185974 C48.68566842 33.01725562 38.85148603 32.51849926 29 32 Z " fill="#191919" transform="translate(28,128)"/>
<path d="M0 0 C50 0 50 0 63.953125 8.8125 C74.3591355 22.28468267 75.4030157 35.90526562 74.86816406 52.35839844 C74.74246883 56.23515784 74.81736411 60.07889103 74.94335175 63.95452881 C75.38175839 79.61948486 73.80817295 92.42862317 63.953125 105.1875 C50 114 50 114 0 114 C0 76.38 0 38.76 0 0 Z M29 29 C29 47.48 29 65.96 29 85 C36.17078479 85.5623705 36.17078479 85.5623705 39.06573486 84.0390625 C42.84632584 80.17763625 43.71581243 77.132015 43.8336792 71.765625 C43.82153381 70.85296875 43.80938843 69.9403125 43.796875 69 C43.80261536 68.04609375 43.80835571 67.0921875 43.81427002 66.109375 C43.81834057 64.09893408 43.80735516 62.08841299 43.78222656 60.078125 C43.75009012 57.00860759 43.78194557 53.94435452 43.8203125 50.875 C43.81634743 48.9166551 43.80865961 46.95831346 43.796875 45 C43.80902039 44.08734375 43.82116577 43.1746875 43.8336792 42.234375 C43.71581243 36.867985 42.84632584 33.82236375 39.06573486 29.9609375 C36.17078479 28.4376295 36.17078479 28.4376295 29 29 Z " fill="#1A1A1A" transform="translate(291,199)"/>
<path d="M0 0 C19.14 0 38.28 0 58 0 C58 9.57 58 19.14 58 29 C48.43 29 38.86 29 29 29 C29 33.29 29 37.58 29 42 C36.26 42 43.52 42 51 42 C51 51.9 51 61.8 51 72 C43.74 72 36.48 72 29 72 C29 76.29 29 80.58 29 85 C38.57 85 48.14 85 58 85 C58 94.57 58 104.14 58 114 C38.86 114 19.72 114 0 114 C0 76.38 0 38.76 0 0 Z " fill="#191919" transform="translate(220,199)"/>
<path d="M0 0 C9.57 0 19.14 0 29 0 C29 28.05 29 56.1 29 85 C38.57 85 48.14 85 58 85 C58 94.57 58 104.14 58 114 C38.86 114 19.72 114 0 114 C0 76.38 0 38.76 0 0 Z " fill="#191919" transform="translate(149,199)"/>
</svg>
