<?xml version="1.0" encoding="UTF-8"?>
<svg version="1.1" xmlns="http://www.w3.org/2000/svg" width="512" height="512">
<path d="M0 0 C4.67319828 -0.10079067 9.3457299 -0.17234648 14.01977539 -0.21972656 C15.60126801 -0.23952916 17.1826907 -0.26657891 18.76391602 -0.30175781 C37.28390755 -0.7027 53.81575315 2.74675292 69.625 12.875 C72.75840575 15.26640663 72.75840575 15.26640663 76 15 C77.66558623 13.39996317 77.66558623 13.39996317 79.25 11.3125 C84.95930604 4.52143071 90.67089245 0.4793967 99.734375 -0.3359375 C110.46385274 -0.57734743 119.30740106 0.67448307 127.46875 8.296875 C130.94609178 12.16453066 133.57604413 16.1628579 134.75 21.25 C136.496802 25.09296441 138.90236364 25.72886318 142.7109375 27.23828125 C143.46632812 27.48964844 144.22171875 27.74101563 145 28 C146.00740234 28.35771484 146.00740234 28.35771484 147.03515625 28.72265625 C149.62723044 29.08853551 150.79890736 28.38982055 153.0625 27.125 C155.41746463 25.8322555 157.42980824 24.85673059 160 24 C161.03200089 21.90640639 161.03200089 21.90640639 161.8125 19.375 C165.33265379 10.1197642 171.18145872 5.3365104 180 1 C187.1203511 -1.51575574 198.11523194 -1.29333474 205.0625 1.6875 C206.39963653 2.41475937 207.714647 3.18470378 209 4 C209.96679688 4.57814453 209.96679688 4.57814453 210.953125 5.16796875 C214.16077124 7.25024331 215.77352218 8.56638248 217.59545898 12.0546875 C219.77018182 15.35966958 219.77018182 15.35966958 223.65332031 15.70947266 C225.12826318 15.72381134 226.60372646 15.70661843 228.078125 15.6640625 C228.87335068 15.66660538 229.66857635 15.66914825 230.48789978 15.67176819 C232.191436 15.67630941 233.89504027 15.66866464 235.59848022 15.6499939 C240.04701371 15.60806089 244.49343985 15.67530904 248.94140625 15.74609375 C249.81795364 15.75906998 250.69450104 15.7720462 251.59761047 15.78541565 C292.84088234 16.58203616 333.87138624 35.08132873 363.83203125 62.984375 C365.90222547 64.90909611 368.02953109 66.73747487 370.1875 68.5625 C390.05354152 85.97006931 405.13134336 112.3553676 414 137 C414 137.66 414 138.32 414 139 C414.721875 139.2475 415.44375 139.495 416.1875 139.75 C422.86289368 142.71684164 426.51597329 147.75914218 430 154 C430.2475 155.093125 430.495 156.18625 430.75 157.3125 C432.31876559 160.68534601 433.28198459 160.74533643 436.6875 162 C437.58210938 162.31453125 438.47671875 162.6290625 439.3984375 162.953125 C446.32827961 165.74171011 450.7728143 171.42476022 454 178 C457.19899231 185.93574582 457.70344116 196.96830779 454.4375 205 C451.78630365 209.9590723 447.95365737 214.04634263 444 218 C443.5856533 223.83155189 444.1490879 229.66986468 444.79724121 235.46264648 C444.88299581 236.26436248 444.96875041 237.06607847 445.05710363 237.89208889 C445.34278725 240.55226761 445.63525968 243.21165381 445.92773438 245.87109375 C446.13505352 247.78878261 446.3419359 249.70651873 446.54841614 251.6242981 C446.99258037 255.74146191 447.43970088 259.85828994 447.88911438 263.97488403 C448.60007484 270.48846933 449.30369709 277.00283462 450.00622559 283.51733398 C451.49850365 297.34550274 452.9988355 311.17279355 454.5 325 C456.12079905 339.92915878 457.74021131 354.85845992 459.35030794 369.78877735 C460.04849865 376.26046598 460.75133163 382.73162828 461.45775604 389.2024231 C461.89670025 393.23195555 462.33166603 397.26191033 462.76556969 401.29198837 C462.96705784 403.15574092 463.17018944 405.01931667 463.37511635 406.88269424 C463.65544607 409.43378893 463.92979867 411.98546129 464.20275879 414.53735352 C464.2844687 415.26762473 464.36617862 415.99789595 464.45036459 416.75029659 C464.9876514 421.85582329 465.0644189 426.86603784 465 432 C460.6075369 432.07482575 456.21542328 432.12891683 451.82250977 432.16479492 C450.33188402 432.17977042 448.84130149 432.20015819 447.35083008 432.22631836 C445.19341291 432.26320347 443.03658404 432.2798383 440.87890625 432.29296875 C439.5854126 432.3086792 438.29191895 432.32438965 436.95922852 432.34057617 C433 432 433 432 424 429 C424 435.27 424 441.54 424 448 C428.01027344 447.93039062 428.01027344 447.93039062 432.1015625 447.859375 C434.70294295 447.82814259 437.30430217 447.80387586 439.90576172 447.78027344 C441.70794081 447.76020967 443.51005521 447.73295187 445.31201172 447.69824219 C447.90869136 447.64949171 450.50450729 447.62697918 453.1015625 447.609375 C453.9017984 447.58872986 454.7020343 447.56808472 455.52651978 447.54681396 C460.84077636 447.54470231 463.75878492 448.52228358 468 452 C472.74136566 456.80458387 472.51972728 461.78063786 472.546875 468.1875 C472.53140625 469.445625 472.5159375 470.70375 472.5 472 C472.51546875 473.258125 472.5309375 474.51625 472.546875 475.8125 C472.49759561 487.44243645 472.49759561 487.44243645 468 492 C462.43792258 496.90729907 457.22661802 496.56920477 450.03125 496.51757812 C448.23022827 496.52809204 448.23022827 496.52809204 446.39282227 496.53881836 C443.111668 496.55337567 439.83116246 496.55000807 436.55001831 496.53730202 C433.109504 496.52714501 429.66903172 496.53657516 426.22851562 496.54284668 C420.45174426 496.55011528 414.67517773 496.54055626 408.8984375 496.52148438 C402.22837152 496.4997169 395.55879467 496.50676884 388.88874054 496.52879 C383.1526497 496.54696664 377.41670575 496.54949134 371.6805954 496.53903532 C368.25874316 496.53281273 364.83712051 496.5319304 361.4152832 496.54518127 C357.59943574 496.55533945 353.78452751 496.53985368 349.96875 496.51757812 C348.84025635 496.52567505 347.7117627 496.53377197 346.54907227 496.54211426 C338.68246544 496.45703701 335.21894406 495.26186332 329.65625 489.625 C327.03349019 483.88462003 327.42338641 478.23123859 327.5 472 C327.48453125 470.741875 327.4690625 469.48375 327.453125 468.1875 C327.50240439 456.55756355 327.50240439 456.55756355 332 452 C337.06407163 447.84755672 340.63212773 447.44701218 346.8984375 447.609375 C347.63940674 447.61340332 348.38037598 447.61743164 349.14379883 447.62158203 C351.88778772 447.6423677 354.6314211 447.69821274 357.375 447.75 C363.52125 447.8325 369.6675 447.915 376 448 C376 424.57 376 401.14 376 377 C374.35 376.34 372.7 375.68 371 375 C363.54681712 370.00926446 354.93867693 363.20557695 351 355 C351.02729819 348.80516396 352.58151337 342.5253684 353.8125 336.4765625 C353.98628174 335.60857025 354.16006348 334.740578 354.33911133 333.84628296 C354.70373672 332.02915257 355.0702137 330.2123928 355.43847656 328.39599609 C356.00252589 325.61253529 356.56030486 322.82787132 357.1171875 320.04296875 C357.47359373 318.27075997 357.83035196 316.49862194 358.1875 314.7265625 C358.35419189 313.89532867 358.52088379 313.06409485 358.69262695 312.20767212 C359.33018511 309.0717423 359.98697578 306.03907266 361 303 C360.46375 302.86464844 359.9275 302.72929687 359.375 302.58984375 C350.88285882 300.25729839 342.96725187 296.69200563 335 293 C333.98897217 292.53352051 333.98897217 292.53352051 332.95751953 292.05761719 C312.93684726 282.71883908 295.40328342 269.67090783 279.49169922 254.42871094 C278.11834504 253.11334782 276.7335176 251.8099915 275.34765625 250.5078125 C268.48688861 243.89633025 262.66660907 236.63391668 257 229 C256.59894043 228.45972168 256.19788086 227.91944336 255.78466797 227.36279297 C249.40145267 218.66522685 244.08486746 209.4958944 239 200 C238.38125 198.85789063 237.7625 197.71578125 237.125 196.5390625 C225 173.31752232 225 173.31752232 225 164 C224.34 164 223.68 164 223 164 C222.89768066 164.54454834 222.79536133 165.08909668 222.68994141 165.65014648 C221.51502979 171.43989801 219.72579509 176.65255202 217.375 182.0625 C217.02236084 182.88322998 216.66972168 183.70395996 216.30639648 184.54956055 C201.32433625 219.0086318 178.47847781 249.71146589 148 272 C147.18233154 272.60086426 147.18233154 272.60086426 146.34814453 273.21386719 C105.47508759 303 105.47508759 303 87 303 C87.24121582 304.1152002 87.24121582 304.1152002 87.48730469 305.25292969 C89.07623457 312.60824704 90.65231807 319.96620663 92.21728516 327.32666016 C92.70621243 329.62123276 93.1976522 331.91527313 93.69287109 334.20849609 C94.28387456 336.94960032 94.86262629 339.69297541 95.4375 342.4375 C95.61313477 343.23961914 95.78876953 344.04173828 95.96972656 344.86816406 C97.00072792 349.87557485 97.45900991 353.50303673 94.8359375 357.9921875 C88.86869067 365.68259651 82.59534805 372.22091646 74 377 C73.34 377 72.68 377 72 377 C72 400.43 72 423.86 72 448 C84.23595476 447.84205802 84.23595476 447.84205802 96.47119141 447.63964844 C98.01463714 447.62795686 99.55809529 447.61776614 101.1015625 447.609375 C101.89135498 447.58891113 102.68114746 447.56844727 103.49487305 447.54736328 C108.82404727 447.54402106 111.74572827 448.51157737 116 452 C120.74136566 456.80458387 120.51972728 461.78063786 120.546875 468.1875 C120.53140625 469.445625 120.5159375 470.70375 120.5 472 C120.52320313 473.8871875 120.52320313 473.8871875 120.546875 475.8125 C120.49759561 487.44243645 120.49759561 487.44243645 116 492 C110.43792258 496.90729907 105.22661802 496.56920477 98.03125 496.51757812 C96.23022827 496.52809204 96.23022827 496.52809204 94.39282227 496.53881836 C91.111668 496.55337567 87.83116246 496.55000807 84.55001831 496.53730202 C81.109504 496.52714501 77.66903172 496.53657516 74.22851562 496.54284668 C68.45174426 496.55011528 62.67517773 496.54055626 56.8984375 496.52148438 C50.22837152 496.4997169 43.55879467 496.50676884 36.88874054 496.52879 C31.1526497 496.54696664 25.41670575 496.54949134 19.6805954 496.53903532 C16.25874316 496.53281273 12.83712051 496.5319304 9.4152832 496.54518127 C5.59943574 496.55533945 1.78452751 496.53985368 -2.03125 496.51757812 C-3.15974365 496.52567505 -4.2882373 496.53377197 -5.45092773 496.54211426 C-13.31753456 496.45703701 -16.78105594 495.26186332 -22.34375 489.625 C-24.96650981 483.88462003 -24.57661359 478.23123859 -24.5 472 C-24.51546875 470.741875 -24.5309375 469.48375 -24.546875 468.1875 C-24.49759561 456.55756355 -24.49759561 456.55756355 -20 452 C-14.93582947 447.84747563 -11.36633686 447.44775122 -5.1015625 447.609375 C-4.26660248 447.61503479 -3.43164246 447.62069458 -2.57138062 447.62652588 C0.07801266 447.64879777 2.72602016 447.69897477 5.375 447.75 C7.17836579 447.77007698 8.98175292 447.78832565 10.78515625 447.8046875 C15.19105886 447.84522018 19.59399076 447.92352154 24 448 C24 441.73 24 435.46 24 429 C21.03 429.99 18.06 430.98 15 432 C11.04077148 432.34057617 11.04077148 432.34057617 7.12109375 432.29296875 C6.42355484 432.28872391 5.72601593 432.28447906 5.00733948 432.28010559 C2.81697086 432.26354323 0.62758226 432.22593946 -1.5625 432.1875 C-3.06313759 432.17242392 -4.56378985 432.15874069 -6.06445312 432.14648438 C-9.70994452 432.11371482 -13.35487635 432.06209479 -17 432 C-17.07399399 426.10293583 -16.85811027 420.39446804 -16.20275879 414.53735352 C-16.11700419 413.73563752 -16.03124959 412.93392153 -15.94289637 412.10791111 C-15.65721275 409.44773239 -15.36474032 406.78834619 -15.07226562 404.12890625 C-14.86494648 402.21121739 -14.6580641 400.29348127 -14.45158386 398.3757019 C-14.00741963 394.25853809 -13.56029912 390.14171006 -13.11088562 386.02511597 C-12.39992516 379.51153067 -11.69630291 372.99716538 -10.99377441 366.48266602 C-9.37466526 351.47921921 -7.74599175 336.47681363 -6.11724091 321.47441101 C-4.62412685 307.72043783 -3.13304479 293.96625246 -1.64969206 280.21122265 C-0.95150135 273.73953402 -0.24866837 267.26837172 0.45775604 260.7975769 C0.89670025 256.76804445 1.33166603 252.73808967 1.76556969 248.70801163 C1.96705784 246.84425908 2.17018944 244.98068333 2.37511635 243.11730576 C2.65544607 240.56621107 2.92979867 238.01453871 3.20275879 235.46264648 C3.2844687 234.73237527 3.36617862 234.00210405 3.45036459 233.24970341 C4.30209697 225.62699968 4.30209697 225.62699968 4 218 C1.85484511 215.27110728 1.85484511 215.27110728 -1 213 C-1.93294568 211.88417576 -2.82838366 210.73611429 -3.6875 209.5625 C-4.08324219 209.02753906 -4.47898437 208.49257812 -4.88671875 207.94140625 C-9.3814084 200.10329833 -9.28620716 189.64908033 -7.3125 180.98046875 C-4.07348568 172.19464241 1.63298089 166.13330744 10 162 C11.0725 161.7525 12.145 161.505 13.25 161.25 C16.55714629 159.74675169 16.74519417 158.93378737 18.125 155.6875 C18.39570312 154.92824219 18.66640625 154.16898438 18.9453125 153.38671875 C20 151 20 151 22.1015625 148.7734375 C24.80159356 144.82894767 24.44547424 141.59504974 24.25 136.9375 C24.23195312 136.13505859 24.21390625 135.33261719 24.1953125 134.50585938 C24.16061658 133.01269586 24.1176588 131.51968306 24.06347656 130.02709961 C24.00059307 128.01893931 24 126.00914462 24 124 C23.06800781 123.55011719 22.13601562 123.10023438 21.17578125 122.63671875 C2.13527509 113.15292247 -10.28180716 99.59360031 -21.1875 81.4375 C-21.77724609 80.46063232 -22.36699219 79.48376465 -22.97460938 78.47729492 C-23.51279297 77.55537354 -24.05097656 76.63345215 -24.60546875 75.68359375 C-25.33479614 74.43920532 -25.33479614 74.43920532 -26.07885742 73.16967773 C-27 71 -27 71 -26 68 C-19.17617607 62.40181435 -5.14201681 51 4 51 C3.71415039 50.05962891 3.42830078 49.11925781 3.13378906 48.15039062 C0.06642989 37.44681101 -0.49515154 27.58038725 -0.25 16.5 C-0.22986269 14.88674144 -0.21162495 13.27345802 -0.1953125 11.66015625 C-0.15198376 7.77280351 -0.08337787 3.88669139 0 0 Z M16 16 C16.32966678 25.69675051 16.81776306 34.73348614 20 44 C26.03785345 43.39621465 31.9618705 42.52458654 37.93359375 41.44921875 C40.96152414 41.00563659 43.88167277 40.89886928 46.9375 40.8125 C50.63658279 40.54903097 50.63658279 40.54903097 53.62109375 38.55859375 C54.89359652 36.8012386 54.89359652 36.8012386 55.8046875 34.984375 C57.46452398 32.22882947 59.6864106 30.21432649 62 28 C46.53133486 19.73564972 33.50295845 16.56398422 16 16 Z M90.6875 23.625 C88.47314905 28.05370189 88.19351485 32.10407441 88 37 C88.48726563 36.71125 88.97453125 36.4225 89.4765625 36.125 C96.49767802 32.4484886 103.18648547 32.06597068 111 33 C114.22601038 34.00867171 117.09477054 35.27838254 120 37 C119.7486882 30.64181139 119.37148018 25.96222075 115 21 C110.64938655 17.06373068 107.08222994 16.36116081 101.3984375 16.6171875 C96.47508764 17.40299904 93.87805514 20.00328876 90.6875 23.625 Z M178.6875 23.625 C176.47314905 28.05370189 176.19351485 32.10407441 176 37 C176.48726562 36.71125 176.97453125 36.4225 177.4765625 36.125 C184.49767802 32.4484886 191.18648547 32.06597068 199 33 C202.22601038 34.00867171 205.09477054 35.27838254 208 37 C207.7486882 30.64181139 207.37148018 25.96222075 203 21 C198.64938655 17.06373068 195.08222994 16.36116081 189.3984375 16.6171875 C184.47508764 17.40299904 181.87805514 20.00328876 178.6875 23.625 Z M239 32 C239.40992188 32.65226562 239.81984375 33.30453125 240.2421875 33.9765625 C240.78101563 34.85054687 241.31984375 35.72453125 241.875 36.625 C242.40867187 37.48351563 242.94234375 38.34203125 243.4921875 39.2265625 C245.04903381 42.09019173 246.05920533 44.88533026 247 48 C247.5669458 48.06469482 248.1338916 48.12938965 248.71801758 48.19604492 C292.05548121 53.27584622 330.97998722 70.49812634 359 105 C367.38583544 116.06403419 374.71757269 128.14277127 380 141 C383.23165844 140.28269264 386.18707922 139.18684926 389.25 137.9375 C390.58804688 137.39416016 390.58804688 137.39416016 391.953125 136.83984375 C392.62859375 136.56269531 393.3040625 136.28554687 394 136 C393.40506882 130.81261761 390.97360622 126.60360501 388.5625 122.0625 C388.11656494 121.22074219 387.67062988 120.37898438 387.21118164 119.51171875 C383.06497546 111.84957049 378.32455276 104.88148984 373 98 C372.29488281 97.071875 371.58976563 96.14375 370.86328125 95.1875 C345.44746907 62.86572777 306.82183242 40.01315889 266 34 C257.08420572 32.99709237 247.98111294 32 239 32 Z M69.34375 44.46484375 C65.33188705 49.2347622 64.64401811 52.39706323 64.72265625 58.4609375 C65.27248446 63.494576 67.96741874 66.09034508 71.625 69.3125 C76.05370189 71.52685095 80.10407441 71.80648515 85 72 C84.71125 71.51273438 84.4225 71.02546875 84.125 70.5234375 C80.4484886 63.50232198 80.06597068 56.81351453 81 49 C82.00867171 45.77398962 83.27838254 42.90522946 85 40 C79.58833578 39.47629056 73.47627074 40.80990206 69.34375 44.46484375 Z M123 40 C123.28875 40.48726562 123.5775 40.97453125 123.875 41.4765625 C127.81184498 48.99484285 128.54593856 57.2278862 126.33984375 65.46484375 C123.79659886 71.2009069 119.27809946 75.3748641 113.69921875 78.140625 C106.63789688 80.38880273 98.37457325 80.02123755 91.625 77 C90.40242892 76.35981733 89.18723782 75.70354833 88 75 C88.2513118 81.35818861 88.62851982 86.03777925 93 91 C97.16473208 94.68046091 100.42350439 95.63890532 105.8359375 95.39453125 C109.17211469 94.78631122 111.33292882 93.02929329 114 91 C115.19625 90.62875 116.3925 90.2575 117.625 89.875 C122.04778914 87.41789492 122.51858108 85.05618852 124.12109375 80.4296875 C125.49852779 76.62184763 127.29811091 73.80512446 131.03125 72.0390625 C133.81540795 70.57835991 135.21146426 69.62944634 137 67 C137.93122767 61.43634272 137.44000454 55.70054741 137.01342773 50.10302734 C136.99936102 47.89992449 137.37720353 46.10531963 138 44 C133.34507678 40.43122553 128.65150436 40.31824005 123 40 Z M157.34375 44.46484375 C153.33188705 49.2347622 152.64401811 52.39706323 152.72265625 58.4609375 C153.27248446 63.494576 155.96741874 66.09034508 159.625 69.3125 C164.05370189 71.52685095 168.10407441 71.80648515 173 72 C172.71125 71.51273438 172.4225 71.02546875 172.125 70.5234375 C168.4484886 63.50232198 168.06597068 56.81351453 169 49 C170.00867171 45.77398962 171.27838254 42.90522946 173 40 C167.58833578 39.47629056 161.47627074 40.80990206 157.34375 44.46484375 Z M211 40 C211.28875 40.48726562 211.5775 40.97453125 211.875 41.4765625 C215.5515114 48.49767802 215.93402932 55.18648547 215 63 C213.99132829 66.22601038 212.72161746 69.09477054 211 72 C217.35818861 71.7486882 222.03777925 71.37148018 227 67 C230.93626932 62.64938655 231.63883919 59.08222994 231.3828125 53.3984375 C230.59700096 48.47508764 227.99671124 45.87805514 224.375 42.6875 C219.94629811 40.47314905 215.89592559 40.19351485 211 40 Z M98.625 50.625 C96.51293494 53.71186432 96.38804855 55.3282913 97 59 C98.5 61.5 98.5 61.5 101 63 C104.6717087 63.61195145 106.28813568 63.48706506 109.375 61.375 C111.48706506 58.28813568 111.61195145 56.6717087 111 53 C109.5 50.5 109.5 50.5 107 49 C103.3282913 48.38804855 101.71186432 48.51293494 98.625 50.625 Z M186.625 50.625 C184.51293494 53.71186432 184.38804855 55.3282913 185 59 C186.5 61.5 186.5 61.5 189 63 C192.6717087 63.61195145 194.28813568 63.48706506 197.375 61.375 C199.48706506 58.28813568 199.61195145 56.6717087 199 53 C197.5 50.5 197.5 50.5 195 49 C191.3282913 48.38804855 189.71186432 48.51293494 186.625 50.625 Z M-4 74 C1.72168291 89.98620953 15.99907005 100.86169892 30.55078125 108.3046875 C33.72817843 109.63271879 35.82752965 110.34964741 39.1875 109.34765625 C41.23335014 108.35105646 43.08883804 107.23181959 45 106 C45.68964844 105.71511719 46.37929687 105.43023437 47.08984375 105.13671875 C49.60865677 103.63779321 50.1511183 102.18615527 51.25 99.5 C51.58515625 98.7059375 51.9203125 97.911875 52.265625 97.09375 C53.1103259 95.05525465 53.1103259 95.05525465 53 93 C43.1 91.35 33.2 89.7 23 88 C23.66 82.72 24.32 77.44 25 72 C26.67449219 72.28875 28.34898438 72.5775 30.07421875 72.875 C32.27860918 73.25021539 34.4830383 73.62520353 36.6875 74 C37.79029297 74.19078125 38.89308594 74.3815625 40.02929688 74.578125 C41.09599609 74.75859375 42.16269531 74.9390625 43.26171875 75.125 C44.24100342 75.29257813 45.22028809 75.46015625 46.22924805 75.6328125 C48.85911357 75.98132935 51.35123122 76.06764613 54 76 C53.47599609 74.82244141 53.47599609 74.82244141 52.94140625 73.62109375 C50.52825804 68.04966092 48.41473153 63.08272909 48 57 C30.21560737 56.22990451 10.41483295 63.87126762 -4 74 Z M247 65 C246.66226562 65.67546875 246.32453125 66.3509375 245.9765625 67.046875 C244.65104167 69.69791667 243.32552083 72.34895833 242 75 C241.65453125 75.74636719 241.3090625 76.49273437 240.953125 77.26171875 C239.69206263 79.56160708 238.37000153 79.95441109 236 81 C233.74824947 81.94323212 233.74824947 81.94323212 232 84 C231.66560988 86.96962966 231.57799007 89.54087059 231.6875 92.5 C231.70514404 93.3444165 231.72278809 94.18883301 231.7409668 95.05883789 C231.80506656 97.70706681 231.90066549 100.3528829 232 103 C232.02223633 103.80163574 232.04447266 104.60327148 232.06738281 105.42919922 C233.56927205 159.32908993 255.86058345 207.21260575 294 245 C297.53568006 248.19120243 301.21814901 251.10831365 305 254 C305.93457031 254.7734375 306.86914062 255.546875 307.83203125 256.34375 C323.5822288 269.12183068 344.79519952 282.39864041 365 286 C365.33951619 284.43883181 365.67132544 282.87598662 366 281.3125 C366.185625 280.44238281 366.37125 279.57226562 366.5625 278.67578125 C366.99035038 276.05901776 367.0310028 273.64492638 367 271 C366.36199463 270.74943848 365.72398926 270.49887695 365.06665039 270.24072266 C346.42962933 262.86088402 329.63348595 254.68026469 314 242 C313.44747559 241.55430664 312.89495117 241.10861328 312.32568359 240.64941406 C293.56984137 225.41257987 279.08497558 207.46947069 268 186 C267.64808594 185.32211426 267.29617188 184.64422852 266.93359375 183.94580078 C255.05847232 160.75973573 249.03749983 135.52260698 248.68359375 109.53125 C248.66281265 108.25519897 248.64203156 106.97914795 248.62062073 105.66442871 C248.56656328 102.29767965 248.5162401 98.93091805 248.46777344 95.56408691 C248.41723342 92.11819529 248.36171829 88.67238405 248.30664062 85.2265625 C248.19987534 78.48443934 248.098038 71.74225541 248 65 C247.67 65 247.34 65 247 65 Z M264 67 C263.38253801 123.26503686 269.36560234 173.89547218 310 216 C310.77730469 216.84046875 311.55460937 217.6809375 312.35546875 218.546875 C327.42295114 234.39675597 347.3884732 246.72534348 368 254 C368.99 254 369.98 254 371 254 C371.50838564 251.96040523 372.00633886 249.91820862 372.5 247.875 C372.7784375 246.73804688 373.056875 245.60109375 373.34375 244.4296875 C374.31287473 239.36485707 374.66832794 235.46041607 372.125 230.875 C371.77695312 230.23304688 371.42890625 229.59109375 371.0703125 228.9296875 C370.71710938 228.29289063 370.36390625 227.65609375 370 227 C369.72414063 226.30003906 369.44828125 225.60007813 369.1640625 224.87890625 C367.57837227 222.31945323 366.07767728 221.99220601 363.25 221.0625 C357.15694923 218.79511473 353.1885 215.8036009 349.5 210.4375 C346.5877564 206.35269515 343.09099982 203.41440508 339.25 200.25 C318.27392854 182.79423423 304.83676168 157.43244333 299 131 C298.81888672 130.27514404 298.63777344 129.55028809 298.45117188 128.8034668 C296.20772397 118.65226997 296.53738496 108.15692932 296.375 97.8125 C296.33675146 95.79100006 296.29769592 93.76951522 296.2578125 91.74804688 C296.16256215 86.83215612 296.07826199 81.91618936 296 77 C289.28030038 73.77394251 282.71306751 71.07104931 275.5 69.1875 C274.71625 68.97158203 273.9325 68.75566406 273.125 68.53320312 C270.01007701 67.693134 267.24018855 67 264 67 Z M176 75 C176.2513118 81.35818861 176.62851982 86.03777925 181 91 C185.35061345 94.93626932 188.91777006 95.63883919 194.6015625 95.3828125 C199.52491236 94.59700096 202.12194486 91.99671124 205.3125 88.375 C207.52685095 83.94629811 207.80648515 79.89592559 208 75 C207.51273438 75.28875 207.02546875 75.5775 206.5234375 75.875 C199.50232198 79.5515114 192.81351453 79.93402932 185 79 C181.77398962 77.99132829 178.90522946 76.72161746 176 75 Z M147 81 C142.36611886 83.73820249 139.47490405 86.0501919 137 91 C136.40688879 94.32939739 136.1334795 97.62296865 136 101 C136.48726562 100.71125 136.97453125 100.4225 137.4765625 100.125 C145.79787632 95.76765749 154.95668786 95.90915904 164 98 C163.5631658 94.31603156 162.81002451 91.25610307 161 88 C157.23870679 85.36132429 153.26752311 83.664027 149 82 C148.34 81.67 147.68 81.34 147 81 Z M312 86 C311.16272809 121.49102576 318.65704523 151.22937167 341.0546875 179.0859375 C342.90155787 181.35067911 342.90155787 181.35067911 346 181 C346.38091797 180.18595703 346.38091797 180.18595703 346.76953125 179.35546875 C347.28580078 178.28232422 347.28580078 178.28232422 347.8125 177.1875 C348.31716797 176.12595703 348.31716797 176.12595703 348.83203125 175.04296875 C350.00718416 172.98743373 351.3389625 171.6610375 353 170 C353 169.34 353 168.68 353 168 C358.33333333 165.33333333 363.66666667 162.66666667 369 160 C364.62114319 144.1170139 357.32741606 129.81998672 347 117 C346.51063965 116.3925293 346.0212793 115.78505859 345.51708984 115.15917969 C335.96226156 103.43348955 325.52679749 94.44751472 313 86 C312.67 86 312.34 86 312 86 Z M69 101 C64.62851982 105.96222075 64.2513118 110.64181139 64 117 C64.48726563 116.71125 64.97453125 116.4225 65.4765625 116.125 C72.49767802 112.4484886 79.18648547 112.06597068 87 113 C90.22601038 114.00867171 93.09477054 115.27838254 96 117 C96 115.02 96 113.04 96 111 C95.41992188 110.75765625 94.83984375 110.5153125 94.2421875 110.265625 C86.61854232 106.99475413 81.55221473 104.15348029 77 97 C73.59620074 97 71.64496679 98.98982524 69 101 Z M117.34375 108.46484375 C113.33188705 113.2347622 112.64401811 116.39706323 112.72265625 122.4609375 C113.27248446 127.494576 115.96741874 130.09034508 119.625 133.3125 C124.05370189 135.52685095 128.10407441 135.80648515 133 136 C132.71125 135.51273438 132.4225 135.02546875 132.125 134.5234375 C128.4484886 127.50232198 128.06597068 120.81351453 129 113 C130.00867171 109.77398962 131.27838254 106.90522946 133 104 C127.58833578 103.47629056 121.47627074 104.80990206 117.34375 108.46484375 Z M208.27441406 107.31054688 C205.8007951 110.58975056 206.56745415 114.34009998 206.875 118.25 C207.24557099 128.02808381 206.11044272 133.68267775 199.4375 141.0625 C198.85871094 141.63097656 198.27992188 142.19945312 197.68359375 142.78515625 C194.10793081 147.48910263 192.79897102 153.55516678 191.06152344 159.13720703 C183.4226662 183.34140973 170.54322174 207.08875989 152.11328125 224.83203125 C149.76732752 226.73410227 149.76732752 226.73410227 150 229 C149.40703125 229.26039063 148.8140625 229.52078125 148.203125 229.7890625 C145.84946354 231.08274167 144.54336318 232.38889218 142.75 234.375 C125.77265013 251.63270978 103.47490168 262.79219487 81 271 C81.65349633 278.55038422 81.65349633 278.55038422 83 286 C109.2838749 279.36584888 133.55034311 263.47717404 153 245 C154.3486155 243.84763825 155.70241463 242.70130164 157.0625 241.5625 C189.89718895 212.71582995 211.65238854 165.26144035 215 122 C215.19271901 115.99887636 215.12374872 110.0018127 215 104 C212.08507141 104 210.41680924 105.46082863 208.27441406 107.31054688 Z M173 107 C173.32226562 107.84949219 173.64453125 108.69898437 173.9765625 109.57421875 C176.49787933 118.0138938 175.95810673 126.72583784 171.875 134.5234375 C171.441875 135.25433594 171.441875 135.25433594 171 136 C177.35818861 135.7486882 182.03777925 135.37148018 187 131 C191.03735562 126.53765958 191.42461412 123.04237939 191.3359375 117.26953125 C191.12411373 114.72370825 191.12411373 114.72370825 189 112 C186.00449931 110.79134724 186.00449931 110.79134724 182.5625 109.875 C180.83193359 109.37613281 180.83193359 109.37613281 179.06640625 108.8671875 C178.05449219 108.58101563 177.04257813 108.29484375 176 108 C175.01 107.67 174.02 107.34 173 107 Z M146.625 114.625 C144.51293494 117.71186432 144.38804855 119.3282913 145 123 C146.5 125.5 146.5 125.5 149 127 C152.6717087 127.61195145 154.28813568 127.48706506 157.375 125.375 C159.48706506 122.28813568 159.61195145 120.6717087 159 117 C157.5 114.5 157.5 114.5 155 113 C151.3282913 112.38804855 149.71186432 112.51293494 146.625 114.625 Z M44 125.75 C41.47229123 129.37406715 41.47229123 129.37406715 41 136 C45.95 136 50.9 136 56 136 C56.268125 134.47375 56.53625 132.9475 56.8125 131.375 C57.64154976 127.17607171 58.83908948 123.73248181 61 120 C54.90268251 119.40993702 48.21668134 121.16558482 44 125.75 Z M74.625 130.625 C72.51293494 133.71186432 72.38804855 135.3282913 73 139 C74.5 141.5 74.5 141.5 77 143 C80.6717087 143.61195145 82.28813568 143.48706506 85.375 141.375 C87.48706506 138.28813568 87.61195145 136.6717087 87 133 C85.5 130.5 85.5 130.5 83 129 C79.3282913 128.38804855 77.71186432 128.51293494 74.625 130.625 Z M136 139 C136.2513118 145.35818861 136.62851982 150.03777925 141 155 C145.35061345 158.93626932 148.91777006 159.63883919 154.6015625 159.3828125 C159.52491236 158.59700096 162.12194486 155.99671124 165.3125 152.375 C167.52685095 147.94629811 167.80648515 143.89592559 168 139 C167.51273438 139.28875 167.02546875 139.5775 166.5234375 139.875 C159.50232198 143.5515114 152.81351453 143.93402932 145 143 C141.77398962 141.99132829 138.90522946 140.72161746 136 139 Z M103 143 C101.02 147.455 101.02 147.455 99 152 C100.588125 151.896875 102.17625 151.79375 103.8125 151.6875 C104.70582031 151.62949219 105.59914062 151.57148438 106.51953125 151.51171875 C109.30604 150.93686419 110.24135754 150.1793144 112 148 C110.87926138 147.16094435 109.75325453 146.32892169 108.625 145.5 C107.99851563 145.0359375 107.37203125 144.571875 106.7265625 144.09375 C105.05905387 142.82161899 105.05905387 142.82161899 103 143 Z M34.6875 159.625 C32.47314905 164.05370189 32.19351485 168.10407441 32 173 C32.48726562 172.71125 32.97453125 172.4225 33.4765625 172.125 C40.49767802 168.4484886 47.18648547 168.06597068 55 169 C58.22601038 170.00867171 61.09477054 171.27838254 64 173 C63.7486882 166.64181139 63.37148018 161.96222075 59 157 C54.64938655 153.06373068 51.08222994 152.36116081 45.3984375 152.6171875 C40.47508764 153.40299904 37.87805514 156.00328876 34.6875 159.625 Z M386.6875 159.625 C384.47314905 164.05370189 384.19351485 168.10407441 384 173 C384.48726563 172.71125 384.97453125 172.4225 385.4765625 172.125 C392.49767802 168.4484886 399.18648547 168.06597068 407 169 C410.22601038 170.00867171 413.09477054 171.27838254 416 173 C415.7486882 166.64181139 415.37148018 161.96222075 411 157 C406.64938655 153.06373068 403.08222994 152.36116081 397.3984375 152.6171875 C392.47508764 153.40299904 389.87805514 156.00328876 386.6875 159.625 Z M91.375 156.9375 C87.50787852 158.91294292 84.30826335 159.64097805 80 160 C82.32657339 161.55104893 84.51231096 162.82336701 87 164.0625 C87.680625 164.40410156 88.36125 164.74570313 89.0625 165.09765625 C91.13983284 166.10986444 91.13983284 166.10986444 94 167 C95.29243536 162.8803623 96.26252625 159.33168317 96 155 C94.26957124 155 92.87143453 156.1257276 91.375 156.9375 Z M119.75 163.94921875 C118 165 118 165 114.375 166.125 C110.04001102 168.53332721 109.46421342 170.74178496 108.01953125 175.33203125 C107 178 107 178 104.88671875 180.83984375 C102.60463309 184.66221911 102.69154807 187.47464141 103 191.75 C103.29511715 200.13824848 101.78783678 206.53276712 96.75 213.3125 C92.42899905 217.53529638 87.98646309 220.33784564 82.25 222.25 C77.58922424 224.75964849 76.70119463 228.17994856 75 233 C74.505 233.99 74.505 233.99 74 235 C74.15160923 241.8224154 75.37558754 248.39405602 77 255 C93.09853828 248.9716112 107.3372453 241.46588683 121 231 C122.43472656 229.90365234 122.43472656 229.90365234 123.8984375 228.78515625 C139.94454381 216.07241013 163.36074099 194.24685039 167 173 C166.00742188 173.32226562 165.01484375 173.64453125 163.9921875 173.9765625 C160.05141721 175.09598694 156.20942866 175.38483963 152.125 175.375 C151.42391113 175.37338867 150.72282227 175.37177734 150.00048828 175.37011719 C144.16771385 175.23243077 139.91404751 174.05154985 135 171 C133.906875 170.38125 132.81375 169.7625 131.6875 169.125 C128.6797356 166.74676769 126.99405281 164.24956754 125 161 C122.9312322 161 121.38976428 162.8021721 119.75 163.94921875 Z M13.34375 180.46484375 C9.33188705 185.2347622 8.64401811 188.39706323 8.72265625 194.4609375 C9.27248446 199.494576 11.96741874 202.09034508 15.625 205.3125 C20.05370189 207.52685095 24.10407441 207.80648515 29 208 C28.71125 207.51273438 28.4225 207.02546875 28.125 206.5234375 C24.4484886 199.50232198 24.06597068 192.81351453 25 185 C26.00867171 181.77398962 27.27838254 178.90522946 29 176 C23.58833578 175.47629056 17.47627074 176.80990206 13.34375 180.46484375 Z M67 176 C67.28875 176.48726562 67.5775 176.97453125 67.875 177.4765625 C71.5515114 184.49767802 71.93402932 191.18648547 71 199 C69.99132829 202.22601038 68.72161746 205.09477054 67 208 C73.35818861 207.7486882 78.03777925 207.37148018 83 203 C86.93626932 198.64938655 87.63883919 195.08222994 87.3828125 189.3984375 C86.59700096 184.47508764 83.99671124 181.87805514 80.375 178.6875 C75.94629811 176.47314905 71.89592559 176.19351485 67 176 Z M365.34375 180.46484375 C361.33188705 185.2347622 360.64401811 188.39706323 360.72265625 194.4609375 C361.27248446 199.494576 363.96741874 202.09034508 367.625 205.3125 C372.05370189 207.52685095 376.10407441 207.80648515 381 208 C380.71125 207.51273438 380.4225 207.02546875 380.125 206.5234375 C376.4484886 199.50232198 376.06597068 192.81351453 377 185 C378.00867171 181.77398962 379.27838254 178.90522946 381 176 C375.58833578 175.47629056 369.47627074 176.80990206 365.34375 180.46484375 Z M419 176 C419.28875 176.48726562 419.5775 176.97453125 419.875 177.4765625 C423.5515114 184.49767802 423.93402932 191.18648547 423 199 C421.99132829 202.22601038 420.72161746 205.09477054 419 208 C425.35818861 207.7486882 430.03777925 207.37148018 435 203 C438.93626932 198.64938655 439.63883919 195.08222994 439.3828125 189.3984375 C438.59700096 184.47508764 435.99671124 181.87805514 432.375 178.6875 C427.94629811 176.47314905 423.89592559 176.19351485 419 176 Z M42.625 186.625 C40.51293494 189.71186432 40.38804855 191.3282913 41 195 C42.5 197.5 42.5 197.5 45 199 C48.6717087 199.61195145 50.28813568 199.48706506 53.375 197.375 C55.48706506 194.28813568 55.61195145 192.6717087 55 189 C53.5 186.5 53.5 186.5 51 185 C47.3282913 184.38804855 45.71186432 184.51293494 42.625 186.625 Z M394.625 186.625 C392.51293494 189.71186432 392.38804855 191.3282913 393 195 C394.5 197.5 394.5 197.5 397 199 C400.6717087 199.61195145 402.28813568 199.48706506 405.375 197.375 C407.48706506 194.28813568 407.61195145 192.6717087 407 189 C405.5 186.5 405.5 186.5 403 185 C399.3282913 184.38804855 397.71186432 184.51293494 394.625 186.625 Z M32 211 C32.2513118 217.35818861 32.62851982 222.03777925 37 227 C41.35061345 230.93626932 44.91777006 231.63883919 50.6015625 231.3828125 C55.52491236 230.59700096 58.12194486 227.99671124 61.3125 224.375 C63.52685095 219.94629811 63.80648515 215.89592559 64 211 C63.51273438 211.28875 63.02546875 211.5775 62.5234375 211.875 C55.50232198 215.5515114 48.81351453 215.93402932 41 215 C37.77398962 213.99132829 34.90522946 212.72161746 32 211 Z M384 211 C384.2513118 217.35818861 384.62851982 222.03777925 389 227 C393.35061345 230.93626932 396.91777006 231.63883919 402.6015625 231.3828125 C407.52491236 230.59700096 410.12194486 227.99671124 413.3125 224.375 C415.52685095 219.94629811 415.80648515 215.89592559 416 211 C415.51273437 211.28875 415.02546875 211.5775 414.5234375 211.875 C407.50232198 215.5515114 400.81351453 215.93402932 393 215 C389.77398962 213.99132829 386.90522946 212.72161746 384 211 Z M21 235 C19.24821415 244.58224656 18.13488793 254.19568229 17.12060547 263.87597656 C16.94327987 265.54278274 16.76563825 267.20955531 16.58770752 268.876297 C16.10943879 273.36477799 15.63554821 277.8537113 15.16248846 282.34274387 C14.66592569 287.04751557 14.16527368 291.7518521 13.66506958 296.45623779 C12.72020288 305.34848508 11.77897341 314.24111338 10.83907521 323.13388705 C9.76812716 333.26486657 8.69308678 343.39541053 7.6177156 353.52592134 C5.4072814 374.35013541 3.20194419 395.17488661 1 416 C2.77011386 415.85716153 4.53981568 415.70921036 6.30932617 415.55908203 C7.29486984 415.47723663 8.28041351 415.39539124 9.29582214 415.31106567 C15.70186643 414.5741687 21.11940087 411.3472562 25.4375 406.625 C32.76900598 397.05676338 32.161662 386.439541 32.22460938 374.97412109 C32.23579935 373.55264539 32.2473131 372.13117221 32.25912476 370.70970154 C32.29547928 366.06431674 32.32085848 361.41890601 32.34375 356.7734375 C32.34769587 355.98179844 32.35164173 355.19015939 32.35570717 354.37453127 C32.39208545 346.90543846 32.42350853 339.43633586 32.44481659 331.96718407 C32.47244191 322.42740237 32.52335949 312.88835975 32.60529089 303.34888589 C32.66103321 296.63110749 32.69004417 289.91353017 32.6992898 283.19552863 C32.70554928 279.18601208 32.72368977 275.17736579 32.77067566 271.16810226 C32.81429507 267.40025344 32.8248467 263.63375237 32.81004715 259.86569405 C32.81037613 258.48415658 32.8226788 257.10256168 32.84789658 255.72125435 C33.26233455 248.51417077 33.26233455 248.51417077 30.52784729 242.18419266 C28.76052722 240.86062889 28.76052722 240.86062889 26.89337921 240.00037575 C24.47323438 238.72168092 22.86388227 236.9830747 21 235 Z M426 235 C425.278125 235.7425 424.55625 236.485 423.8125 237.25 C421 240 421 240 418.36263943 241.80196953 C415.77782435 243.7932679 415.77782435 243.7932679 415.37917423 246.72877693 C415.38118556 247.78138144 415.38319689 248.83398594 415.38526917 249.91848755 C415.37550552 251.12958694 415.36574188 252.34068634 415.35568237 253.58848572 C415.3701883 254.92764809 415.38518906 256.26680517 415.40063477 257.60595703 C415.3987705 259.0188795 415.39473342 260.43180054 415.38868713 261.8447113 C415.3787033 265.68208188 415.39990275 269.51871495 415.42716718 273.35597849 C415.45101044 277.37783786 415.44805241 281.39968288 415.44847107 285.42160034 C415.45310166 292.18223527 415.47675004 298.94258894 415.51293945 305.703125 C415.55457323 313.50107426 415.5722484 321.29876975 415.5755592 329.09682381 C415.57917185 337.41453881 415.59807575 345.7321634 415.62267947 354.04984045 C415.62888485 356.4370779 415.63253598 358.82430845 415.63571358 361.21155167 C415.64165647 364.97908105 415.65808552 368.7464327 415.68231773 372.51388741 C415.69319763 374.5420149 415.69459146 376.57018648 415.69561768 378.5983429 C415.78722769 389.87627079 416.35582068 399.95203078 424.4140625 408.5 C429.74196004 413.28656036 434.79045924 415.02106132 441.73828125 415.578125 C442.72481689 415.6596582 443.71135254 415.74119141 444.7277832 415.82519531 C445.85253052 415.91172363 445.85253052 415.91172363 447 416 C444.56732951 392.84242501 442.12520107 369.68586497 439.67174721 346.53048229 C438.53283916 335.77949953 437.39705181 325.02820402 436.26855469 314.27612305 C435.28517821 304.90679648 434.2960036 295.53810356 433.29980314 286.1701315 C432.77231831 281.20788056 432.24778172 276.24535711 431.73018265 271.28206444 C431.24322929 266.61352292 430.74854638 261.94586618 430.24784279 257.27877998 C430.06515837 255.56297476 429.88533507 253.8468622 429.70854378 252.13043976 C429.46727675 249.79218086 429.21586501 247.45523209 428.96182251 245.11833191 C428.82355356 243.80846408 428.68528461 242.49859625 428.5428257 241.14903545 C428.19334111 237.85094183 428.19334111 237.85094183 426 235 Z M390 247 C388.1767959 252.0379799 387.05560331 257.08584304 385.99707031 262.32250977 C385.80824783 263.24194366 385.61942535 264.16137756 385.42488098 265.1086731 C384.80485659 268.13536465 384.19086698 271.16323246 383.578125 274.19140625 C383.36784416 275.22775648 383.15756332 276.26410671 382.94091034 277.3318615 C381.82998056 282.8091289 380.72388875 288.28734841 379.62158203 293.76635742 C378.48166632 299.42713423 377.32474571 305.08429588 376.16399002 310.74083042 C375.27425194 315.09260631 374.3973038 319.44688833 373.5238266 323.80195427 C373.1028185 325.88933798 372.67694412 327.9757463 372.2461319 330.06112862 C371.64562076 332.97383775 371.06332439 335.88963226 370.48535156 338.80688477 C370.21278282 340.09826103 370.21278282 340.09826103 369.93470764 341.41572571 C369.06906487 345.89211825 368.60123906 348.87655477 371 353 C378.23627221 361.79368513 389.09074143 365.63634268 400 367 C400 327.73 400 288.46 400 248 C396.7 247.67 393.4 247.34 390 247 Z M48 248 C48 287.27 48 326.54 48 367 C59.07001627 365.61624797 69.18440186 361.1708526 77 353 C80.02224378 348.08224871 78.51796005 343.57400378 77.39111328 338.25268555 C77.19633392 337.27659836 77.00155457 336.30051117 76.8008728 335.29484558 C76.15432457 332.07254591 75.48744468 328.85481415 74.8203125 325.63671875 C74.36779184 323.40209444 73.91654514 321.16721179 73.46652222 318.93208313 C72.27910285 313.05223628 71.07439885 307.17606031 69.86608887 301.30047607 C68.63596545 295.30334579 67.42218347 289.30291263 66.20703125 283.30273438 C63.82068984 271.53186182 61.41607938 259.76480182 59 248 C55.24822148 246.50970966 55.24822148 246.50970966 48 248 Z M392 383 C392 404.45 392 425.9 392 448 C397.28 448 402.56 448 408 448 C408.13910899 443.51759921 408.25807014 439.04291336 408.32958984 434.56005859 C408.35944607 433.04124352 408.40014835 431.52259596 408.45263672 430.00439453 C408.76898162 420.60709004 408.34968409 413.74175218 403.39697266 405.40917969 C400.78686277 400.90785771 400.73196345 396.35725128 400.4375 391.25 C400.39431641 390.55261719 400.35113281 389.85523438 400.30664062 389.13671875 C400.20110404 387.42468078 400.1001009 385.71236439 400 384 C397.36 383.67 394.72 383.34 392 383 Z M48 384 C47.97421875 384.95519531 47.9484375 385.91039062 47.921875 386.89453125 C47.5287618 395.8557254 46.85880512 404.61563488 41.44750977 412.16625977 C39.62446455 415.73517288 39.62009365 418.79902345 39.70703125 422.70703125 C39.71127609 423.43242599 39.71552094 424.15782074 39.71989441 424.90519714 C39.73660457 427.20801891 39.7742404 429.50994553 39.8125 431.8125 C39.82755684 433.3795446 39.8412435 434.946603 39.85351562 436.51367188 C39.88392372 440.34306503 39.94265365 444.17053795 40 448 C45.28 448 50.56 448 56 448 C56 426.55 56 405.1 56 383 C53.2716232 383 50.68345937 383.53331141 48 384 Z M-8 464 C-8 469.28 -8 474.56 -8 480 C28.96 480 65.92 480 104 480 C104 474.72 104 469.44 104 464 C67.04 464 30.08 464 -8 464 Z M344 464 C344 469.28 344 474.56 344 480 C380.96 480 417.92 480 456 480 C456 474.72 456 469.44 456 464 C419.04 464 382.08 464 344 464 Z " fill="#000000" transform="translate(32,8)"/>
</svg>
