<?xml version="1.0" encoding="UTF-8"?>
<svg version="1.1" xmlns="http://www.w3.org/2000/svg" width="512" height="512">
<path d="M0 0 C0.88264275 -0.00467997 1.76528549 -0.00935994 2.67467499 -0.01418173 C5.63808632 -0.02616656 8.60103819 -0.01666083 11.56445312 -0.00723267 C13.68660757 -0.01129681 15.8087599 -0.01663781 17.9309082 -0.02316284 C23.69940358 -0.03686085 29.46773832 -0.03152749 35.23623657 -0.02202559 C41.26687052 -0.01444188 47.29749052 -0.02147101 53.328125 -0.02618408 C63.45640539 -0.03164539 73.58462019 -0.02444015 83.71289062 -0.01016235 C95.43041998 0.00616484 107.14779274 0.0008766 118.8653183 -0.01564157 C128.91719658 -0.02924572 138.96902766 -0.03118133 149.02091217 -0.02332556 C155.0282091 -0.01864316 161.03543238 -0.01803978 167.04272461 -0.02793503 C172.68980253 -0.03658681 178.33667812 -0.03061544 183.98373413 -0.01325226 C186.05902775 -0.00927785 188.13433833 -0.01043768 190.20962524 -0.01704025 C193.03711721 -0.02520811 195.86395617 -0.01499178 198.69140625 0 C199.51747124 -0.00669217 200.34353622 -0.01338433 201.19463348 -0.02027929 C204.47762084 0.01360808 206.90509022 0.14337963 209.82409668 1.71726036 C212.64292771 4.79930738 212.4727128 7.89671491 212.47941589 11.87115479 C212.48581337 13.5829895 212.48581337 13.5829895 212.49234009 15.32940674 C212.4918869 16.58246613 212.49143372 17.83552551 212.4909668 19.1265564 C212.49432541 20.44544861 212.49768402 21.76434082 212.50114441 23.12319946 C212.5099849 26.74308143 212.51232255 30.36293976 212.5129602 33.98283148 C212.51390955 37.00467241 212.51758819 40.02650783 212.52113229 43.04834664 C212.52927716 50.17826054 212.53171651 57.30816181 212.53100586 64.43807983 C212.53040515 71.79245163 212.54095546 79.14675005 212.55674952 86.50110328 C212.5698267 92.81541822 212.57518968 99.12970918 212.57455045 105.44403756 C212.5742955 109.21516824 212.57714499 112.98623373 212.5877285 116.75735092 C212.5974124 120.30484038 212.5974867 123.85220239 212.59021187 127.39969635 C212.58866827 129.32028317 212.5970109 131.24086998 212.60565186 133.16143799 C212.60145737 134.30830078 212.59726288 135.45516357 212.59294128 136.63677979 C212.59348605 137.63118513 212.59403082 138.62559048 212.59459209 139.65012932 C212.32364906 142.62292916 211.71583187 144.73199961 210.34570312 147.38095093 C206.48092877 149.95746716 203.29316126 149.66512012 198.81166077 149.64837646 C197.92987245 149.65290758 197.04808412 149.65743869 196.13957494 149.66210711 C193.17315679 149.67480745 190.20692091 149.67312712 187.24047852 149.67147827 C185.11847191 149.67745996 182.99646748 149.68426467 180.87446594 149.6918335 C175.10182026 149.70953616 169.32923382 149.71419064 163.55656362 149.71546507 C158.74270289 149.71736141 153.92885606 149.72471578 149.11500067 149.73180926 C137.76131168 149.74810663 126.40765442 149.75297694 115.05395508 149.7515564 C103.32903876 149.75035424 91.60430632 149.77146781 79.87943655 149.80304372 C69.823337 149.82916376 59.76729765 149.83992551 49.71116441 149.83864558 C43.70045956 149.83813474 37.68991807 149.8438854 31.6792469 149.86500168 C26.02804998 149.88431242 20.37717347 149.8845577 14.7259655 149.86996841 C12.64905202 149.86787037 10.57211885 149.87264001 8.49523926 149.88468933 C5.66535478 149.90004707 2.83658825 149.89089669 0.00672913 149.87542725 C-0.82001798 149.88571437 -1.64676509 149.8960015 -2.49856514 149.90660036 C-5.97842452 149.86440502 -8.23139414 149.66155953 -11.16386509 147.7157774 C-13.03709968 144.78127362 -13.15719208 143.00301179 -13.16223145 139.5292511 C-13.17351074 138.33327805 -13.18479004 137.13730499 -13.19641113 135.90509033 C-13.18831421 134.5963797 -13.18021729 133.28766907 -13.171875 131.93930054 C-13.17729619 130.54457366 -13.18441884 129.14985251 -13.19311523 127.75514221 C-13.21135058 123.97003157 -13.20428093 120.18535702 -13.19159889 116.40023875 C-13.18147421 112.44047413 -13.1908629 108.48074692 -13.19714355 104.52098083 C-13.20442068 97.87226656 -13.19482975 91.22373002 -13.17578125 84.57504272 C-13.1540033 76.88478615 -13.16107008 69.19495361 -13.18308687 61.50470728 C-13.20122844 54.90417279 -13.2038056 48.30376607 -13.1933322 41.7032147 C-13.18709151 37.75997277 -13.18627742 33.81693027 -13.19947815 29.8737011 C-13.21101844 26.1676335 -13.20304516 22.46211372 -13.17990112 18.75610542 C-13.17207459 16.74450563 -13.18398483 14.73285959 -13.19641113 12.72128296 C-13.18513184 11.52812973 -13.17385254 10.3349765 -13.16223145 9.10566711 C-13.15996929 7.54687285 -13.15996929 7.54687285 -13.15766144 5.95658779 C-12.65429688 3.38095093 -12.65429688 3.38095093 -11.16344452 1.5469656 C-7.49810282 -0.15633879 -3.96203685 -0.03209748 0 0 Z M25.34570312 32.38095093 C23.04820753 35.82719432 23.08881502 37.16157286 23.08007812 41.22079468 C23.0775 42.36612671 23.07492188 43.51145874 23.07226562 44.6914978 C23.08 45.88839233 23.08773437 47.08528687 23.09570312 48.31845093 C23.08796875 49.51147827 23.08023438 50.70450562 23.07226562 51.9336853 C23.07484375 53.0803064 23.07742187 54.22692749 23.08007812 55.40829468 C23.08233398 56.45751099 23.08458984 57.50672729 23.08691406 58.58773804 C23.34412354 61.36390184 23.91644876 63.01672009 25.34570312 65.38095093 C29.5815264 65.43033721 33.81719777 65.46666355 38.05322266 65.49081421 C39.4946586 65.50088056 40.93607408 65.51453473 42.37744141 65.53182983 C44.44764246 65.55605104 46.51757389 65.56742734 48.58789062 65.57626343 C49.83425293 65.58673706 51.08061523 65.59721069 52.36474609 65.60800171 C55.46341943 65.69747585 55.46341943 65.69747585 57.34570312 63.38095093 C57.64125604 60.40175277 57.64125604 60.40175277 57.57617188 56.91220093 C57.57423828 55.61927124 57.57230469 54.32634155 57.5703125 52.99423218 C57.56410889 52.31956909 57.55790527 51.64490601 57.55151367 50.94979858 C57.53327404 48.8889631 57.53100389 46.8285774 57.53125 44.76766968 C57.8663083 38.38769725 57.8663083 38.38769725 56.34570312 32.38095093 C51.96748404 32.30687903 47.5895953 32.25238718 43.2109375 32.21615601 C41.72096404 32.20105492 40.23103512 32.18057235 38.74121094 32.15463257 C36.60145082 32.11830508 34.46227746 32.10123872 32.32226562 32.08798218 C31.03400879 32.07227173 29.74575195 32.05656128 28.41845703 32.04037476 C27.40444824 32.15276489 26.39043945 32.26515503 25.34570312 32.38095093 Z M106.34570312 43.38095093 C105.43884766 44.1331189 105.43884766 44.1331189 104.51367188 44.90048218 C97.37983638 51.28829566 92.71821112 60.56127689 92.10742188 70.10360718 C91.78475958 82.69761067 93.54146397 92.790619 102.34570312 102.38095093 C110.77797087 111.20848122 120.53766491 116.37222466 132.84570312 116.69345093 C144.6942372 116.53353206 154.68201187 112.45179239 163.34570312 104.38095093 C171.5141035 95.07466393 175.78298622 85.40328977 175.55273438 72.92782593 C174.58120571 60.97619028 169.74253946 51.28088032 161.09570312 43.00595093 C145.17268898 29.70490824 121.90294568 29.44355142 106.34570312 43.38095093 Z M24.34570312 84.38095093 C22.23474269 88.6028718 23.11881922 94.11287856 23.10546875 98.75717163 C23.09575592 100.80730656 23.06472868 102.85644167 23.03320312 104.90634155 C23.02804688 106.19604858 23.02289063 107.48575562 23.01757812 108.81454468 C23.00823242 110.00104614 22.99888672 111.18754761 22.98925781 112.41000366 C23.13386691 115.31637363 23.13386691 115.31637363 24.47167969 117.26864624 C27.22954187 118.90554307 29.46776765 118.75258765 32.65820312 118.74423218 C33.89828125 118.74358765 35.13835938 118.74294312 36.41601562 118.74227905 C37.7128125 118.72616577 39.00960937 118.71005249 40.34570312 118.69345093 C41.6425 118.69667358 42.93929687 118.69989624 44.27539062 118.70321655 C51.19701769 118.95820552 51.19701769 118.95820552 57.34570312 116.38095093 C57.81410208 113.21185924 57.81410208 113.21185924 57.74414062 109.47470093 C57.74844589 108.4539447 57.74844589 108.4539447 57.75283813 107.41256714 C57.75488008 105.97347176 57.74934099 104.53434872 57.73681641 103.0953064 C57.7207625 100.88911033 57.73665843 98.68474609 57.75585938 96.47860718 C57.75387696 95.08146771 57.75003333 93.68432938 57.74414062 92.28720093 C57.74075684 91.01167358 57.73737305 89.73614624 57.73388672 88.42196655 C57.60578613 87.4184314 57.47768555 86.41489624 57.34570312 85.38095093 C53.83576129 83.0409897 52.40013737 83.13493563 48.25195312 83.15048218 C47.05699219 83.15241577 45.86203125 83.15434937 44.63085938 83.15634155 C43.38175781 83.16858765 42.13265625 83.18083374 40.84570312 83.19345093 C39.59660156 83.19409546 38.3475 83.19473999 37.06054688 83.19540405 C30.59998552 83.09238263 30.59998552 83.09238263 24.34570312 84.38095093 Z " fill="#000000" transform="translate(12.654296875,144.61904907226563)"/>
<path d="M0 0 C0 81.18 0 162.36 0 246 C-6.18530289 242.56372062 -11.96164244 239.11444206 -17.7265625 235.08984375 C-19.40093544 233.93280595 -21.07575712 232.77641731 -22.75097656 231.62060547 C-23.61291626 231.02479675 -24.47485596 230.42898804 -25.36291504 229.81512451 C-29.73096759 226.80856258 -34.12671905 223.84332444 -38.5234375 220.87890625 C-39.41242737 220.27920013 -40.30141724 219.67949402 -41.21734619 219.06161499 C-43.02849148 217.84018519 -44.83983249 216.61904555 -46.65136719 215.39819336 C-49.36714454 213.56779448 -52.08205501 211.7361153 -54.796875 209.90429688 C-68.56988252 200.61536379 -82.37365205 191.37256321 -96.22509766 182.20092773 C-99.2831788 180.17597183 -102.33515505 178.14216681 -105.38232422 176.10083008 C-106.57384705 175.30542432 -107.76798953 174.51393257 -108.96435547 173.72583008 C-110.7562833 172.54425839 -112.53897515 171.34980269 -114.3203125 170.15234375 C-115.34398926 169.47163818 -116.36766602 168.79093262 -117.42236328 168.08959961 C-121.22682114 165.00545916 -122.83115247 162.51059906 -123.38095093 157.59181213 C-123.38333771 156.28864548 -123.38572449 154.98547882 -123.38818359 153.64282227 C-123.39344055 152.9202121 -123.39869751 152.19760193 -123.40411377 151.45309448 C-123.41727385 149.07397587 -123.40858933 146.6955312 -123.3984375 144.31640625 C-123.40045961 142.65640637 -123.4033722 140.99640737 -123.40713501 139.33641052 C-123.41155313 135.86049934 -123.40514473 132.38481976 -123.39111328 128.90893555 C-123.37403493 124.46246394 -123.38385706 120.01653616 -123.40183067 115.57008457 C-123.41269382 112.14275549 -123.40921037 108.71555439 -123.4014473 105.28822136 C-123.39945158 103.64922966 -123.4018824 102.0102262 -123.40888596 100.37124825 C-123.41654084 98.07604526 -123.40484024 95.78171089 -123.38818359 93.48657227 C-123.38579681 92.18261002 -123.38341003 90.87864777 -123.38095093 89.53517151 C-122.81742737 84.30575143 -121.30958085 81.08794688 -117.26489258 77.7277832 C-116.15076347 76.9878793 -115.02653915 76.26303089 -113.89453125 75.55078125 C-113.27612869 75.14509918 -112.65772614 74.73941711 -112.02058411 74.32144165 C-110.67188811 73.43891833 -109.31899149 72.56278884 -107.96246338 71.69235229 C-105.75806747 70.27756505 -103.56512673 68.84642259 -101.37451172 67.41040039 C-99.02741078 65.87181081 -96.6797765 64.33413144 -94.32897949 62.80119324 C-86.19158579 57.49219811 -78.13998945 52.05922874 -70.09564209 46.61065674 C-66.77742821 44.36351137 -63.45671596 42.12007211 -60.13604736 39.8765564 C-58.43244278 38.7255401 -56.72895237 37.5743548 -55.02557373 36.42300415 C-45.38425779 29.90629947 -35.73618627 23.3996151 -26.08782959 16.89334106 C-23.23179447 14.96737003 -20.37589464 13.04119853 -17.52001953 11.11499023 C-15.77767586 9.93993164 -14.03532593 8.76488232 -12.29296875 7.58984375 C-11.49492325 7.05157959 -10.69687775 6.51331543 -9.87464905 5.95874023 C-9.14153 5.46438477 -8.40841095 4.9700293 -7.65307617 4.46069336 C-7.01649582 4.03139023 -6.37991547 3.6020871 -5.7240448 3.15977478 C-1.02693173 0 -1.02693173 0 0 0 Z " fill="#000000" transform="translate(455,51)"/>
<path d="M0 0 C5.84467634 3.7818494 8.5548095 8.52390727 11 15 C11.65069839 18.67785167 11.67767875 22.24631399 11.63491821 25.97462463 C11.64271817 27.03445885 11.65051812 28.09429307 11.65855443 29.18624347 C11.67839126 32.71379709 11.66274153 36.24026193 11.64697266 39.76782227 C11.65375237 42.30639269 11.66265749 44.84495818 11.67352295 47.3835144 C11.69391901 53.5482166 11.69098463 59.71252003 11.67645974 65.87722725 C11.66514197 70.88933204 11.66364752 75.90135158 11.66907883 80.9134655 C11.67022807 81.98576323 11.67022807 81.98576323 11.67140054 83.07972355 C11.67299925 84.53219965 11.67462032 85.98467573 11.6762635 87.43715178 C11.6905011 101.03804577 11.67415908 114.6387709 11.64726166 128.23963719 C11.62491983 139.89771695 11.62880928 151.55554776 11.65185547 163.21362305 C11.67864047 176.76924752 11.68913303 190.32472427 11.67379415 203.88037151 C11.67220149 205.32703107 11.67062963 206.77369066 11.66907883 208.22035027 C11.66792176 209.28788268 11.66792176 209.28788268 11.66674132 210.3769814 C11.66243275 215.38080318 11.6696925 220.38453088 11.68147659 225.38833809 C11.69700082 232.12807665 11.68587719 238.86727365 11.65700531 245.60699081 C11.6504012 248.07848646 11.65228051 250.55002172 11.66331863 253.02150154 C11.67701104 256.3989853 11.65981107 259.77497038 11.63491821 263.15235901 C11.64607182 264.12707785 11.65722543 265.10179669 11.66871703 266.10605246 C11.55982765 273.73866728 9.30698798 279.59906349 3.9375 285.12109375 C3.298125 285.55550781 2.65875 285.98992187 2 286.4375 C1.360625 286.88996094 0.72125 287.34242188 0.0625 287.80859375 C-7.11475959 291.95454863 -15.41906351 292.40860697 -23.4453125 290.3828125 C-29.2217485 287.82305851 -34.2846874 282.97964115 -36.79353774 277.15893883 C-38.96543297 271.15007626 -39.42602691 265.81175666 -39.38095093 259.45606995 C-39.3856309 258.43046414 -39.39031087 257.40485833 -39.39513266 256.34817356 C-39.40704541 252.93063107 -39.39763974 249.51349234 -39.38818359 246.09594727 C-39.39225096 243.6379676 -39.39759376 241.17998976 -39.40411377 238.72201538 C-39.41635694 232.75009359 -39.41458735 226.77832872 -39.40587585 220.80641312 C-39.39908663 215.95020143 -39.39818792 211.0940214 -39.4014473 206.23780632 C-39.401907 205.54529729 -39.40236669 204.85278825 -39.40284032 204.1392941 C-39.40379955 202.73223821 -39.40477219 201.32518233 -39.4057581 199.91812646 C-39.41430294 186.73882119 -39.40449245 173.55957863 -39.388357 160.38028365 C-39.3749576 149.08641746 -39.37728053 137.79264381 -39.39111328 126.4987793 C-39.40719027 113.36654528 -39.41347593 100.23436617 -39.40427649 87.10212368 C-39.4033209 85.70008561 -39.40237779 84.29804753 -39.4014473 82.89600945 C-39.40098447 82.20627978 -39.40052164 81.51655011 -39.40004479 80.80591955 C-39.39746103 75.95939617 -39.40181268 71.1129078 -39.40888596 66.26638985 C-39.41820875 59.73527459 -39.41151225 53.20430647 -39.39420319 46.6731987 C-39.39024441 44.2795217 -39.39136192 41.88582998 -39.39799118 39.49215889 C-39.40622071 36.21821402 -39.39586751 32.9448235 -39.38095093 29.6709137 C-39.39098918 28.2588729 -39.39098918 28.2588729 -39.40123022 26.81830603 C-39.32009873 17.60205716 -37.5404417 9.43654113 -31.00390625 2.6953125 C-22.34801264 -4.62760724 -9.91200143 -5.47944349 0 0 Z " fill="#000000" transform="translate(501,30)"/>
<path d="M0 0 C4.62 0 9.24 0 14 0 C13.99254257 1.81720047 13.98508514 3.63440094 13.97740173 5.50666809 C13.91293204 22.64769027 13.89528058 39.78819977 13.92484188 56.92932606 C13.93884582 65.74144032 13.93619952 74.55295193 13.89379883 83.36499023 C13.85686731 91.04928868 13.85174418 98.73285207 13.88417059 106.41718215 C13.90023387 110.4830078 13.90080799 114.5474556 13.86323357 118.61316872 C13.82829823 122.44785948 13.83620611 126.28017892 13.87562943 130.11480331 C13.88271649 131.51472887 13.87474222 132.91483337 13.84977531 134.31455421 C13.69411753 143.68667037 15.32102709 148.84843812 21.78315067 155.73745251 C22.51471095 156.48409318 23.24627123 157.23073385 24 158 C25.00290675 159.26112339 25.98964363 160.53578287 26.94140625 161.8359375 C27.37106689 162.41375977 27.80072754 162.99158203 28.2434082 163.58691406 C28.6787085 164.17698242 29.11400879 164.76705078 29.5625 165.375 C34.26842279 171.70086841 39.02574844 177.98508018 43.8125 184.25 C49.12132514 191.20126467 54.39102682 198.17972696 59.625 205.1875 C65.04797587 212.44474916 70.56356059 219.62260047 76.1418457 226.76098633 C80.12261249 231.85844167 84.05032312 236.98678659 87.890625 242.19140625 C89.411036 244.21580534 90.95151953 246.18933682 92.546875 248.15234375 C92.96735107 248.68102051 93.38782715 249.20969727 93.82104492 249.75439453 C94.98569167 251.21610063 96.16614513 252.66517275 97.34765625 254.11328125 C99.38868076 257.67904275 99.42691102 259.95154047 99 264 C97.375 266.4375 97.375 266.4375 95 268 C92.0625 268.5625 92.0625 268.5625 89 268 C85.31067983 264.66634959 82.21967893 260.92413281 79.1875 257 C78.72593506 256.40751465 78.26437012 255.8150293 77.78881836 255.20458984 C68.2571546 242.93119568 58.87560937 230.53991414 49.57397461 218.09155273 C44.8659628 211.7992125 40.09512171 205.55504558 35.30859375 199.32226562 C30.70912966 193.31017787 26.20826646 187.22907311 21.72216797 181.13208008 C20.75065041 179.8126025 20.75065041 179.8126025 19.75950623 178.46646881 C18.17268481 176.31121397 16.58619152 174.15571844 15 172 C14.99635437 173.20634094 14.99270874 174.41268188 14.98895264 175.65557861 C14.952037 187.01535867 14.8943019 198.37486678 14.81609726 209.73443985 C14.77656119 215.57476183 14.74440274 221.41493164 14.72900391 227.25537109 C14.7138778 232.89006086 14.67950408 238.52433245 14.63169098 244.15883636 C14.61683541 246.31021239 14.6089566 248.46164811 14.60811615 250.61307526 C14.60575733 253.62303941 14.57876483 256.63183769 14.54589844 259.64160156 C14.55344398 260.98056236 14.55344398 260.98056236 14.56114197 262.34657288 C14.45923717 268.36493062 14.45923717 268.36493062 12.15338135 271.5536499 C9.19849974 273.53833938 7.48898079 273.5814968 4 273 C1.84661865 271.5536499 1.84661865 271.5536499 0 269 C-0.60648731 265.8853909 -0.56373555 262.80680583 -0.54589844 259.64160156 C-0.55623611 258.69492111 -0.56657379 257.74824066 -0.57722473 256.77287292 C-0.60671102 253.64528452 -0.60815316 250.51834163 -0.609375 247.390625 C-0.62435268 245.22156536 -0.64107895 243.05251714 -0.65948486 240.88348389 C-0.70321666 235.17559289 -0.7231705 229.46785575 -0.73822021 223.75982666 C-0.7577702 217.93484375 -0.7997426 212.11002752 -0.83984375 206.28515625 C-0.91520911 194.85682217 -0.96546236 183.42852527 -1 172 C-1.38744385 172.52843506 -1.7748877 173.05687012 -2.17407227 173.60131836 C-3.96889285 176.04768523 -5.76568691 178.49259627 -7.5625 180.9375 C-8.17158203 181.76830078 -8.78066406 182.59910156 -9.40820312 183.45507812 C-13.51673339 189.04180975 -17.71600892 194.54685122 -22 200 C-26.77392848 206.09208389 -31.4330449 212.25112007 -36 218.5 C-41.23903501 225.66754123 -46.61317926 232.71265525 -52.08618164 239.70288086 C-56.13560181 244.87640488 -60.10100878 250.10242408 -64.03125 255.3671875 C-65.98775566 257.98362562 -67.95262025 260.59251377 -69.9375 263.1875 C-70.48277344 263.90292969 -71.02804688 264.61835938 -71.58984375 265.35546875 C-73.61880259 267.72165066 -74.75529093 267.97340119 -77.875 268.3125 C-81 268 -81 268 -83.375 266.4375 C-85.68940543 262.96589185 -85.53656257 261.14276218 -85 257 C-83.19155551 253.82280977 -80.90918945 251.10624902 -78.5625 248.3125 C-77.25836978 246.70112334 -75.95498308 245.08914464 -74.65234375 243.4765625 C-74.01796387 242.7021582 -73.38358398 241.92775391 -72.72998047 241.12988281 C-70.62188513 238.53448008 -68.61244002 235.87616154 -66.625 233.1875 C-62.59883629 227.78455203 -58.52319433 222.42056431 -54.4375 217.0625 C-53.75131592 216.16241211 -53.06513184 215.26232422 -52.3581543 214.33496094 C-48.88628053 209.78192116 -45.41241234 205.23040846 -41.9375 200.6796875 C-34.82721744 191.36330314 -27.73876343 182.03267186 -20.74975586 172.62475586 C-20.2006958 171.88878174 -19.65163574 171.15280762 -19.0859375 170.39453125 C-18.52503922 169.60729675 -17.96414093 168.82006226 -17.38624573 168.00897217 C-15.52188389 165.65807728 -13.75138266 163.77220705 -11.59423828 161.72798157 C-0.0175464 150.02661191 0.8183878 138.15821982 0.73861694 122.54818726 C0.70617019 120.19574439 0.66487278 117.84359663 0.62144423 115.49133253 C0.56133835 111.41947342 0.58185581 107.34796135 0.59317017 103.27578735 C0.6025966 95.59370346 0.54138956 87.9139378 0.45364916 80.2324158 C0.35714743 71.47523139 0.34113814 62.7184482 0.3312881 53.9608047 C0.30928424 35.9728505 0.18529994 17.98696332 0 0 Z " fill="#000000" transform="translate(307,212)"/>
<path d="M0 0 C10.56 0 21.12 0 32 0 C33.51013672 3.12855469 33.51013672 3.12855469 35.05078125 6.3203125 C36.46999909 9.25586505 37.89100843 12.19054784 39.3125 15.125 C39.8713237 16.27866058 39.8713237 16.27866058 40.44143677 17.45562744 C47.47994105 31.97320985 54.66944672 46.41259702 61.92895508 60.82080078 C62.32033661 61.59933411 62.71171814 62.37786743 63.11495972 63.17999268 C63.84511711 64.63219131 64.57695052 66.08354902 65.31082153 67.53387451 C70.72630291 78.31062723 70.72630291 78.31062723 70 84 C68.4375 86.375 68.4375 86.375 66 88 C62.5 88.5625 62.5 88.5625 59 88 C55.93631287 84.71676646 53.91807069 81.20169108 51.93359375 77.1953125 C51.37091797 76.06544922 50.80824219 74.93558594 50.22851562 73.77148438 C49.63128078 72.5561024 49.03428079 71.34060499 48.4375 70.125 C47.81610996 68.87026696 47.1943609 67.61571166 46.57226562 66.36132812 C42.21226023 57.54992857 37.93396112 48.69911233 33.72827148 39.81298828 C31.484241 35.07336038 29.19353438 30.36209985 26.84375 25.67382812 C26.30943359 24.60716919 25.77511719 23.54051025 25.22460938 22.44152832 C24.82048828 21.63582397 24.41636719 20.83011963 24 20 C23.99635437 20.91819519 23.99270874 21.83639038 23.98895264 22.78240967 C23.95109007 31.43447347 23.8942572 40.08615965 23.81609726 48.737957 C23.77658349 53.18599679 23.7444143 57.63383746 23.72900391 62.08203125 C23.71386278 66.37462525 23.67946317 70.66667197 23.63169098 74.95902252 C23.61685078 76.59682713 23.60895747 78.23470986 23.60811615 79.87258148 C23.60575254 82.16662479 23.57872522 84.45914813 23.54589844 86.75292969 C23.53257477 88.71150909 23.53257477 88.71150909 23.51898193 90.70965576 C22.9161616 94.53153524 22.08727654 95.73719894 19 98 C16 98.5 16 98.5 13 98 C9.91272346 95.73719894 9.0838384 94.53153524 8.48101807 90.70965576 C8.47213562 89.40393616 8.46325317 88.09821655 8.45410156 86.75292969 C8.44376389 86.03058136 8.43342621 85.30823303 8.42277527 84.56399536 C8.39334338 82.18306114 8.3918481 79.80297685 8.390625 77.421875 C8.37564351 75.76847715 8.35891643 74.11509428 8.34051514 72.46173096 C8.29682542 68.11506463 8.27683907 63.76860018 8.26177979 59.42175293 C8.24221445 54.98417211 8.20024383 50.54680949 8.16015625 46.109375 C8.08483662 37.40630707 8.03455594 28.70332478 8 20 C-4.48195555 44.76620864 -4.48195555 44.76620864 -16.51098633 69.75415039 C-23.41773868 84.41773868 -23.41773868 84.41773868 -27 88 C-34.16065574 88.68196721 -34.16065574 88.68196721 -37 86.375 C-38.48898901 82.83865111 -38.62774834 79.783437 -37.3364563 76.11486816 C-36.35724967 73.92331521 -35.3064073 71.78243191 -34.22265625 69.640625 C-33.62520599 68.42516495 -33.62520599 68.42516495 -33.01568604 67.18515015 C-31.70917651 64.53438218 -30.38603072 61.89230449 -29.0625 59.25 C-28.15613698 57.41895574 -27.25079164 55.5874074 -26.34643555 53.75537109 C-23.58049506 48.16211257 -20.79200827 42.58028057 -18 37 C-17.13335845 35.26535198 -16.26681909 33.5306529 -15.40039062 31.79589844 C-8.93859105 18.86333756 -8.93859105 18.86333756 -6.11938477 13.27441406 C-5.77937439 12.59883453 -5.43936401 11.923255 -5.08905029 11.22720337 C-4.1797409 9.42106932 -3.26829898 7.61600935 -2.35668945 5.81103516 C-0.93542375 3.01886483 -0.93542375 3.01886483 0 0 Z " fill="#000000" transform="translate(96,387)"/>
<path d="M0 0 C6.63821692 5.33739462 11.17292852 12.9448976 12.75 21.3125 C13.86896282 32.17058361 11.94697863 41.1726 5.625 50.125 C-0.21846862 57.13716234 -8.62671709 61.76973644 -17.73046875 62.6484375 C-30.40359785 62.78197943 -38.85969652 60.6970091 -48.0859375 51.734375 C-55.17741777 43.79806134 -57.60698995 34.96870363 -57.25 24.4375 C-56.16104736 14.6995097 -51.4928167 6.52834259 -44.3359375 -0.06640625 C-31.21383329 -10.26429622 -13.29397373 -8.9709334 0 0 Z M-34.10546875 13.89453125 C-37.88780441 18.18117834 -39.97502439 21.88354878 -40.625 27.625 C-40.02469534 33.52799579 -37.83119927 38.20037434 -33.375 42.1875 C-28.28724243 45.64717515 -24.4612091 46.87762943 -18.26953125 45.84765625 C-13.34933654 44.54385224 -10.03424236 42.32375989 -6.875 38.25 C-4.0807401 33.19883787 -3.71611489 28.97168212 -4.25 23.3125 C-5.96996789 18.60521945 -8.34780791 15.45121972 -12.25 12.3125 C-19.91585631 8.99107179 -27.26984733 8.06626457 -34.10546875 13.89453125 Z " fill="#000000" transform="translate(168.25,191.6875)"/>
<path d="M0 0 C1.01755371 -0.00788544 1.01755371 -0.00788544 2.05566406 -0.01593018 C4.29776035 -0.02913276 6.53914651 -0.02039179 8.78125 -0.01025391 C10.3391941 -0.01227458 11.89713727 -0.01518597 13.45507812 -0.01895142 C16.72014369 -0.0233751 19.98496305 -0.0169425 23.25 -0.00292969 C27.43676349 0.01416247 31.62295007 0.00432148 35.80969238 -0.01364708 C39.02673699 -0.02448387 42.24364465 -0.02103911 45.46069336 -0.0132637 C47.0044766 -0.01126139 48.54827225 -0.01372207 50.09204102 -0.02070236 C52.24919604 -0.02831541 54.40541478 -0.01671613 56.5625 0 C57.79033203 0.00238678 59.01816406 0.00477356 60.28320312 0.00723267 C63.28125 0.38818359 63.28125 0.38818359 65.17591858 1.7230072 C66.96068928 4.41175556 66.68931613 6.91966938 66.71484375 10.10302734 C66.7200856 10.75517715 66.72532745 11.40732697 66.73072815 12.07923889 C66.73714347 13.4568642 66.73581757 14.83454432 66.72729492 16.2121582 C66.71879137 18.31545061 66.74753361 20.41601943 66.77929688 22.51904297 C66.78090929 23.85953695 66.78033059 25.20003572 66.77734375 26.54052734 C66.77919678 27.75732178 66.7810498 28.97411621 66.78295898 30.2277832 C66.16947235 34.09230118 65.35015228 35.02543242 62.28125 37.38818359 C59.24560547 37.89611816 59.24560547 37.89611816 55.6484375 37.90576172 C54.99103577 37.912771 54.33363403 37.91978027 53.65631104 37.92700195 C51.48919083 37.9445679 49.32338284 37.93296595 47.15625 37.91943359 C45.64697011 37.92212896 44.13769192 37.92601175 42.62841797 37.93103027 C39.46760501 37.93692336 36.30724466 37.9283691 33.14648438 37.90966797 C29.09756443 37.88687779 25.04970502 37.90000199 21.00082397 37.92395782 C17.88492867 37.93842137 14.76928426 37.93380743 11.65338135 37.92344666 C10.1606636 37.92078087 8.66792296 37.92404397 7.17523193 37.93336487 C5.08756296 37.94354055 3.00160426 37.92801928 0.9140625 37.90576172 C-0.86653564 37.90098816 -0.86653564 37.90098816 -2.68310547 37.89611816 C-6.33778971 37.28460372 -7.5241012 36.32718906 -9.71875 33.38818359 C-10.22045898 30.2277832 -10.22045898 30.2277832 -10.21484375 26.54052734 C-10.21629898 25.88742081 -10.21775421 25.23431427 -10.21925354 24.56141663 C-10.21759854 23.1855115 -10.20608152 21.8095871 -10.18530273 20.43383789 C-10.15629058 18.32862819 -10.16470972 16.22593005 -10.17773438 14.12060547 C-10.17149797 12.78140054 -10.16310778 11.44220354 -10.15234375 10.10302734 C-10.14259521 8.88736084 -10.13284668 7.67169434 -10.12280273 6.41918945 C-9.71875 3.38818359 -9.71875 3.38818359 -8.61341858 1.7230072 C-5.77458299 -0.27699681 -3.44555712 0.00669781 0 0 Z " fill="#000000" transform="translate(83.71875,342.61181640625)"/>
<path d="M0 0 C0.7822998 0.0050354 1.56459961 0.0100708 2.37060547 0.01525879 C5.28390316 0.04135602 8.19667709 0.11116391 11.109375 0.17578125 C20.885625 0.33046875 20.885625 0.33046875 30.859375 0.48828125 C30.859375 20.94828125 30.859375 41.40828125 30.859375 62.48828125 C24.32125 62.52953125 17.783125 62.57078125 11.046875 62.61328125 C8.98590576 62.63148926 6.92493652 62.64969727 4.80151367 62.66845703 C3.16845968 62.67429811 1.53540279 62.67939458 -0.09765625 62.68359375 C-0.94598022 62.69382568 -1.7943042 62.70405762 -2.66833496 62.71459961 C-3.8859552 62.71496216 -3.8859552 62.71496216 -5.12817383 62.71533203 C-5.8321077 62.71977325 -6.53604156 62.72421448 -7.26130676 62.72879028 C-9.140625 62.48828125 -9.140625 62.48828125 -12.140625 60.48828125 C-13.1265812 57.53041265 -13.28392846 55.54142937 -13.31762695 52.45361328 C-13.33046219 51.42889923 -13.34329742 50.40418518 -13.35652161 49.34841919 C-13.36390854 48.24215179 -13.37129547 47.1358844 -13.37890625 45.99609375 C-13.386978 44.85800262 -13.39504974 43.7199115 -13.40336609 42.54733276 C-13.41720184 40.13817873 -13.42792627 37.72900514 -13.43579102 35.31982422 C-13.45302476 31.63471467 -13.49691935 27.95049734 -13.54101562 24.265625 C-13.55114076 21.92578785 -13.55965742 19.58594307 -13.56640625 17.24609375 C-13.58391434 16.14387482 -13.60142242 15.04165588 -13.61946106 13.90603638 C-13.60703601 9.52724504 -13.50950588 6.30048752 -11.68530273 2.28393555 C-7.86890867 -0.4091066 -4.5635784 -0.13844221 0 0 Z " fill="#000000" transform="translate(294.140625,142.51171875)"/>
<path d="M0 0 C0.87818893 -0.01929062 1.75637787 -0.03858124 2.66117859 -0.05845642 C6.68927911 -0.11625668 10.71720047 -0.16549989 14.74560547 -0.19628906 C16.86686505 -0.21784691 18.98803621 -0.25192329 21.10888672 -0.29882812 C24.17170836 -0.36594603 27.23268847 -0.39330988 30.29614258 -0.41235352 C31.23805954 -0.44018417 32.1799765 -0.46801483 33.1504364 -0.49668884 C39.00933254 -0.47850489 42.16623182 0.4733296 46.35472107 4.64451599 C47.04695518 5.41880699 47.04695518 5.41880699 47.75317383 6.20874023 C48.37893311 6.90773438 49.00469238 7.60672852 49.64941406 8.3269043 C50.34852905 9.26614746 50.34852905 9.26614746 51.06176758 10.22436523 C51.58061523 10.91788086 52.09946289 11.61139648 52.6340332 12.32592773 C53.14772461 13.02975586 53.66141602 13.73358398 54.19067383 14.45874023 C54.73143555 15.17803711 55.27219727 15.89733398 55.8293457 16.63842773 C59.75317383 21.93633979 59.75317383 21.93633979 59.75317383 24.20874023 C32.69317383 24.20874023 5.63317383 24.20874023 -22.24682617 24.20874023 C-20.27478232 20.26465252 -17.94295183 16.828089 -15.37182617 13.27124023 C-14.93741211 12.66344727 -14.50299805 12.0556543 -14.05541992 11.42944336 C-5.93140193 0.12168859 -5.93140193 0.12168859 0 0 Z " fill="#000000" transform="translate(115.246826171875,113.791259765625)"/>
<path d="M0 0 C16.5 0 33 0 50 0 C50 12 50 12 47 17 C41.86818884 19.56590558 33.74721833 18.31343912 28.03393555 18.35009766 C26.14155781 18.36665332 24.2492425 18.39393835 22.35717773 18.43212891 C19.62711186 18.48694472 16.8985111 18.50877818 14.16796875 18.5234375 C12.9036628 18.55744156 12.9036628 18.55744156 11.61381531 18.59213257 C7.66673022 18.57796458 5.42321796 18.2369106 1.92700195 16.27978516 C0 13 0 13 0 0 Z " fill="#000000" transform="translate(87,301)"/>
<path d="M0 0 C1.361188 -0.01962158 2.72283178 -0.0163252 4.08398438 0.00561523 C5.1656488 0.00343239 5.1656488 0.00343239 6.26916504 0.00120544 C7.79227747 0.00286387 9.31540675 0.01441914 10.83837891 0.03515625 C13.16966939 0.06410882 15.49868529 0.05576702 17.83007812 0.04272461 C19.31055793 0.04896236 20.79103055 0.0573536 22.27148438 0.06811523 C22.96842407 0.0651796 23.66536377 0.06224396 24.38342285 0.05921936 C28.69227505 0.14320264 29.46571711 0.28969172 32.67773438 3.50170898 C32.67773438 7.79170898 32.67773438 12.08170898 32.67773438 16.50170898 C19.80773437 16.50170898 6.93773437 16.50170898 -6.32226562 16.50170898 C-6.32226562 0.95475131 -6.32226562 0.95475131 0 0 Z " fill="#000000" transform="translate(32.322265625,121.498291015625)"/>
<path d="M0 0 C6.6 0 13.2 0 20 0 C20 6.93 20 13.86 20 21 C13.4 21 6.8 21 0 21 C0 14.07 0 7.14 0 0 Z " fill="#000000" transform="translate(43,235)"/>
<path d="M0 0 C3.11098819 2.67890649 4.07486646 5.0203882 5.25 8.9375 C5.25 13.22461902 4.69957279 15.29123912 2.25 18.8125 C-1.68872655 21.60243131 -4.95868433 22.24240191 -9.75 21.9375 C-13.43489434 20.41547842 -15.95815609 18.52118781 -17.75 14.9375 C-18.41786547 11.09176919 -18.62752866 7.55807017 -16.73046875 4.0546875 C-12.27882372 -1.51323105 -6.61912444 -2.55738899 0 0 Z " fill="#000000" transform="translate(152.75,209.0625)"/>
<path d="M0 0 C6.6 0 13.2 0 20 0 C20 6.6 20 13.2 20 20 C13.4 20 6.8 20 0 20 C0 13.4 0 6.8 0 0 Z " fill="#000000" transform="translate(43,183)"/>
<path d="M0 0 C4.62 0 9.24 0 14 0 C14 3.3 14 6.6 14 10 C9.38 10 4.76 10 0 10 C0 6.7 0 3.4 0 0 Z " fill="#000000" transform="translate(105,326)"/>
</svg>
