<?xml version="1.0" encoding="UTF-8"?>
<svg version="1.1" xmlns="http://www.w3.org/2000/svg" width="512" height="512">
<path d="M0 0 C1.90534341 -0.01059839 1.90534341 -0.01059839 3.84917861 -0.02141088 C5.26682936 -0.01915931 6.68447982 -0.01671278 8.10212994 -0.01409245 C9.601873 -0.01854249 11.10161372 -0.02385576 12.60135096 -0.02996117 C16.73318012 -0.04417974 20.8649342 -0.04580373 24.99678433 -0.04536426 C29.44884661 -0.04700908 33.90087765 -0.06006929 38.35292339 -0.07155704 C48.09250695 -0.09443211 57.83206876 -0.10233031 67.57167554 -0.10738349 C73.65050186 -0.11063753 79.72932183 -0.11715822 85.80814457 -0.12438488 C102.63127247 -0.1439539 119.45439447 -0.1603564 136.27753448 -0.16326141 C137.35463025 -0.16344898 138.43172601 -0.16363655 139.54146103 -0.16382981 C141.72509746 -0.16419606 143.90873388 -0.16455976 146.09237031 -0.16492092 C147.17636415 -0.16510373 148.26035799 -0.16528654 149.37720013 -0.16547489 C150.46251354 -0.16565544 151.54782695 -0.16583599 152.66602864 -0.16602201 C170.25725794 -0.16956465 187.84836489 -0.19659132 205.43955175 -0.23397278 C223.49050036 -0.27202499 241.54138822 -0.29141866 259.59237784 -0.29172093 C269.73127737 -0.29230619 279.87003097 -0.30084223 290.00889301 -0.32971859 C298.64139624 -0.35419121 307.27370031 -0.36154329 315.90622882 -0.34647106 C320.31209346 -0.33928528 324.71756452 -0.34023101 329.12338543 -0.36288166 C333.1558864 -0.38341474 337.1876898 -0.38092511 341.22018274 -0.36000682 C342.67981849 -0.35650097 344.13950399 -0.36146823 345.59907446 -0.37571125 C357.86672218 -0.48771849 357.86672218 -0.48771849 361.8079052 2.61098289 C364.4870559 5.90440345 365.083694 8.24254846 365.13989544 12.3608923 C365.15273067 13.18217113 365.16556591 14.00344997 365.17879009 14.84961605 C365.18987049 16.17620487 365.18987049 16.17620487 365.20117474 17.52959347 C365.20924648 18.44335247 365.21731823 19.35711147 365.22563457 20.29856014 C365.23946355 22.23272975 365.25019101 24.16692363 365.2580595 26.10112667 C365.27526807 29.05106265 365.319164 31.99987643 365.36328411 34.94951534 C365.37341189 36.83036649 365.38192772 38.71122715 365.38867474 40.59209347 C365.40618282 41.47041332 365.42369091 42.34873318 365.44172955 43.25366879 C365.42245607 48.7265061 364.72786797 51.99154772 360.96289349 56.26006222 C356.96289349 58.26006222 356.96289349 58.26006222 340.96289349 58.26006222 C340.96289349 140.76006222 340.96289349 223.26006222 340.96289349 308.26006222 C336.34289349 308.26006222 331.72289349 308.26006222 326.96289349 308.26006222 C326.96289349 296.71006222 326.96289349 285.16006222 326.96289349 273.26006222 C326.30289349 273.26006222 325.64289349 273.26006222 324.96289349 273.26006222 C324.69210979 273.84545773 324.4213261 274.43085323 324.14233685 275.033988 C322.97117587 277.2444301 321.69818489 278.96575113 320.09179974 280.87724972 C319.52412884 281.56053341 318.95645794 282.2438171 318.37158489 282.94780636 C317.11763273 284.433413 315.85797722 285.91422053 314.59326458 287.39067745 C311.5637073 290.96239404 308.76005214 294.41567921 306.43554974 298.49053097 C301.93623197 306.05069849 301.93623197 306.05069849 297.96289349 308.26006222 C290.2127037 309.93395178 281.7684831 309.48329971 273.96289349 308.26006222 C272.96289349 307.26006222 272.96289349 307.26006222 272.83869499 305.53926843 C272.83907471 304.78324526 272.83945443 304.02722208 272.83984566 303.24828911 C272.83785461 302.37893256 272.83586356 301.50957601 272.83381218 300.61387533 C272.83672502 299.64794205 272.83963786 298.68200876 272.84263897 297.68680477 C272.84135733 296.16031633 272.84135733 296.16031633 272.8400498 294.60298973 C272.83839194 291.16501402 272.84392137 287.72708623 272.8493681 284.28911495 C272.84964993 281.83579669 272.84949231 279.38247834 272.84892559 276.92916012 C272.84869727 271.6329495 272.85154867 266.33675404 272.85716343 261.04054737 C272.86527626 253.38303928 272.86789343 245.72553716 272.86915142 238.06802524 C272.87134228 225.64546193 272.8780033 213.22290517 272.88745403 200.80034542 C272.89662727 188.73003325 272.90369707 176.65972286 272.90796185 164.58940792 C272.90822984 163.83831767 272.90849784 163.08722741 272.90877396 162.31337684 C272.91085327 156.43971812 272.91281023 150.56605935 272.91472852 144.69240057 C272.92416924 115.88161511 272.94428588 87.07084604 272.96289349 58.26006222 C208.94289349 58.26006222 144.92289349 58.26006222 78.96289349 58.26006222 C78.97449505 76.22314816 78.98609661 94.18623409 78.99804974 112.69365597 C79.00315598 124.03675502 79.00801705 135.37985337 79.01172161 146.72295284 C79.01367962 152.6784379 79.01570014 158.63392292 79.01782513 164.58940792 C79.01808888 165.33587898 79.01835262 166.08235005 79.01862437 166.85144144 C79.02297919 178.91844882 79.03086604 190.98545145 79.04004628 203.05245601 C79.04938247 215.42722634 79.05494902 227.80199418 79.05698198 240.17676789 C79.05835728 247.81882127 79.06270825 255.46086126 79.07080995 263.10291053 C79.07669767 268.95294002 79.07735254 274.80296256 79.07600117 280.65299511 C79.07627769 283.06012397 79.07828538 285.4672533 79.08209896 287.87437916 C79.0870294 291.14520685 79.08589419 294.41597589 79.083148 297.68680477 C79.08606084 298.65273806 79.08897369 299.61867134 79.09197479 300.61387533 C79.08998375 301.48323188 79.0879927 302.35258842 79.08594131 303.24828911 C79.08632104 304.00431229 79.08670076 304.76033546 79.08709198 305.53926843 C78.96289349 307.26006222 78.96289349 307.26006222 77.96289349 308.26006222 C70.02713836 309.64175026 58.94408507 311.24346744 51.76416302 306.94316769 C47.90068071 303.37886024 45.19598029 299.03026558 42.46338177 294.57500362 C39.88425562 290.59594829 36.7727308 287.06103662 33.71289349 283.44756222 C32.61815629 282.13368935 31.52910361 280.81504756 30.44726849 279.49053097 C29.9906181 278.93776485 29.5339677 278.38499874 29.06347942 277.81548214 C27.96289349 276.26006222 27.96289349 276.26006222 26.96289349 273.26006222 C26.30289349 273.26006222 25.64289349 273.26006222 24.96289349 273.26006222 C24.96289349 284.81006222 24.96289349 296.36006222 24.96289349 308.26006222 C20.34289349 308.26006222 15.72289349 308.26006222 10.96289349 308.26006222 C10.96289349 225.76006222 10.96289349 143.26006222 10.96289349 58.26006222 C5.68289349 58.26006222 0.40289349 58.26006222 -5.03710651 58.26006222 C-11.95477623 53.64828241 -11.95477623 53.64828241 -13.03710651 50.26006222 C-13.30453205 48.22493649 -13.30453205 48.22493649 -13.32763386 46.04570675 C-13.34039356 45.22450344 -13.35315327 44.40330013 -13.36629963 43.55721188 C-13.36852528 42.67798061 -13.37075092 41.79874935 -13.37304401 40.89287472 C-13.37970081 39.98053066 -13.38635761 39.06818661 -13.39321613 38.12819576 C-13.40333101 36.20000375 -13.40803351 34.27177682 -13.40771198 32.34355831 C-13.4120808 29.40237514 -13.44840019 26.46269832 -13.48632526 23.52178097 C-13.49219464 21.645484 -13.49616322 19.76917992 -13.49804401 17.89287472 C-13.51241505 17.01769192 -13.52678608 16.14250912 -13.5415926 15.24080563 C-13.50086093 9.76309671 -12.73136826 6.57769408 -9.03710651 2.26006222 C-5.53284403 -0.07611277 -4.14392138 0.00734048 0 0 Z M24.96289349 58.26006222 C24.96289349 72.12006222 24.96289349 85.98006222 24.96289349 100.26006222 C25.62289349 100.26006222 26.28289349 100.26006222 26.96289349 100.26006222 C28.68624984 98.23276294 30.30101039 96.19472999 31.90039349 94.07256222 C35.70764746 89.11763079 39.58652782 84.25707463 43.65039349 79.51006222 C52.40787157 69.32692697 52.40787157 69.32692697 59.96289349 58.26006222 C48.41289349 58.26006222 36.86289349 58.26006222 24.96289349 58.26006222 Z M291.96289349 58.26006222 C296.67768013 64.56923891 296.67768013 64.56923891 301.52539349 70.76006222 C302.19441692 71.59279659 302.86344036 72.42553097 303.55273724 73.28349972 C305.41553122 75.58406538 307.2829677 77.88051799 309.15429974 80.17412472 C310.00302654 81.21536495 310.00302654 81.21536495 310.86889935 82.27764034 C311.98405854 83.64478338 313.10067171 85.01074221 314.218997 86.37529659 C317.51821634 90.41816552 320.66013786 94.52957738 323.67920208 98.78691769 C324.10282024 99.27305538 324.52643841 99.75919308 324.96289349 100.26006222 C325.62289349 100.26006222 326.28289349 100.26006222 326.96289349 100.26006222 C326.96289349 86.40006222 326.96289349 72.54006222 326.96289349 58.26006222 C315.41289349 58.26006222 303.86289349 58.26006222 291.96289349 58.26006222 Z M62.96289349 77.26006222 C61.06883787 79.26052545 59.28994102 81.27442173 57.52539349 83.38506222 C56.99043255 84.01742794 56.45547161 84.64979366 55.90429974 85.30132198 C51.40765763 90.65102694 47.07415016 96.12084496 42.78711224 101.63896847 C39.65516259 105.66863203 36.4674909 109.65297742 33.27539349 113.63506222 C32.7455888 114.29627071 32.21578411 114.95747921 31.66992474 115.63872433 C30.43476947 117.17958873 29.19891315 118.71989112 27.96289349 120.26006222 C29.4354176 124.93902937 32.18440566 128.11380199 35.40039349 131.69756222 C39.6082667 136.49003878 43.68012706 141.34462007 47.58789349 146.38506222 C51.18700085 151.00736858 54.81009883 155.60530764 58.52539349 160.13506222 C59.33105755 161.12248409 60.13672161 162.10990597 60.96679974 163.12724972 C61.62551067 163.83107784 62.28422161 164.53490597 62.96289349 165.26006222 C63.62289349 165.26006222 64.28289349 165.26006222 64.96289349 165.26006222 C64.96289349 136.22006222 64.96289349 107.18006222 64.96289349 77.26006222 C64.30289349 77.26006222 63.64289349 77.26006222 62.96289349 77.26006222 Z M286.96289349 77.26006222 C286.96289349 106.30006222 286.96289349 135.34006222 286.96289349 165.26006222 C290.98001571 163.25150111 292.20789195 162.0562446 294.90039349 158.63506222 C295.68543255 157.64892941 296.47047161 156.66279659 297.27929974 155.64678097 C297.70742962 155.10456905 298.1355595 154.56235714 298.57666302 154.00371456 C300.58728241 151.47468256 302.63550667 148.97693772 304.68164349 146.47661495 C306.34455629 144.43939969 307.99624067 142.39348281 309.64648724 140.34599972 C311.834852 137.63426019 314.05744234 134.95724789 316.31054974 132.29912472 C317.34076673 131.05716037 318.37072655 129.81498263 319.40039349 128.57256222 C319.89136517 128.00883907 320.38233685 127.44511593 320.88818645 126.86431026 C322.39838133 125.10119437 322.39838133 125.10119437 323.96289349 122.26006222 C323.25361427 117.54631076 319.62086315 114.27202213 316.52539349 110.82256222 C312.31752027 106.03008566 308.24565991 101.17550437 304.33789349 96.13506222 C300.73878612 91.51275586 297.11568815 86.9148168 293.40039349 82.38506222 C292.59472942 81.39764034 291.78906536 80.41021847 290.95898724 79.39287472 C290.3002763 78.68904659 289.64156536 77.98521847 288.96289349 77.26006222 C288.30289349 77.26006222 287.64289349 77.26006222 286.96289349 77.26006222 Z M24.96289349 142.26006222 C24.96289349 171.63006222 24.96289349 201.00006222 24.96289349 231.26006222 C25.62289349 231.26006222 26.28289349 231.26006222 26.96289349 231.26006222 C28.56457074 229.55824309 28.56457074 229.55824309 30.27539349 227.26006222 C31.34660442 225.88721066 31.34660442 225.88721066 32.43945599 224.48662472 C32.83938763 223.97261105 33.23931927 223.45859737 33.65137005 222.92900753 C36.11116542 219.79885839 38.63561305 216.72105974 41.15039349 213.63506222 C41.69639202 212.96184933 42.24239056 212.28863644 42.8049345 211.59502316 C45.73445264 207.98436977 48.68107475 204.38952141 51.65429974 200.81474972 C52.25024944 200.09368038 52.84619915 199.37261105 53.46020794 198.62969112 C54.60554964 197.24455995 55.75622015 195.86381327 56.91284466 194.48808956 C57.42951702 193.86112179 57.94618938 193.23415401 58.47851849 192.58818722 C59.16349407 191.76689327 59.16349407 191.76689327 59.86230755 190.92900753 C61.14402036 188.98539867 61.72409038 187.58076046 61.96289349 185.26006222 C60.22830426 182.86482074 58.51906003 180.79494067 56.52539349 178.63506222 C55.39917047 177.3705254 54.27417173 176.10489717 53.15039349 174.83818722 C52.59867474 174.22265987 52.04695599 173.60713253 51.47851849 172.97295284 C49.58567724 170.83374953 47.79469465 168.62719387 46.02539349 166.38506222 C41.8599739 161.11003825 37.61089687 155.90500954 33.35376263 150.70390987 C32.81485394 150.04310421 32.27594524 149.38229855 31.72070599 148.70146847 C31.23746868 148.11051388 30.75423138 147.51955929 30.25635052 146.91069698 C29.08470042 145.41550516 28.01658481 143.8405992 26.96289349 142.26006222 C26.30289349 142.26006222 25.64289349 142.26006222 24.96289349 142.26006222 Z M324.96289349 142.26006222 C323.23953713 144.28736149 321.62477658 146.32539445 320.02539349 148.44756222 C316.21816226 153.40246405 312.33971938 158.26346682 308.27539349 163.01006222 C304.32040492 167.63736394 300.45544818 172.32172459 296.69336224 177.10771847 C295.15658828 179.01914612 293.5503525 180.82236752 291.90039349 182.63506222 C289.76245469 184.95791813 289.76245469 184.95791813 290.03711224 187.05693722 C291.37543101 190.24179709 293.56775548 192.5838595 295.83789349 195.13506222 C299.84691823 199.74833053 303.72151292 204.4271075 307.46289349 209.26006222 C311.67570585 214.68980773 316.03435143 219.97044612 320.52344036 225.17412472 C323.8641468 229.06256884 323.8641468 229.06256884 324.96289349 231.26006222 C325.62289349 231.26006222 326.28289349 231.26006222 326.96289349 231.26006222 C326.96289349 201.89006222 326.96289349 172.52006222 326.96289349 142.26006222 C326.30289349 142.26006222 325.64289349 142.26006222 324.96289349 142.26006222 Z M62.96289349 208.26006222 C61.06883787 210.26052545 59.28994102 212.27442173 57.52539349 214.38506222 C56.99043255 215.01742794 56.45547161 215.64979366 55.90429974 216.30132198 C51.40765763 221.65102694 47.07415016 227.12084496 42.78711224 232.63896847 C39.65516259 236.66863203 36.4674909 240.65297742 33.27539349 244.63506222 C32.7455888 245.29627071 32.21578411 245.95747921 31.66992474 246.63872433 C30.43476947 248.17958873 29.19891315 249.71989112 27.96289349 251.26006222 C29.47634256 256.11951014 32.26650422 259.22993167 35.58789349 262.94756222 C36.6867717 264.20300411 37.78442663 265.45951777 38.88086224 266.71709347 C39.41372845 267.32633663 39.94659466 267.9355798 40.49560833 268.56328487 C42.35294886 270.71112459 44.13633007 272.9101514 45.90039349 275.13506222 C46.81498333 276.28748409 46.81498333 276.28748409 47.74804974 277.46318722 C49.0096169 279.05627733 50.27117748 280.64937265 51.5327177 282.24248409 C53.29503778 284.46159199 55.06591593 286.67366135 56.83789349 288.88506222 C57.69628826 289.97150021 57.69628826 289.97150021 58.57202435 291.07988644 C59.11093304 291.75036007 59.64984173 292.4208337 60.20508099 293.11162472 C60.68831829 293.71828976 61.1715556 294.3249548 61.66943645 294.95000362 C62.09627728 295.38232296 62.5231181 295.8146423 62.96289349 296.26006222 C63.62289349 296.26006222 64.28289349 296.26006222 64.96289349 296.26006222 C64.96289349 267.22006222 64.96289349 238.18006222 64.96289349 208.26006222 C64.30289349 208.26006222 63.64289349 208.26006222 62.96289349 208.26006222 Z M286.96289349 208.26006222 C286.96289349 237.30006222 286.96289349 266.34006222 286.96289349 296.26006222 C290.46647822 294.50826985 291.50468848 293.95630338 293.74023724 291.12724972 C294.2473222 290.49375607 294.75440716 289.86026241 295.27685833 289.20757198 C296.08050823 288.18167965 296.08050823 288.18167965 296.90039349 287.13506222 C298.05770676 285.68304892 299.21526605 284.2312317 300.37304974 282.77959347 C300.96489056 282.03274288 301.55673138 281.2858923 302.16650677 280.51640987 C304.47622193 277.61529713 306.81902027 274.74212385 309.16601849 271.8711462 C310.80237936 269.86607843 312.42829107 267.8529126 314.05273724 265.83818722 C315.80499892 263.66877457 317.58113379 261.54389265 319.40429974 259.43193722 C320.06301067 258.65334347 320.72172161 257.87474972 321.40039349 257.07256222 C321.95597942 256.43963253 322.51156536 255.80670284 323.08398724 255.15459347 C324.20330098 253.23926257 324.20330098 253.23926257 323.46289349 250.92412472 C321.54481953 247.51754546 319.12222454 244.71636044 316.52539349 241.82256222 C312.31752027 237.03008566 308.24565991 232.17550437 304.33789349 227.13506222 C300.73878612 222.51275586 297.11568815 217.9148168 293.40039349 213.38506222 C292.59472942 212.39764034 291.78906536 211.41021847 290.95898724 210.39287472 C290.3002763 209.68904659 289.64156536 208.98521847 288.96289349 208.26006222 C288.30289349 208.26006222 287.64289349 208.26006222 286.96289349 208.26006222 Z " fill="#000000" transform="translate(80.03710651397705,62.7399377822876)"/>
<path d="M0 0 C158.4 0 316.8 0 480 0 C480 57 480 57 477 63 C472.07243425 67.44682763 469.0504908 68.14733938 462.58667374 68.13422108 C461.80951173 68.13657331 461.03234973 68.13892554 460.23163736 68.14134905 C457.59990676 68.14806198 454.96822528 68.14758014 452.33648682 68.14717102 C450.44162792 68.15046822 448.54676974 68.15419348 446.65191245 68.1583125 C441.42328982 68.16835699 436.19467868 68.17205322 430.96604776 68.17470181 C425.33537206 68.1785976 419.70470552 68.1881764 414.07403564 68.19691467 C400.46552841 68.2166993 386.8570204 68.22674768 373.24850237 68.23564246 C366.84571892 68.24002197 360.4429363 68.24538963 354.0401535 68.25063133 C332.76575496 68.26764537 311.49135737 68.28216564 290.21695328 68.28938007 C288.84066887 68.28985483 287.46438447 68.29033072 286.08810006 68.29080774 C285.405575 68.29104411 284.72304993 68.29128049 284.01984229 68.29152403 C280.5617308 68.29272525 277.1036193 68.29394069 273.64550781 68.29516602 C272.61609184 68.29552624 272.61609184 68.29552624 271.56587959 68.29589374 C249.31032652 68.30378836 227.05482671 68.32722295 204.7992969 68.35972196 C181.27897651 68.39400531 157.75869879 68.41372867 134.23834968 68.41702431 C121.41332405 68.41919268 108.58837671 68.42798909 95.76337433 68.45348549 C84.84351611 68.47514381 73.92375517 68.48326694 63.00387791 68.47351871 C57.42951115 68.4689599 51.85534533 68.47095177 46.28100586 68.49028015 C41.18089091 68.50781197 36.08112497 68.50699568 30.98100683 68.49138286 C29.13305402 68.48899154 27.28507767 68.49340858 25.437161 68.50521151 C22.92990981 68.52023752 20.42391015 68.51072319 17.91669083 68.49498463 C16.83419314 68.51031794 16.83419314 68.51031794 15.72982681 68.52596101 C10.70677399 68.45688896 7.88920031 67.11608234 4 64 C-9.89286547 48.19087722 0 8.4886637 0 0 Z " fill="#000000" transform="translate(16,381)"/>
<path d="M0 0 C1.13134872 -0.0127597 2.26269745 -0.02551941 3.42832947 -0.03866577 C5.268937 -0.04200424 5.268937 -0.04200424 7.14672852 -0.04541016 C9.02957298 -0.05539536 9.02957298 -0.05539536 10.95045471 -0.06558228 C13.60952906 -0.07572404 16.26819475 -0.08126215 18.92724609 -0.08007812 C22.33508546 -0.07987484 25.74209171 -0.10718041 29.14973354 -0.14162254 C32.39870101 -0.16920353 35.64765979 -0.16803982 38.89672852 -0.17041016 C40.7342997 -0.19196671 40.7342997 -0.19196671 42.60899353 -0.21395874 C43.74349442 -0.20780548 44.8779953 -0.20165222 46.046875 -0.1953125 C47.04677963 -0.19816254 48.04668427 -0.20101257 49.07688904 -0.20394897 C51.58813477 0.29052734 51.58813477 0.29052734 53.2225399 2.02324867 C54.79483641 4.63371129 54.95897507 6.03843742 54.94889832 9.0614624 C54.95302231 10.01776047 54.9571463 10.97405853 54.96139526 11.95933533 C54.95060944 13.00158768 54.93982361 14.04384003 54.92871094 15.11767578 C54.92936806 16.77178215 54.92936806 16.77178215 54.93003845 18.45930481 C54.92794747 22.10635039 54.90460106 25.75293701 54.88110352 29.39990234 C54.87550868 31.92767078 54.87123805 34.45544248 54.86824036 36.98321533 C54.85795402 42.95784787 54.83430684 48.93228322 54.80419189 54.90683675 C54.76146962 63.57084686 54.74576213 72.23491311 54.72676849 80.89900208 C54.697671 93.02964701 54.64018944 105.1598613 54.58813477 117.29052734 C34.12813477 117.29052734 13.66813477 117.29052734 -7.41186523 117.29052734 C-7.49219257 88.63151863 -7.49219257 88.63151863 -7.51237297 74.51455307 C-7.52347232 66.86791259 -7.5375817 59.22131555 -7.56274414 51.57470703 C-7.58477403 44.87686921 -7.59642063 38.17908813 -7.60161972 31.48121262 C-7.60532674 28.9206404 -7.61256515 26.36007088 -7.62332535 23.79951859 C-7.63775719 20.22436119 -7.63984666 16.64940039 -7.63891602 13.07421875 C-7.64610657 12.00607437 -7.65329712 10.93792999 -7.66070557 9.8374176 C-7.65795624 8.86704056 -7.65520691 7.89666351 -7.65237427 6.8968811 C-7.65421785 6.05067514 -7.65606144 5.20446918 -7.65796089 4.33262062 C-7.09557967 -0.33399938 -3.90576666 0.02980254 0 0 Z M12.21313477 22.97802734 C10.23988435 27.00042243 9.72891351 29.89797785 10.58813477 34.29052734 C12.39982364 37.98358543 13.98300135 39.86418335 17.33813477 42.22802734 C21.35193872 43.54023248 24.61181354 43.61069761 28.58813477 42.29052734 C31.54308326 40.45884221 34.00646431 38.45386825 35.58813477 35.29052734 C36.09850563 31.23672445 36.48088018 27.11306155 34.64672852 23.36865234 C31.42879252 19.29327259 28.18763417 17.6237965 23.15063477 16.97802734 C18.32802999 17.56614988 15.40981096 19.36073586 12.21313477 22.97802734 Z M13.58813477 73.29052734 C10.62198921 76.84990201 10.10808203 79.86517946 10.30297852 84.36474609 C10.73510545 87.2830828 11.71460061 89.02936544 13.58813477 91.29052734 C16.78595586 93.64681657 19.60047295 95.1050547 23.58813477 95.29052734 C28.05326939 94.37070961 30.92566978 92.98611558 34.08813477 89.66552734 C36.00636318 85.34951342 36.67367979 81.93022718 35.58813477 77.29052734 C33.25907923 73.36982883 30.94612717 70.74319148 26.58813477 69.29052734 C20.88808146 68.75278647 17.98085921 69.59664543 13.58813477 73.29052734 Z " fill="#000000" transform="translate(438.411865234375,253.70947265625)"/>
<path d="M0 0 C1.49985695 0.00427505 1.49985695 0.00427505 3.03001404 0.00863647 C4.16451492 0.00248322 5.29901581 -0.00367004 6.46789551 -0.01000977 C7.69294296 0.00436127 8.91799042 0.0187323 10.18016052 0.03353882 C11.43634689 0.03445526 12.69253326 0.0353717 13.98678589 0.03631592 C16.64448529 0.04236325 19.30079996 0.05599565 21.95823669 0.08285522 C25.36707084 0.11687024 28.77531262 0.12448281 32.18429661 0.12296486 C35.43297667 0.12363883 38.68153212 0.14131052 41.93016052 0.15853882 C43.15723221 0.16076447 44.38430389 0.16299011 45.64855957 0.1652832 C47.34558266 0.18442276 47.34558266 0.18442276 49.07688904 0.20394897 C50.07599808 0.21157257 51.07510712 0.21919617 52.10449219 0.22705078 C54.48875427 0.49447632 54.48875427 0.49447632 56.48875427 2.49447632 C56.73484993 4.5365696 56.73484993 4.5365696 56.72926331 7.10083008 C56.73201263 8.07120712 56.73476196 9.04158417 56.7375946 10.04136658 C56.73040405 11.10951096 56.7232135 12.17765533 56.71580505 13.27816772 C56.71609711 14.40012039 56.71638916 15.52207306 56.71669006 16.67802429 C56.71529243 20.40077343 56.69971071 24.12332448 56.68406677 27.84603882 C56.68033819 30.42150768 56.67749049 32.99697795 56.67549133 35.57244873 C56.66862523 41.66750785 56.65284906 47.76248474 56.63279235 53.85751283 C56.60826519 61.47607027 56.5973014 69.09463927 56.58641052 76.71322632 C56.5669179 90.30703209 56.52685585 103.90068168 56.48875427 117.49447632 C36.02875427 117.49447632 15.56875427 117.49447632 -5.51124573 117.49447632 C-5.63157216 89.45396206 -5.63157216 89.45396206 -5.6577301 77.52182007 C-5.675679 69.37283429 -5.69648923 61.22394869 -5.73756409 53.07504272 C-5.77065537 46.50688151 -5.78808814 39.93880014 -5.79587746 33.37055206 C-5.80143006 30.86186265 -5.81227261 28.35317931 -5.8284359 25.84453583 C-5.85014227 22.33676758 -5.85321544 18.82944911 -5.8518219 15.32162476 C-5.86260773 14.27937241 -5.87339355 13.23712006 -5.88450623 12.1632843 C-5.88038223 11.20698624 -5.87625824 10.25068817 -5.87200928 9.26541138 C-5.87477466 8.43579769 -5.87754004 7.60618401 -5.88038921 6.75143051 C-5.26271121 2.9749289 -3.8005329 0.74834314 0 0 Z M15.11375427 22.55697632 C12.73190588 26.86262533 12.5960958 30.68489405 13.48875427 35.49447632 C15.18332211 38.89055695 17.57685247 40.92761844 20.80125427 42.93197632 C25.88494559 43.99600473 29.95836587 43.4592864 34.36375427 40.68197632 C37.73550546 37.21105597 38.39030316 35.51180449 38.86375427 30.61947632 C38.73431891 26.27530195 37.3968364 23.78520083 34.48875427 20.49447632 C27.1083674 15.78359108 21.64472687 16.88534222 15.11375427 22.55697632 Z M15.17625427 74.61947632 C12.80925254 78.65214593 12.72369347 81.92827132 13.48875427 86.49447632 C15.37795552 90.92999229 17.43294084 92.79026935 21.80125427 94.55697632 C25.39921678 95.56298557 26.52812483 95.4835042 30.30125427 94.43197632 C33.88949096 92.25089128 36.59254747 90.28688992 38.48875427 86.49447632 C38.8361698 81.1963895 39.02403414 77.73681217 35.48875427 73.49447632 C32.20644692 70.73435423 30.20257107 69.58213803 25.92625427 69.05697632 C21.06000475 69.67631717 18.73128455 71.35269174 15.17625427 74.61947632 Z " fill="#000000" transform="translate(24.511245727539063,253.50552368164063)"/>
<path d="M0 0 C2.14291382 1.53509521 2.14291382 1.53509521 4 4 C4.3948651 6.74691497 4.54768705 9.09343071 4.51757812 11.83862305 C4.5245874 12.6245433 4.53159668 13.41046356 4.53881836 14.22019958 C4.55641759 16.81773262 4.54476364 19.41417463 4.53125 22.01171875 C4.53394572 23.82290353 4.53782882 25.63408689 4.54284668 27.44526672 C4.54874546 31.24416868 4.54017169 35.04269452 4.52148438 38.84155273 C4.49877585 43.69255898 4.51176372 48.54267601 4.53577423 53.3936491 C4.55029167 57.13681115 4.5455977 60.87976573 4.53526306 64.62293434 C4.53260793 66.4101656 4.53582252 68.19741613 4.54518127 69.98462486 C4.62760413 90.16205023 4.62760413 90.16205023 -2.75 97.875 C-9.07751785 102.01222321 -14.00870229 103.66611501 -21.609375 102.5703125 C-28.11945879 101.0172533 -32.18594296 97.33967986 -36 92 C-39.06687654 86.74249737 -38.84416215 80.33390622 -37.3828125 74.5625 C-35.0989032 68.57987034 -31.50985269 65.16788245 -26 62 C-23 61 -23 61 -11 61 C-10.67 46.48 -10.34 31.96 -10 17 C-15.548125 19.000625 -21.09625 21.00125 -26.8125 23.0625 C-28.51897705 23.67746338 -30.2254541 24.29242676 -31.98364258 24.92602539 C-43.00712408 28.90216663 -54.00864091 32.93594864 -65 37 C-65.00364563 37.92184082 -65.00729126 38.84368164 -65.01104736 39.79345703 C-65.04899599 48.50313614 -65.1059267 57.21244341 -65.18390274 65.92185974 C-65.2233242 70.39892999 -65.25553869 74.87580513 -65.27099609 79.35302734 C-65.286198 83.67805413 -65.32070563 88.00254431 -65.36830902 92.32733154 C-65.38308653 93.97299522 -65.39103892 95.61873552 -65.39188385 97.26446533 C-65.41050654 115.35765249 -65.41050654 115.35765249 -72.03515625 122.05859375 C-72.70417969 122.51363281 -73.37320313 122.96867187 -74.0625 123.4375 C-74.73410156 123.91058594 -75.40570313 124.38367188 -76.09765625 124.87109375 C-81.04969823 127.80977985 -86.42701462 127.53439586 -92 127 C-98.19764844 125.24435215 -102.54179591 121.35171256 -106 116 C-108.45948673 110.33248709 -108.53595787 104.92699036 -107 99 C-104.54169374 93.72041608 -101.31382104 89.2382557 -95.99609375 86.64453125 C-90.64989972 84.91826508 -85.408538 84.54514244 -80 86 C-80.00666183 85.30953079 -80.01332367 84.61906158 -80.02018738 83.90766907 C-80.08655646 76.72145239 -80.13180738 69.53532279 -80.16479492 62.34887695 C-80.17818702 59.66680446 -80.19906077 56.98494508 -80.22631836 54.30297852 C-80.26270611 50.44801749 -80.279728 46.59338267 -80.29296875 42.73828125 C-80.31619453 40.93959343 -80.31619453 40.93959343 -80.33988953 39.10456848 C-80.34011612 37.98378403 -80.34034271 36.86299957 -80.34057617 35.70825195 C-80.34723801 34.72452103 -80.35389984 33.7407901 -80.36076355 32.72724915 C-79.92235079 29.41299848 -79.06377415 27.62642366 -77 25 C-74.70358276 23.7177887 -74.70358276 23.7177887 -71.97216797 22.78344727 C-70.94614471 22.42279678 -69.92012146 22.0621463 -68.86300659 21.69056702 C-67.75063629 21.31959396 -66.63826599 20.94862091 -65.4921875 20.56640625 C-64.33816437 20.16598618 -63.18414124 19.7655661 -61.99514771 19.35301208 C-58.29390489 18.0729131 -54.58487156 16.81734491 -50.875 15.5625 C-48.43042959 14.72233072 -45.98641219 13.88055058 -43.54296875 13.03710938 C-38.83030499 11.41192516 -34.11355567 9.79953858 -29.39355469 8.19580078 C-25.47238221 6.85879019 -21.56625446 5.49242727 -17.67675781 4.06591797 C-16.50525681 3.63846535 -16.50525681 3.63846535 -15.31008911 3.20237732 C-13.92116339 2.69202085 -12.53497177 2.17411691 -11.15255737 1.64637756 C-7.30661911 0.23652126 -4.08523776 -0.58294486 0 0 Z " fill="#000000" transform="translate(302,178)"/>
</svg>
