<?xml version="1.0" encoding="UTF-8"?>
<svg version="1.1" xmlns="http://www.w3.org/2000/svg" width="512" height="512">
<path d="M0 0 C6.07910106 4.49968981 11.36087155 10.21244575 16.69506836 15.54980469 C17.52368378 16.37506149 18.35229919 17.2003183 19.20602417 18.05058289 C21.91992934 20.75505609 24.63011121 23.46322149 27.33984375 26.171875 C28.75313308 27.58276232 30.16642338 28.99364867 31.57983881 30.40440965 C36.01046689 34.82693476 40.43828075 39.25226395 44.86450195 43.67919922 C49.42822437 48.24352497 53.99752521 52.8022137 58.56940931 57.35836291 C62.50432843 61.2802221 66.43539852 65.20591107 70.363473 69.13462567 C72.70571649 71.47712412 75.0499405 73.8175777 77.3971386 76.15511322 C80.00640671 78.754634 82.60932242 81.36035325 85.21069336 83.96777344 C85.9893425 84.74080307 86.76799164 85.5138327 87.57023621 86.31028748 C88.27525269 87.01949844 88.98026917 87.72870941 89.70664978 88.45941162 C90.32215667 89.07437374 90.93766356 89.68933586 91.57182217 90.3229332 C94.87492631 94.20167026 94.13383536 98.98710287 94.11352539 103.78588867 C94.11367142 104.68365524 94.11381744 105.58142181 94.1139679 106.50639343 C94.11327064 109.47694303 94.10548697 112.44743009 94.09765625 115.41796875 C94.09579141 117.47634344 94.09436782 119.53471858 94.09336853 121.59309387 C94.08954859 127.01330794 94.07972273 132.43349524 94.06866455 137.85369873 C94.05843921 143.38358193 94.0538685 148.91346945 94.04882812 154.44335938 C94.03810002 165.29558657 94.02050742 176.14778687 94 187 C103.24 187 112.48 187 122 187 C121.98428955 184.23923096 121.9685791 181.47846191 121.95239258 178.6340332 C121.90268943 169.51376713 121.86954807 160.39349509 121.84456348 151.27312946 C121.82890578 145.74329274 121.80766538 140.21359476 121.77368164 134.68383789 C121.74109225 129.34758833 121.72314777 124.01147224 121.71536827 118.67513084 C121.70982403 116.63895758 121.69899756 114.60279165 121.68280983 112.56667519 C121.66104133 109.71526919 121.65803286 106.86441514 121.65942383 104.01293945 C121.64324509 102.74950211 121.64324509 102.74950211 121.6267395 101.46054077 C121.63086349 100.67956528 121.63498749 99.89858978 121.63923645 99.09394836 C121.63647107 98.42011769 121.63370569 97.74628702 121.63085651 97.05203724 C122.45188217 92.48802548 125.51739903 89.23002668 128.6789856 86.01994324 C129.41896286 85.26421021 130.15894012 84.50847717 130.92134094 83.72984314 C131.72863144 82.91560379 132.53592194 82.10136444 133.36767578 81.26245117 C134.22172501 80.39365326 135.07577423 79.52485535 135.95570374 78.62973022 C138.77953091 75.76143482 141.61132438 72.90121448 144.4453125 70.04296875 C145.42304298 69.05582395 146.40073317 68.06863923 147.37838364 67.08141518 C151.4456022 62.97574498 155.51543311 58.87269716 159.59256172 54.77686596 C165.42458625 48.91801627 171.2406462 43.04430653 177.03523839 37.14842433 C181.11810497 32.99665822 185.21812276 28.8623368 189.33128154 24.74058133 C191.78475495 22.28111196 194.23021426 19.81476777 196.65768814 17.32961082 C199.36571623 14.55820802 202.10886258 11.82328692 204.85595703 9.09057617 C205.65110214 8.26621567 206.44624725 7.44185516 207.26548767 6.59251404 C213.46389426 0.51909411 213.46389426 0.51909411 218.70726013 0.38122559 C222.25584839 0.73483709 225.49307791 1.52652723 228.82788086 2.80981445 C229.88889008 3.20965546 230.94989929 3.60949646 232.0430603 4.02145386 C233.17224884 4.4642569 234.30143738 4.90705994 235.46484375 5.36328125 C236.6712149 5.82251984 237.87758606 6.28175842 239.12051392 6.75491333 C242.38825445 7.99904764 245.64877981 9.26113713 248.90825272 10.52674484 C252.3180802 11.84708148 255.7343566 13.1505066 259.15014648 14.45532227 C264.7290934 16.58839817 270.30455606 18.73033781 275.87792969 20.87792969 C283.39016009 23.77139158 290.91497677 26.63050756 298.4453125 29.4765625 C300.68888378 30.3251131 302.93245475 31.17366451 305.17602539 32.0222168 C306.24499054 32.42644867 307.31395569 32.83068054 308.41531372 33.24716187 C316.0512564 36.13525077 323.68541799 39.02722425 331.30352783 41.96209717 C333.15875841 42.67619653 335.01506456 43.38750579 336.87225342 44.09649658 C339.67792796 45.17023818 342.47816314 46.2571146 345.27734375 47.34765625 C346.12833145 47.67116562 346.97931915 47.99467499 347.85609436 48.32798767 C348.63569016 48.63491043 349.41528595 48.94183319 350.21850586 49.25805664 C350.90311386 49.5230043 351.58772186 49.78795197 352.29307556 50.06092834 C354 51 354 51 356 54 C356.25299966 56.28518957 356.25299966 56.28518957 356.25726891 59.02756405 C356.2637178 60.07260568 356.27016669 61.1176473 356.276811 62.19435686 C356.2721652 63.92224666 356.2721652 63.92224666 356.26742554 65.68504333 C356.27195665 66.9057665 356.27648776 68.12648967 356.28115618 69.38420445 C356.2916511 72.7788445 356.29312185 76.17327324 356.29076743 79.56791461 C356.29036011 83.22647481 356.30139026 86.88500314 356.31088257 90.54354858 C356.32751135 97.7133929 356.33299294 104.88320433 356.33410732 112.05306631 C356.33505683 117.8791482 356.33916224 123.70521923 356.34550858 129.53129768 C356.36312546 146.0392371 356.37234665 162.54715048 356.37084763 179.05509936 C356.37076772 179.94546393 356.3706878 180.83582851 356.37060547 181.75317383 C356.37052371 182.6446219 356.37044195 183.53606997 356.37035771 184.45453162 C356.36954449 198.90760328 356.38868992 213.3605708 356.4168822 227.81361233 C356.44558299 242.64401682 356.45942407 257.47437046 356.45769465 272.30480343 C356.45702982 280.63497855 356.46256294 288.96504447 356.48405075 297.29519463 C356.50222564 304.38661215 356.50664039 311.47787098 356.4930319 318.56930166 C356.48648366 322.18908047 356.48645126 325.80855451 356.5037384 329.42830467 C356.52226752 333.34833679 356.50996314 337.26791949 356.49447632 341.18797302 C356.50476344 342.33766884 356.51505057 343.48736465 356.52564943 344.67189974 C356.51645184 345.71954911 356.50725425 346.76719849 356.49777794 347.84659481 C356.49843004 349.20431371 356.49843004 349.20431371 356.49909532 350.58946127 C355.83969077 353.77426412 354.49358453 354.98158429 352 357 C349.72742844 357.49219131 349.72742844 357.49219131 347.19110107 357.48101807 C345.74403275 357.48926605 345.74403275 357.48926605 344.26773071 357.49768066 C343.21612762 357.48329956 342.16452454 357.46891846 341.08105469 357.45410156 C339.96856354 357.45468567 338.85607239 357.45526978 337.70986938 357.45587158 C334.03022128 357.45308337 330.35138172 357.42195497 326.671875 357.390625 C324.12168826 357.38316527 321.57149579 357.37747108 319.02130127 357.37347412 C312.99347463 357.35975855 306.96599542 357.32822882 300.938308 357.28807616 C294.07502537 357.24335073 287.2117288 357.22136954 280.3483367 357.20129442 C266.23206366 357.15949561 252.11604773 357.08914848 238 357 C238.02618408 357.9472998 238.05236816 358.89459961 238.0793457 359.87060547 C238.16524413 363.43049721 238.22757111 366.98926695 238.2746582 370.54980469 C238.29959759 372.0822095 238.33356266 373.61449792 238.37719727 375.14648438 C238.67440228 385.85985106 237.96381287 394.11533846 230.7890625 402.62109375 C230.07492187 403.22050781 229.36078125 403.81992187 228.625 404.4375 C227.91601562 405.05496094 227.20703125 405.67242187 226.4765625 406.30859375 C220.31034203 410.51990836 215.24741199 411.44176922 207.9493866 411.39440918 C207.06024687 411.40050028 206.17110714 411.40659139 205.25502378 411.41286707 C202.28731619 411.42946387 199.32003923 411.42472595 196.35229492 411.41992188 C194.21972713 411.42726417 192.08716331 411.43585086 189.9546051 411.44558716 C184.16937349 411.46779609 178.38428434 411.47073409 172.59901595 411.46883965 C167.76563101 411.4687199 162.93227621 411.47728565 158.09889966 411.48561716 C146.6931099 411.50484942 135.28739333 411.50773585 123.8815918 411.50097656 C112.12485229 411.49433733 100.36842664 411.51719605 88.61175078 411.55429029 C78.50960776 411.5850048 68.4075656 411.59634536 58.30537683 411.59245348 C52.27550669 411.59038763 46.24588075 411.59584013 40.21605492 411.62034607 C34.54338022 411.64263898 28.87121503 411.64071371 23.19853783 411.62041855 C21.12091678 411.61701294 19.04326126 411.62207812 16.9656868 411.63640213 C-4.15728779 411.77194502 -4.15728779 411.77194502 -13.62109375 403.7890625 C-14.22050781 403.07492187 -14.81992188 402.36078125 -15.4375 401.625 C-16.36369141 400.56152344 -16.36369141 400.56152344 -17.30859375 399.4765625 C-21.20387149 393.77308424 -22.44771496 388.95062367 -22.29296875 382.09765625 C-22.28872391 381.3750914 -22.28447906 380.65252655 -22.28010559 379.9080658 C-22.26346418 377.62581307 -22.22584248 375.34448067 -22.1875 373.0625 C-22.17243423 371.50457015 -22.15874916 369.9466263 -22.14648438 368.38867188 C-22.11360882 364.59209943 -22.0619309 360.79620513 -22 357 C-22.58383831 357.00368717 -23.16767662 357.00737434 -23.769207 357.01117325 C-37.97408433 357.0995036 -52.1789205 357.16569942 -66.38401413 357.20724869 C-73.25350557 357.22787562 -80.12281371 357.25599838 -86.9921875 357.30175781 C-93.61870162 357.34587844 -100.24507506 357.3691229 -106.87174225 357.37950897 C-109.40277356 357.38691266 -111.93379418 357.40136989 -114.46474457 357.42292023 C-118.00374583 357.45186152 -121.54195456 357.45595974 -125.08105469 357.45410156 C-126.13265778 357.46848267 -127.18426086 357.48286377 -128.26773071 357.49768066 C-129.23244293 357.49218201 -130.19715515 357.48668335 -131.19110107 357.48101807 C-132.0280891 357.48470524 -132.86507713 357.48839241 -133.72742844 357.49219131 C-136.86929778 356.81172834 -137.97226229 355.45887238 -140 353 C-140.50139666 350.59061193 -140.50139666 350.59061193 -140.50336456 347.84938812 C-140.51379555 346.80235545 -140.52422654 345.75532277 -140.53497362 344.67656183 C-140.52605073 343.52754814 -140.51712785 342.37853444 -140.50793457 341.19470215 C-140.51729451 339.36233576 -140.51729451 339.36233576 -140.52684355 337.49295187 C-140.54005601 334.10032895 -140.5352772 330.70858937 -140.52289867 327.31601977 C-140.51386306 323.65814313 -140.52781047 320.00034471 -140.53881836 316.34248352 C-140.55662418 309.17606991 -140.55275448 302.00982368 -140.5411678 294.84340346 C-140.53214183 289.02019667 -140.53090584 283.19703685 -140.53526306 277.37382507 C-140.53587599 276.54568891 -140.53648893 275.71755275 -140.53712043 274.86432156 C-140.53839931 273.18208761 -140.53969616 271.49985367 -140.5410108 269.81761974 C-140.55242263 254.03562465 -140.53929345 238.25372243 -140.51780933 222.47174257 C-140.49993779 208.92398629 -140.50304173 195.37636709 -140.52148438 181.82861328 C-140.54288045 166.10389463 -140.55132394 150.37925741 -140.53903532 134.65452623 C-140.5377611 132.97840914 -140.53650361 131.30229204 -140.53526306 129.62617493 C-140.53433741 128.38908567 -140.53433741 128.38908567 -140.53339306 127.12700471 C-140.52993636 121.30939666 -140.53577537 115.49184018 -140.54518127 109.67424011 C-140.55638864 102.58648926 -140.55338796 95.49891564 -140.5320583 88.41118515 C-140.5215307 84.79343653 -140.51745478 81.17598364 -140.53065491 77.55823708 C-140.54473392 73.64042267 -140.52794714 69.72309472 -140.50793457 65.80529785 C-140.51685746 64.65628416 -140.52578034 63.50727046 -140.53497362 62.32343817 C-140.52454263 61.27640549 -140.51411164 60.22937282 -140.50336456 59.15061188 C-140.50271515 58.24600802 -140.50206574 57.34140416 -140.50139666 56.40938807 C-139.83520271 53.20809079 -138.50086261 52.0438222 -136 50 C-133.62949453 48.88183704 -131.35682776 47.92711719 -128.90625 47.03125 C-127.82954041 46.62235535 -127.82954041 46.62235535 -126.7310791 46.2052002 C-124.32431831 45.29360052 -121.91219429 44.39711259 -119.5 43.5 C-117.77428648 42.84885585 -116.04903747 42.19647947 -114.32421875 41.54296875 C-110.56921345 40.12097298 -106.81242864 38.7038115 -103.0546875 37.2890625 C-93.45824311 33.66888442 -83.89230324 29.96908456 -74.32232666 26.27966309 C-71.00208568 25.00080334 -67.68069154 23.72498704 -64.35888672 22.45019531 C-54.9183235 18.82630161 -45.48029609 15.19741391 -36.06646729 11.5045166 C-32.43378092 10.07967347 -28.79850478 8.66150649 -25.16308594 7.24365234 C-23.48878288 6.58816817 -21.8158918 5.92906436 -20.14453125 5.26611328 C-17.86277836 4.36113584 -15.57658765 3.46838938 -13.2890625 2.578125 C-12.30373032 2.1812851 -12.30373032 2.1812851 -11.29849243 1.77642822 C-7.34517804 0.25480154 -4.19104542 -0.82409329 0 0 Z M-17.05517578 23.45849609 C-17.9028804 23.78144653 -18.75058502 24.10439697 -19.62397766 24.43713379 C-21.02053841 24.97485413 -21.02053841 24.97485413 -22.4453125 25.5234375 C-23.42271896 25.89658081 -24.40012543 26.26972412 -25.40715027 26.6541748 C-27.53235196 27.46579099 -29.65699799 28.27886329 -31.78115845 29.09320068 C-37.45174605 31.26691472 -43.12639895 33.4299654 -48.80078125 35.59375 C-50.55508705 36.26312088 -50.55508705 36.26312088 -52.34483337 36.9460144 C-66.64802745 42.39891539 -80.98512437 47.76102416 -95.32275391 53.12255859 C-96.27998856 53.48071655 -97.23722321 53.83887451 -98.22346497 54.20788574 C-99.97737685 54.86401402 -101.73149281 55.51959721 -103.48588562 56.17443848 C-110.34206259 58.73856594 -117.16687306 61.37187425 -124 64 C-124 155.41 -124 246.82 -124 341 C-90.34 341 -56.68 341 -22 341 C-21.97421875 331.57566406 -21.9484375 322.15132813 -21.921875 312.44140625 C-21.89670517 306.46677616 -21.87053377 300.49217819 -21.83984375 294.51757812 C-21.79132972 285.03686759 -21.74687588 275.5562639 -21.72900391 266.07543945 C-21.71596766 259.16989499 -21.68895297 252.26456832 -21.64538693 245.35914654 C-21.62281613 241.70517771 -21.60708666 238.05147705 -21.60811615 234.39743233 C-21.60900488 230.31095404 -21.57867607 226.22526306 -21.54589844 222.13891602 C-21.55344398 220.33600601 -21.55344398 220.33600601 -21.56114197 218.49667358 C-21.4754822 211.58222792 -20.84039905 205.88666619 -17 200 C-15.94297022 198.97675266 -14.87352434 197.96618893 -13.79257202 196.96824646 C-8.86591447 191.52213374 -10.22196494 183.40547381 -10.31884766 176.50805664 C-10.32054137 174.82231711 -10.31958762 173.13657315 -10.31619263 171.45083618 C-10.31447433 166.88695644 -10.34969691 162.32402694 -10.39163637 157.76036763 C-10.42919836 152.98648884 -10.43267304 148.21258714 -10.43978882 143.43858337 C-10.45842162 134.40399362 -10.50763741 125.36984059 -10.56788576 116.33544296 C-10.63499966 106.04775098 -10.66795217 95.76003791 -10.69805837 85.47218144 C-10.76073785 64.31454407 -10.86624242 43.15729957 -11 22 C-13.35853029 22 -14.85031105 22.61345268 -17.05517578 23.45849609 Z M227 22 C226.8364011 44.15733831 226.713001 66.31457688 226.6373148 88.47239685 C226.60123653 98.76093753 226.55205829 109.0491027 226.47192383 119.33740234 C226.40210312 128.30582304 226.35698048 137.27397177 226.34138054 146.24265671 C226.33226296 150.99066592 226.31087089 155.73789715 226.2598896 160.48565674 C226.21226099 164.9575572 226.19774199 169.4283617 226.20824623 173.90049171 C226.20632554 175.53877539 226.19246806 177.17709692 226.16556168 178.81516075 C225.75037269 188.94755965 225.75037269 188.94755965 230.36216736 197.6003418 C231.57366158 198.73475491 232.78615419 199.86810349 234 201 C237.8183888 207.37026374 237.44087341 213.78631492 237.43237305 221.00366211 C237.4425647 222.30190918 237.45275635 223.60015625 237.46325684 224.93774414 C237.49073741 228.48062764 237.50009907 232.02335063 237.50611091 235.56632686 C237.51551801 239.27528489 237.54172321 242.98412413 237.56611633 246.69300842 C237.60972098 253.70865477 237.63830492 260.72427797 237.66143972 267.74001843 C237.69359248 277.2257838 237.74905533 286.71141137 237.80318546 296.19707203 C237.88779595 311.13134029 237.94135424 326.06555493 238 341 C271.66 341 305.32 341 340 341 C340 249.59 340 158.18 340 64 C323.5 57.73 307 51.46 290 45 C248.97332671 29.39202647 248.97332671 29.39202647 242.92578125 26.99414062 C242.09989502 26.66798767 241.27400879 26.34183472 240.4230957 26.00579834 C238.84564822 25.38153443 237.26986425 24.75304507 235.69604492 24.11968994 C232.65466566 22.91752902 230.30177474 22 227 22 Z M6 30 C6 81.81 6 133.62 6 187 C29.43 187 52.86 187 77 187 C78.94895682 173.87702409 80.56930364 161.07219016 81.375 147.875 C81.46466097 146.41490068 81.46466097 146.41490068 81.55613327 144.92530441 C82.89395314 120.20215157 80.33260709 100.36591591 63.73246002 81.17372894 C56.8821945 73.56209645 49.62650348 66.46048626 42.0625 59.5625 C41.22748711 58.79992638 40.39247421 58.03735275 39.5321579 57.25167084 C24.02380866 40.71842128 24.02380866 40.71842128 6 30 Z M173.9375 59.5625 C173.10748222 60.31943398 172.27746445 61.07636795 171.42229462 61.85623932 C150.76190993 80.89842743 135.69445321 98.08939058 134.1994381 127.04114723 C133.97035105 134.00814159 134.19791571 140.92007322 134.625 147.875 C134.68485455 148.85540882 134.74470909 149.83581764 134.80637741 150.84593582 C135.60675265 163.03243871 137.19961253 174.877391 139 187 C162.43 187 185.86 187 210 187 C210 135.19 210 83.38 210 30 C200.40665119 30 180.79059052 53.30393069 173.9375 59.5625 Z M-3.4375 208.875 C-5.92570742 213.85141485 -6.12667986 218.24703303 -6.14044189 223.76678467 C-6.14341302 224.43440929 -6.14638414 225.10203391 -6.1494453 225.78988957 C-6.15809441 228.01976995 -6.15963732 230.24959639 -6.16113281 232.47949219 C-6.16576368 234.08137119 -6.1707887 235.6832491 -6.17617798 237.28512573 C-6.18927825 241.63240233 -6.19574232 245.9796635 -6.20018864 250.32695675 C-6.20312323 253.04523614 -6.20722877 255.76351135 -6.21169281 258.48178864 C-6.22536157 266.99326328 -6.23503124 275.50472832 -6.2388947 284.01621318 C-6.24337388 293.82920165 -6.26091788 303.64205073 -6.2898953 313.45499682 C-6.31153723 321.04838429 -6.32160032 328.64173261 -6.32293582 336.23515058 C-6.32398206 340.76652977 -6.32985125 345.29777782 -6.34775543 349.82912445 C-6.36427957 354.09403947 -6.36637064 358.35872535 -6.35761642 362.62366104 C-6.35684837 364.18407176 -6.36115812 365.74449502 -6.37107468 367.30487442 C-6.65923198 379.03854848 -6.65923198 379.03854848 -3 390 C2.7836746 394.92227626 7.76403635 395.14870464 15.09588623 395.14044189 C15.91853698 395.14341302 16.74118773 395.14638414 17.58876729 395.1494453 C20.34922753 395.15812662 23.10964437 395.15964007 25.87011719 395.16113281 C27.84785047 395.16576139 29.82558286 395.17078611 31.80331421 395.17617798 C37.17947576 395.1893003 42.55562482 395.19574664 47.93179989 395.20018864 C51.29079036 395.20311969 54.64977742 395.20722457 58.00876617 395.21169281 C68.51876457 395.22536743 79.02875517 395.23503421 89.53876185 395.2388947 C101.6700396 395.24337521 113.80120466 395.260923 125.93244815 395.2898953 C135.31007326 395.31151368 144.68766667 395.32159907 154.06531644 395.32293582 C159.66586974 395.32398375 165.26631711 395.32988911 170.86684418 395.34775543 C176.13635926 395.36423869 181.40568881 395.36639031 186.67522049 395.35761642 C188.60693738 395.35684619 190.53866425 395.36118702 192.47035599 395.37107468 C195.11251716 395.38380345 197.75402213 395.37791237 200.3961792 395.36749268 C201.15611954 395.37554908 201.91605989 395.38360548 202.69902873 395.39190602 C208.06688785 395.34257819 212.10320429 394.24439894 217 392 C221.75457911 386.39203489 222.12265801 381.36607176 222.14044189 374.23321533 C222.14341302 373.56559071 222.14638414 372.89796609 222.1494453 372.21011043 C222.15809441 369.98023005 222.15963732 367.75040361 222.16113281 365.52050781 C222.16576368 363.91862881 222.1707887 362.3167509 222.17617798 360.71487427 C222.18927825 356.36759767 222.19574232 352.0203365 222.20018864 347.67304325 C222.20312323 344.95476386 222.20722877 342.23648865 222.21169281 339.51821136 C222.22536157 331.00673672 222.23503124 322.49527168 222.2388947 313.98378682 C222.24337388 304.17079835 222.26091788 294.35794927 222.2898953 284.54500318 C222.31153723 276.95161571 222.32160032 269.35826739 222.32293582 261.76484942 C222.32398206 257.23347023 222.32985125 252.70222218 222.34775543 248.17087555 C222.36427957 243.90596053 222.36637064 239.64127465 222.35761642 235.37633896 C222.35684837 233.81592824 222.36115812 232.25550498 222.37107468 230.69512558 C222.65923198 218.96145152 222.65923198 218.96145152 219 208 C213.2163254 203.07772374 208.23596365 202.85129536 200.90411377 202.85955811 C200.08146302 202.85658698 199.25881227 202.85361586 198.41123271 202.8505547 C195.65077247 202.84187338 192.89035563 202.84035993 190.12988281 202.83886719 C188.15214953 202.83423861 186.17441714 202.82921389 184.19668579 202.82382202 C178.82052424 202.8106997 173.44437518 202.80425336 168.06820011 202.79981136 C164.70920964 202.79688031 161.35022258 202.79277543 157.99123383 202.78830719 C147.48123543 202.77463257 136.97124483 202.76496579 126.46123815 202.7611053 C114.3299604 202.75662479 102.19879534 202.739077 90.06755185 202.7101047 C80.68992674 202.68848632 71.31233333 202.67840093 61.93468356 202.67706418 C56.33413026 202.67601625 50.73368289 202.67011089 45.13315582 202.65224457 C39.86364074 202.63576131 34.59431119 202.63360969 29.32477951 202.64238358 C27.39306262 202.64315381 25.46133575 202.63881298 23.52964401 202.62892532 C20.88748284 202.61619655 18.24597787 202.62208763 15.6038208 202.63250732 C14.84388046 202.62445092 14.08394011 202.61639452 13.30097127 202.60809398 C6.81302859 202.66771479 0.93600011 203.71651269 -3.4375 208.875 Z " fill="#000000" transform="translate(148,77)"/>
<path d="M0 0 C0.99 -0.33 1.98 -0.66 3 -1 C13.42319286 -1.98119562 22.12073527 -0.03985296 30.6875 6.0625 C43.66705486 16.97554254 49.19891131 32.58878968 51 49 C52.5744424 68.00739878 48.39336204 87.16396287 36 102 C29.51155653 108.78811054 22.02879613 113.69583318 12.49169922 114.17700195 C11.09613666 114.20381097 9.70043275 114.22383232 8.3046875 114.23828125 C7.55720245 114.246353 6.80971741 114.25442474 6.0395813 114.26274109 C4.45772597 114.27654837 2.87584127 114.28728548 1.29394531 114.29516602 C-0.30803285 114.30664567 -1.90997397 114.32703358 -3.51171875 114.35668945 C-17.14233867 114.60874327 -26.45958422 113.31221048 -36.6796875 103.4765625 C-50.68106931 88.53232669 -53.65682027 70.52671152 -53.3125 50.78515625 C-52.65088804 33.93886176 -46.45433586 18.56915166 -34 7 C-23.57445348 -1.41727541 -12.93760137 -2.32213358 0 0 Z M-5.26171875 23.71875 C-14.45306397 35.78109968 -16.28073095 50.33874237 -15 65 C-13.5187097 75.57706438 -9.75451908 85.59264569 -1.86328125 93.0078125 C2.42060304 96.22259477 6.32499995 97.99934555 11.73828125 97.57421875 C19.00712147 95.72876191 23.91574016 90.74718074 27.71875 84.50390625 C34.8404446 70.58620431 36.34985783 54.49925157 32.375 39.375 C29.3761535 30.29368745 24.33165216 22.36125897 16.125 17.1875 C7.36425252 13.85841596 0.82357053 17.35011022 -5.26171875 23.71875 Z M-27 25 C-36.69495045 38.1012844 -37.62614581 53.86438294 -35.52734375 69.52734375 C-34.02781621 76.50418745 -31.00864638 82.13621953 -27 88 C-25.45772252 84.91544503 -26.82181586 82.89426411 -27.875 79.6875 C-33.22049753 63.29588694 -32.34069149 46.25800863 -27 30 C-26.63958962 28.33897825 -26.29555575 26.67377887 -26 25 C-26.33 25 -26.66 25 -27 25 Z M-26 88 C-25 90 -25 90 -25 90 Z " fill="#000000" transform="translate(434,131)"/>
<path d="M0 0 C4.4681344 0.3959676 8.07578446 0.44269336 12.4375 -0.5 C24.11662734 -0.71429591 32.99510403 2.46388455 41.55859375 10.421875 C56.00336326 26.39821051 58.57034256 45.98788928 57.64453125 66.65332031 C56.52024453 82.11226271 49.95868926 96.96822584 38.4375 107.5 C29.12345398 114.52003098 19.00209497 116.49408358 7.4375 115 C6.72851562 114.89816406 6.01953125 114.79632813 5.2890625 114.69140625 C2.85409288 114.43968998 0.80751071 114.93868167 -1.5625 115.5 C-11.63108102 116.28969263 -19.7793944 112.59239352 -27.5625 106.5 C-28.16835938 106.04367188 -28.77421875 105.58734375 -29.3984375 105.1171875 C-40.21542104 95.76857277 -44.89086271 79.12020992 -46.5625 65.5 C-47.66770781 45.60625941 -43.65053263 26.9814846 -30.7890625 11.34375 C-22.39825548 2.16523456 -12.20449883 -1.08374964 0 0 Z M-20.25 24.4375 C-29.91747787 37.77729212 -31.25431895 54.23098227 -29.06640625 70.09765625 C-26.81916978 79.93725094 -21.97055051 90.14951499 -13.3125 95.875 C-9.08183968 98.03611653 -5.20780382 98.48985501 -0.5625 97.5 C7.32836492 94.22979256 11.85296899 88.03122967 15.4375 80.5 C21.3004078 65.18358701 21.29943516 49.11524842 15.40625 33.82421875 C12.34564617 27.01023929 7.81298843 20.5566812 0.89453125 17.3046875 C-7.71932186 14.48361637 -14.67803149 17.86233543 -20.25 24.4375 Z M30.4375 25.5 C30.63085938 26.18964844 30.82421875 26.87929687 31.0234375 27.58984375 C31.28382812 28.52957031 31.54421875 29.46929687 31.8125 30.4375 C32.06773438 31.35402344 32.32296875 32.27054688 32.5859375 33.21484375 C32.86695312 34.29894531 33.14796875 35.38304687 33.4375 36.5 C33.61394043 37.15943604 33.79038086 37.81887207 33.97216797 38.49829102 C35.47293351 44.54382769 35.82138554 50.34628121 35.8125 56.5625 C35.81306396 57.56385986 35.81362793 58.56521973 35.81420898 59.59692383 C35.68522204 68.40680288 34.08308453 76.11700322 31.4375 84.5 C31.0925855 85.83038449 30.75283947 87.16229678 30.4375 88.5 C37.01417263 83.0977332 39.07648833 74.57189656 40.4375 66.5 C41.8589257 51.91554752 40.37320162 37.57527245 31.4375 25.5 C31.1075 25.5 30.7775 25.5 30.4375 25.5 Z M29.4375 88.5 C30.4375 90.5 30.4375 90.5 30.4375 90.5 Z " fill="#000000" transform="translate(73.5625,130.5)"/>
<path d="M0 0 C0.66 -0.0103125 1.32 -0.020625 2 -0.03125 C5.01964678 0.77084368 6.09669179 2.02298336 8 4.5 C8.37407324 7.354035 8.50724398 9.81566763 8.45410156 12.66503906 C8.45468567 13.4849231 8.45526978 14.30480713 8.45587158 15.14953613 C8.4530883 17.85533211 8.42198549 20.56002185 8.390625 23.265625 C8.38316346 25.1432027 8.37747012 27.02078819 8.37347412 28.89837646 C8.35821091 33.83709258 8.31892313 38.7753372 8.2746582 43.71386719 C8.23372035 48.75449241 8.21546628 53.79519391 8.1953125 58.8359375 C8.15242959 68.72416535 8.08416988 78.61204345 8 88.5 C8.68271973 88.48114746 9.36543945 88.46229492 10.06884766 88.44287109 C11.415354 88.42087646 11.415354 88.42087646 12.7890625 88.3984375 C13.67803223 88.37958496 14.56700195 88.36073242 15.48291016 88.34130859 C20.40976759 88.65192521 22.99408808 91.36880968 26.1328125 94.8984375 C29.1782221 99.60968759 28.57842643 105.08857658 28.5 110.5 C28.51546875 111.56734375 28.5309375 112.6346875 28.546875 113.734375 C28.5168237 119.77468717 28.31589114 123.89638279 24 128.5 C19.3169381 132.27913013 15.62064392 133.09568859 9.75 133.03125 C8.97366211 133.0350769 8.19732422 133.03890381 7.39746094 133.04284668 C5.7636586 133.04555654 4.1298122 133.03826031 2.49609375 133.02148438 C0.00682104 133.00005871 -2.47956618 133.02131466 -4.96875 133.046875 C-6.56250632 133.04423156 -8.15626085 133.03910623 -9.75 133.03125 C-10.48766602 133.03934692 -11.22533203 133.04744385 -11.98535156 133.05578613 C-17.13082166 132.96322681 -20.02121207 131.7107962 -24 128.5 C-29.05501392 123.10798516 -28.60132817 117.49164354 -28.5 110.5 C-28.51546875 109.43265625 -28.5309375 108.3653125 -28.546875 107.265625 C-28.51587629 101.03488377 -28.19313285 97.21535453 -24 92.5 C-20.23912363 89.09730233 -17.72596632 88.2937397 -12.7890625 88.3984375 C-11.8913916 88.41310059 -10.9937207 88.42776367 -10.06884766 88.44287109 C-9.38612793 88.46172363 -8.7034082 88.48057617 -8 88.5 C-8.00888245 87.45652405 -8.01776489 86.4130481 -8.0269165 85.33795166 C-8.10796883 75.50887419 -8.16794928 65.67986443 -8.20724869 55.85052872 C-8.22813214 50.7970208 -8.25646371 45.74378245 -8.30175781 40.69042969 C-8.34518839 35.81452532 -8.3691314 30.9388804 -8.37950897 26.06279755 C-8.38690535 24.20161606 -8.40134866 22.34044892 -8.42292023 20.47937775 C-8.45191744 17.87428496 -8.45595759 15.27026702 -8.45410156 12.66503906 C-8.46848267 11.89395813 -8.48286377 11.1228772 -8.49768066 10.32843018 C-8.47033829 6.78654054 -8.28557328 4.87165277 -6.09661865 2.02288818 C-3.82565201 0.37336157 -2.77327612 -0.04333244 0 0 Z M-12 104.5 C-12 108.46 -12 112.42 -12 116.5 C-4.08 116.5 3.84 116.5 12 116.5 C12 112.54 12 108.58 12 104.5 C4.08 104.5 -3.84 104.5 -12 104.5 Z " fill="#000000" transform="translate(328,311.5)"/>
<path d="M0 0 C0.66 -0.0103125 1.32 -0.020625 2 -0.03125 C5.01964678 0.77084368 6.09669179 2.02298336 8 4.5 C8.37407324 7.354035 8.50724398 9.81566763 8.45410156 12.66503906 C8.45468567 13.4849231 8.45526978 14.30480713 8.45587158 15.14953613 C8.4530883 17.85533211 8.42198549 20.56002185 8.390625 23.265625 C8.38316346 25.1432027 8.37747012 27.02078819 8.37347412 28.89837646 C8.35821091 33.83709258 8.31892313 38.7753372 8.2746582 43.71386719 C8.23372035 48.75449241 8.21546628 53.79519391 8.1953125 58.8359375 C8.15242959 68.72416535 8.08416988 78.61204345 8 88.5 C8.68271973 88.48114746 9.36543945 88.46229492 10.06884766 88.44287109 C11.415354 88.42087646 11.415354 88.42087646 12.7890625 88.3984375 C13.67803223 88.37958496 14.56700195 88.36073242 15.48291016 88.34130859 C20.40976759 88.65192521 22.99408808 91.36880968 26.1328125 94.8984375 C29.1782221 99.60968759 28.57842643 105.08857658 28.5 110.5 C28.51546875 111.56734375 28.5309375 112.6346875 28.546875 113.734375 C28.5168237 119.77468717 28.31589114 123.89638279 24 128.5 C19.3169381 132.27913013 15.62064392 133.09568859 9.75 133.03125 C8.97366211 133.0350769 8.19732422 133.03890381 7.39746094 133.04284668 C5.7636586 133.04555654 4.1298122 133.03826031 2.49609375 133.02148438 C0.00682104 133.00005871 -2.47956618 133.02131466 -4.96875 133.046875 C-6.56250632 133.04423156 -8.15626085 133.03910623 -9.75 133.03125 C-10.48766602 133.03934692 -11.22533203 133.04744385 -11.98535156 133.05578613 C-17.13082166 132.96322681 -20.02121207 131.7107962 -24 128.5 C-29.05501392 123.10798516 -28.60132817 117.49164354 -28.5 110.5 C-28.51546875 109.43265625 -28.5309375 108.3653125 -28.546875 107.265625 C-28.51587629 101.03488377 -28.19313285 97.21535453 -24 92.5 C-20.23912363 89.09730233 -17.72596632 88.2937397 -12.7890625 88.3984375 C-11.8913916 88.41310059 -10.9937207 88.42776367 -10.06884766 88.44287109 C-9.38612793 88.46172363 -8.7034082 88.48057617 -8 88.5 C-8.00888245 87.45652405 -8.01776489 86.4130481 -8.0269165 85.33795166 C-8.10796883 75.50887419 -8.16794928 65.67986443 -8.20724869 55.85052872 C-8.22813214 50.7970208 -8.25646371 45.74378245 -8.30175781 40.69042969 C-8.34518839 35.81452532 -8.3691314 30.9388804 -8.37950897 26.06279755 C-8.38690535 24.20161606 -8.40134866 22.34044892 -8.42292023 20.47937775 C-8.45191744 17.87428496 -8.45595759 15.27026702 -8.45410156 12.66503906 C-8.46848267 11.89395813 -8.48286377 11.1228772 -8.49768066 10.32843018 C-8.47033829 6.78654054 -8.28557328 4.87165277 -6.09661865 2.02288818 C-3.82565201 0.37336157 -2.77327612 -0.04333244 0 0 Z M-12 104.5 C-12 108.46 -12 112.42 -12 116.5 C-4.08 116.5 3.84 116.5 12 116.5 C12 112.54 12 108.58 12 104.5 C4.08 104.5 -3.84 104.5 -12 104.5 Z " fill="#000000" transform="translate(256,311.5)"/>
<path d="M0 0 C0.66 -0.0103125 1.32 -0.020625 2 -0.03125 C5.01964678 0.77084368 6.09669179 2.02298336 8 4.5 C8.37407324 7.354035 8.50724398 9.81566763 8.45410156 12.66503906 C8.45468567 13.4849231 8.45526978 14.30480713 8.45587158 15.14953613 C8.4530883 17.85533211 8.42198549 20.56002185 8.390625 23.265625 C8.38316346 25.1432027 8.37747012 27.02078819 8.37347412 28.89837646 C8.35821091 33.83709258 8.31892313 38.7753372 8.2746582 43.71386719 C8.23372035 48.75449241 8.21546628 53.79519391 8.1953125 58.8359375 C8.15242959 68.72416535 8.08416988 78.61204345 8 88.5 C8.68271973 88.48114746 9.36543945 88.46229492 10.06884766 88.44287109 C11.415354 88.42087646 11.415354 88.42087646 12.7890625 88.3984375 C13.67803223 88.37958496 14.56700195 88.36073242 15.48291016 88.34130859 C20.40976759 88.65192521 22.99408808 91.36880968 26.1328125 94.8984375 C29.1782221 99.60968759 28.57842643 105.08857658 28.5 110.5 C28.51546875 111.56734375 28.5309375 112.6346875 28.546875 113.734375 C28.5168237 119.77468717 28.31589114 123.89638279 24 128.5 C19.3169381 132.27913013 15.62064392 133.09568859 9.75 133.03125 C8.97366211 133.0350769 8.19732422 133.03890381 7.39746094 133.04284668 C5.7636586 133.04555654 4.1298122 133.03826031 2.49609375 133.02148438 C0.00682104 133.00005871 -2.47956618 133.02131466 -4.96875 133.046875 C-6.56250632 133.04423156 -8.15626085 133.03910623 -9.75 133.03125 C-10.48766602 133.03934692 -11.22533203 133.04744385 -11.98535156 133.05578613 C-17.13082166 132.96322681 -20.02121207 131.7107962 -24 128.5 C-29.05501392 123.10798516 -28.60132817 117.49164354 -28.5 110.5 C-28.51546875 109.43265625 -28.5309375 108.3653125 -28.546875 107.265625 C-28.51587629 101.03488377 -28.19313285 97.21535453 -24 92.5 C-20.23912363 89.09730233 -17.72596632 88.2937397 -12.7890625 88.3984375 C-11.8913916 88.41310059 -10.9937207 88.42776367 -10.06884766 88.44287109 C-9.38612793 88.46172363 -8.7034082 88.48057617 -8 88.5 C-8.00888245 87.45652405 -8.01776489 86.4130481 -8.0269165 85.33795166 C-8.10796883 75.50887419 -8.16794928 65.67986443 -8.20724869 55.85052872 C-8.22813214 50.7970208 -8.25646371 45.74378245 -8.30175781 40.69042969 C-8.34518839 35.81452532 -8.3691314 30.9388804 -8.37950897 26.06279755 C-8.38690535 24.20161606 -8.40134866 22.34044892 -8.42292023 20.47937775 C-8.45191744 17.87428496 -8.45595759 15.27026702 -8.45410156 12.66503906 C-8.46848267 11.89395813 -8.48286377 11.1228772 -8.49768066 10.32843018 C-8.47033829 6.78654054 -8.28557328 4.87165277 -6.09661865 2.02288818 C-3.82565201 0.37336157 -2.77327612 -0.04333244 0 0 Z M-12 104.5 C-12 108.46 -12 112.42 -12 116.5 C-4.08 116.5 3.84 116.5 12 116.5 C12 112.54 12 108.58 12 104.5 C4.08 104.5 -3.84 104.5 -12 104.5 Z " fill="#000000" transform="translate(184,311.5)"/>
<path d="M0 0 C8.80424509 5.41074591 13.59558412 13.92817741 16.625 23.5625 C19.29191571 36.5233706 17.98920172 50.08543499 11.07421875 61.52734375 C6.70931291 67.65703631 1.69409945 72.55026173 -5.87890625 74.0625 C-13.34384418 75.05920938 -19.25069303 74.38910459 -25.53515625 70.08203125 C-34.23818918 62.97319874 -38.84000731 53.58155464 -40.375 42.5625 C-41.24291458 29.71068797 -39.38162944 17.9567566 -31.375 7.5625 C-23.1232059 -1.15851377 -11.70216774 -5.09497959 0 0 Z M-17.9140625 18.7578125 C-22.50581373 24.42997579 -24.03591746 31.99573338 -23.6953125 39.1484375 C-22.7680437 46.13687793 -20.57309221 51.72706538 -15.375 56.5625 C-12.43996649 57.88544477 -12.43996649 57.88544477 -9.375 57.5625 C-3.99855814 54.61825803 -1.49711857 49.30041815 0.21484375 43.59765625 C1.85280412 35.47025289 0.45755035 27.87491201 -3.375 20.5625 C-5.28013623 18.20909642 -6.72127066 17.16579481 -9.375 15.5625 C-13.50655959 15.5625 -14.89384085 16.04421234 -17.9140625 18.7578125 Z " fill="#000000" transform="translate(459.375,335.4375)"/>
<path d="M0 0 C8.80424509 5.41074591 13.59558412 13.92817741 16.625 23.5625 C19.29191571 36.5233706 17.98920172 50.08543499 11.07421875 61.52734375 C6.70931291 67.65703631 1.69409945 72.55026173 -5.87890625 74.0625 C-13.34384418 75.05920938 -19.25069303 74.38910459 -25.53515625 70.08203125 C-34.23818918 62.97319874 -38.84000731 53.58155464 -40.375 42.5625 C-41.24291458 29.71068797 -39.38162944 17.9567566 -31.375 7.5625 C-23.1232059 -1.15851377 -11.70216774 -5.09497959 0 0 Z M-17.9140625 18.7578125 C-22.50581373 24.42997579 -24.03591746 31.99573338 -23.6953125 39.1484375 C-22.7680437 46.13687793 -20.57309221 51.72706538 -15.375 56.5625 C-12.4904892 57.97392752 -12.4904892 57.97392752 -9.375 57.5625 C-3.80356209 54.44249477 -1.97760368 50.44336114 -0.0703125 44.45703125 C1.97583459 35.93908185 0.6944305 28.32687353 -3.375 20.5625 C-5.28013623 18.20909642 -6.72127066 17.16579481 -9.375 15.5625 C-13.50655959 15.5625 -14.89384085 16.04421234 -17.9140625 18.7578125 Z " fill="#000000" transform="translate(75.375,335.4375)"/>
<path d="M0 0 C3.28643178 2.53951546 3.8263315 3.95798901 4.5 8 C3.84848755 11.9090747 2.95276931 13.33530575 0 16 C-1.46389976 16.48614582 -2.94584129 16.91969654 -4.4375 17.3125 C-8.89422633 18.66634954 -10.79155552 20.27474068 -13.0234375 24.34375 C-14.71854473 28.95444167 -15.36396423 33.76174014 -16.03125 38.609375 C-17.18814038 42.65849132 -18.44749265 43.83853469 -22 46 C-25.74665123 46.62444187 -27.38808642 46.36678767 -30.65234375 44.41015625 C-33 42 -33 42 -33.62890625 38.71484375 C-33.41951166 26.80398683 -31.13789242 16.17071027 -23 7 C-15.51537499 1.00472701 -9.66282233 -1.15848551 0 0 Z " fill="#000000" transform="translate(435,318)"/>
<path d="M0 0 C7.5782143 1.11568155 13.1699808 5.45805007 17.8125 11.4140625 C23.56236004 20.87547241 26.75104054 31.28439969 24.8125 42.4140625 C22.11936755 45.17013962 20.62339554 46.27891324 16.8125 46.9140625 C12.98782433 46.27661655 11.54054196 45.15981901 8.8125 42.4140625 C7.84375 39.0234375 7.84375 39.0234375 7.3125 35.1640625 C5.88442219 26.42236797 5.88442219 26.42236797 0.8125 19.4140625 C-1.71955172 18.146011 -4.1696916 17.20660117 -6.8828125 16.3984375 C-9.67248309 15.20691718 -10.65998709 14.00546619 -12.1875 11.4140625 C-12.72625486 7.79670842 -12.39486887 5.86829906 -10.875 2.5390625 C-7.21871265 -0.3519554 -4.5642061 -0.23063807 0 0 Z " fill="#000000" transform="translate(85.1875,317.5859375)"/>
</svg>
