<svg width="30" height="30" viewBox="0 0 30 30" fill="none" xmlns="http://www.w3.org/2000/svg">
<path fill-rule="evenodd" clip-rule="evenodd" d="M21.4218 11.179C20.9229 10.7133 20.2345 10.5 19.3981 10.5H15.6855V19.5H19.5507C20.4327 19.5 21.1607 19.2836 21.6975 18.8146L21.6986 18.8137L21.6996 18.8128C22.2389 18.3325 22.5 17.6816 22.5 16.8939C22.5 16.3495 22.3508 15.8656 22.0443 15.4561C21.8442 15.1836 21.5876 14.9637 21.2804 14.7936C21.4924 14.6344 21.6695 14.4478 21.8083 14.2326C22.0467 13.863 22.1595 13.4278 22.1595 12.9404C22.1595 12.2292 21.9165 11.6329 21.4218 11.179ZM16.9458 15.4873V18.2887H19.5272C20.1205 18.2887 20.5351 18.1522 20.811 17.9191C21.0823 17.6822 21.228 17.3528 21.228 16.8939C21.228 16.4055 21.0789 16.0779 20.8154 15.8606L20.8139 15.8594L20.8124 15.8581C20.5371 15.6247 20.1186 15.4873 19.5155 15.4873H16.9458ZM16.9458 14.2878H19.3511C19.9137 14.2878 20.2927 14.155 20.5352 13.9351C20.7772 13.7156 20.9109 13.4048 20.9109 12.964C20.9109 12.5612 20.7814 12.2693 20.5381 12.0548C20.2957 11.841 19.9155 11.7112 19.3511 11.7112H16.9458V14.2878ZM14.4696 10.501H8.5V11.7112H14.4696V10.501ZM14.4696 18.2898H8.5V19.5H14.4696V18.2898ZM14.4696 14.2854H8.5V15.4955H14.4696V14.2854Z" fill="url(#paint0_linear_411_1598)"/>
<path d="M15 25C20.5228 25 25 20.5228 25 15C25 9.47715 20.5228 5 15 5C9.47715 5 5 9.47715 5 15C5 20.5228 9.47715 25 15 25Z" stroke="url(#paint1_linear_411_1598)"/>
<defs>
<linearGradient id="paint0_linear_411_1598" x1="14.6711" y1="8.25787" x2="20.7196" y2="20.0401" gradientUnits="userSpaceOnUse">
<stop offset="0.15" stop-color="#024288"/>
<stop offset="1" stop-color="#AAFE69"/>
</linearGradient>
<linearGradient id="paint1_linear_411_1598" x1="13.7566" y1="-0.731649" x2="30.6947" y2="20.4792" gradientUnits="userSpaceOnUse">
<stop offset="0.15" stop-color="#024288"/>
<stop offset="1" stop-color="#AAFE69"/>
</linearGradient>
</defs>
</svg>
